<svg xmlns="http://www.w3.org/2000/svg" viewBox="0 0 400 320"><defs><style>.cls-1{fill:#58b3b2;}.cls-2{fill:#333;}.cls-3{fill:#c0e2e2;}.cls-4{fill:#2e3e5a;}.cls-5{fill:#fff;}.cls-6{fill:#e7892b;}.cls-7{fill:none;stroke:#fff;stroke-linecap:round;stroke-dasharray:4;}</style></defs><g id="Background_lines" data-name="Background lines"><path id="Line_215" data-name="Line 215" class="cls-1" d="M152,185.3H2.48a1,1,0,1,1,0-2H152a1,1,0,0,1,0,2Z"/><path id="Subtraction_18" data-name="Subtraction 18" class="cls-1" d="M319.25,110.14a1.82,1.82,0,0,1-1.11-.34,1,1,0,0,1,0-1.64l49.45-36.29a55.39,55.39,0,0,1,14.85-7.67,64.87,64.87,0,0,1,16.71-3.33v2.34a60.7,60.7,0,0,0-15.54,3.15,51.61,51.61,0,0,0-13.8,7.16l-49.45,36.29A1.9,1.9,0,0,1,319.25,110.14Z"/><path id="Subtraction_23" data-name="Subtraction 23" class="cls-1" d="M.39,127.14V124l13.89-12.85a21.4,21.4,0,0,1,29.62.5l10.94,10.79a1.16,1.16,0,1,1-1.63,1.65L42.27,113.28a18.87,18.87,0,0,0-26.42-.45L.39,127.14Z"/><g id="Group_7696" data-name="Group 7696"><g id="Group_7683" data-name="Group 7683"><path id="Path_3702" data-name="Path 3702" class="cls-1" d="M72.51,73.86A15.83,15.83,0,1,1,88.33,58,15.82,15.82,0,0,1,72.51,73.86Zm0-29.33A13.51,13.51,0,1,0,86,58,13.51,13.51,0,0,0,72.51,44.53Z"/></g><g id="Group_7684" data-name="Group 7684"><path id="Path_3703" data-name="Path 3703" class="cls-1" d="M72.51,34.17A1.16,1.16,0,0,1,71.35,33h0V25.87a1.16,1.16,0,1,1,2.32,0V33a1.16,1.16,0,0,1-1.16,1.16Z"/></g><g id="Group_7685" data-name="Group 7685"><path id="Path_3704" data-name="Path 3704" class="cls-1" d="M60,37.53A1.15,1.15,0,0,1,59,37l-3.59-6.19a1.16,1.16,0,0,1,2-1.16L61,35.79a1.15,1.15,0,0,1-.43,1.58A1,1,0,0,1,60,37.53Z"/></g><g id="Group_7686" data-name="Group 7686"><path id="Path_3705" data-name="Path 3705" class="cls-1" d="M50.84,46.68a1.19,1.19,0,0,1-.58-.15L44.07,43a1.16,1.16,0,0,1,1.11-2l0,0,6.19,3.58a1.16,1.16,0,0,1-.58,2.16Z"/></g><g id="Group_7687" data-name="Group 7687"><path id="Path_3706" data-name="Path 3706" class="cls-1" d="M47.49,59.2H40.34a1.16,1.16,0,1,1,0-2.32h7.15a1.16,1.16,0,0,1,0,2.32Z"/></g><g id="Group_7688" data-name="Group 7688"><path id="Path_3707" data-name="Path 3707" class="cls-1" d="M44.66,75.27a1.16,1.16,0,0,1-.59-2.16l6.19-3.58a1.16,1.16,0,1,1,1.28,1.93l-.12.07-6.19,3.58A1.14,1.14,0,0,1,44.66,75.27Z"/></g><g id="Group_7689" data-name="Group 7689"><path id="Path_3708" data-name="Path 3708" class="cls-1" d="M56.42,87a1.14,1.14,0,0,1-.58-.15,1.15,1.15,0,0,1-.43-1.58L59,79.12a1.16,1.16,0,0,1,2,1.16l-3.58,6.18A1.17,1.17,0,0,1,56.42,87Z"/></g><g id="Group_7690" data-name="Group 7690"><path id="Path_3709" data-name="Path 3709" class="cls-1" d="M72.51,91.35a1.16,1.16,0,0,1-1.16-1.16h0V83.05a1.16,1.16,0,0,1,2.32,0v7.14a1.16,1.16,0,0,1-1.16,1.16Z"/></g><g id="Group_7691" data-name="Group 7691"><path id="Path_3710" data-name="Path 3710" class="cls-1" d="M88.58,87a1.17,1.17,0,0,1-1-.57L84,80.28a1.14,1.14,0,0,1,.42-1.58,1.16,1.16,0,0,1,1.58.42l3.58,6.18a1.16,1.16,0,0,1-.42,1.58A1.1,1.1,0,0,1,88.58,87Z"/></g><g id="Group_7692" data-name="Group 7692"><path id="Path_3711" data-name="Path 3711" class="cls-1" d="M100.35,75.27a1.14,1.14,0,0,1-.58-.15l-6.18-3.58a1.16,1.16,0,1,1,1-2.07l.13.07,6.18,3.58a1.16,1.16,0,0,1-.58,2.16Z"/></g><g id="Group_7693" data-name="Group 7693"><path id="Path_3712" data-name="Path 3712" class="cls-1" d="M104.66,59.2H97.52a1.16,1.16,0,1,1,0-2.32h7.14a1.16,1.16,0,1,1,0,2.32Z"/></g><g id="Group_7694" data-name="Group 7694"><path id="Path_3713" data-name="Path 3713" class="cls-1" d="M94.17,46.68A1.15,1.15,0,0,1,93,45.53a1.16,1.16,0,0,1,.58-1l6.18-3.58a1.16,1.16,0,0,1,1.16,2l-6.18,3.57A1.06,1.06,0,0,1,94.17,46.68Z"/></g><g id="Group_7695" data-name="Group 7695"><path id="Path_3714" data-name="Path 3714" class="cls-1" d="M85,37.53a1.13,1.13,0,0,1-.57-.15A1.16,1.16,0,0,1,84,35.79h0l3.58-6.19a1.16,1.16,0,0,1,2,1.16L86,37A1.16,1.16,0,0,1,85,37.53Z"/></g></g><g id="Group_7848" data-name="Group 7848"><path id="Path_3715" data-name="Path 3715" class="cls-1" d="M291.4,115.12a1.21,1.21,0,0,1-.79-.3L250.9,78.19a35.09,35.09,0,0,0-49.62-.43l-.4.4-36.51,36.29a1.16,1.16,0,0,1-1.68-1.6l.05,0,36.5-36.29a37.37,37.37,0,0,1,52.85-.41l.42.41,39.68,36.59a1.16,1.16,0,0,1-.79,2Z"/></g><path id="Subtraction_22" data-name="Subtraction 22" class="cls-1" d="M194,182.51h0l-2.06-.18a49.22,49.22,0,0,0-.06-7.68,33,33,0,0,0-1.15-6.46,14.53,14.53,0,0,0-2.83-5.56,7.49,7.49,0,0,0-5.7-2.67h0c-.69,0-1.41,0-2.12,0-2.45,0-5.2.22-7,1.81l-1.83,1.6.13-2.45a8.73,8.73,0,0,0-2.15-6,11.09,11.09,0,0,0-6-3.68,19.08,19.08,0,0,0-4.32-.49,18.53,18.53,0,0,0-3.86.4c-2,.42-4.6,1.38-5.84,3.54l-1,1.78-.81-1.89A25.68,25.68,0,0,0,138.62,144a31,31,0,0,0-13.64-5.5,30.49,30.49,0,0,0-4.48-.32,33,33,0,0,0-10.47,1.7,29.26,29.26,0,0,0-12.22,7.6l-2.27,2.44.51-3.31a2.74,2.74,0,0,0-1-2.45,7.29,7.29,0,0,0-4.73-1.66,6.45,6.45,0,0,0-1.74.23,11.28,11.28,0,0,0-4.66,2.75,33.94,33.94,0,0,0-3.72,4.31l-.86,1.13-.81-1.17A8.63,8.63,0,0,0,74,146.58a10.49,10.49,0,0,0-3.2-.5,9,9,0,0,0-2.63.37c-3.68,1.09-6.25,4.56-5.85,7.9l.4,3.39-2.21-2.58c-1.51-1.77-3-3.61-4.39-5.39h0l0,0a90.67,90.67,0,0,0-10-11.2C42.58,135.35,35.33,130,26.38,130h-.57a18.47,18.47,0,0,0-10.42,3.6c-3,2.25-4.66,5.12-4.72,8.1l-.06,2.5-1.72-1.8a14.82,14.82,0,0,0-8.5-4.13v-2.11a17.78,17.78,0,0,1,8.47,3.41,13.36,13.36,0,0,1,5.3-7.65,20.57,20.57,0,0,1,11.6-4h.63c9.62,0,17.34,5.66,21.09,9a91.7,91.7,0,0,1,10.2,11.45l0,.05c.87,1.1,1.77,2.23,2.68,3.35a9.52,9.52,0,0,1,1.6-3.46,10.7,10.7,0,0,1,5.57-3.92,11.31,11.31,0,0,1,3.21-.45,12.46,12.46,0,0,1,3.83.6,11.12,11.12,0,0,1,4.68,2.88,28.36,28.36,0,0,1,3.84-4.13A12.83,12.83,0,0,1,88,140.7a8.56,8.56,0,0,1,2.3-.31,9.61,9.61,0,0,1,2.21.26,8.86,8.86,0,0,1,3.89,1.93,5.66,5.66,0,0,1,1.43,2,32,32,0,0,1,11.58-6.68,35.05,35.05,0,0,1,11.12-1.81,33,33,0,0,1,19.31,6.2,28.64,28.64,0,0,1,8.73,9.89,11.59,11.59,0,0,1,6.1-3.08,20.45,20.45,0,0,1,4.28-.43,20.79,20.79,0,0,1,4.78.53,13.11,13.11,0,0,1,7.11,4.38,11.24,11.24,0,0,1,2.54,5.5,14.76,14.76,0,0,1,6.71-1.23c.76,0,1.51,0,2.23,0a9.54,9.54,0,0,1,7.19,3.37,16.64,16.64,0,0,1,3.24,6.26,34.92,34.92,0,0,1,1.25,7,49.18,49.18,0,0,1,.06,8Z"/><path id="Subtraction_17" data-name="Subtraction 17" class="cls-1" d="M312.31,170.81h0l-2.08-.21c.9-8.91,3.22-16.65,6.89-23A39,39,0,0,1,328.52,135a37.58,37.58,0,0,1,10.67-5.19,29.57,29.57,0,0,1,4.46-1,18,18,0,0,1,10.92-3.81h.22a17.63,17.63,0,0,1,10.22,3.5,14.19,14.19,0,0,1,4.94,6.38,14.43,14.43,0,0,1,3.86-2.61,19.27,19.27,0,0,1,6.74-1.72c.51,0,1,0,1.53,0a17.34,17.34,0,0,1,10.24,3.08,11.89,11.89,0,0,1,4.79-6.59,16,16,0,0,1,1.36-.9v2.49l-.13.09c-2.66,1.95-4.15,4.42-4.21,7l-.05,2.48-1.74-1.77a14.36,14.36,0,0,0-10.26-3.77c-.45,0-.92,0-1.38.05-4.45.33-8.34,2.2-10.4,5l-1.45,2-.42-2.43a11.43,11.43,0,0,0-4.67-7,15.54,15.54,0,0,0-9-3.08h-.19a15.73,15.73,0,0,0-9.83,3.53l-.25.21-.33,0a23.51,23.51,0,0,0-4.46,1,35.29,35.29,0,0,0-10.07,4.92,37,37,0,0,0-10.74,11.91c-3.5,6.09-5.72,13.52-6.58,22.1Z"/><g id="Group_7697" data-name="Group 7697"><path id="Path_3715-2" data-name="Path 3715-2" class="cls-1" d="M181.82,141.1a1.21,1.21,0,0,1-.79-.3l-39.71-36.62a35.08,35.08,0,0,0-49.62-.44l-.4.41L54.79,140.43a1.16,1.16,0,0,1-1.68-1.6l0,0,36.5-36.29a37.37,37.37,0,0,1,52.85-.41l.42.41,39.68,36.59a1.16,1.16,0,0,1-.79,2Z"/></g><path id="Path_7901" data-name="Path 7901" class="cls-2" d="M231.62,135.63l0,0-.74.22.12,0Z"/></g><g id="Background_solid" data-name="Background solid"><path id="Union_1" data-name="Union 1" class="cls-3" d="M364,319.51H234.62c.09-4.7.94-8.49,2.53-11.25,2.06-3.6,5.36-5.44,9.8-5.44a19.52,19.52,0,0,1,3.05.26,49.36,49.36,0,0,0,7.58.71c5.07,0,6.84-1.34,8.48-3h0l.16-.16.06-.06c1.41-1.41,2.75-2.73,6.8-2.73a23.66,23.66,0,0,1,2.4.13c6.28.62,11.13,1.25,14.53,1.74a60,60,0,0,0-8.6-10.66c-1.49-1.47-3.06-2.91-4.58-4.3l0,0-1.34-1.23c-.26-.25-.6-.62-1-1.05a17.69,17.69,0,0,0-2.13-2.11c8.51,4.69,16.63,9.49,22.43,16.55-.66-2.54-1.42-5.2-2.25-7.88-2.27-7.33-4.55-13.78-7-19.71a144.17,144.17,0,0,0-9.18-18.77c1.89,3.17,3.88,6.35,5.81,9.44C288,269.31,294,279,298,289.36c-.23-1.78-.46-3.38-.69-4.9-1.42-9.16-3.2-18.18-4.76-25.79-.79-3.86-1.68-8-2.8-13.05-.16-.69-.31-1.38-.46-2.07l0-.12c-.35-1.58-.71-3.21-1.08-4.81-.08-.35-.15-.86-.23-1.44v0c-.05-.35-.1-.71-.16-1.08,4.9,16.07,10,33.25,13.71,51,0,.15.06.31.1.46a14.77,14.77,0,0,1,1.39-1.35,11.83,11.83,0,0,1,2.26-1.5,106.37,106.37,0,0,1,4.1-10.4,53.44,53.44,0,0,1,4.38-7.95,12.61,12.61,0,0,1,1.48-1.7,32.7,32.7,0,0,0-3.45-2.63c1.43.59,2.85,1.19,4.29,1.8a14.87,14.87,0,0,0,2.19-2.5c-.5.92-1,1.86-1.42,2.83,1.9.82,3.78,1.66,5.64,2.54-.41-.83-.86-1.65-1.35-2.44a28.73,28.73,0,0,0-3.37-4.17l0,0h0l0,0-.06-.05-.08-.09c-.76-.82-1.92-2.07-1.05-2.92a.89.89,0,0,1,.62-.25c1.34,0,3.33,2.56,4.09,3.52l0,0,.24.32-.6-.82A34.44,34.44,0,0,1,327.8,268c.33.62.65,1.25,1,1.88a56.25,56.25,0,0,1,10.49,7.39Q338,273.59,336.5,270c-5-12.1-11.24-24.65-19.8-35.59,4.49,5.69,9.34,11.29,13.89,17-1.13-1.61-2.28-3.21-3.4-4.78h0l-.05-.06-.08-.12c-1.42-2-2.88-4-4.27-6.05-.35-.5-.67-1-1-1.56v0a27.6,27.6,0,0,0-3.49-4.62c-.75-.76-1.6-1.52-2.33-2.19h0a29.17,29.17,0,0,1-4.13-4.26l.46.16.21.07.38.14.06,0,.32.12a16,16,0,0,1,4.91,3.33c.23.2.53.48.84.74,1.08.94,2.27,1.84,3.41,2.7l0,0c1.1.83,2.34,1.77,3.43,2.72,3.5,3,6.7,6.25,9.8,9.36l.08.07.1.1,0,.05c.91.92,1.73,1.74,2.55,2.55l.35.35c-.71-2.77-1.44-5.53-2.2-8.3-1.09-4-2.25-8.05-3.43-12.07-.64-2.16-1.27-4.32-1.92-6.48-.16-.52-.3-1.43-.49-2.36,4.62,11.44,9.12,22.89,12.94,34.48q2.16,2.52,3.95,5a62,62,0,0,1,4.07,6.46c.92-2.18,2-4.34,3.1-6.46a163.58,163.58,0,0,0-13-28.89c4.88,8.19,10.27,16.2,14.91,24.59v-.05c-.09-.41-.19-.83-.3-1.28-2.76-10.82-10.08-20-16.87-27.5l-3.35-3.66,0,0h0l-.23-.25,0,0h0c-6.13-6.67-12.47-13.56-16.62-21.28a28.34,28.34,0,0,1-3.05-8.26l.18,0a.49.49,0,0,1,.38.17c6.08,8.12,14.27,15.18,22.2,22h0a199,199,0,0,1,17.44,16.29l-1.23-5.61c-.52-2.33-1-4.67-1.57-7-.13-.57-.24-1.55-.4-2.55,1.72,5.66,3.43,11.32,5.07,17l1-19.46.11,0h0l0,0,.17-.06,0,0,.13-.05c3.21,4.82,3.51,10,3.35,14.87a111.77,111.77,0,0,0,.22,11.86l0,.06,0,0,0,0,0,0,.05.07q1.44,2.24,2.69,4.57a10.62,10.62,0,0,0,1.82-1.66c-.53.73-1,1.48-1.51,2.25A61.77,61.77,0,0,1,372,262c.51-1.34,1-2.66,1.6-4,2.79-13.56,5.63-27.92,5.87-30,.14-1.26.34-2.56.51-3.71v-.07a53,53,0,0,0,.78-7.95v-.42c-.07-13.88.41-21.29,1.43-22,.3,2,1.59,6.68,2.83,11.19v.07c1.27,4.58,2.46,8.9,2.69,10.62.6,4.47,1.84,12.61,3.28,22l0,.12v.07c1.39,9.14,3.12,20.51,4.53,30.3,2-9.3,2.65-18.87,3.17-28.67.12-2.15.17-4.33.21-6.25v-.15c.07-2.88.14-5.87.38-8.81,0-.14,0-.39,0-.75v0a45.64,45.64,0,0,1,.63-6.39V319.49H364.1l-.18.51C364,319.86,364,319.69,364,319.51ZM329.88,290.9a96.51,96.51,0,0,0-3.23-12.17c-.29-.91-.62-2-1-3.1l-.12-.4h0c-.41-1.36-.83-2.74-1.3-4.12-.45-.35-.9-.7-1.36-1-2.16-1.61-4.41-3.14-6.64-4.69a116.76,116.76,0,0,0-5.61,18.11,19.24,19.24,0,0,1,8,2.18,33,33,0,0,1,8.79-4.47,43.88,43.88,0,0,0-6.76,5.55,53.83,53.83,0,0,0,9.23,4.15Zm6.18-6.73v0l0,0c.71,1.27,1.52,2.72,2.29,4.14.07-.43.13-.86.2-1.3a63.46,63.46,0,0,0-4.3-6.12l-.07-.09c.62,1.14,1.24,2.25,1.83,3.29Z"/><path id="Subtraction_16" data-name="Subtraction 16" class="cls-3" d="M271.79,196.6h0a48.47,48.47,0,0,1,.06-7.62,33.17,33.17,0,0,1,1.2-6.54,14.92,14.92,0,0,1,3-5.69,8.42,8.42,0,0,1,6.28-2.9c.75,0,1.42,0,2.1,0,2.58,0,5.49.24,7.52,2-.25-4.64,3.59-9.21,8.74-10.4a20.32,20.32,0,0,1,4.46-.49,17.37,17.37,0,0,1,6.1,1,8,8,0,0,1,4.24,3.29,26.17,26.17,0,0,1,8.92-10.66,31.54,31.54,0,0,1,13.77-5.5,32.46,32.46,0,0,1,4.51-.32,34.22,34.22,0,0,1,12.64,2.46,29.17,29.17,0,0,1,10.28,6.87,3.39,3.39,0,0,1,.87-2.8,7.82,7.82,0,0,1,5.76-2.34,7.38,7.38,0,0,1,2,.26,12.08,12.08,0,0,1,5,2.89,34.06,34.06,0,0,1,3.76,4.3,10.66,10.66,0,0,1,11.19-3.57,9.39,9.39,0,0,1,5.24,3.9v31.6Z"/><path id="Subtraction_21" data-name="Subtraction 21" class="cls-3" d="M.45,319.55h0v-43a18.41,18.41,0,0,1,3.18,1,13.81,13.81,0,0,1,5.89,4.55A13.85,13.85,0,0,1,15,273.61,17.66,17.66,0,0,1,25.43,270h.22A17.91,17.91,0,0,1,37,274.14a62.6,62.6,0,0,1,15.93,4,34.37,34.37,0,0,1,11.4,7.24,20.44,20.44,0,0,1,6.11,12.72l2.1,21.27Z"/></g><g id="Core_illustration" data-name="Core illustration"><path id="Subtraction_37" data-name="Subtraction 37" class="cls-4" d="M204.92,319H88.14l72.7-29.6a33.49,33.49,0,0,0,5.36-2.06,16,16,0,0,0,3.75-2.45,5,5,0,0,0,1.85-3.29c.2-3-3.49-6.11-11-9.24-5.24-2.2-12.45-4.65-20.8-7.49-12.55-4.28-26.78-9.12-38.48-14.54-13.57-6.3-21-12.12-22.63-17.8a8.37,8.37,0,0,1-.14-4.33,11.45,11.45,0,0,1,2.29-4.45,20.33,20.33,0,0,1,6.09-4.81A54.05,54.05,0,0,1,96.53,215a163,163,0,0,1,25.94-5.63c19.62-2.92,42.35-4.37,62.4-5.64,18.73-1.19,34.91-2.22,41.08-4.15,2.34-.73,3.54-1.62,3.66-2.72.3-2.65-5.7-6.16-12.64-10.22a126.73,126.73,0,0,1-13.16-8.44c-4.42-3.43-6.77-6.5-7.18-9.38a7.38,7.38,0,0,1,2.31-6.19c3.43-3.65,9.93-7.22,19.32-10.61a226.55,226.55,0,0,1,28.59-7.88c19.7-4.26,38.73-6.58,43-6.58h0a4.94,4.94,0,0,1,4.19,1.85c.76,1,1.62,3,1.36,6.67a24.23,24.23,0,0,1-.65,4c-.16,0-16.95,2.05-33.69,5-9.88,1.77-17.88,3.53-23.75,5.23-7.35,2.12-11.4,4.16-12,6.06a1.92,1.92,0,0,0,.68,2.06c1.8,1.75,5.8,4.37,10.42,7.41,6.56,4.32,14.73,9.69,21,15.33a41.54,41.54,0,0,1,7.58,8.57c1.88,3,2.61,5.86,2.18,8.4-.49,2.81-2.42,5.37-5.74,7.59-3.64,2.44-9.07,4.56-16.13,6.29-24.29,6-52.67,7.7-73.4,8.95-8.11.5-15.11.91-20,1.5-5.31.62-7.85,1.4-8,2.46-.18,1.42,4,3.43,13,6.33,7.07,2.26,14.13,4.16,21,6,10.69,2.87,20.77,5.59,28.69,9.14a42,42,0,0,1,10.15,6.12,20.31,20.31,0,0,1,6,8.23,19.73,19.73,0,0,1,1.26,6.84,31,31,0,0,1-1.16,8.29,57.57,57.57,0,0,1-3.84,10,112.86,112.86,0,0,1-6.79,11.84L204.92,319Z"/><ellipse id="Ellipse_79" data-name="Ellipse 79" class="cls-5" cx="299.69" cy="116.27" rx="14.63" ry="13.59"/><path id="Path_3748" data-name="Path 3748" class="cls-6" d="M162.73,171a12.53,12.53,0,0,0-3.44,24.59l.65,2.51,1.21,4.62,1.21,4.64a.7.7,0,0,0,.68.52h0a.7.7,0,0,0,.67-.56l1-4.88,1-4.8.43-2.05A12.53,12.53,0,0,0,162.73,171Zm3,17.07a5.44,5.44,0,0,1-3.39.91,8.16,8.16,0,0,1-3.27-.61v-2a7.46,7.46,0,0,0,1.45.55,6.37,6.37,0,0,0,1.57.2,3,3,0,0,0,1.75-.4,1.46,1.46,0,0,0,.57-1.29,1.19,1.19,0,0,0-.65-1.13,4.81,4.81,0,0,0-2.08-.33h-.87v-1.84h.88a4,4,0,0,0,1.93-.34,1.27,1.27,0,0,0,.61-1.18c0-.86-.54-1.29-1.61-1.29a3.37,3.37,0,0,0-1.14.19,5.18,5.18,0,0,0-1.29.64L159,178.44a6.21,6.21,0,0,1,3.7-1.12,4.83,4.83,0,0,1,2.79.72,2.28,2.28,0,0,1,1,2,2.7,2.7,0,0,1-.65,1.8,3.37,3.37,0,0,1-1.81,1v0a3.58,3.58,0,0,1,2.08.83,2.36,2.36,0,0,1,.71,1.79,3,3,0,0,1-1.19,2.54Z"/><path id="Path_3785" data-name="Path 3785" class="cls-6" d="M322.4,114.8c-.95-12.33-11.11-22-23.14-22a23.3,23.3,0,0,0-23,22,23.6,23.6,0,0,0,4.82,15.76l6.22,8.87,3.44,4.9L295.4,151l2.28,3.25a2,2,0,0,0,1.63.87h.07a1.93,1.93,0,0,0,1.62-.87l16.51-23.64A24.4,24.4,0,0,0,322.4,114.8ZM309,116.3a9.77,9.77,0,0,1-9.79,9.69h-.08a9.77,9.77,0,0,1,.08-19.54h.08a9.74,9.74,0,0,1,9.71,9.77Z"/><path id="Path_7900" data-name="Path 7900" class="cls-6" d="M235.28,138.78l-2.07,3.11h2.71V140c0-.31,0-.77,0-1.38s0-.95.06-1H236A8.18,8.18,0,0,1,235.28,138.78Z"/><path id="Path_7902" data-name="Path 7902" class="cls-7" d="M168.49,319c17.94-14.52,33.24-29.69,32.72-38.38C200,260.47,116,241.23,116,241.23s-31.35-9.48,9.87-17.74,107.83-8,123.35-17.17-29.32-27.41-34.78-31.67-14.82-10.06,14.71-19.06,60.55-11.54,60.55-11.54"/><circle id="Ellipse_78" data-name="Ellipse 78" class="cls-5" cx="83.38" cy="226" r="9.4"/><ellipse id="Ellipse_80" data-name="Ellipse 80" class="cls-5" cx="224.98" cy="267.8" rx="10.97" ry="10.45"/><path id="Path_3749" data-name="Path 3749" class="cls-6" d="M92.88,215.51A14.11,14.11,0,1,0,79.63,239.6l3.46,13.24a.78.78,0,0,0,.76.58h0a.77.77,0,0,0,.74-.62l1.23-5.86L87,241.52l.4-1.92a14.07,14.07,0,0,0,5.51-24.09Zm-4.65,16.37H78.82v-2l3.38-3.41a27.63,27.63,0,0,0,2-2.13,4.56,4.56,0,0,0,.67-1.1,2.88,2.88,0,0,0,.2-1.05,1.55,1.55,0,0,0-.45-1.2,1.76,1.76,0,0,0-1.19-.39,3.33,3.33,0,0,0-1.52.36,7.91,7.91,0,0,0-1.54,1l-1.54-1.83A10.09,10.09,0,0,1,80.43,219a6,6,0,0,1,1.43-.54,7.77,7.77,0,0,1,1.73-.19,5.19,5.19,0,0,1,2.23.46,3.61,3.61,0,0,1,1.5,1.29,3.32,3.32,0,0,1,.53,1.89,4.48,4.48,0,0,1-.32,1.74,7,7,0,0,1-1,1.67,24,24,0,0,1-2.41,2.43l-1.73,1.63v.12h5.86Z"/><path id="Path_3786" data-name="Path 3786" class="cls-6" d="M225.62,252.53c-.31,0-.63,0-1,0a15.89,15.89,0,0,0-3,.29c-.29.05-.57.13-.85.2a15.64,15.64,0,0,0-4.09,28.69c.27.16.55.3.84.45a15.4,15.4,0,0,0,2.8,1.11l.3,1.16,3.54,13.54a.87.87,0,0,0,.84.66h0a.9.9,0,0,0,.84-.7L229,283.23a15.66,15.66,0,0,0-3.35-30.7Zm.52,23.09H223V267l0-1.42.05-1.55c-.53.52-.89.86-1.1,1l-1.72,1.38-1.52-1.9,4.82-3.83h2.6Z"/><path id="Path_3746" data-name="Path 3746" class="cls-6" d="M248.07,136.76a12.56,12.56,0,1,0-17.45,15.29l.08,0a12.76,12.76,0,0,0,2.05.79l1,3.77.71,2.73.48,1.82.9,3.45a.71.71,0,0,0,.68.52h0a.7.7,0,0,0,.67-.56l.85-4.08.4-1.93.64-3.06.56-2.66a12.61,12.61,0,0,0,5.68-3.45l.29-.31a13,13,0,0,0,2-3.07,12.69,12.69,0,0,0,1.12-4.61c0-.2,0-.4,0-.61A12.25,12.25,0,0,0,248.07,136.76Zm-8.47,7h-1.35v2.33h-2.33v-2.33h-4.8v-1.65l4.94-7.25h2.19v7.06h1.35Z"/></g></svg>