<svg xmlns="http://www.w3.org/2000/svg" width="400" height="320" viewBox="0 0 400 320"><g id="fb73d196-e064-40c6-ad82-a91d2e5f45fc" data-name="Background lines"><rect id="a30cee1f-465e-4c51-b514-c0771b6513e1" data-name="Rectangle 1539" x="92.25" y="124.53" width="106.42" height="62.98" style="fill:#c0e2e2"/><line id="b3fae943-8783-491c-855d-32340581014f" data-name="Line 705" x1="72.48" y1="191.4" x2="1.35" y2="191.4" style="fill:none;stroke:#58b3b2;stroke-linecap:round;stroke-linejoin:round;stroke-width:2px"/><g id="ec97e75d-e0e2-4b1f-b9cf-996d29b69776" data-name="Group 9669"><line id="e8e33515-c25a-4639-aa09-d21dad42d3fa" data-name="Line 707" x1="398.4" y1="245.11" x2="1.35" y2="245.11" style="fill:none;stroke:#58b3b2;stroke-linecap:round;stroke-linejoin:round;stroke-width:2px"/></g><g id="bf0b4523-57a0-4b44-9847-fb2da2a917f8" data-name="Group 9793"><path id="e4e50032-b852-434a-88ec-5235a57589b6" data-name="Rectangle 1492" d="M396.19,213.12H336.73a11.55,11.55,0,0,1,11.55-11.55h36.37a11.55,11.55,0,0,1,11.54,11.55Z" style="fill:none;stroke:#58b3b2;stroke-linecap:round;stroke-linejoin:round;stroke-width:2px"/><g id="e5c7c090-ab3b-419b-b10c-275bbab74a81" data-name="Group 9691"><line id="f046a022-3511-4ca4-baba-84c13a7ca09e" data-name="Line 729" x1="364.65" y1="197.07" x2="374.96" y2="164.2" style="fill:none;stroke:#58b3b2;stroke-linecap:round;stroke-linejoin:round;stroke-width:2px"/><line id="b54973ac-1b61-4005-865a-0cab715e7926" data-name="Line 730" x1="371.09" y1="197.07" x2="380.89" y2="165.82" style="fill:none;stroke:#58b3b2;stroke-linecap:round;stroke-linejoin:round;stroke-width:2px"/></g><g id="f14f18b4-d5a5-4955-b398-0fa250bc88b6" data-name="Group 9692"><path id="a7da2d7d-3eb1-42f4-a1cb-5c96d873550d" data-name="Path 7499" d="M374.68,150.41l-12-33.28h-3.5" style="fill:none;stroke:#58b3b2;stroke-linecap:round;stroke-linejoin:round;stroke-width:2px"/><path id="e0494380-a063-4cd2-998a-2080559b05d3" data-name="Path 7500" d="M380.59,148.73l-13.95-37h-9.58" style="fill:none;stroke:#58b3b2;stroke-linecap:round;stroke-linejoin:round;stroke-width:2px"/></g><circle id="a4c43049-64f8-41a6-8f46-f059da6a0b92" data-name="Ellipse 51" cx="380.25" cy="157.16" r="4.1" style="fill:none;stroke:#58b3b2;stroke-linecap:round;stroke-linejoin:round;stroke-width:2px"/><g id="a6349e32-4868-4a9a-ba01-7dda5e553673" data-name="Group 9693"><path id="b4d579c3-8a93-4fee-8304-72a4e5977105" data-name="Path 7501" d="M318.58,104.33a23.32,23.32,0,1,1,26.47,38.4h0Z" style="fill:none;stroke:#58b3b2;stroke-linecap:round;stroke-linejoin:round;stroke-width:2px"/><path id="bd23c40b-07ce-43e7-b1e6-c036f1f029d0" data-name="Path 7502" d="M327.48,117.13a7.89,7.89,0,0,0,8.71,12.75" style="fill:none;stroke:#58b3b2;stroke-linecap:round;stroke-linejoin:round;stroke-width:2px"/></g></g><g id="fc716c62-2637-4198-a13c-8295344efed3" data-name="Group 9795"><path id="b282b05f-2ed9-4584-b6ab-419589a3ce00" data-name="Path 7505" d="M85.82,182.78V122.33a5.27,5.27,0,0,1,5.27-5.27H200.7a5.27,5.27,0,0,1,5.27,5.27v60.45" style="fill:none;stroke:#58b3b2;stroke-linecap:round;stroke-linejoin:round;stroke-width:2px"/><path id="e31ae715-359b-4bab-bec8-26e0a283873a" data-name="Path 7506" d="M92.72,182.78V124H199.07v58.82" style="fill:none;stroke:#58b3b2;stroke-linecap:round;stroke-linejoin:round;stroke-width:2px"/><path id="efe8282c-32a7-4117-81d0-931ad6bc8d5e" data-name="Rectangle 1494" d="M131.34,188h29.1a3.47,3.47,0,0,1-3.47,3.47H134.82a3.48,3.48,0,0,1-3.48-3.47Z" style="fill:none;stroke:#58b3b2;stroke-linecap:round;stroke-linejoin:round;stroke-width:2px"/><path id="a8a12564-39b6-4167-b7f2-ec1cc40547a6" data-name="Rectangle 1495" d="M75.65,188H216.13a8.3,8.3,0,0,1-8.3,8.3H84a8.31,8.31,0,0,1-8.3-8.3Z" style="fill:none;stroke:#58b3b2;stroke-linecap:round;stroke-linejoin:round;stroke-width:2px"/></g><line id="e808acc4-0a33-4231-a985-e3c233d2875e" data-name="Line 704" x1="397.76" y1="191.4" x2="374.96" y2="191.4" style="fill:none;stroke:#58b3b2;stroke-linecap:round;stroke-linejoin:round;stroke-width:2px"/><line id="f369688e-c924-4aa2-903b-a86efa9f2bca" data-name="Line 767" x1="364.6" y1="191.4" x2="217.79" y2="191.4" style="fill:none;stroke:#58b3b2;stroke-linecap:round;stroke-linejoin:round;stroke-width:2px"/><g id="b0881ee9-77fb-4cb1-ab14-ffc45e3d35b6" data-name="Group 9672"><line id="b1f5497c-24c8-47fb-9150-f7ef6ad23ec1" data-name="Line 708" x1="142.72" y1="94.33" x2="2.12" y2="94.33" style="fill:none;stroke:#58b3b2;stroke-linecap:round;stroke-linejoin:round;stroke-width:2px"/></g><g id="e2d831d9-9902-4e84-a8ca-7bc25685c0e1" data-name="Group 9674"><rect id="baa72bf4-9465-40dd-a438-f7de66900ddd" data-name="Rectangle 1484" x="77.57" y="32.7" width="12.5" height="56.56" rx="2.74" style="fill:none;stroke:#58b3b2;stroke-linecap:round;stroke-linejoin:round;stroke-width:2px"/><g id="a4aa6cc4-1b6a-4052-82f8-0445803df624" data-name="Group 9673"><line id="aa48d88a-6c8a-4da2-b826-3b3c51fa51fe" data-name="Line 710" x1="86.11" y1="58.38" x2="81.54" y2="58.38" style="fill:none;stroke:#58b3b2;stroke-linecap:round;stroke-linejoin:round;stroke-width:2px"/><line id="b5a587f3-f2ed-4d31-ab79-d499773c982e" data-name="Line 711" x1="86.11" y1="63.49" x2="81.54" y2="63.49" style="fill:none;stroke:#58b3b2;stroke-linecap:round;stroke-linejoin:round;stroke-width:2px"/></g></g><g id="a3d89ed3-ec4c-4b62-be62-d5896dda958b" data-name="Group 9676"><rect id="fc3b6b77-01a2-41c9-94bc-59b85e76c722" data-name="Rectangle 1485" x="29.93" y="54.74" width="56.55" height="12.5" rx="2.74" transform="translate(-17.15 98.77) rotate(-72.96)" style="fill:none;stroke:#58b3b2;stroke-linecap:round;stroke-linejoin:round;stroke-width:2px"/><g id="ed8e57fc-efe3-4cd6-a70a-475a5a6b5da8" data-name="Group 9675"><line id="a2f410ee-a9c2-4d54-890c-520d06e18a6a" data-name="Line 712" x1="61.15" y1="59.16" x2="56.78" y2="57.83" style="fill:none;stroke:#58b3b2;stroke-linecap:round;stroke-linejoin:round;stroke-width:2px"/><line id="a4289d05-f0a9-433f-83a2-8f61f9c0d87e" data-name="Line 713" x1="59.65" y1="64.05" x2="55.28" y2="62.71" style="fill:none;stroke:#58b3b2;stroke-linecap:round;stroke-linejoin:round;stroke-width:2px"/></g></g><g id="ed7c5ac8-21cc-4f82-ab18-c973f7dc0dbb" data-name="Group 9678"><rect id="e6361d97-1fe0-4770-8d8b-78150d5f2d4b" data-name="Rectangle 1486" x="94.83" y="32.7" width="12.5" height="56.56" rx="2.74" style="fill:none;stroke:#58b3b2;stroke-linecap:round;stroke-linejoin:round;stroke-width:2px"/><g id="bb1943be-2955-471e-ae82-0b037bb61efc" data-name="Group 9677"><line id="e2ade10b-d60d-4769-89a8-af20810ad55d" data-name="Line 714" x1="103.36" y1="58.38" x2="98.79" y2="58.38" style="fill:none;stroke:#58b3b2;stroke-linecap:round;stroke-linejoin:round;stroke-width:2px"/><line id="bdaf4045-8c65-4825-bcca-bf27752dd877" data-name="Line 715" x1="103.36" y1="63.49" x2="98.79" y2="63.49" style="fill:none;stroke:#58b3b2;stroke-linecap:round;stroke-linejoin:round;stroke-width:2px"/></g></g><g id="a9133c98-d2d5-470b-b157-78218309c031" data-name="Group 9681"><rect id="aa97717f-b02b-4c20-b5a3-05492c57d6cf" data-name="Rectangle 1487" x="130.22" y="32.7" width="12.5" height="56.56" rx="2.74" style="fill:none;stroke:#58b3b2;stroke-linecap:round;stroke-linejoin:round;stroke-width:2px"/><rect id="f32b1e4e-aa9a-43bc-850d-12e6a597a4f6" data-name="Rectangle 1488" x="112.09" y="32.7" width="12.5" height="56.56" rx="2.74" style="fill:none;stroke:#58b3b2;stroke-linecap:round;stroke-linejoin:round;stroke-width:2px"/><g id="b11b4376-c7df-4753-9ce6-a3a3b400fbd3" data-name="Group 9679"><line id="a6028d28-d611-466f-9b61-703101a40124" data-name="Line 716" x1="138.76" y1="58.38" x2="134.19" y2="58.38" style="fill:none;stroke:#58b3b2;stroke-linecap:round;stroke-linejoin:round;stroke-width:2px"/><line id="b4f3eb30-da1b-4e12-bcfd-67d7fa3cbe10" data-name="Line 717" x1="138.76" y1="63.49" x2="134.19" y2="63.49" style="fill:none;stroke:#58b3b2;stroke-linecap:round;stroke-linejoin:round;stroke-width:2px"/></g><g id="eba4f6c9-7e6c-487e-9710-1515a6f9abd8" data-name="Group 9680"><line id="f0a0b8cc-14e9-4d5a-ab03-78bf89483a8d" data-name="Line 718" x1="120.62" y1="58.38" x2="116.05" y2="58.38" style="fill:none;stroke:#58b3b2;stroke-linecap:round;stroke-linejoin:round;stroke-width:2px"/><line id="b919d923-a338-4cfe-854f-f24f716d305b" data-name="Line 719" x1="120.62" y1="63.49" x2="116.05" y2="63.49" style="fill:none;stroke:#58b3b2;stroke-linecap:round;stroke-linejoin:round;stroke-width:2px"/></g></g><rect id="a06adc17-6c8e-46a3-8a78-234ea6da408e" data-name="Rectangle 1489" x="2.12" y="65.27" width="32.26" height="6.84" style="fill:none;stroke:#58b3b2;stroke-linecap:round;stroke-linejoin:round;stroke-width:2px"/><line id="b7e2d53a-e61c-4202-af11-ffaa5a00bb37" data-name="Line 720" x1="31.62" y1="72.11" x2="28.88" y2="88.94" style="fill:none;stroke:#58b3b2;stroke-linecap:round;stroke-linejoin:round;stroke-width:2px"/><line id="beee0ec3-17ad-4c0b-bc85-a0509d796329" data-name="Line 721" x1="4.88" y1="72.11" x2="7.62" y2="88.94" style="fill:none;stroke:#58b3b2;stroke-linecap:round;stroke-linejoin:round;stroke-width:2px"/><g id="ece73c81-5b4f-42f9-8715-b8e9bd1d8f8e" data-name="Group 9686"><line id="f80c2129-a06d-4f70-a49f-6a31c0943ddd" data-name="Line 722" x1="18.25" y1="61.11" x2="18.25" y2="31.9" style="fill:none;stroke:#58b3b2;stroke-linecap:round;stroke-linejoin:round;stroke-width:2px"/><g id="f8169174-3c82-4825-8496-0d585a15e23f" data-name="Group 9683"><g id="e29ec4cb-fcfb-4acd-89b5-6449f6d006eb" data-name="Group 9682"><path id="f5ce59f6-3216-4bdd-81a0-41320d265ce6" data-name="Path 7497" d="M21.39,37a10.74,10.74,0,0,1,10.42-2.76A10.74,10.74,0,0,1,18.62,47.42,10.77,10.77,0,0,1,21.39,37Z" style="fill:none;stroke:#58b3b2;stroke-linecap:round;stroke-linejoin:round;stroke-width:2px"/></g><line id="aaf26cbb-5872-4aa3-b46b-81db0b59eeda" data-name="Line 723" x1="18.62" y1="47.42" x2="25.22" y2="40.83" style="fill:none;stroke:#58b3b2;stroke-linecap:round;stroke-linejoin:round;stroke-width:2px"/></g><g id="b04bd445-982f-41af-9ad2-012fa3c1c412" data-name="Group 9685"><g id="eef7c5f7-f67b-45fb-ac35-bc50c669758e" data-name="Group 9684"><path id="bdc95a4d-6cc6-463b-b983-3c11cd9a8898" data-name="Path 7498" d="M15.1,46.15A10.74,10.74,0,0,0,4.68,43.38,10.75,10.75,0,0,0,17.87,56.57,10.71,10.71,0,0,0,15.1,46.15Z" style="fill:none;stroke:#58b3b2;stroke-linecap:round;stroke-linejoin:round;stroke-width:2px"/></g><line id="a1ccb9ca-64ca-4f26-847b-0fda187c727b" data-name="Line 724" x1="17.87" y1="56.57" x2="11.28" y2="49.97" style="fill:none;stroke:#58b3b2;stroke-linecap:round;stroke-linejoin:round;stroke-width:2px"/></g></g></g><g id="f3760c85-260c-42f5-a91c-329573e06644" data-name="Background solid"><path id="ab520004-f5c9-4328-8cd4-8ba70d9b3065" data-name="Subtraction 34" d="M229.41,281.36H348.63a16,16,0,0,1,16,16V320h-28.8v-5.84a4,4,0,0,0-4-4H246.22a4,4,0,0,0-4,4V320h-28.8V297.36a16,16,0,0,1,16-16Z" style="fill:#c0e2e2"/><path d="M49.18,316.32c0,.42,0,.84,0,1.26h.1C49.25,317.16,49.21,316.74,49.18,316.32Z" style="fill:#c0e2e2"/><path d="M49.27,317.58c0-.42-.06-.84-.09-1.26,0,.42,0,.84,0,1.26Z" style="fill:#c0e2e2"/><path d="M47.81,319.71h1.32c0-.71,0-1.43,0-2.13H47.6Q47.68,318.65,47.81,319.71Z" style="fill:#c0e2e2"/><path d="M94.24,205.77h0c-7.2-.38-16.11,3.82-16.88,11.65-.56,5.69-.39,11.36-1.26,17a45.57,45.57,0,0,1-4.15,13c-1.91,4-5.89,7.36-6.92,11.61a18.19,18.19,0,0,0,.61,9.17c1.1,3.21.52,3-1.69,5.66A73.44,73.44,0,0,0,53,291c0-.47.07-.93.09-1.4.75-12.77.4-25.64.32-38.43-.14-19.46-3.62-38.48-8.9-57.2-4.73-16.76-10.69-34.59-23-47.45h0L20,145c-.05.84-.65,1.42-.69,2.41a14.28,14.28,0,0,0,.61,1.92,48.78,48.78,0,0,1,.55,6,176.21,176.21,0,0,0,2.37,18.73,133.82,133.82,0,0,0,6.57,25.12c2.74,7,6.27,17.78,13.16,22,1.74,1.06,3.81.93,5.48,1.78s1-.09,1.58,2.09a46.85,46.85,0,0,1,.88,6.35c1.43,14.06,1,28.09,1.1,42.2a195.35,195.35,0,0,1-1.11,24.06c-.14.41-.28.83-.4,1.25a81.55,81.55,0,0,0-6.72-20.74A13,13,0,0,0,46.72,274c2.07-4,1.56-8.69-.23-12.65A27.33,27.33,0,0,0,41,253.52a23,23,0,0,0-4.78-6.38c-6.81-6.6-10.3-13.61-11.91-22.87C23.21,218.12,23,212,21.05,206c-3.36-10.37-10.33-18-21-19.72v69.95a20.32,20.32,0,0,1,6.5,3.46,40,40,0,0,1,6.26,7l0,0c6.22,9.08,15.35,16.89,27.09,13-.23-.42-.47-.9-.72-1.37a7.61,7.61,0,0,0-1.53-2.45,184,184,0,0,0-10.69-15.42c-1.53-2-5.33-5.56-5.72-7.43-.8-3.89,4.37,3.14,4.33,3.1a213.63,213.63,0,0,1,13.4,18.94v0a6,6,0,0,0,1.24,2.26,4,4,0,0,0,.59.82l.19.3.08-.07.13.09q1.14,2.29,2.17,4.62a68,68,0,0,1,5.33,21.12c-.25,1.16-.46,2.32-.64,3.49a48.91,48.91,0,0,0-4.9-13.21,23.1,23.1,0,0,0-5.25-6.39,14.56,14.56,0,0,0-7.29-3.27,11.64,11.64,0,0,0-1.18-.05c-.76,0-1.68,0-2.59.09a6.68,6.68,0,0,0-2.88-.85c-.4,0-.81-.05-1.23-.05a21.09,21.09,0,0,0-6.94,1.27,29.92,29.92,0,0,0-6.62,3.37,34.23,34.23,0,0,0-5.73,4.81A28.5,28.5,0,0,0,0,297.71V320H16.25c0-.53,0-1.07,0-1.6a34.72,34.72,0,0,1,1.25-9.35,16.18,16.18,0,0,1,5.07-7.76c.65-.56,1.34-1.1,2-1.62s1.22-.94,1.8-1.43l.28-.24c1.88-1.58,3.83-3.22,4.07-5.8a4,4,0,0,0-.69-3.15,3,3,0,0,0-2.33-.82,9.4,9.4,0,0,0-2,.24c-.1,0-.39.13-.77.27a15.15,15.15,0,0,1-3.94,1.12.7.7,0,0,1-.6-.2.6.6,0,0,1,0-.55c.23-.54,1-1,2.32-1.43,2.65-.29,5.14-.55,6.63-.55a5.17,5.17,0,0,1,1,.07,14.59,14.59,0,0,1,7.09,3.95,25.33,25.33,0,0,1,4.9,7.06,54.06,54.06,0,0,1,4.54,16.5c.11,1,.21,2,.31,3.17h1.93c0-.43,0-.85,0-1.27,0,.42.07.84.09,1.27h-.11c0,.7,0,1.41,0,2.12h2.06c.07-1.74.12-3.47.17-5.21,0-2.81-.07-5.62-.31-8.42.36-1.66.6-3.11.62-3.25l.12-.83c4.75-17.76,17.86-30.58,26.72-46.64.53-.91,1.67-3.1,2.46-4.54,1.25-2.28,2.51-6.61,4.2-8.3,3.19-3.19.26,3.21-.37,4.43-.78,1.55-1.64,3.19-2.45,4.54-3.68,6.28-7.79,13.12-11.59,19.59,16.43,3.74,28-16,32.42-29C106.8,231.7,111.16,206.69,94.24,205.77Z" style="fill:#c0e2e2"/></g><g id="e730939f-2367-44ae-bfb0-eb7745ae7789" data-name="Core illustration"><path id="fa3f8b02-5c76-4d32-a250-d23e86d0f93e" data-name="Subtraction 36" d="M132.29,320h51.1l7.32-18.44A10.4,10.4,0,0,0,190,291c-2.27-3.55-6.67-6.84-12.39-9.27A42.75,42.75,0,0,0,162,278.27a17,17,0,0,0-5,.64,6,6,0,0,0-3.13,2C149.37,287,142.31,299.81,132.29,320Z" style="fill:#9083bd"/><path id="f7341026-df8f-4780-bb31-651d1316a4a2" data-name="Subtraction 35" d="M156.79,320H212.2l-8-10.26c0-.08-1-2-.52-2.92a.86.86,0,0,1,.6-.51c.47-.08,47.34-7.72,63-10.49,15.41-2.72,25.06-8.22,30.34-17.32,5.19-8.92,6.35-21.64,3.65-40h-56c-11.06,3.2-92,39.31-92.82,39.68a12.35,12.35,0,0,0-5.36,5.13,18.31,18.31,0,0,0-2.08,6.89,28.33,28.33,0,0,0,1.25,11.92c0,.07,3.54,6.1,10.43,17.92Z" style="fill:#b2a8d3"/><g id="b5e61d08-7a19-461f-806d-3b34ae589c7a" data-name="Head Front Rad"><g id="e6ba9a23-7d64-4ad9-90ff-0802d369dfbc" data-name="Head"><path id="bf1a2596-29c2-4216-b65d-8866626510bc" data-name="Head-2" d="M292.18,131.48l-8.5-39.62c4.74-5.56,7.95-12.38,7.42-20-1.55-22-32.19-17.17-38.15-6.06s-5.26,39.3,2.45,41.28c3.07.79,9.62-1.15,16.28-5.17l-4.18,29.59Z" style="fill:#b28b67"/></g><path id="bbaeaf50-26ac-47f0-a531-4d44ee341217" data-name="hair" d="M301.86,64.51a7.76,7.76,0,0,0,1.61-3,31,31,0,0,0,1-3.4c.52-2.31.52-5-1.13-6.77a7.74,7.74,0,0,0-5.14-2.22,9.44,9.44,0,0,0-3.65.46c-1.16.38-2.16,1.14-3.29,1.61A14.57,14.57,0,0,0,289.56,44a7.22,7.22,0,0,0-5.37-3.5,10.66,10.66,0,0,0-6.54,1.32,15,15,0,0,0-1.49.89,4.33,4.33,0,0,1-1.3.71c-.53.13-.79-.18-1.14-.56a8,8,0,0,0-1.33-1.2A7.83,7.83,0,0,0,265,40.36a6.77,6.77,0,0,0-3,2.17c-.68.9-1.17,2.32-2.12,2.94-.4.27-.68-.08-1.05-.34-.54-.39-1.07-.82-1.62-1.2a7.41,7.41,0,0,0-2.53-1.14c-1.32-.31-3.15-.24-3.53,1.5a7.06,7.06,0,0,0,0,2c.07.9.13,1.8.21,2.7a19.74,19.74,0,0,0,.26,2,2.82,2.82,0,0,1,.13,1.38c-.19.45-1.07.19-1.45.21a5.85,5.85,0,0,0-2.18.48,2.38,2.38,0,0,0-1.33,1.22,2.24,2.24,0,0,0,0,1.15,3.58,3.58,0,0,1-.07,1.18c-1-.49-4.48-1.59-4.91.21a2.8,2.8,0,0,0,.43,1.78,15.37,15.37,0,0,0,1.62,2.46,22.17,22.17,0,0,0,4.31,4.18A2.83,2.83,0,0,0,246.69,69a2.91,2.91,0,0,0,.75,1,3.52,3.52,0,0,0,2.57.75,6.32,6.32,0,0,1,1.06-.09,2.84,2.84,0,0,0,.49.17,15,15,0,0,0,3.94-.5,13,13,0,0,0,6-3.15,1.9,1.9,0,0,1,1.39-.64c.52,0,1,.15,1.54.16a10.86,10.86,0,0,0,3.87-1.08,14.77,14.77,0,0,0,1.27,5.15c.57,1.26,1.76,1.44,2.94,1.55,3.75.35,7.52,0,11.28,0-3.64.82-7.4,1.16-11,2.12-1.63.44-.39,1.54.31,2.3a13.44,13.44,0,0,1,2.59,4.45c1.78-2.32,4.92-3.85,7.71-3.14,3.08.79,5.25,5,3.28,8-1.14,1.74-3.21,2.41-4.93,3.15,1.34,1.4,1.67,3.45,2.48,5.19a3.65,3.65,0,0,0,1.84,2.11,2.16,2.16,0,0,1,1,.39c.32.33.4.7.81,1a4.55,4.55,0,0,0,5.65-.43,3.68,3.68,0,0,0-.12-4.84c1.75-.73,4.93-1.66,4.23-4.39,3.79-.25,13-6.38,7.9-10.87,2.79-1.58,5.35-5.43,3.56-8.82-1.38-2.61-4.59-3.78-7.22-3.92" style="fill:#2e3e5a"/></g><path id="b0a38d5d-4050-44e7-99b3-c78d8d6e7807" data-name="Skin" d="M372.37,302.08c1.15-.71,2.4-3.38-.63-5.46-7.57-5.19-18.48-14.27-20-17.26-3-6.12-13.28-65.73-13.28-65.73l-21.5.09s19.91,64.27,21.5,68.21c2.38,5.9-2.65,14.88-4.81,19.71,3.4,1.52,5-.42,6.7-2.36s3.86-4.14,8.42-2c5.84,2.72,10.68,7,16.44,7A13.41,13.41,0,0,0,372.37,302.08ZM188.53,244.24l30.3-17.87-9.68-16.74L180,238.05a88.69,88.69,0,0,0-20.84,12c-1.22,1.47-2.55,4.29,3.18,3s11.82-2.33,12.89-.46-2.1,4.71-.1,7.15a.76.76,0,0,0,.61.3Q178.5,260.05,188.53,244.24Z" style="fill:#b28b67"/><path id="a37ce917-e5a7-4b1b-b891-99233365c4cb" data-name="Coat Back" d="M277.43,123.45l-8.89-1.53q-23,57.37-80.22,104.26l28.83,35C255.31,216.71,278.83,170.79,277.43,123.45Z" style="fill:#ffd964"/><path id="aa374909-2b1e-4894-a385-21c4d27d0254" data-name="Shirt" d="M316.19,240.8H237s27.53-70.73,27.53-120.17l23.89-3.76C307.18,148.78,312.48,188.08,316.19,240.8Z" style="fill:#e4e6ea"/><path id="f1e6abca-3336-4192-98eb-d9f5caefa559" data-name="Coat Front" d="M352.19,269.16c-8.66-97.73-63.27-151.22-63.27-151.22l0,0v0h-1.56c-2.8.1-8.53.35-8.53.35L273,134.79c-.91,30.17-10.7,121.62-10.7,121.62h51.85q-.14,6.29-.6,12.75Z" style="fill:#ffd964"/><path id="a138b379-5253-4d9c-a19a-5f59374cef7b" data-name="Shade" d="M299.73,256.82h14.44a262.46,262.46,0,0,0-3.9-50.92,275.38,275.38,0,0,1-3.49,28.48c-1.88,10.19-4.25,17.74-7,22.44Z" style="fill:#edc95b"/></g></svg>