<svg xmlns="http://www.w3.org/2000/svg" width="400" height="320" viewBox="0 0 400 320"><g id="a17d8c15-87ba-4e32-9167-3f26b133cd3d" data-name="Background lines"><g id="a76ab437-f4d3-448b-a553-a3b9d418994b" data-name="Group 9820"><circle id="a9920b9a-8051-442e-93a1-c163e9fea2b9" data-name="Ellipse 68" cx="342.75" cy="49.15" r="23.76" style="fill:none;stroke:#58b3b2;stroke-linecap:round;stroke-linejoin:round;stroke-width:2px"/><circle id="fd1316f9-d5cb-4b33-8fa8-b618b101cabb" data-name="Ellipse 69" cx="342.75" cy="49.15" r="1.33" style="fill:none;stroke:#58b3b2;stroke-linecap:round;stroke-linejoin:round;stroke-width:2px"/><ellipse id="fae18490-eab2-4bf7-98bc-68e94f807b3e" data-name="Ellipse 70" cx="342.75" cy="49.15" rx="31.87" ry="31.14" style="fill:none;stroke:#58b3b2;stroke-linecap:round;stroke-linejoin:round;stroke-width:2px"/><path id="ec1ea3e7-fd3a-4c48-927d-ce19b6d40cce" data-name="Path 7682" d="M343.05,29.23l0,19.92,12.53-3.06" style="fill:none;stroke:#58b3b2;stroke-linecap:round;stroke-linejoin:round;stroke-width:2px"/><line id="fd0bfffc-05cc-46c1-9c00-4baafc1b6966" data-name="Line 790" x1="312.02" y1="49.04" x2="318.27" y2="49.04" style="fill:none;stroke:#58b3b2;stroke-linecap:round;stroke-linejoin:round;stroke-width:2px"/><line id="ade0be9e-b305-40e3-a9b3-ceb2a4f046a0" data-name="Line 791" x1="342.98" y1="18.09" x2="342.98" y2="24.34" style="fill:none;stroke:#58b3b2;stroke-linecap:round;stroke-linejoin:round;stroke-width:2px"/><line id="a9dfb60e-a85d-46b9-82b1-83210cfd78cb" data-name="Line 792" x1="342.98" y1="73.74" x2="342.98" y2="79.99" style="fill:none;stroke:#58b3b2;stroke-linecap:round;stroke-linejoin:round;stroke-width:2px"/><line id="ad214a80-68d8-4882-bc68-c7d0f9419e19" data-name="Line 793" x1="312.02" y1="49.04" x2="318.27" y2="49.04" style="fill:none;stroke:#58b3b2;stroke-linecap:round;stroke-linejoin:round;stroke-width:2px"/><line id="fdf7735e-0e94-497a-a75a-189e0cd6146c" data-name="Line 794" x1="367.68" y1="49.04" x2="373.93" y2="49.04" style="fill:none;stroke:#58b3b2;stroke-linecap:round;stroke-linejoin:round;stroke-width:2px"/></g><line id="b27245bf-9f3b-432d-9392-1aa8bfe65073" data-name="Line 784" x1="80.44" y1="231.38" x2="398.71" y2="231.38" style="fill:none;stroke:#58b3b2;stroke-linecap:round;stroke-linejoin:round;stroke-width:2px"/><path id="ba38152f-13ad-4b1d-a6b5-b96f8619cd93" data-name="Subtraction 39" d="M5.92,231.58c-1.61-1.77-3.44-3.75-5.92-6.4V212.6c2,2.61,3.94,5.33,5.81,8.09-1.61-3.64-2.93-6.73-4-9.45C1,209.35.43,208,0,207V170.2A163.77,163.77,0,0,1,14.38,193h-2.1v38.61ZM61.48,193H44.41c11.16-15.13,26-28.84,40.28-42.09h0l.22-.2,0,0,.49-.45,6.36-5.91a36.06,36.06,0,0,0-5.11,8l0,.08c-.77,1.46-1.56,3-2.38,4.21q-1.41,2.16-2.83,4.32l-.39.6,0,.08-.26.4-.17.25c-2.06,3.14-4.4,6.7-6.63,10.15-4.41,6.8-8.6,13.74-12.43,20.6Zm-27.77,0H22.94c.72-3.78,1.65-7.62,2.83-11.73,1.52-5.28,3.47-11,6-17.47.58-1.5,1.16-3.32,1.78-5.24h0l.05-.15,0-.06,0-.12h0v0a91.33,91.33,0,0,1,5-13.1c2.5-4.93,5.35-8.19,8.7-10a.78.78,0,0,1,.36-.1c.35,0,.82.33,1.08,1.9a11,11,0,0,1,.17,1.9c0-.76-.22-2.73-1.22-2.73a1.36,1.36,0,0,0-.83.36c-2,2-3.47,5-4.56,9.17a92.7,92.7,0,0,0-1.9,11.23v0h0v0c-.3,2.36-.6,4.79-1,6.75-.11.56-.23,1.12-.35,1.68l-.08.42-.1.45-.26,1.24-.15.71h0c-1.7,8.08-3.46,16.42-4.76,24.78Z" style="fill:#c0e2e2"/><g id="ae66cb7f-e869-40e4-9532-11e03997a25f" data-name="Group 9817"><g id="fff01e54-f51e-405c-b60f-0bbe50568f06" data-name="Group 9814"><rect id="adcd2760-1943-4c8d-8128-fd73527355a6" data-name="Rectangle 1547" x="12.28" y="191.88" width="67" height="87.46" style="fill:none;stroke:#58b3b2;stroke-linecap:round;stroke-linejoin:round;stroke-width:2px"/><rect id="e02803c8-56b1-4888-a74e-b9bcade8f254" data-name="Rectangle 1548" x="23.89" y="204" width="43.76" height="63.2" style="fill:none;stroke:#58b3b2;stroke-linecap:round;stroke-linejoin:round;stroke-width:2px"/></g><g id="f9b90256-e022-488f-a4ac-49d1e39b03c0" data-name="Group 9816"><path id="a1522f8d-3b8d-4cb0-88e2-719e26653ec4" data-name="Path 7672" d="M35.33,230.09c-.28-.83-2.85-1.46-3.64-.21a1.88,1.88,0,0,0-.23,1.09,6.33,6.33,0,0,0,4.64,5.81c.15,0,.35.05.42-.08s-.24-.23-.2-.08" style="fill:none;stroke:#58b3b2;stroke-linecap:round;stroke-linejoin:round;stroke-width:2px"/><path id="b5371f7c-bb40-462a-b51b-fcc6962b3f8c" data-name="Path 7673" d="M58.76,229.45c.29-.83,3.19-.94,3.67-.2a2,2,0,0,1,.23,1.09c0,2.64-1.37,5.09-4,5.78" style="fill:none;stroke:#58b3b2;stroke-linecap:round;stroke-linejoin:round;stroke-width:2px"/><path id="af83ce94-5a1b-4c06-aa5c-3ff635b9064d" data-name="Path 7674" d="M58.76,229.45A3.84,3.84,0,0,0,56.53,227c-1.7-.7-5.23,1.2-5.23,1.2A29.8,29.8,0,0,0,46,226" style="fill:none;stroke:#58b3b2;stroke-linecap:round;stroke-linejoin:round;stroke-width:2px"/><path id="efc1d9fa-70f4-4978-9f14-17129227fb7b" data-name="Path 7675" d="M48.13,224a10.44,10.44,0,0,1-5,3.17,31.1,31.1,0,0,0,1.48-3.34,20.22,20.22,0,0,1-9.28,5.58" style="fill:none;stroke:#58b3b2;stroke-linecap:round;stroke-linejoin:round;stroke-width:2px"/><path id="fed7e4bb-6394-48c7-b22a-3246b8ec814e" data-name="Path 7676" d="M32.11,229.44a7.5,7.5,0,0,1,2.46-4.35,6.57,6.57,0,0,0-3.16.75c0-1.09,1.8-3.64,5.81-4.57" style="fill:none;stroke:#58b3b2;stroke-linecap:round;stroke-linejoin:round;stroke-width:2px"/><path id="ee9af52f-61fa-46b0-ad6b-f081758a34cf" data-name="Path 7677" d="M37.22,221.27a10.36,10.36,0,0,0-6.42-.73,16.37,16.37,0,0,1,14.8-4.13c-.59-.79-1.05-2.6-.73-2.55s7.67-.15,11,2c4.1,2.71,5.85,9.89,5.12,11.4a1.27,1.27,0,0,1,1.46-.17l-1.12,1.38" style="fill:none;stroke:#58b3b2;stroke-linecap:round;stroke-linejoin:round;stroke-width:2px"/><g id="a36eba1d-1c1a-4c69-8c97-032f3406c09f" data-name="Group 9815"><path id="e457986c-eded-469a-9096-fad91a907e95" data-name="Path 7678" d="M24.14,259.75a14.66,14.66,0,0,1,7.93-7c2-.78,7.49-1.93,7.49-4.74l.38-4.48" style="fill:none;stroke:#58b3b2;stroke-linecap:round;stroke-linejoin:round;stroke-width:2px"/><path id="fe5f942c-ac85-468f-9c38-06d3894537fc" data-name="Path 7679" d="M67.51,255.73c-.33-.3-.67-.59-1-.86a14.62,14.62,0,0,0-3.86-2.15c-2-.78-7.49-1.93-7.49-4.74l-.43-4" style="fill:none;stroke:#58b3b2;stroke-linecap:round;stroke-linejoin:round;stroke-width:2px"/><path id="b78c1f34-e594-4bf2-8128-48441fad6b1d" data-name="Path 7680" d="M38.65,252.2s9.76,6.4,16.71-.44" style="fill:none;stroke:#58b3b2;stroke-linecap:round;stroke-linejoin:round;stroke-width:2px"/></g><path id="ef85b9ea-5301-4264-88ca-d40650c56b52" data-name="Path 7681" d="M59,229.42c.08.51.12,1,.15,1.53.3,7.21-4.71,13.27-11.19,13.54s-12-5.36-12.28-12.57a8.27,8.27,0,0,1,0-2.33" style="fill:none;stroke:#58b3b2;stroke-linecap:round;stroke-linejoin:round;stroke-width:2px"/></g></g><line id="a1069845-c687-439e-b1c6-6642cc37a2c8" data-name="Line 797" x1="2.15" y1="231.38" x2="11.39" y2="231.38" style="fill:none;stroke:#58b3b2;stroke-linecap:round;stroke-linejoin:round;stroke-width:2px"/></g><g id="adfa69e4-8ea6-463d-84b3-c1ad871c11aa" data-name="Background solid"><g id="b37d6928-a2aa-4a90-a8e6-f28755c5d938" data-name="Plant Right"><path id="fd77976e-8511-4480-93d4-dc69462c4725" data-name="Leaf Me Alone " d="M293.43,162.07c7.4-.36,16.55,3.73,17.34,11.35.58,5.54.4,11.06,1.29,16.59a43.21,43.21,0,0,0,4.27,12.69c2,3.87,6.05,7.17,7.12,11.3a16.87,16.87,0,0,1-.64,8.93c-1.13,3.13-.53,2.88,1.74,5.51A71.13,71.13,0,0,1,335.8,245c4.07,8.86,6.74,19.23,5.24,28.93-.19,1.23-.42,5.66-2.21,6-2,.34-1.07-2.19-1-3,.68-5.22,1.28-9.78.46-15.07-3.18-20.43-18.65-33.89-28.73-51.22-.55-.9-1.72-3-2.54-4.43-1.28-2.22-2.57-6.44-4.31-8.08-3.27-3.1-.26,3.13.38,4.32.8,1.5,1.69,3.1,2.52,4.41,3.78,6.11,8,12.78,11.9,19.07-16.87,3.66-28.77-15.57-33.3-28.21-3.74-10.41-8.21-34.76,9.18-35.66" style="fill:#c0e2e2"/><path id="bb1f1d7a-92a0-4ba3-b531-ee32359f18af" data-name="Leaf Me Alone 2" d="M392.56,142.75c-12.37.93-20.3,8.66-24,19.48-2,5.83-2.22,11.81-3.33,17.8A37.36,37.36,0,0,1,353,202.29a22.62,22.62,0,0,0-4.9,6.22,26.64,26.64,0,0,0-5.66,7.66c-1.84,3.86-2.36,8.48-.23,12.32a12.72,12.72,0,0,0,3.47,4,75.94,75.94,0,0,0-8.23,35.63c.2,7.38.58,14.76,1,22.13.12,2,.8,5.24,1.82,1.92.93-3-.24-7.8-.35-11-.53-15.44-1-29.49,5.73-43.92q1.06-2.27,2.23-4.5l.13-.08.09.06a2.33,2.33,0,0,1,.19-.29,3.56,3.56,0,0,0,.6-.8,5.76,5.76,0,0,0,1.28-2.2v0a208.22,208.22,0,0,1,13.76-18.44s5.27-6.81,4.45-3c-.39,1.83-4.3,5.3-5.87,7.23a179.83,179.83,0,0,0-11,15,7.52,7.52,0,0,0-1.57,2.38c-.26.47-.5.93-.74,1.34,12.06,3.77,21.44-3.83,27.84-12.68l0,0a39.44,39.44,0,0,1,6.43-6.81c4.16-3.22,22.11-43,9.05-71.74" style="fill:#c0e2e2"/><path id="e973e5f3-0328-4269-b674-8494b3ac8896" data-name="Leaf Me Alone 3" d="M368.13,104.27c-12.69,12.52-18.82,29.88-23.67,46.21-5.43,18.23-9,36.74-9.15,55.69-.09,12.46-.44,25,.32,37.43a125,125,0,0,0,1.48,13.21c.06.36,1.71,10.11,3.29,7.84.9-1.29-1.69-10.12-1.89-11.59a181.27,181.27,0,0,1-1.3-25c.09-13.73-.34-27.4,1.13-41.08a44.61,44.61,0,0,1,.9-6.19c.55-2.13-.14-1.2,1.63-2s3.84-.7,5.63-1.73c7.08-4.07,10.71-14.52,13.53-21.38a126.49,126.49,0,0,0,6.75-24.47A164.7,164.7,0,0,0,369.22,113a44.34,44.34,0,0,1,.55-5.86,12.58,12.58,0,0,0,.63-1.88c0-1-.65-1.53-.7-2.34-.53.46-1.05.92-1.57,1.4" style="fill:#c0e2e2"/><path id="a3e403c5-d430-4731-9e0f-2256d975c4b9" data-name="Base" d="M298.93,271.05c.09,20.79,17.79,37.57,39.55,37.49,21.76.08,39.47-16.7,39.55-37.49" style="fill:#c0e2e2"/><path id="f88a37db-74fe-47f6-988b-8d0685d64f49" data-name="Leaf Me Alone 4" d="M381,284.92a6.34,6.34,0,0,1-4.15-1.38,7.81,7.81,0,0,1-2.23-3.41,27.77,27.77,0,0,1-1.18-8.44,32.64,32.64,0,0,0-1.27-9.11,16.19,16.19,0,0,0-1.94-4A16,16,0,0,0,367,255c-.67-.55-1.38-1.07-2.07-1.58s-1.25-.91-1.85-1.39l-.29-.23c-1.94-1.54-3.94-3.14-4.18-5.66a3.74,3.74,0,0,1,.7-3.06,3.17,3.17,0,0,1,2.4-.8,10.71,10.71,0,0,1,2,.23c.1,0,.39.13.79.27a16.06,16.06,0,0,0,4.05,1.09.74.74,0,0,0,.61-.2.55.55,0,0,0,0-.53c-.24-.54-1-1-2.39-1.4-2.71-.28-5.28-.53-6.81-.53a5.32,5.32,0,0,0-1,.06,15.34,15.34,0,0,0-7.29,3.85,24.53,24.53,0,0,0-5,6.88A50.13,50.13,0,0,0,342,268.1c-.12.92-.22,1.93-.33,3.08h-2.08a63.85,63.85,0,0,1,.77-7.43,46.08,46.08,0,0,1,5.53-15.32,22.88,22.88,0,0,1,5.4-6.22,15.43,15.43,0,0,1,7.49-3.19c.4,0,.81-.05,1.21,0,.79,0,1.73,0,2.67.08a7.32,7.32,0,0,1,2.94-.83c.42,0,.85,0,1.27,0a22.63,22.63,0,0,1,7.12,1.24,31,31,0,0,1,6.81,3.28,34.72,34.72,0,0,1,5.89,4.68,28.7,28.7,0,0,1,4.36,5.43,20.08,20.08,0,0,1,2.72,10.45A32.12,32.12,0,0,1,391.84,274a23.91,23.91,0,0,1-3.81,7.1c-2,2.49-4.38,3.77-6.93,3.8Z" style="fill:#c0e2e2"/></g></g><g id="bd6a3393-e56f-49e2-a65a-2f4b05bc9725" data-name="Core illustration"><path id="a6cb304a-ad31-4d60-8013-10a937f7dad3" data-name="Path 7684" d="M131.92,253.2v-4.75l20.4-16.56h94.83l20.4,16.56v4.34Z" style="fill:#abb2bd;stroke:#a1a8b6;stroke-linecap:round;stroke-linejoin:round;stroke-width:3px"/><path id="f2d2ddc5-1621-4b00-8c76-8b3b6b0ed5a4" data-name="Path 7683" d="M182.29,199.16l-4.3,29.7h43.56l-3.22-29.7Z" style="fill:#abb2bd"/><rect id="e8c7498c-5947-494b-85f4-1c24a0a242b1" data-name="Rectangle 1546" x="99.62" y="66.8" width="200.75" height="135.35" rx="5" style="fill:#2e3e5a"/><rect id="fd73588e-d91d-45d9-9afb-e6a8ea08a3ef" data-name="Rectangle 1545" x="110.3" y="76.89" width="179.21" height="101.92" style="fill:#86c985"/><circle id="f20cce0c-e7cb-4183-b015-c0f04a21ac14" data-name="Ellipse 67" cx="200" cy="189.7" r="4.7" style="fill:#fff"/><path id="aa8f9471-9bf4-4a7f-b1cc-2f711b3b3baf" data-name="Path 7651" d="M131.92,247.83l20.4-21.3h94.83l20.4,20.89Z" style="fill:#e4e6ea;stroke:#dadde2;stroke-linecap:round;stroke-linejoin:round;stroke-width:3px"/><g id="f4a4bbb3-7936-416c-95eb-17d533b00444" data-name="Group 9801"><line id="b91f0679-e014-474b-b679-5b62e79f78c7" data-name="Line 769" x1="155.29" y1="233.19" x2="159.74" y2="233.19" style="fill:none;stroke:#2e3e5a;stroke-linecap:round;stroke-linejoin:round;stroke-width:3px"/><line id="bb00c235-0f3f-47a7-a25d-8f677c263781" data-name="Line 770" x1="167.45" y1="233.19" x2="171.9" y2="233.19" style="fill:none;stroke:#2e3e5a;stroke-linecap:round;stroke-linejoin:round;stroke-width:3px"/><line id="b78e0c5b-e4aa-4785-814d-1bd0e0c1ee84" data-name="Line 771" x1="179.62" y1="233.19" x2="184.06" y2="233.19" style="fill:none;stroke:#2e3e5a;stroke-linecap:round;stroke-linejoin:round;stroke-width:3px"/></g><g id="b0a079fa-7f15-474f-ae20-71d297fe496d" data-name="Group 9802"><line id="b44fea52-97a1-4dc3-bf87-371c1f82a474" data-name="Line 772" x1="148.74" y1="240.4" x2="153.19" y2="240.4" style="fill:none;stroke:#2e3e5a;stroke-linecap:round;stroke-linejoin:round;stroke-width:3px"/><line id="eb00f06c-78ba-4911-94e7-796d587ca0d1" data-name="Line 773" x1="161.48" y1="240.4" x2="165.92" y2="240.4" style="fill:none;stroke:#2e3e5a;stroke-linecap:round;stroke-linejoin:round;stroke-width:3px"/><line id="fd5c5f49-473b-4947-89e1-060777259eca" data-name="Line 774" x1="173.64" y1="240.4" x2="178.08" y2="240.4" style="fill:none;stroke:#2e3e5a;stroke-linecap:round;stroke-linejoin:round;stroke-width:3px"/></g><g id="fda52c16-46bf-404a-adfc-efd3c3663068" data-name="Group 9803"><line id="fbc335e9-51b6-4c28-90cc-a52fc80df3b2" data-name="Line 775" x1="221.96" y1="240.4" x2="226.4" y2="240.4" style="fill:none;stroke:#2e3e5a;stroke-linecap:round;stroke-linejoin:round;stroke-width:3px"/><line id="bc40923d-7b5e-40a5-b712-496935295d9f" data-name="Line 776" x1="234.69" y1="240.4" x2="239.13" y2="240.4" style="fill:none;stroke:#2e3e5a;stroke-linecap:round;stroke-linejoin:round;stroke-width:3px"/><line id="a7565e2f-de16-45c8-8ca9-b3d4f3243b88" data-name="Line 777" x1="246.85" y1="240.4" x2="251.29" y2="240.4" style="fill:none;stroke:#2e3e5a;stroke-linecap:round;stroke-linejoin:round;stroke-width:3px"/></g><line id="b71a6633-d410-4c43-96f0-39c5fd4e617e" data-name="Line 778" x1="213.47" y1="240.4" x2="185.8" y2="240.4" style="fill:none;stroke:#2e3e5a;stroke-linecap:round;stroke-linejoin:round;stroke-width:3px"/><line id="e2cbe5e7-65a6-4937-b939-8c9541fc258b" data-name="Line 779" x1="191.78" y1="233.19" x2="196.22" y2="233.19" style="fill:none;stroke:#2e3e5a;stroke-linecap:round;stroke-linejoin:round;stroke-width:3px"/><line id="ba29eb82-4536-4c86-a7f1-a1e008ae37be" data-name="Line 780" x1="203.94" y1="233.19" x2="208.38" y2="233.19" style="fill:none;stroke:#2e3e5a;stroke-linecap:round;stroke-linejoin:round;stroke-width:3px"/><line id="bfd46a4c-e265-4bc6-8dea-427a7854ee10" data-name="Line 781" x1="216.1" y1="233.19" x2="220.54" y2="233.19" style="fill:none;stroke:#2e3e5a;stroke-linecap:round;stroke-linejoin:round;stroke-width:3px"/><line id="a011c2e7-32d6-42fc-b83e-30da7835fd49" data-name="Line 782" x1="228.26" y1="233.19" x2="232.7" y2="233.19" style="fill:none;stroke:#2e3e5a;stroke-linecap:round;stroke-linejoin:round;stroke-width:3px"/><line id="bd5ebdae-a818-4e78-9964-66ea4f043dba" data-name="Line 783" x1="240.42" y1="233.19" x2="244.86" y2="233.19" style="fill:none;stroke:#2e3e5a;stroke-linecap:round;stroke-linejoin:round;stroke-width:3px"/><rect id="f81a8894-88aa-4617-8d05-f116bdb028bc" data-name="Rectangle 1557" x="128.52" y="95.05" width="61.24" height="10.74" style="fill:#fff;isolation:isolate;opacity:0.949999988079071"/><rect id="bee7bff0-6147-4240-a029-b43710cce5d8" data-name="Rectangle 1560" x="209.1" y="93.97" width="61.24" height="61.24" style="fill:#fff;isolation:isolate;opacity:0.949999988079071"/><rect id="b983d2ce-fa32-4e89-bb8d-fc8ee035047d" data-name="Rectangle 1558" x="128.52" y="114.39" width="61.24" height="10.74" style="fill:#fff;isolation:isolate;opacity:0.949999988079071"/><rect id="a131173f-9592-4d34-9ca7-61f78f4bbf70" data-name="Rectangle 1559" x="128.52" y="133.73" width="61.24" height="10.74" style="fill:#fff;isolation:isolate;opacity:0.949999988079071"/><circle id="ba32671c-ce1d-4652-a666-ad20c87d8eef" data-name="Ellipse 71" cx="240.26" cy="125.13" r="20.42" style="fill:#ffd964"/><g id="e6edac84-e682-41ae-aecd-934bb49150f0" data-name="Icon tick"><path id="b61cc9bb-cc0e-4412-877f-5366fb035bf7" data-name="Tick" d="M229.52,126.49l2.54-2.59,4.5,4.51,11.87-11.87,2.57,2.55-14.44,14.45Z" style="fill:#2e3e5a"/></g></g></svg>