<svg xmlns="http://www.w3.org/2000/svg" xmlns:xlink="http://www.w3.org/1999/xlink" width="400" height="320" viewBox="0 0 400 320">
  <defs>
    <clipPath id="clip-Illo-guides">
      <rect width="400" height="320"/>
    </clipPath>
  </defs>
  <g id="Illo-guides" clip-path="url(#clip-Illo-guides)">
    <rect width="400" height="320" fill="#fff"/>
    <g id="Group_10051" data-name="Group 10051" transform="translate(-141.528 -1331.315)">
      <path id="Line_215" data-name="Line 215" d="M149.49,1H0A1,1,0,0,1-1,0,1,1,0,0,1,0-1H149.49a1,1,0,0,1,1,1A1,1,0,0,1,149.49,1Z" transform="translate(143.905 1513.991)" fill="#5ab3b3"/>
      <g id="Group_10044" data-name="Group 10044">
        <path id="Subtraction_18" data-name="Subtraction 18" d="M1.57,49.27a1.878,1.878,0,0,1-1.114-.342A.96.96,0,0,1,.463,47.29L49.912,11A55.286,55.286,0,0,1,64.755,3.323,64.762,64.762,0,0,1,81.474,0V2.34A60.682,60.682,0,0,0,65.927,5.483a51.871,51.871,0,0,0-13.8,7.165L2.677,48.934A1.882,1.882,0,0,1,1.57,49.27Z" transform="translate(459.526 1390.565)" fill="#5ab3b3" stroke="rgba(0,0,0,0)" stroke-miterlimit="10" stroke-width="1"/>
        <path id="Subtraction_23" data-name="Subtraction 23" d="M0,21.717V18.56L13.885,5.705a21.4,21.4,0,0,1,29.619.5L54.442,17a1.159,1.159,0,0,1-1.629,1.65L41.875,7.855A18.861,18.861,0,0,0,15.46,7.406L0,21.715Z" transform="translate(141.815 1435.115)" fill="#5ab3b3" stroke="rgba(0,0,0,0)" stroke-miterlimit="10" stroke-width="1"/>
        <g id="Group_7696" data-name="Group 7696" transform="translate(180.603 1354.403)">
          <g id="Group_7683" data-name="Group 7683" transform="translate(17.5 17.498)">
            <path id="Path_3702" data-name="Path 3702" d="M190.3,62.944a15.826,15.826,0,1,1,15.826-15.826A15.844,15.844,0,0,1,190.3,62.944Zm0-29.335a13.509,13.509,0,1,0,13.509,13.509A13.524,13.524,0,0,0,190.3,33.609Z" transform="translate(-174.476 -31.291)" fill="#5ab3b3"/>
          </g>
          <g id="Group_7684" data-name="Group 7684" transform="translate(32.167)">
            <path id="Path_3703" data-name="Path 3703" d="M188.293,25.65a1.158,1.158,0,0,1-1.159-1.159V17.349a1.159,1.159,0,0,1,2.318,0v7.143A1.158,1.158,0,0,1,188.293,25.65Z" transform="translate(-187.134 -16.19)" fill="#5ab3b3"/>
          </g>
          <g id="Group_7685" data-name="Group 7685" transform="translate(16.076 4.311)">
            <path id="Path_3704" data-name="Path 3704" d="M177.986,28.419a1.158,1.158,0,0,1-1-.578L173.4,21.65a1.159,1.159,0,0,1,2.006-1.161l3.579,6.19a1.159,1.159,0,0,1-.423,1.583A1.146,1.146,0,0,1,177.986,28.419Z" transform="translate(-173.247 -19.91)" fill="#5ab3b3"/>
          </g>
          <g id="Group_7686" data-name="Group 7686" transform="translate(4.313 16.075)">
            <path id="Path_3705" data-name="Path 3705" d="M170.444,35.96a1.147,1.147,0,0,1-.579-.156l-6.19-3.578a1.159,1.159,0,1,1,1.16-2.006l6.19,3.579a1.158,1.158,0,0,1-.581,2.161Z" transform="translate(-163.096 -30.062)" fill="#5ab3b3"/>
          </g>
          <g id="Group_7687" data-name="Group 7687" transform="translate(0 32.166)">
            <path id="Path_3706" data-name="Path 3706" d="M167.677,46.267h-7.144a1.159,1.159,0,0,1,0-2.318h7.144a1.159,1.159,0,1,1,0,2.318Z" transform="translate(-159.374 -43.949)" fill="#5ab3b3"/>
          </g>
          <g id="Group_7688" data-name="Group 7688" transform="translate(4.313 44.663)">
            <path id="Path_3707" data-name="Path 3707" d="M164.256,60.631a1.158,1.158,0,0,1-.582-2.161l6.19-3.579a1.158,1.158,0,1,1,1.16,2l-6.19,3.579A1.142,1.142,0,0,1,164.256,60.631Z" transform="translate(-163.096 -54.734)" fill="#5ab3b3"/>
          </g>
          <g id="Group_7689" data-name="Group 7689" transform="translate(16.076 53.831)">
            <path id="Path_3708" data-name="Path 3708" d="M174.406,71.137a1.146,1.146,0,0,1-.581-.155A1.159,1.159,0,0,1,173.4,69.4l3.579-6.176a1.159,1.159,0,0,1,2.006,1.163l-3.579,6.175A1.158,1.158,0,0,1,174.406,71.137Z" transform="translate(-173.247 -62.646)" fill="#5ab3b3"/>
          </g>
          <g id="Group_7690" data-name="Group 7690" transform="translate(32.167 57.176)">
            <path id="Path_3709" data-name="Path 3709" d="M188.293,74.992a1.158,1.158,0,0,1-1.159-1.159V66.691a1.159,1.159,0,0,1,2.318,0v7.143A1.158,1.158,0,0,1,188.293,74.992Z" transform="translate(-187.134 -65.532)" fill="#5ab3b3"/>
          </g>
          <g id="Group_7691" data-name="Group 7691" transform="translate(44.663 53.83)">
            <path id="Path_3710" data-name="Path 3710" d="M202.657,71.138a1.158,1.158,0,0,1-1-.577l-3.579-6.175a1.159,1.159,0,0,1,2.006-1.163L203.66,69.4a1.16,1.16,0,0,1-.422,1.584A1.149,1.149,0,0,1,202.657,71.138Z" transform="translate(-197.918 -62.645)" fill="#5ab3b3"/>
          </g>
          <g id="Group_7692" data-name="Group 7692" transform="translate(53.831 44.664)">
            <path id="Path_3711" data-name="Path 3711" d="M213.163,60.631a1.143,1.143,0,0,1-.579-.156L206.408,56.9a1.159,1.159,0,1,1,1.162-2l6.175,3.579a1.159,1.159,0,0,1-.583,2.161Z" transform="translate(-205.83 -54.734)" fill="#5ab3b3"/>
          </g>
          <g id="Group_7693" data-name="Group 7693" transform="translate(57.176 32.166)">
            <path id="Path_3712" data-name="Path 3712" d="M217.017,46.267h-7.143a1.159,1.159,0,1,1,0-2.318h7.143a1.159,1.159,0,1,1,0,2.318Z" transform="translate(-208.716 -43.949)" fill="#5ab3b3"/>
          </g>
          <g id="Group_7694" data-name="Group 7694" transform="translate(53.831 16.075)">
            <path id="Path_3713" data-name="Path 3713" d="M206.99,35.96a1.158,1.158,0,0,1-.582-2.161l6.175-3.579a1.159,1.159,0,0,1,1.162,2.006L207.57,35.8A1.151,1.151,0,0,1,206.99,35.96Z" transform="translate(-205.83 -30.062)" fill="#5ab3b3"/>
          </g>
          <g id="Group_7695" data-name="Group 7695" transform="translate(44.664 4.311)">
            <path id="Path_3714" data-name="Path 3714" d="M199.076,28.419a1.145,1.145,0,0,1-.578-.156,1.158,1.158,0,0,1-.423-1.583l3.579-6.19a1.159,1.159,0,0,1,2.006,1.161l-3.579,6.19A1.158,1.158,0,0,1,199.076,28.419Z" transform="translate(-197.918 -19.91)" fill="#5ab3b3"/>
          </g>
        </g>
        <g id="Group_7848" data-name="Group 7848" transform="translate(303.815 1395.058)">
          <path id="Path_3715" data-name="Path 3715" d="M196.2,105.473a1.153,1.153,0,0,1-.785-.307L155.708,68.545a35.09,35.09,0,0,0-50.028-.03L69.174,104.8a1.159,1.159,0,1,1-1.634-1.643l36.506-36.285a37.371,37.371,0,0,1,53.265,0l39.678,36.591a1.158,1.158,0,0,1-.786,2.01Z" transform="translate(-67.198 -55.717)" fill="#5ab3b3"/>
        </g>
        <path id="Subtraction_22" data-name="Subtraction 22" d="M196.227,54.579h0l-2.081-.188a48.416,48.416,0,0,0-.062-7.673,32.724,32.724,0,0,0-1.163-6.46,14.607,14.607,0,0,0-2.869-5.564,7.629,7.629,0,0,0-5.776-2.665h-.006c-.7-.019-1.424-.039-2.147-.039-2.482,0-5.269.215-7.118,1.807l-1.861,1.6.135-2.453A8.621,8.621,0,0,0,171.1,26.97a11.285,11.285,0,0,0-6.072-3.689,19.9,19.9,0,0,0-4.38-.481,18.907,18.907,0,0,0-3.908.393c-2,.424-4.658,1.384-5.919,3.545l-1.037,1.777-.823-1.886a25.877,25.877,0,0,0-8.892-10.588,31.663,31.663,0,0,0-13.82-5.5,32.342,32.342,0,0,0-4.541-.319,34.031,34.031,0,0,0-10.607,1.7,29.688,29.688,0,0,0-12.382,7.607l-2.3,2.437.512-3.315a2.75,2.75,0,0,0-1.058-2.45,7.469,7.469,0,0,0-4.793-1.655,6.616,6.616,0,0,0-1.765.227,11.562,11.562,0,0,0-4.725,2.754,33.473,33.473,0,0,0-3.77,4.307l-.871,1.127L79.127,21.8a8.7,8.7,0,0,0-4.544-3.151,10.687,10.687,0,0,0-3.243-.508,9.519,9.519,0,0,0-2.669.371c-3.733,1.09-6.339,4.56-5.934,7.9l.412,3.394L60.91,27.222c-1.532-1.767-3.014-3.606-4.448-5.384l-.009-.011-.026-.032A90.793,90.793,0,0,0,46.321,10.6C42.747,7.42,35.4,2.09,26.336,2.09c-.192,0-.387,0-.578.007a18.875,18.875,0,0,0-10.56,3.6c-3.024,2.246-4.725,5.121-4.79,8.094L10.354,16.3l-1.743-1.8A15.069,15.069,0,0,0,0,10.365V8.256a18.1,18.1,0,0,1,8.575,3.412,13.409,13.409,0,0,1,5.376-7.652A21.022,21.022,0,0,1,25.706.008C25.916,0,26.129,0,26.339,0c9.749,0,17.574,5.66,21.371,9.035A92.541,92.541,0,0,1,58.052,20.482l.046.057c.883,1.095,1.8,2.227,2.721,3.342a9.353,9.353,0,0,1,1.622-3.459,10.827,10.827,0,0,1,5.644-3.917,11.619,11.619,0,0,1,3.254-.453,12.765,12.765,0,0,1,3.877.606,11.3,11.3,0,0,1,4.747,2.876,28.334,28.334,0,0,1,3.883-4.129,13.046,13.046,0,0,1,4.9-2.639,8.724,8.724,0,0,1,2.333-.308,10.141,10.141,0,0,1,2.236.255,8.986,8.986,0,0,1,3.937,1.932,5.444,5.444,0,0,1,1.45,1.978,32.674,32.674,0,0,1,11.742-6.682,36.144,36.144,0,0,1,11.262-1.807,34.429,34.429,0,0,1,4.832.339,33.791,33.791,0,0,1,14.736,5.864,28.667,28.667,0,0,1,8.846,9.892,11.831,11.831,0,0,1,6.181-3.081,20.976,20.976,0,0,1,4.34-.437,22.01,22.01,0,0,1,4.849.533,13.383,13.383,0,0,1,7.2,4.377,11.194,11.194,0,0,1,2.578,5.5,15.344,15.344,0,0,1,6.8-1.228c.764,0,1.524.021,2.259.041a9.746,9.746,0,0,1,7.286,3.368,16.6,16.6,0,0,1,3.277,6.268,34.752,34.752,0,0,1,1.273,6.955,49.816,49.816,0,0,1,.062,8.047Z" transform="translate(141.815 1454.65)" fill="#5ab3b3"/>
        <path id="Subtraction_17" data-name="Subtraction 17" d="M2.079,45.762h0L0,45.553c.9-8.912,3.215-16.651,6.891-23A39.039,39.039,0,0,1,18.29,9.976,37.534,37.534,0,0,1,28.962,4.793a28.36,28.36,0,0,1,4.462-.984A17.875,17.875,0,0,1,44.335,0h.22A17.6,17.6,0,0,1,54.779,3.5a14.223,14.223,0,0,1,4.944,6.381,14.276,14.276,0,0,1,3.86-2.614,19.233,19.233,0,0,1,6.734-1.715c.508-.037,1.022-.056,1.528-.056A17.373,17.373,0,0,1,82.088,8.576a11.943,11.943,0,0,1,4.793-6.591c.43-.314.886-.614,1.355-.892v2.49l-.124.09c-2.659,1.941-4.154,4.415-4.21,6.967l-.054,2.474L82.114,11.35a14.36,14.36,0,0,0-10.26-3.768c-.458,0-.923.017-1.384.051-4.455.325-8.343,2.2-10.4,5.016l-1.455,1.99-.418-2.43a11.445,11.445,0,0,0-4.667-7.038,15.487,15.487,0,0,0-9-3.08h-.192a15.7,15.7,0,0,0-9.827,3.53l-.252.207-.325.027a24.458,24.458,0,0,0-4.468.969A35.485,35.485,0,0,0,19.4,11.75,37.025,37.025,0,0,0,8.662,23.66c-3.5,6.084-5.719,13.52-6.583,22.1Z" transform="translate(451.718 1440.672)" fill="#5ab3b3"/>
        <g id="Group_7697" data-name="Group 7697" transform="translate(194.235 1421.039)">
          <path id="Path_3715-2" data-name="Path 3715" d="M196.2,105.473a1.153,1.153,0,0,1-.785-.307L155.708,68.545a35.09,35.09,0,0,0-50.028-.03L69.174,104.8a1.159,1.159,0,1,1-1.634-1.643l36.506-36.285a37.371,37.371,0,0,1,53.265,0l39.678,36.591a1.158,1.158,0,0,1-.786,2.01Z" transform="translate(-67.198 -55.717)" fill="#5ab3b3"/>
        </g>
      </g>
    </g>
    <path id="Subtraction_37" data-name="Subtraction 37" d="M126.344,181.434H9.57l72.7-29.6a33.978,33.978,0,0,0,5.356-2.058,16.076,16.076,0,0,0,3.751-2.45,5.042,5.042,0,0,0,1.848-3.29c.2-3-3.488-6.112-10.955-9.242-5.238-2.2-12.449-4.65-20.8-7.492-12.555-4.274-26.783-9.117-38.486-14.542C9.42,106.468,2.016,100.647.355,94.963A8.412,8.412,0,0,1,.22,90.637a11.364,11.364,0,0,1,2.288-4.448A20.363,20.363,0,0,1,8.6,81.372a54.051,54.051,0,0,1,9.363-3.924,162.577,162.577,0,0,1,25.933-5.632c19.621-2.924,42.349-4.369,62.4-5.643,18.734-1.19,34.911-2.219,41.083-4.147,2.339-.731,3.537-1.621,3.662-2.723.3-2.644-5.7-6.154-12.644-10.22a126.2,126.2,0,0,1-13.16-8.441c-4.415-3.431-6.764-6.5-7.181-9.378a7.354,7.354,0,0,1,2.314-6.185c3.431-3.654,9.931-7.227,19.319-10.619a227.277,227.277,0,0,1,28.589-7.876C187.98,2.324,207.013,0,211.27,0h.009a4.973,4.973,0,0,1,4.192,1.856c.761,1,1.614,2.963,1.355,6.669a23.664,23.664,0,0,1-.648,4.045c-.157.019-16.947,2.053-33.691,5.047-9.882,1.767-17.874,3.525-23.753,5.226-7.349,2.125-11.4,4.166-12.037,6.065a1.921,1.921,0,0,0,.682,2.06c1.8,1.744,5.8,4.37,10.421,7.411,6.563,4.317,14.732,9.69,21.015,15.329a41.464,41.464,0,0,1,7.585,8.567c1.879,3.035,2.611,5.861,2.175,8.4-.483,2.811-2.413,5.365-5.736,7.589-3.642,2.438-9.067,4.556-16.126,6.294-24.295,5.984-52.676,7.7-73.4,8.949C85.2,94,78.2,94.418,73.277,95c-5.311.626-7.846,1.409-7.978,2.464-.178,1.419,3.969,3.432,13.051,6.334,7.071,2.26,14.128,4.158,20.952,5.994,10.682,2.874,20.771,5.588,28.689,9.145a42.072,42.072,0,0,1,10.149,6.12,20.237,20.237,0,0,1,6.04,8.226,19.756,19.756,0,0,1,1.256,6.844,30.591,30.591,0,0,1-1.157,8.289,57.5,57.5,0,0,1-3.839,9.954,110.99,110.99,0,0,1-6.791,11.84c-2.637,4.056-5.094,7.833-7.3,11.226Z" transform="translate(79.559 139.059)" fill="#2e3e5a"/>
    <path id="Path_7900" data-name="Path 7900" d="M247.756,77.071l-2.063,3.111H248.4V78.276c0-.317.014-.778.039-1.383s.046-.955.061-1.053h-.061A8.579,8.579,0,0,1,247.756,77.071Z" transform="translate(-11.492 63.2)" fill="#cc77b1"/>
    <path id="Path_7901" data-name="Path 7901" d="M242.36,85.637l-.041-.03c-.248.071-.5.148-.745.22a1.078,1.078,0,0,0,.124-.017C241.915,85.748,242.143,85.7,242.36,85.637Z" transform="translate(-13.845 68.778)" fill="#333"/>
    <path id="Path_7902" data-name="Path 7902" d="M4044.193,3083.564c17.939-14.524,33.245-29.689,32.723-38.386-1.211-20.177-85.173-39.415-85.173-39.415s-31.344-9.478,9.867-17.739,107.831-8.012,123.356-17.177-29.322-27.407-34.777-31.669-14.823-10.055,14.708-19.053,60.547-11.54,60.547-11.54" transform="translate(-3874.717 -2763.039)" fill="none" stroke="#fff" stroke-linecap="round" stroke-width="1" stroke-dasharray="4"/>
    <circle id="Ellipse_78" data-name="Ellipse 78" cx="9.405" cy="9.405" r="9.405" transform="translate(74.964 218.084)" fill="#fff"/>
    <ellipse id="Ellipse_80" data-name="Ellipse 80" cx="10.972" cy="10.45" rx="10.972" ry="10.45" transform="translate(214.992 258.838)" fill="#fff"/>
    <path id="Union_1" data-name="Union 1" d="M131.192,127.422H0c.1-4.769.959-8.608,2.565-11.415C4.657,112.354,8,110.5,12.51,110.5a19.76,19.76,0,0,1,3.089.258,49.808,49.808,0,0,0,7.688.718c5.141,0,6.935-1.359,8.6-3l.01-.01.162-.159.058-.06c1.434-1.425,2.788-2.771,6.9-2.771.729,0,1.547.044,2.434.131,6.374.633,11.293,1.267,14.738,1.765a61.1,61.1,0,0,0-8.72-10.8c-1.513-1.493-3.1-2.951-4.642-4.362l-.041-.038-1.359-1.25c-.271-.251-.614-.626-1.01-1.063a18.433,18.433,0,0,0-2.164-2.143c8.629,4.758,16.86,9.622,22.743,16.785-.671-2.579-1.437-5.268-2.28-7.993-2.3-7.433-4.616-13.97-7.077-19.987a147.114,147.114,0,0,0-9.306-19.032c1.913,3.211,3.935,6.443,5.891,9.57,5.917,9.459,12.034,19.24,16.058,29.792-.234-1.8-.462-3.422-.7-4.964-1.442-9.286-3.249-18.428-4.827-26.145-.8-3.921-1.7-8.126-2.842-13.237q-.234-1.049-.467-2.1l-.027-.121c-.356-1.6-.723-3.254-1.093-4.881-.082-.356-.155-.865-.238-1.457l0-.029c-.051-.356-.1-.725-.164-1.1,4.968,16.3,10.133,33.722,13.906,51.7.033.156.065.313.1.468a14.149,14.149,0,0,1,1.41-1.366A11.91,11.91,0,0,1,71.616,92.1a107.868,107.868,0,0,1,4.158-10.544,55.018,55.018,0,0,1,4.445-8.068,12.834,12.834,0,0,1,1.5-1.719A33.235,33.235,0,0,0,78.224,69.1q2.167.9,4.343,1.829a14.716,14.716,0,0,0,2.225-2.537q-.766,1.4-1.442,2.874c1.923.832,3.838,1.688,5.719,2.581A28.3,28.3,0,0,0,87.7,71.367a29.52,29.52,0,0,0-3.423-4.228l-.017-.018,0,0-.044-.049-.054-.058-.084-.091c-.776-.833-1.949-2.091-1.069-2.956a.907.907,0,0,1,.638-.252c1.353,0,3.377,2.59,4.138,3.563l.02.027c.079.1.187.241.25.315-.176-.243-.374-.515-.608-.833a34.851,34.851,0,0,1,7.033,8.441c.336.632.663,1.271.982,1.907a56.578,56.578,0,0,1,10.635,7.49c-.864-2.5-1.8-4.972-2.8-7.391-5.037-12.273-11.4-24.993-20.077-36.083C87.78,46.914,92.7,52.591,97.306,58.394c-1.139-1.635-2.3-3.256-3.448-4.847l-.007-.01-.047-.064-.087-.12c-1.437-2-2.923-4.065-4.332-6.135-.346-.507-.674-1.014-1.037-1.576l-.017-.025A27.874,27.874,0,0,0,84.8,40.935c-.764-.77-1.618-1.542-2.37-2.223l-.011-.011-.01-.007a29.225,29.225,0,0,1-4.185-4.324l.468.167.208.074.393.14.052.019.332.118a16.288,16.288,0,0,1,4.981,3.385c.231.208.535.478.848.75,1.1.953,2.3,1.862,3.459,2.741l.014.012c1.117.847,2.38,1.8,3.486,2.764,3.544,3.073,6.8,6.334,9.938,9.486l.077.077.1.1.05.049c.923.928,1.756,1.762,2.585,2.582.12.118.239.237.358.356q-1.082-4.21-2.227-8.413c-1.109-4.091-2.28-8.166-3.483-12.24-.647-2.189-1.286-4.379-1.946-6.566-.16-.53-.3-1.455-.5-2.393,4.686,11.6,9.248,23.208,13.124,34.962q2.188,2.552,4.009,5.081a60.5,60.5,0,0,1,4.122,6.549c.939-2.212,1.994-4.4,3.142-6.554a165.276,165.276,0,0,0-13.183-29.291c4.947,8.3,10.42,16.428,15.12,24.93l.006-.054c-.091-.411-.191-.834-.309-1.293-2.8-10.975-10.215-20.254-17.1-27.881-1.129-1.252-2.331-2.56-3.394-3.713l-.035-.04-.007-.007-.233-.254-.018-.02-.011-.013-.007-.006C96.423,23.215,89.993,16.221,85.793,8.4A28.8,28.8,0,0,1,82.7.025.734.734,0,0,1,82.881,0a.506.506,0,0,1,.386.174c6.159,8.229,14.468,15.4,22.5,22.329l.011.01.006,0a202.15,202.15,0,0,1,17.679,16.519q-.616-2.848-1.251-5.692c-.528-2.366-1.049-4.734-1.588-7.1-.131-.574-.243-1.574-.406-2.588,1.749,5.738,3.476,11.478,5.139,17.233l1.054-19.727.118-.048.014-.006.034-.014.169-.068.04-.017c.043-.017.087-.036.131-.052,3.259,4.891,3.56,10.137,3.4,15.078a113.76,113.76,0,0,0,.22,12.029l.035.054.014.023.03.045.018.03.048.072q1.466,2.263,2.725,4.634a11.22,11.22,0,0,0,1.85-1.686q-.809,1.12-1.536,2.284A62.366,62.366,0,0,1,139.292,69.1q.77-2.038,1.619-4.034c2.83-13.756,5.71-28.312,5.951-30.428.146-1.283.345-2.6.519-3.769l0-.018,0-.031V30.8a53.057,53.057,0,0,0,.787-8.057v-.425C148.109,8.233,148.6.726,149.627,0c.3,2.039,1.612,6.771,2.879,11.348l.009.032.011.039c1.282,4.642,2.492,9.022,2.726,10.768.608,4.533,1.866,12.784,3.323,22.338l.02.125.01.069c1.413,9.265,3.17,20.795,4.595,30.717,2.046-9.429,2.689-19.128,3.215-29.062.116-2.186.166-4.394.211-6.342v-.147c.07-2.925.14-5.952.389-8.93.011-.146.024-.4.038-.766v-.042a45.5,45.5,0,0,1,.638-6.478V127.423h-36.4c-.061.171-.122.342-.184.514C131.141,127.773,131.169,127.6,131.192,127.422Zm-34.6-29.011A96.53,96.53,0,0,0,93.32,86.075c-.291-.929-.634-2.029-.974-3.147l-.121-.4,0-.007c-.418-1.379-.84-2.776-1.322-4.173q-.682-.535-1.384-1.058c-2.188-1.628-4.47-3.187-6.732-4.758A119.118,119.118,0,0,0,77.1,90.894a19.62,19.62,0,0,1,8.074,2.219,33.381,33.381,0,0,1,8.912-4.533,44.317,44.317,0,0,0-6.859,5.628A55.8,55.8,0,0,0,96.592,98.411Zm6.266-6.83.01.019.014.027.024.042c.726,1.289,1.549,2.751,2.324,4.191.071-.436.14-.873.206-1.309a62.2,62.2,0,0,0-4.364-6.208L101,88.255C101.631,89.405,102.263,90.526,102.857,91.582Z" transform="translate(232.307 193.064)" fill="#bfe2e2" stroke="rgba(0,0,0,0)" stroke-miterlimit="10" stroke-width="1"/>
    <path id="Subtraction_16" data-name="Subtraction 16" d="M.122,44.472h0a48.9,48.9,0,0,1,.061-7.727,33.115,33.115,0,0,1,1.208-6.626,15.275,15.275,0,0,1,3-5.769A8.527,8.527,0,0,1,10.764,21.4c.757-.021,1.439-.038,2.133-.038,2.615,0,5.567.24,7.628,2.022-.26-4.709,3.634-9.341,8.863-10.544a20.45,20.45,0,0,1,4.521-.5,17.608,17.608,0,0,1,6.177,1.032,8.066,8.066,0,0,1,4.305,3.339A26.423,26.423,0,0,1,53.432,5.9,31.938,31.938,0,0,1,67.394.321,32.428,32.428,0,0,1,71.963,0,34.523,34.523,0,0,1,84.786,2.5,29.544,29.544,0,0,1,95.2,9.459a3.475,3.475,0,0,1,.886-2.84,7.915,7.915,0,0,1,5.838-2.374,7.481,7.481,0,0,1,2.007.263,12.3,12.3,0,0,1,5.037,2.934,33.777,33.777,0,0,1,3.807,4.359,10.424,10.424,0,0,1,8.456-4.03,10.293,10.293,0,0,1,2.893.4,9.579,9.579,0,0,1,5.317,3.954v32.05Z" transform="translate(270.559 148.592)" fill="#bfe2e2" stroke="rgba(0,0,0,0)" stroke-miterlimit="10" stroke-width="1"/>
    <path id="Subtraction_21" data-name="Subtraction 21" d="M0,50.274H0V6.691A18.9,18.9,0,0,1,3.224,7.734a14.046,14.046,0,0,1,5.968,4.607A14.039,14.039,0,0,1,14.763,3.7,17.91,17.91,0,0,1,25.322,0l.229,0A18.158,18.158,0,0,1,37.073,4.233,63.668,63.668,0,0,1,53.237,8.3,34.9,34.9,0,0,1,64.8,15.641a20.771,20.771,0,0,1,6.194,12.9l2.122,21.57Z" transform="translate(0 269.761)" fill="#bfe2e2" stroke="rgba(0,0,0,0)" stroke-miterlimit="10" stroke-width="1"/>
    <ellipse id="Ellipse_79" data-name="Ellipse 79" cx="14.63" cy="13.585" rx="14.63" ry="13.585" transform="translate(286.052 104.18)" fill="#fff"/>
    <path id="Path_3748" data-name="Path 3748" d="M205.4,97.12a12.533,12.533,0,0,0-3.441,24.593l.655,2.508,1.207,4.613,1.213,4.644a.7.7,0,0,0,.676.52h.017a.7.7,0,0,0,.666-.555l1.02-4.883,1-4.8.427-2.049A12.533,12.533,0,0,0,205.4,97.12Zm2.968,17.071a5.486,5.486,0,0,1-3.392.91,8.271,8.271,0,0,1-3.276-.611v-2.038a7.476,7.476,0,0,0,1.452.542,6.108,6.108,0,0,0,1.568.209,3.057,3.057,0,0,0,1.755-.4,1.477,1.477,0,0,0,.566-1.293,1.166,1.166,0,0,0-.652-1.131,4.837,4.837,0,0,0-2.08-.333h-.861v-1.835h.877a4.075,4.075,0,0,0,1.929-.346,1.243,1.243,0,0,0,.61-1.18q0-1.287-1.615-1.287a3.707,3.707,0,0,0-1.137.187,5.547,5.547,0,0,0-1.284.643l-1.111-1.65a6.18,6.18,0,0,1,3.7-1.116,4.782,4.782,0,0,1,2.782.713,2.28,2.28,0,0,1,1.02,1.981,2.654,2.654,0,0,1-.644,1.805,3.35,3.35,0,0,1-1.808,1.023v.046a3.622,3.622,0,0,1,2.08.833,2.329,2.329,0,0,1,.707,1.785A3.023,3.023,0,0,1,208.366,114.191Z" transform="translate(-41.686 75.354)" fill="#e88a2d"/>
    <path id="Path_3749" data-name="Path 3749" d="M164.925,126.759a14.111,14.111,0,1,0-13.253,24.092l3.46,13.237a.787.787,0,0,0,.76.586h.019a.786.786,0,0,0,.749-.625l1.224-5.862,1.131-5.416.4-1.92a14.061,14.061,0,0,0,5.509-24.092Zm-4.648,16.372H150.87v-1.973l3.378-3.408q1.5-1.534,1.961-2.127a4.691,4.691,0,0,0,.663-1.1,2.793,2.793,0,0,0,.2-1.048,1.528,1.528,0,0,0-.446-1.2,1.742,1.742,0,0,0-1.192-.394,3.437,3.437,0,0,0-1.519.358,7.841,7.841,0,0,0-1.537,1.02l-1.546-1.827a10.066,10.066,0,0,1,1.647-1.194,6.09,6.09,0,0,1,1.427-.537,7.335,7.335,0,0,1,1.732-.189,5.132,5.132,0,0,1,2.228.459,3.559,3.559,0,0,1,1.5,1.287,3.414,3.414,0,0,1,.534,1.892,4.647,4.647,0,0,1-.327,1.741,6.713,6.713,0,0,1-1.013,1.667,24.817,24.817,0,0,1-2.417,2.434l-1.73,1.626v.127h5.864Z" transform="translate(-71.058 90.242)" fill="#e88a2d"/>
    <path id="Path_3786" data-name="Path 3786" d="M242.235,160.917c-.316-.019-.63-.047-.951-.047a15.79,15.79,0,0,0-3.006.294c-.286.055-.566.129-.845.2a15.638,15.638,0,0,0-4.094,28.686c.275.16.556.308.84.451a15.612,15.612,0,0,0,2.8,1.111l.3,1.163,3.541,13.543a.873.873,0,0,0,.845.652h.02a.874.874,0,0,0,.833-.694l3.062-14.664a15.653,15.653,0,0,0-3.353-30.694Zm.512,23.088h-3.161v-8.634l.031-1.419.05-1.551q-.787.785-1.094,1.031l-1.719,1.378-1.524-1.9,4.817-3.826h2.6Z" transform="translate(-15.624 93.107)" fill="#e88a2d"/>
    <path id="Path_3746" data-name="Path 3746" d="M264.036,78.415a12.556,12.556,0,1,0-17.454,15.292c.027.014.052.028.079.041a12.4,12.4,0,0,0,2.057.792l.987,3.771.713,2.729.476,1.823.9,3.442a.7.7,0,0,0,.676.522h.017a.7.7,0,0,0,.666-.556l.853-4.085.4-1.929.638-3.059.556-2.657a12.583,12.583,0,0,0,5.681-3.45c.1-.1.195-.2.289-.308a12.569,12.569,0,0,0,2.01-3.078A12.411,12.411,0,0,0,264.7,83.1c.011-.2.027-.405.027-.611A12.483,12.483,0,0,0,264.036,78.415Zm-8.47,6.978h-1.354v2.327h-2.325V85.392h-4.8V83.741l4.935-7.251h2.193v7.059h1.354Z" transform="translate(-14.977 59.833)" fill="#e88a2d"/>
    <path id="Path_3785" data-name="Path 3785" d="M316.767,67.993c-.951-12.33-11.116-21.987-23.14-21.987a23.3,23.3,0,0,0-22.981,21.987,23.635,23.635,0,0,0,4.816,15.76l6.227,8.874,3.435,4.9,4.641,6.615,2.284,3.255a2.027,2.027,0,0,0,1.623.869h.074a1.94,1.94,0,0,0,1.618-.869l16.508-23.64A24.424,24.424,0,0,0,316.767,67.993Zm-13.427,1.5a9.782,9.782,0,0,1-9.791,9.693h-.08a9.772,9.772,0,0,1,.077-19.544h.08a9.755,9.755,0,0,1,9.714,9.776Z" transform="translate(3.622 44.124)" fill="#e88a2d"/>
  </g>
</svg>
