<svg xmlns="http://www.w3.org/2000/svg" xmlns:xlink="http://www.w3.org/1999/xlink" width="400" height="320" viewBox="0 0 400 320">
  <defs>
    <clipPath id="clip-Illo-covid-person-mask">
      <rect width="400" height="320"/>
    </clipPath>
  </defs>
  <g id="Illo-covid-person-mask" clip-path="url(#clip-Illo-covid-person-mask)">
    <rect width="400" height="320" fill="#fff"/>
    <line id="Line_191" data-name="Line 191" y2="306.449" transform="translate(376.374 9.5)" fill="none" stroke="#5ab3b3" stroke-linecap="round" stroke-linejoin="round" stroke-width="2"/>
    <line id="Line_192" data-name="Line 192" y2="306.449" transform="translate(351.468 9.5)" fill="none" stroke="#5ab3b3" stroke-linecap="round" stroke-linejoin="round" stroke-width="2"/>
    <line id="Line_195" data-name="Line 195" y2="304.748" transform="translate(184.373 9.5)" fill="none" stroke="#5ab3b3" stroke-linecap="round" stroke-linejoin="round" stroke-width="2"/>
    <line id="Line_196" data-name="Line 196" y2="304.748" transform="translate(159.467 9.5)" fill="none" stroke="#5ab3b3" stroke-linecap="round" stroke-linejoin="round" stroke-width="2"/>
    <line id="Line_201" data-name="Line 201" x2="155.044" transform="translate(192.411 193.249)" fill="none" stroke="#5ab3b3" stroke-linecap="round" stroke-linejoin="round" stroke-width="2"/>
    <line id="Line_202" data-name="Line 202" x2="60.669" transform="translate(96.854 193.249)" fill="none" stroke="#5ab3b3" stroke-linecap="round" stroke-linejoin="round" stroke-width="2"/>
    <line id="Line_203" data-name="Line 203" x1="60.71" transform="translate(97.108 181.915)" fill="none" stroke="#5ab3b3" stroke-linecap="round" stroke-linejoin="round" stroke-width="2"/>
    <line id="Line_204" data-name="Line 204" x1="155.044" transform="translate(192.411 181.915)" fill="none" stroke="#5ab3b3" stroke-linecap="round" stroke-linejoin="round" stroke-width="2"/>
    <line id="Line_205" data-name="Line 205" x2="154.157" transform="translate(190.299 94.579)" fill="none" stroke="#5ab3b3" stroke-linecap="round" stroke-linejoin="round" stroke-width="2"/>
    <line id="Line_206" data-name="Line 206" x2="148.489" transform="translate(6.034 94.579)" fill="none" stroke="#5ab3b3" stroke-linecap="round" stroke-linejoin="round" stroke-width="2"/>
    <line id="Line_207" data-name="Line 207" x1="148.152" transform="translate(5.779 84.279)" fill="none" stroke="#5ab3b3" stroke-linecap="round" stroke-linejoin="round" stroke-width="2"/>
    <line id="Line_210" data-name="Line 210" x2="13.824" transform="translate(384.023 191.579)" fill="none" stroke="#5ab3b3" stroke-linecap="round" stroke-linejoin="round" stroke-width="2"/>
    <line id="Line_211" data-name="Line 211" x1="13.871" transform="translate(384.316 180.245)" fill="none" stroke="#5ab3b3" stroke-linecap="round" stroke-linejoin="round" stroke-width="2"/>
    <line id="Line_212" data-name="Line 212" x2="12.405" transform="translate(381.604 92.91)" fill="none" stroke="#5ab3b3" stroke-linecap="round" stroke-linejoin="round" stroke-width="2"/>
    <line id="Line_213" data-name="Line 213" x1="13.279" transform="translate(381.314 82.609)" fill="none" stroke="#5ab3b3" stroke-linecap="round" stroke-linejoin="round" stroke-width="2"/>
    <line id="Line_214" data-name="Line 214" x1="154.453" transform="translate(190.003 84.279)" fill="none" stroke="#5ab3b3" stroke-linecap="round" stroke-linejoin="round" stroke-width="2"/>
    <path id="Path_3833" data-name="Path 3833" d="M317.894,149.259c0,9.724,39.3,9.724,39.3,0s-8.8-17.609-19.649-17.609S317.894,139.534,317.894,149.259Z" transform="translate(-120.134 20.056)" fill="none" stroke="#5ab3b3" stroke-linecap="round" stroke-linejoin="round" stroke-width="2"/>
    <ellipse id="Ellipse_32" data-name="Ellipse 32" cx="1.486" cy="10.86" rx="1.486" ry="10.86" transform="translate(204.909 37.585) rotate(-90.634)" fill="none" stroke="#5ab3b3" stroke-linecap="round" stroke-linejoin="round" stroke-width="2"/>
    <path id="Path_3834" data-name="Path 3834" d="M346.9,53.337s20.8,34.36-.913,42.386a41.206,41.206,0,0,1-9.67,1.228,37.325,37.325,0,0,1-9.413-1.016c-21.888-7.544-1.85-42.355-1.85-42.355" transform="translate(-120.223 -17.479)" fill="none" stroke="#5ab3b3" stroke-linecap="round" stroke-linejoin="round" stroke-width="2"/>
    <ellipse id="Ellipse_38" data-name="Ellipse 38" cx="1.977" cy="10.86" rx="1.977" ry="10.86" transform="translate(248.182 120.469) rotate(-90.693)" fill="#fff" stroke="#5ab3b3" stroke-linecap="round" stroke-linejoin="round" stroke-width="2"/>
    <path id="Path_3886" data-name="Path 3886" d="M342.922,170.7a64.051,64.051,0,0,0,1.492,20.785c3.522,13.864,10.077,29.608-2.192,35.621a31.682,31.682,0,0,1-9.665,1.61,28.741,28.741,0,0,1-9.418-1.378c-12.344-5.684-5.4-20.789-2.257-34.7a58.053,58.053,0,0,0,.195-21.679" transform="translate(-72.981 -52.477)" fill="none" stroke="#5ab3b3" stroke-linecap="round" stroke-linejoin="round" stroke-width="2"/>
    <ellipse id="Ellipse_34" data-name="Ellipse 34" cx="2.075" cy="15.165" rx="2.075" ry="15.165" transform="translate(101.484 20.839) rotate(-90.634)" fill="none" stroke="#5ab3b3" stroke-linecap="round" stroke-linejoin="round" stroke-width="2"/>
    <path id="Path_3836" data-name="Path 3836" d="M428.652,40.008s29.05,47.98-1.274,59.186a57.585,57.585,0,0,1-13.5,1.716,52.129,52.129,0,0,1-13.143-1.42c-30.565-10.533-2.584-59.145-2.584-59.145" transform="translate(-296.775 -21.58)" fill="none" stroke="#5ab3b3" stroke-linecap="round" stroke-linejoin="round" stroke-width="2"/>
    <ellipse id="Ellipse_35" data-name="Ellipse 35" cx="1.486" cy="10.86" rx="1.486" ry="10.86" transform="translate(256.764 37.585) rotate(-90.634)" fill="none" stroke="#5ab3b3" stroke-linecap="round" stroke-linejoin="round" stroke-width="2"/>
    <ellipse id="Ellipse_39" data-name="Ellipse 39" cx="1.486" cy="10.86" rx="1.486" ry="10.86" transform="translate(309.352 37.585) rotate(-90.634)" fill="none" stroke="#5ab3b3" stroke-linecap="round" stroke-linejoin="round" stroke-width="2"/>
    <path id="Path_3837" data-name="Path 3837" d="M307.245,53.337s20.8,34.36-.913,42.386a41.206,41.206,0,0,1-9.67,1.228,37.338,37.338,0,0,1-9.413-1.016C265.362,88.39,285.4,53.579,285.4,53.579" transform="translate(-28.716 -17.479)" fill="none" stroke="#5ab3b3" stroke-linecap="round" stroke-linejoin="round" stroke-width="2"/>
    <path id="Path_3887" data-name="Path 3887" d="M307.245,53.337s20.8,34.36-.913,42.386a41.206,41.206,0,0,1-9.67,1.228,37.338,37.338,0,0,1-9.413-1.016C265.362,88.39,285.4,53.579,285.4,53.579" transform="translate(23.872 -17.479)" fill="none" stroke="#5ab3b3" stroke-linecap="round" stroke-linejoin="round" stroke-width="2"/>
    <g id="Group_7838" data-name="Group 7838" transform="translate(301.811 116.252)">
      <g id="Group_7823" data-name="Group 7823" transform="translate(2.675 27.43)">
        <path id="Path_3840" data-name="Path 3840" d="M398.018,188.873c-3.914.119-4.4.365-4.4.564,0,.358,8.2.65,18.31.65s18.31-.292,18.31-.65c0-.157-1.561-.3-4.161-.413" transform="translate(-393.615 -188.873)" fill="none" stroke="#5ab3b3" stroke-linecap="round" stroke-linejoin="round" stroke-width="2"/>
        <path id="Path_3841" data-name="Path 3841" d="M430.235,189.3,426.35,221.76c0,.306-6.459.554-14.425.554s-14.426-.248-14.426-.554L393.615,189.3" transform="translate(-393.615 -188.74)" fill="none" stroke="#5ab3b3" stroke-linecap="round" stroke-linejoin="round" stroke-width="2"/>
      </g>
      <g id="Group_7824" data-name="Group 7824">
        <path id="Path_3842" data-name="Path 3842" d="M396.929,192.067a19.028,19.028,0,0,0,8.738-11c-4.212,3.435-10.684,5.146-14.1,11.024" transform="translate(-363.695 -163.844)" fill="none" stroke="#5ab3b3" stroke-linecap="round" stroke-linejoin="round" stroke-width="2"/>
        <path id="Path_3843" data-name="Path 3843" d="M408.381,187.328a9.276,9.276,0,0,0,.416-4.676,25.934,25.934,0,0,0-5.537,3.3,15.617,15.617,0,0,0-4.208,5.833" transform="translate(-376.739 -163.357)" fill="none" stroke="#5ab3b3" stroke-linecap="round" stroke-linejoin="round" stroke-width="2"/>
        <path id="Path_3844" data-name="Path 3844" d="M421.184,191.085c-.5-1.215-1.81-1.964-3.031-2.627l-4.132-2.241a23.191,23.191,0,0,1-5.823-3.967.761.761,0,0,0-.435-.282c-.4-.044-.562.454-.553.82.075,2.979,2.839,7.382,5.43,9.186" transform="translate(-399.665 -163.569)" fill="none" stroke="#5ab3b3" stroke-linecap="round" stroke-linejoin="round" stroke-width="2"/>
        <path id="Path_3845" data-name="Path 3845" d="M425.835,187.132a8.693,8.693,0,0,0-2.866-2.346c-1.778-.892-3.552-1.136-5.329-2.029a.99.99,0,0,0-.551-.149.58.58,0,0,0-.472.551,1.364,1.364,0,0,0,.235.721,24.479,24.479,0,0,0,2.41,3.434c1.862,2.215,4.063,3.206,5.386,4.149" transform="translate(-416.616 -163.372)" fill="none" stroke="#5ab3b3" stroke-linecap="round" stroke-linejoin="round" stroke-width="2"/>
        <path id="Path_3846" data-name="Path 3846" d="M409.826,191.211c2.931-3.982,3.464-10.843,1.18-15.165a.9.9,0,0,0-.418-.462c-.336-.137-.706.094-.989.313a20.6,20.6,0,0,0-4.037,3.752c-2,2.7-2.334,6.959-1.892,10.2" transform="translate(-386.051 -165.544)" fill="none" stroke="#5ab3b3" stroke-linecap="round" stroke-linejoin="round" stroke-width="2"/>
        <path id="Path_3847" data-name="Path 3847" d="M400.065,186.781a8.325,8.325,0,0,0,4.449-3.518,22.017,22.017,0,0,0,2.232-5.087,30.771,30.771,0,0,0-10.57,4.865,10.15,10.15,0,0,0-2.248,2.384" transform="translate(-367.859 -164.734)" fill="none" stroke="#5ab3b3" stroke-linecap="round" stroke-linejoin="round" stroke-width="2"/>
        <path id="Path_3848" data-name="Path 3848" d="M403.411,183.461a13.6,13.6,0,0,0,1.061-11.943,11.17,11.17,0,0,1-2.125,2.872c-.7.681-1.772,1.206-2.4,1.945a5.153,5.153,0,0,0-1.186,3.2" transform="translate(-372.794 -166.783)" fill="none" stroke="#5ab3b3" stroke-linecap="round" stroke-linejoin="round" stroke-width="2"/>
        <path id="Path_3849" data-name="Path 3849" d="M415.837,180.408c.272-.884-.412-2.151-.949-2.927a10.3,10.3,0,0,0-2.05-2.006l-4.211-3.418c.247,2.419-.352,4.883.116,7.275A15.463,15.463,0,0,0,410,182.8a15.691,15.691,0,0,0,3.367,4.96" transform="translate(-396.142 -166.617)" fill="none" stroke="#5ab3b3" stroke-linecap="round" stroke-linejoin="round" stroke-width="2"/>
        <path id="Path_3850" data-name="Path 3850" d="M422.693,182.8a6.451,6.451,0,0,0-2.419-1.939,14.9,14.9,0,0,0-2.653-.982,14.25,14.25,0,0,1-5.155-2.712,10.453,10.453,0,0,0,3.111,7.668" transform="translate(-408.039 -165.044)" fill="none" stroke="#5ab3b3" stroke-linecap="round" stroke-linejoin="round" stroke-width="2"/>
        <path id="Path_3851" data-name="Path 3851" d="M420.6,177.008c-.252-1.319-1.952-2.5-3.1-3.325a11.841,11.841,0,0,1-3.17-2.745,16.522,16.522,0,0,0,.065,5.61,8.415,8.415,0,0,0,2.889,4.859" transform="translate(-408.12 -166.961)" fill="none" stroke="#5ab3b3" stroke-linecap="round" stroke-linejoin="round" stroke-width="2"/>
        <path id="Path_3852" data-name="Path 3852" d="M413.3,178.26c.656-1.648.082-4.406-.876-5.925s-2.245-2.86-3.078-4.438a25.4,25.4,0,0,0-3.291,5.428,3.66,3.66,0,0,0-.292,2.346" transform="translate(-390.047 -167.897)" fill="none" stroke="#5ab3b3" stroke-linecap="round" stroke-linejoin="round" stroke-width="2"/>
        <path id="Path_3853" data-name="Path 3853" d="M406,176.217c1.211-2.115.917-4.654.59-7.022a16.1,16.1,0,0,1-2.613,2.086,6.5,6.5,0,0,0-2.388,4.3" transform="translate(-378.011 -167.498)" fill="none" stroke="#5ab3b3" stroke-linecap="round" stroke-linejoin="round" stroke-width="2"/>
      </g>
    </g>
    <g id="Group_7823-2" data-name="Group 7823" transform="translate(35.93 45.469)">
      <path id="Path_3840-2" data-name="Path 3840" d="M398.018,188.873c-3.914.119-4.4.365-4.4.564,0,.358,8.2.65,18.31.65s18.31-.292,18.31-.65c0-.157-1.561-.3-4.161-.413" transform="translate(-393.615 -188.873)" fill="none" stroke="#5ab3b3" stroke-linecap="round" stroke-linejoin="round" stroke-width="2"/>
      <path id="Path_3841-2" data-name="Path 3841" d="M430.235,189.3,426.35,221.76c0,.306-6.459.554-14.425.554s-14.426-.248-14.426-.554L393.615,189.3" transform="translate(-393.615 -188.74)" fill="none" stroke="#5ab3b3" stroke-linecap="round" stroke-linejoin="round" stroke-width="2"/>
    </g>
    <g id="Group_7824-2" data-name="Group 7824" transform="translate(33.255 18.039)">
      <path id="Path_3842-2" data-name="Path 3842" d="M396.929,192.067a19.028,19.028,0,0,0,8.738-11c-4.212,3.435-10.684,5.146-14.1,11.024" transform="translate(-363.695 -163.844)" fill="none" stroke="#5ab3b3" stroke-linecap="round" stroke-linejoin="round" stroke-width="2"/>
      <path id="Path_3843-2" data-name="Path 3843" d="M408.381,187.328a9.276,9.276,0,0,0,.416-4.676,25.934,25.934,0,0,0-5.537,3.3,15.617,15.617,0,0,0-4.208,5.833" transform="translate(-376.739 -163.357)" fill="none" stroke="#5ab3b3" stroke-linecap="round" stroke-linejoin="round" stroke-width="2"/>
      <path id="Path_3844-2" data-name="Path 3844" d="M421.184,191.085c-.5-1.215-1.81-1.964-3.031-2.627l-4.132-2.241a23.191,23.191,0,0,1-5.823-3.967.761.761,0,0,0-.435-.282c-.4-.044-.562.454-.553.82.075,2.979,2.839,7.382,5.43,9.186" transform="translate(-399.665 -163.569)" fill="none" stroke="#5ab3b3" stroke-linecap="round" stroke-linejoin="round" stroke-width="2"/>
      <path id="Path_3845-2" data-name="Path 3845" d="M425.835,187.132a8.693,8.693,0,0,0-2.866-2.346c-1.778-.892-3.552-1.136-5.329-2.029a.99.99,0,0,0-.551-.149.58.58,0,0,0-.472.551,1.364,1.364,0,0,0,.235.721,24.479,24.479,0,0,0,2.41,3.434c1.862,2.215,4.063,3.206,5.386,4.149" transform="translate(-416.616 -163.372)" fill="none" stroke="#5ab3b3" stroke-linecap="round" stroke-linejoin="round" stroke-width="2"/>
      <path id="Path_3846-2" data-name="Path 3846" d="M409.826,191.211c2.931-3.982,3.464-10.843,1.18-15.165a.9.9,0,0,0-.418-.462c-.336-.137-.706.094-.989.313a20.6,20.6,0,0,0-4.037,3.752c-2,2.7-2.334,6.959-1.892,10.2" transform="translate(-386.051 -165.544)" fill="none" stroke="#5ab3b3" stroke-linecap="round" stroke-linejoin="round" stroke-width="2"/>
      <path id="Path_3847-2" data-name="Path 3847" d="M400.065,186.781a8.325,8.325,0,0,0,4.449-3.518,22.017,22.017,0,0,0,2.232-5.087,30.771,30.771,0,0,0-10.57,4.865,10.15,10.15,0,0,0-2.248,2.384" transform="translate(-367.859 -164.734)" fill="none" stroke="#5ab3b3" stroke-linecap="round" stroke-linejoin="round" stroke-width="2"/>
      <path id="Path_3848-2" data-name="Path 3848" d="M403.411,183.461a13.6,13.6,0,0,0,1.061-11.943,11.17,11.17,0,0,1-2.125,2.872c-.7.681-1.772,1.206-2.4,1.945a5.153,5.153,0,0,0-1.186,3.2" transform="translate(-372.794 -166.783)" fill="none" stroke="#5ab3b3" stroke-linecap="round" stroke-linejoin="round" stroke-width="2"/>
      <path id="Path_3849-2" data-name="Path 3849" d="M415.837,180.408c.272-.884-.412-2.151-.949-2.927a10.3,10.3,0,0,0-2.05-2.006l-4.211-3.418c.247,2.419-.352,4.883.116,7.275A15.463,15.463,0,0,0,410,182.8a15.691,15.691,0,0,0,3.367,4.96" transform="translate(-396.142 -166.617)" fill="none" stroke="#5ab3b3" stroke-linecap="round" stroke-linejoin="round" stroke-width="2"/>
      <path id="Path_3850-2" data-name="Path 3850" d="M422.693,182.8a6.451,6.451,0,0,0-2.419-1.939,14.9,14.9,0,0,0-2.653-.982,14.25,14.25,0,0,1-5.155-2.712,10.453,10.453,0,0,0,3.111,7.668" transform="translate(-408.039 -165.044)" fill="none" stroke="#5ab3b3" stroke-linecap="round" stroke-linejoin="round" stroke-width="2"/>
      <path id="Path_3851-2" data-name="Path 3851" d="M420.6,177.008c-.252-1.319-1.952-2.5-3.1-3.325a11.841,11.841,0,0,1-3.17-2.745,16.522,16.522,0,0,0,.065,5.61,8.415,8.415,0,0,0,2.889,4.859" transform="translate(-408.12 -166.961)" fill="none" stroke="#5ab3b3" stroke-linecap="round" stroke-linejoin="round" stroke-width="2"/>
      <path id="Path_3852-2" data-name="Path 3852" d="M413.3,178.26c.656-1.648.082-4.406-.876-5.925s-2.245-2.86-3.078-4.438a25.4,25.4,0,0,0-3.291,5.428,3.66,3.66,0,0,0-.292,2.346" transform="translate(-390.047 -167.897)" fill="none" stroke="#5ab3b3" stroke-linecap="round" stroke-linejoin="round" stroke-width="2"/>
      <path id="Path_3853-2" data-name="Path 3853" d="M406,176.217c1.211-2.115.917-4.654.59-7.022a16.1,16.1,0,0,1-2.613,2.086,6.5,6.5,0,0,0-2.388,4.3" transform="translate(-378.011 -167.498)" fill="none" stroke="#5ab3b3" stroke-linecap="round" stroke-linejoin="round" stroke-width="2"/>
    </g>
    <path id="Subtraction_5" data-name="Subtraction 5" d="M29.584,40.547a24.564,24.564,0,0,1-8.751-1.714A43.1,43.1,0,0,1,8.685,31.414C3.1,26.6,1.1,22.379.4,19.689A11.263,11.263,0,0,1,2.965,9.1c2.75-3.241,7.244-5.675,13.355-7.233A68.475,68.475,0,0,1,32.7,0c1.361,0,2.71.035,4.008.105C47.645.691,59.915,3.127,74.222,7.553a162.71,162.71,0,0,1,22.23,8.865C103,19.551,109.975,23.3,117.786,27.877v5.372c-1.548-.921-3.11-1.865-4.619-2.779-8.359-5.055-17-10.283-26.652-13.537a129.35,129.35,0,0,0-41.371-6.355c-.459,0-.926,0-1.389.006h-.034c-.381,0-.927-.051-1.56-.11l-.378-.035c-.819-.075-1.691-.145-2.521-.145-2.332,0-3.493.575-3.549,1.759a.941.941,0,0,0,.274.717c.6.629,2.135.934,4.7.934,1.4,0,2.872-.094,4-.175l.887-.067c.794-.061,1.421-.109,1.77-.109h.035A133.5,133.5,0,0,1,69.2,15.372a103.368,103.368,0,0,1,37.687,14.46,15.662,15.662,0,0,1-5.948,7.087A16.294,16.294,0,0,1,92.155,39.4a19.141,19.141,0,0,1-4.308-.5,70.29,70.29,0,0,1-9.595-3.247A57.592,57.592,0,0,0,67.17,32.129a28.277,28.277,0,0,0-4.688-.388,33.538,33.538,0,0,0-9.335,1.4,79.2,79.2,0,0,0-9.269,3.5C39.174,38.647,34.734,40.547,29.584,40.547Z" transform="translate(283.502 249.553)" fill="#bfe2e2" stroke="rgba(0,0,0,0)" stroke-miterlimit="10" stroke-width="1"/>
    <path id="Subtraction_4" data-name="Subtraction 4" d="M43.063,126.388h0A62.2,62.2,0,0,1,30.73,115.881,96.9,96.9,0,0,1,20.468,102.4,136.925,136.925,0,0,1,6.7,73.58,130.845,130.845,0,0,1,2.784,59.2,126.675,126.675,0,0,1,.252,41.854,76.878,76.878,0,0,1,.775,24.462,35.77,35.77,0,0,1,6.031,9.952a21.651,21.651,0,0,1,7.438-6.9A25.712,25.712,0,0,1,24.663.046C25.252.016,25.856,0,26.457,0A39.681,39.681,0,0,1,43.063,3.742v70.9c-.06-.064-.124-.131-.2-.212-1.171-1.17-2-1.763-2.469-1.763a.38.38,0,0,0-.341.182c-.3.473-.04,1.849.77,4.09.782,2.163,1.83,4.44,2.244,5.318v44.134Z" transform="translate(358.225 140.134)" fill="#bfe2e2" stroke="rgba(0,0,0,0)" stroke-miterlimit="10" stroke-width="1"/>
    <g id="Group_7836" data-name="Group 7836" transform="translate(6 112.439)">
      <path id="Leaf_Me_Alone_" data-name="Leaf Me Alone!" d="M13.764.021C20.7.388,28.806,5.31,28.754,12.885c-.038,5.5-.774,10.918-.519,16.445a44.284,44.284,0,0,0,2.657,12.9c1.435,4,4.9,7.642,5.462,11.814a17.546,17.546,0,0,1-1.514,8.711c-1.382,2.971-.794,2.787,1.042,5.6A70.593,70.593,0,0,1,44.649,85.77c2.873,9.118,4.286,19.572,1.876,28.969-.306,1.193-.976,5.521-2.677,5.649-1.9.144-.767-2.252-.583-3.045,1.173-5.061,2.208-9.484,1.99-14.772-.84-20.4-13.863-35.156-21.456-53.2-.424-.934-1.293-3.142-1.9-4.6-.966-2.307-1.732-6.583-3.181-8.371-2.728-3.367-.569,3.053-.1,4.284.6,1.558,1.257,3.217,1.89,4.594,2.89,6.378,6.131,13.349,9.117,19.924-16.106,1.931-25.2-18.143-28.11-31.019C-.889,23.578-2.533-.806,13.764.021" transform="matrix(0.995, -0.105, 0.105, 0.995, 0, 60.033)" fill="#bfe2e2"/>
      <path id="Leaf_Me_Alone_2" data-name="Leaf Me Alone!" d="M51.717.062c-11.594.92-19.037,8.57-22.5,19.27C27.348,25.1,27.134,31.022,26.1,36.948c-1.561,8.916-4.92,15.672-11.484,22.024a22.166,22.166,0,0,0-4.6,6.148A26.186,26.186,0,0,0,4.709,72.7c-1.727,3.812-2.216,8.386-.222,12.186a12.492,12.492,0,0,0,3.26,4A78.482,78.482,0,0,0,.025,124.147c.194,7.3.551,14.6.966,21.89.112,1.957.749,5.19,1.707,1.907.876-3-.223-7.716-.324-10.853-.495-15.281-.918-29.175,5.373-43.452q.989-2.245,2.087-4.453a1.479,1.479,0,0,0,.123-.084c.028.021.053.044.081.065.047-.083.11-.182.185-.292a3.938,3.938,0,0,0,.565-.792A5.743,5.743,0,0,0,11.979,85.9s0-.01,0-.014a205.719,205.719,0,0,1,12.91-18.252c-.034.043,4.942-6.732,4.172-2.985-.371,1.806-4.031,5.244-5.509,7.156a178.293,178.293,0,0,0-10.3,14.859,7.5,7.5,0,0,0-1.475,2.361c-.242.457-.468.918-.69,1.32,11.306,3.736,20.1-3.789,26.1-12.541l.021-.031a38.03,38.03,0,0,1,6.03-6.731c3.9-3.19,8.07-3.753,12.664-5.323,12.529-4.281,17.856-20.518,19.548-32.567C77.354,19.564,68.018-1.279,51.717.062" transform="translate(54.929 39.427)" fill="#bfe2e2"/>
      <path id="Leaf_Me_Alone_3" data-name="Leaf Me Alone!" d="M49.828,1.159C36.321,11.767,28.237,27.977,21.482,43.335,13.938,60.488,8.063,78.157,5.326,96.708,3.528,108.9,1.47,121.126.47,133.413A130.95,130.95,0,0,0,.021,146.55c.007.36.2,10.135,1.98,8.114,1.013-1.149-.179-10.138-.159-11.6a188,188,0,0,1,2.226-24.632c1.973-13.445,3.458-26.889,6.706-40.1a45.813,45.813,0,0,1,1.692-5.945c.8-2.011.027-1.193,1.787-1.786,1.71-.577,3.669-.185,5.468-.957,7.137-3.063,11.94-12.834,15.5-19.186a130.03,130.03,0,0,0,9.637-23.088,170.719,170.719,0,0,0,4.774-17.55,46.989,46.989,0,0,1,1.324-5.673A13.119,13.119,0,0,0,51.8,2.382C51.9,1.434,51.406.8,51.471,0q-.833.562-1.643,1.159" transform="translate(34.24 7.211) rotate(-8)" fill="#bfe2e2"/>
      <path id="Base" d="M0,0A37.084,37.084,0,1,0,74.167,0" transform="translate(18.862 166.426)" fill="#bfe2e2"/>
      <path id="Leaf_Me_Alone_4" data-name="Leaf Me Alone!" d="M38.853,46.228a5.693,5.693,0,0,1-3.886-1.366A7.8,7.8,0,0,1,32.873,41.5a28.991,28.991,0,0,1-1.1-8.357,33.825,33.825,0,0,0-1.2-9.012,16.221,16.221,0,0,0-1.81-3.946,15.941,15.941,0,0,0-3.072-3.524c-.627-.542-1.3-1.058-1.942-1.557-.577-.445-1.173-.905-1.737-1.382l-.27-.227c-1.814-1.524-3.69-3.1-3.92-5.593a3.881,3.881,0,0,1,.663-3.027,2.871,2.871,0,0,1,2.246-.8,9.24,9.24,0,0,1,1.909.234c.1.022.37.124.743.265a14.582,14.582,0,0,0,3.8,1.079c.292,0,.484-.066.57-.2a.567.567,0,0,0-.025-.531c-.219-.526-.972-.991-2.238-1.382-2.546-.277-4.951-.526-6.383-.526a4.74,4.74,0,0,0-.926.066,14.037,14.037,0,0,0-6.832,3.808,24.263,24.263,0,0,0-4.715,6.8A51.942,51.942,0,0,0,2.259,29.582c-.108.92-.206,1.917-.3,3.048H0a66.121,66.121,0,0,1,.727-7.343,47.137,47.137,0,0,1,5.18-15.152,22.487,22.487,0,0,1,5.062-6.159A14.074,14.074,0,0,1,17.994.824,10.4,10.4,0,0,1,19.126.782c.737,0,1.625.028,2.5.079A6.521,6.521,0,0,1,24.4.043C24.786.014,25.184,0,25.58,0a20.12,20.12,0,0,1,6.685,1.225A28.793,28.793,0,0,1,38.65,4.472,33.32,33.32,0,0,1,44.168,9.1a27.987,27.987,0,0,1,4.084,5.374A20.738,20.738,0,0,1,50.8,24.816a33.477,33.477,0,0,1-1.783,10.631,24.341,24.341,0,0,1-3.574,7.024c-1.918,2.465-4.1,3.729-6.5,3.756Z" transform="translate(56.961 133.914)" fill="#bfe2e2"/>
    </g>
    <g id="Group_10118" data-name="Group 10118" transform="translate(3020.329 -11398)">
      <path id="Neck" d="M0,0,15.495,72.22H26.67L36.878,0Z" transform="translate(-2782.262 11601.688) rotate(180)" fill="#b28b67"/>
      <path id="Head" d="M53.412.26C41.9-2.706-2.22,19.986.087,52.87S48.17,78.52,57.074,61.923,64.92,3.227,53.412.26Z" transform="translate(-2783.798 11565.476) rotate(180)" fill="#b28b67"/>
      <path id="hair" d="M.345,17.149a7.977,7.977,0,0,1,5.586-5.665,7.358,7.358,0,0,1,2.055-.2c.248.01.317.081.433-.092a2.273,2.273,0,0,0,.123-.593A11.189,11.189,0,0,1,8.959,9.21a11.3,11.3,0,0,1,2.726-4.052,13.721,13.721,0,0,1,8.241-3.9,12.015,12.015,0,0,1,4.954.676,19.618,19.618,0,0,1,2.405,1.028c.235.118,1,.694,1.232.657.26-.041.783-.688.994-.85A14.564,14.564,0,0,1,38.612,0c3.676.027,7.215.211,10.28,2.451a20.559,20.559,0,0,1,1.855,1.541c.31.288.61.587.9.9q.259.282.5.577c.275.335.231.444.615.211a7.641,7.641,0,0,1,4.907-1.1,10.98,10.98,0,0,1,2.962.837c.322.138,1.066.686,1.409.692s1.074-.5,1.424-.633a11.678,11.678,0,0,1,5.92-.548,15.286,15.286,0,0,1,5.8,2.282A7.8,7.8,0,0,1,77.338,9.16c.253.349.482.719.768,1.043.168.19.5.384.59.624a12.746,12.746,0,0,1,2.46-1.086,6.06,6.06,0,0,1,3.462.132,13.764,13.764,0,0,1,5.458,3.878A15.5,15.5,0,0,1,92.1,16.464q.412.7.756,1.435a5.338,5.338,0,0,0,.332.748c.189.275.316.281.659.4a10.648,10.648,0,0,1,4.535,3.036,10.453,10.453,0,0,1,2.347,4.978,2.536,2.536,0,0,0,.094.613c.086.08.436.045.569.06a11.964,11.964,0,0,1,1.363.24,11.249,11.249,0,0,1,2.4.862,12.52,12.52,0,0,1,6.137,7.329,14.868,14.868,0,0,1-.232,10.179,9.945,9.945,0,0,1-.756,1.491c-.181.291-.239.292-.122.6.131.339.37.669.525,1a14.371,14.371,0,0,1,1.085,3.4,15.961,15.961,0,0,1,.187,5.883,8.493,8.493,0,0,1-.909,2.581,7.4,7.4,0,0,1-.8,1.155c-.156.186-.323.364-.5.534a3.311,3.311,0,0,0-.314.291c-.206.265-.25.047-.143.436a17.415,17.415,0,0,0,.692,1.61c.213.546.4,1.1.581,1.657a24.443,24.443,0,0,1,.846,3.453,10.843,10.843,0,0,1-.765,6.708,6.709,6.709,0,0,1-1.9,2.259,7.043,7.043,0,0,1-1.247.757c-.226.107-.515.153-.618.372-.111.235.054.7.091.965a16.082,16.082,0,0,1-.189,6.929,9.573,9.573,0,0,1-3.794,5.093,11.805,11.805,0,0,1-11.8.335,12.389,12.389,0,0,1-2.634-1.81c-2.021,2.721-6.18,2.634-9.133,1.859a13.12,13.12,0,0,1-8.334-6.886c-2.326,2.832-7.208,1.913-8.821-1.159a7.35,7.35,0,0,1-.744-2.419c-.061-.441-.022-.886-.068-1.323a6.837,6.837,0,0,0-.645-1.638,9.044,9.044,0,0,1-.687-3.266,16.578,16.578,0,0,1,.125-1.753,6.025,6.025,0,0,0-.179-1.54,7.045,7.045,0,0,0,2.983-.373,5.89,5.89,0,0,0,2.306-1.622,13.455,13.455,0,0,0,2.9-5.423c1.311-4.3.774-9.448-3.546-11.806-2.013-1.1-8.042-1.095-10.439-.552-2.52.571-5.378,6.132-5.518,6.655-.087.324-.043.724-.34.939-.653.474-1.73-.349-2.212-.755A8.725,8.725,0,0,1,44.289,58.4a31.892,31.892,0,0,1-2.658-6.52c-.491-1.737-.805-3.529-1.448-5.222a7.988,7.988,0,0,0-3.212-4.145,28.288,28.288,0,0,0-5.527-2.238,13.718,13.718,0,0,1-5.113-2.809,7.066,7.066,0,0,1-.877-.978c-.2-.28-.4-.817-.705-1-.476-.277-1.17.443-1.581.7a18.271,18.271,0,0,0-5.087,5.049A31.418,31.418,0,0,0,14.7,47.263c-.671,1.617-1.091,3.688-2.272,5.013-.527.592-4.446.95-5.716.433a7.221,7.221,0,0,1-3.118-2.7,4.192,4.192,0,0,1-.354-2.748c.11-.554.333-1.072.456-1.616a5.039,5.039,0,0,1,.419-1.308,3.227,3.227,0,0,1,2.011-1.6,9.445,9.445,0,0,1-2.172-2.946,12.644,12.644,0,0,1-1.125-3.839,4.66,4.66,0,0,1,.623-2.99,7.873,7.873,0,0,1,2.553-2.119,16.607,16.607,0,0,1-3.554-3.87C.555,24.126-.62,20.54.345,17.149Z" transform="translate(-2857.554 11463.396)" fill="#2e3e5a"/>
      <g id="Group_10056" data-name="Group 10056" transform="translate(-2849.113 11521.919)">
        <path id="Head-2" data-name="Head" d="M30.563.26C25.27-1.1,13.074,2.96,1.345,11.179c-3.058,12.451-.057,28.31.755,27.795,10.339-1.328,20.613-2.743,37.828-1.6C41.1,20.593,38.032,2.185,30.563.26Z" transform="translate(40.17 46.23) rotate(180)" fill="#ffd964"/>
        <path id="Path_3889" data-name="Path 3889" d="M4834.28,3293.309c2.194-1.391,14.125-18.821,14.125-18.821s-.791-.068-.967.165-15.25,15.752-15.25,15.752S4832.086,3294.7,4834.28,3293.309Z" transform="translate(-4795.671 -3258.822)" fill="#ffd964" stroke="#fdd651" stroke-width="1"/>
        <path id="Path_3890" data-name="Path 3890" d="M4840.25,3285.571l6.557-11.983s.143-.571-.359,0-9.9,11.623-9.9,11.623Z" transform="translate(-4805.022 -3273.334)" fill="#ffd964" stroke="#fdd651" stroke-width="1"/>
      </g>
      <path id="Subtraction_38" data-name="Subtraction 38" d="M81.767,62.51H60.449L30.346,39.43A213.884,213.884,0,0,1,8.618,34.542C3.605,33.027.75,31.6.131,30.294a1.187,1.187,0,0,1,.028-1.135,4.53,4.53,0,0,1,2.678-2.2,13.233,13.233,0,0,1,3.387-.479c1.76-.1,3.422-.189,4.324-1.345C12.6,22.514,7.561,14.4,2.365,6.811.413,3.96-.289,1.968.28.89A2.09,2.09,0,0,1,2.309,0,9.044,9.044,0,0,1,4.87.451a111.631,111.631,0,0,1,14.456,9.721A170.8,170.8,0,0,1,34.3,23.537l58,25.472-10.538,13.5Z" transform="translate(-3007.935 11655.49)" fill="#b28b67" stroke="rgba(0,0,0,0)" stroke-miterlimit="10" stroke-width="1"/>
      <path id="Subtraction_39" data-name="Subtraction 39" d="M142.051,131.583H13.026A123.741,123.741,0,0,1,0,119.5L9.8,97.6c12.294,4.413,22.456,7.885,32.1,10.484,10.87,2.93,19.856,4.354,27.473,4.354a42.922,42.922,0,0,0,18.359-3.634,20.686,20.686,0,0,0,7.043-5.93,64.784,64.784,0,0,0,6.628-10.253c4.342-8.031,8.607-18.24,13.122-29.048C124.04,40.8,134.822,14.992,150.277,0l13.842,2.375A383.992,383.992,0,0,1,160.4,66.612a285.3,285.3,0,0,1-6.972,34.243,169.577,169.577,0,0,1-11.375,30.727Z" transform="translate(-2967.21 11586.417)" fill="#708daf" stroke="rgba(0,0,0,0)" stroke-miterlimit="10" stroke-width="1"/>
      <path id="Subtraction_40" data-name="Subtraction 40" d="M112.315,137.745H0c2.714-7.3,5.653-14.617,8.764-22.358,6.545-16.284,13.311-33.12,18.509-51.3a236.478,236.478,0,0,0,6.336-28.223A194.457,194.457,0,0,0,36.046,5.54L71.373,0C82.655,18.144,91.415,38.421,98.154,61.99c3.188,11.147,5.9,22.9,8.306,35.945,2.243,12.18,4.158,25.2,5.854,39.809Z" transform="translate(-2859.221 11580.256)" fill="#fff" stroke="rgba(0,0,0,0)" stroke-miterlimit="10" stroke-width="1"/>
      <path id="Subtraction_41" data-name="Subtraction 41" d="M96.1,137.744H0c1.735-14.7,4.345-31.087,7.757-48.7,2.731-14.1,5.978-29.015,9.65-44.329C23.66,18.638,29.056.183,29.11,0H43.1A312.541,312.541,0,0,1,80.966,27.379a290.1,290.1,0,0,1,32.376,32.083,289.769,289.769,0,0,1,26.886,36.787,311.621,311.621,0,0,1,21.395,41.492H99.746c-1.209-2.169-2.422-4.359-3.606-6.509s-2.363-4.3-3.5-6.382c1.214,4.338,2.376,8.676,3.453,12.891Z" transform="translate(-2828.667 11580.256)" fill="#96b7df" stroke="rgba(0,0,0,0)" stroke-miterlimit="10" stroke-width="1"/>
    </g>
  </g>
</svg>
