<svg xmlns="http://www.w3.org/2000/svg" xmlns:xlink="http://www.w3.org/1999/xlink" width="381" height="280" viewBox="0 0 381 280">
  <defs>
    <clipPath id="clip-path">
      <rect id="Rectangle_1002" data-name="Rectangle 1002" width="381" height="280" transform="translate(610 979)" fill="#d96d55"/>
    </clipPath>
  </defs>
  <g id="illo-guides-road" transform="translate(-610 -979)" clip-path="url(#clip-path)">
    <g id="Group_7758" data-name="Group 7758" transform="translate(70)">
      <g id="Group_7727" data-name="Group 7727" transform="translate(475 988.264)">
        <g id="Group_7681" data-name="Group 7681" transform="translate(0.492 153.516)">
          <path id="Path_3700" data-name="Path 3700" d="M147.911,149.5H2.379a1.109,1.109,0,0,1,0-2.218H147.911a1.109,1.109,0,0,1,0,2.218Z" transform="translate(-1.27 -147.287)" fill="#333"/>
        </g>
        <g id="Group_7682" data-name="Group 7682" transform="translate(2.759 177.461)">
          <path id="Path_3701" data-name="Path 3701" d="M3.315,167.847" transform="translate(-3.315 -167.847)" fill="#333"/>
        </g>
        <g id="Group_7696" data-name="Group 7696" transform="translate(188.434 0)">
          <g id="Group_7683" data-name="Group 7683" transform="translate(16.746 16.745)">
            <path id="Path_3702" data-name="Path 3702" d="M189.621,61.581a15.145,15.145,0,1,1,15.145-15.145A15.162,15.162,0,0,1,189.621,61.581Zm0-28.072a12.927,12.927,0,1,0,12.927,12.927A12.942,12.942,0,0,0,189.621,33.509Z" transform="translate(-174.476 -31.291)" fill="#333"/>
          </g>
          <g id="Group_7684" data-name="Group 7684" transform="translate(30.782)">
            <path id="Path_3703" data-name="Path 3703" d="M188.243,25.243a1.109,1.109,0,0,1-1.109-1.109V17.3a1.109,1.109,0,0,1,2.218,0v6.835A1.109,1.109,0,0,1,188.243,25.243Z" transform="translate(-187.134 -16.19)" fill="#333"/>
          </g>
          <g id="Group_7685" data-name="Group 7685" transform="translate(15.384 4.125)">
            <path id="Path_3704" data-name="Path 3704" d="M177.782,28.052a1.108,1.108,0,0,1-.96-.553L173.4,21.576a1.109,1.109,0,0,1,1.919-1.111l3.425,5.924a1.109,1.109,0,0,1-.4,1.515A1.1,1.1,0,0,1,177.782,28.052Z" transform="translate(-173.247 -19.91)" fill="#333"/>
          </g>
          <g id="Group_7686" data-name="Group 7686" transform="translate(4.127 15.383)">
            <path id="Path_3705" data-name="Path 3705" d="M170.127,35.706a1.1,1.1,0,0,1-.554-.15l-5.924-3.424a1.109,1.109,0,1,1,1.11-1.919l5.924,3.425a1.108,1.108,0,0,1-.556,2.068Z" transform="translate(-163.096 -30.062)" fill="#333"/>
          </g>
          <g id="Group_7687" data-name="Group 7687" transform="translate(0 30.781)">
            <path id="Path_3706" data-name="Path 3706" d="M167.319,46.167h-6.836a1.109,1.109,0,0,1,0-2.218h6.836a1.109,1.109,0,1,1,0,2.218Z" transform="translate(-159.374 -43.949)" fill="#333"/>
          </g>
          <g id="Group_7688" data-name="Group 7688" transform="translate(4.127 42.74)">
            <path id="Path_3707" data-name="Path 3707" d="M164.206,60.377a1.108,1.108,0,0,1-.557-2.068l5.924-3.425a1.108,1.108,0,1,1,1.11,1.918l-5.924,3.425A1.093,1.093,0,0,1,164.206,60.377Z" transform="translate(-163.096 -54.734)" fill="#333"/>
          </g>
          <g id="Group_7689" data-name="Group 7689" transform="translate(15.383 51.514)">
            <path id="Path_3708" data-name="Path 3708" d="M174.356,70.772a1.1,1.1,0,0,1-.556-.149,1.109,1.109,0,0,1-.4-1.516l3.425-5.91a1.109,1.109,0,0,1,1.919,1.113l-3.425,5.909A1.108,1.108,0,0,1,174.356,70.772Z" transform="translate(-173.247 -62.646)" fill="#333"/>
          </g>
          <g id="Group_7690" data-name="Group 7690" transform="translate(30.782 54.714)">
            <path id="Path_3709" data-name="Path 3709" d="M188.243,74.585a1.109,1.109,0,0,1-1.109-1.109V66.641a1.109,1.109,0,0,1,2.218,0v6.835A1.109,1.109,0,0,1,188.243,74.585Z" transform="translate(-187.134 -65.532)" fill="#333"/>
          </g>
          <g id="Group_7691" data-name="Group 7691" transform="translate(42.741 51.513)">
            <path id="Path_3710" data-name="Path 3710" d="M202.453,70.772a1.108,1.108,0,0,1-.96-.552l-3.425-5.909a1.109,1.109,0,0,1,1.919-1.113l3.425,5.91a1.11,1.11,0,0,1-.4,1.516A1.1,1.1,0,0,1,202.453,70.772Z" transform="translate(-197.918 -62.645)" fill="#333"/>
          </g>
          <g id="Group_7692" data-name="Group 7692" transform="translate(51.514 42.741)">
            <path id="Path_3711" data-name="Path 3711" d="M212.847,60.377a1.094,1.094,0,0,1-.554-.15L206.383,56.8a1.109,1.109,0,1,1,1.112-1.918l5.909,3.425a1.109,1.109,0,0,1-.558,2.068Z" transform="translate(-205.83 -54.734)" fill="#333"/>
          </g>
          <g id="Group_7693" data-name="Group 7693" transform="translate(54.714 30.781)">
            <path id="Path_3712" data-name="Path 3712" d="M216.66,46.167h-6.835a1.109,1.109,0,1,1,0-2.218h6.835a1.109,1.109,0,1,1,0,2.218Z" transform="translate(-208.716 -43.949)" fill="#333"/>
          </g>
          <g id="Group_7694" data-name="Group 7694" transform="translate(51.514 15.383)">
            <path id="Path_3713" data-name="Path 3713" d="M206.94,35.706a1.109,1.109,0,0,1-.557-2.068l5.909-3.425a1.109,1.109,0,0,1,1.112,1.919L207.5,35.556A1.1,1.1,0,0,1,206.94,35.706Z" transform="translate(-205.83 -30.062)" fill="#333"/>
          </g>
          <g id="Group_7695" data-name="Group 7695" transform="translate(42.741 4.125)">
            <path id="Path_3714" data-name="Path 3714" d="M199.026,28.052a1.1,1.1,0,0,1-.553-.15,1.108,1.108,0,0,1-.4-1.515l3.425-5.924a1.109,1.109,0,0,1,1.919,1.111L199.987,27.5A1.108,1.108,0,0,1,199.026,28.052Z" transform="translate(-197.918 -19.91)" fill="#333"/>
          </g>
        </g>
        <g id="Group_7697" data-name="Group 7697" transform="translate(79.774 47.085)">
          <path id="Path_3715" data-name="Path 3715" d="M190.649,103.331a1.1,1.1,0,0,1-.751-.294l-38-35.045a33.58,33.58,0,0,0-47.875-.029L69.089,102.687a1.109,1.109,0,1,1-1.564-1.572l34.934-34.723a35.762,35.762,0,0,1,50.972,0l37.97,35.016a1.108,1.108,0,0,1-.752,1.924Z" transform="translate(-67.198 -55.717)" fill="#333"/>
        </g>
        <g id="Group_7698" data-name="Group 7698" transform="translate(1.611 60.555)">
          <path id="Path_3716" data-name="Path 3716" d="M3.388,112.431a1.108,1.108,0,0,1-.753-1.922L43.567,72.616a20.482,20.482,0,0,1,28.344.479L82.377,83.426a1.11,1.11,0,0,1-1.559,1.579L70.352,74.673a18.048,18.048,0,0,0-25.278-.429L4.141,112.136A1.1,1.1,0,0,1,3.388,112.431Z" transform="translate(-2.279 -67.157)" fill="#333"/>
        </g>
        <g id="Group_7699" data-name="Group 7699" transform="translate(55.725 111.124)">
          <path id="Path_3717" data-name="Path 3717" d="M122.331,147.2c-.028,0-.057,0-.085,0a1.108,1.108,0,0,1-1.021-1.19c.027-.346.041-.7.041-1.049a13.556,13.556,0,0,0-7.874-12.268,1.109,1.109,0,0,1-.623-1.225,10.59,10.59,0,0,0-10.377-12.692,10.57,10.57,0,0,0-3.534.617,1.1,1.1,0,0,1-1.386-.6,10.583,10.583,0,0,0-20.244,3.319,1.112,1.112,0,0,1-.446.8,1.125,1.125,0,0,1-.894.192,18.647,18.647,0,0,0-22.212,21.961,1.109,1.109,0,0,1-2.173.444,20.87,20.87,0,0,1,20.425-25.048,20.817,20.817,0,0,1,3.252.256A12.8,12.8,0,0,1,99.067,117a12.657,12.657,0,0,1,3.324-.447A12.819,12.819,0,0,1,115.2,129.359a12.984,12.984,0,0,1-.112,1.694,15.778,15.778,0,0,1,8.4,13.9c0,.409-.017.815-.047,1.218A1.11,1.11,0,0,1,122.331,147.2Z" transform="translate(-51.08 -110.218)" fill="#333"/>
        </g>
        <g id="Group_7700" data-name="Group 7700" transform="translate(0.984 127.476)">
          <path id="Path_3718" data-name="Path 3718" d="M51.7,145.188a1.109,1.109,0,0,1-.923-.492,17.575,17.575,0,0,0-14.6-7.907,17.323,17.323,0,0,0-3.755.415,1.108,1.108,0,0,1-1.346-.99,10.214,10.214,0,0,0-9.991-9.439,10.037,10.037,0,0,0-9.191,6.192,1.106,1.106,0,0,1-1.4.607,9.749,9.749,0,0,0-7.238.208,1.109,1.109,0,0,1-.884-2.034,11.892,11.892,0,0,1,7.913-.566,12.217,12.217,0,0,1,10.8-6.626,12.419,12.419,0,0,1,12.039,10.257,19.349,19.349,0,0,1,3.053-.243,19.788,19.788,0,0,1,16.439,8.892,1.11,1.11,0,0,1-.921,1.725Z" transform="translate(-1.714 -124.556)" fill="#333"/>
        </g>
        <g id="Group_7703" data-name="Group 7703" transform="translate(409.439 21.71)">
          <path id="Path_3721" data-name="Path 3721" d="M343.911,89.3a1.109,1.109,0,0,1-.74-1.936l47.3-42.226a33.658,33.658,0,0,1,46.626.026l10.917,10.432a1.109,1.109,0,1,1-1.531,1.6L435.568,46.765a31.453,31.453,0,0,0-43.586,0L344.648,89.017A1.105,1.105,0,0,1,343.911,89.3Z" transform="translate(-342.801 -35.769)" fill="#333"/>
        </g>
        <g id="Group_7704" data-name="Group 7704" transform="translate(363.856 27.976)">
          <path id="Path_3722" data-name="Path 3722" d="M308,73.2a1.109,1.109,0,0,1-.745-1.931l27.287-24.706c7.622-6.776,20.957-6.868,27.985-.2l9.558,9.069a1.109,1.109,0,1,1-1.527,1.61L361,47.972c-6.254-5.938-18.159-5.823-24.976.238L308.74,72.91A1.1,1.1,0,0,1,308,73.2Z" transform="translate(-306.887 -41.419)" fill="#333"/>
        </g>
        <g id="Group_7705" data-name="Group 7705" transform="translate(428.873 165.531)">
          <path id="Path_3723" data-name="Path 3723" d="M360.387,221.323s-.06-50.287-.06-57.827c0-8.539,5.052-10.005,6.712-10.486a1.108,1.108,0,1,1,.618,2.129c-1.659.481-5.112,1.484-5.112,8.356,0,7.539.06,57.824.06,57.824Z" transform="translate(-360.327 -152.965)" fill="#333"/>
        </g>
        <g id="Group_7706" data-name="Group 7706" transform="translate(400.156 152.614)">
          <path id="Path_3724" data-name="Path 3724" d="M352.414,223.7h-.008a1.109,1.109,0,0,1-1.1-1.117c0-.485.336-48.587,0-58.9-.034-1.07-.051-2.054-.068-2.968-.139-7.892-.175-10.013-10.829-17.377a1.109,1.109,0,1,1,1.261-1.824c11.591,8.012,11.644,11.048,11.786,19.164.015.9.032,1.877.066,2.935.337,10.355,0,58.5,0,58.985A1.109,1.109,0,0,1,352.414,223.7Z" transform="translate(-339.929 -141.316)" fill="#333"/>
        </g>
        <g id="Group_7707" data-name="Group 7707" transform="translate(404.727 186.852)">
          <path id="Path_3725" data-name="Path 3725" d="M350.823,178.033h-5.658a1.109,1.109,0,1,1,0-2.218h5.658a1.109,1.109,0,1,1,0,2.218Z" transform="translate(-344.057 -175.815)" fill="#333"/>
        </g>
        <g id="Group_7708" data-name="Group 7708" transform="translate(381.783 88.992)">
          <path id="Path_3726" data-name="Path 3726" d="M390.92,187.409H369a1.109,1.109,0,1,1,0-2.218h21.919a19.043,19.043,0,0,0,19.152-18.731v-2.145a18.735,18.735,0,0,0-11.932-17.335,1.109,1.109,0,0,1-.338-1.846,18.555,18.555,0,0,0,6.012-13.545v-5.353A19.042,19.042,0,0,0,384.659,107.5a1.233,1.233,0,0,1-1.128-.726,23.1,23.1,0,0,0-29.36-13.525,22.628,22.628,0,0,0-13.81,13.525,1.11,1.11,0,0,1-1.041.726,19.062,19.062,0,0,0-19.241,18.744v5.353a17.953,17.953,0,0,0,.347,3.528,1.109,1.109,0,1,1-2.174.436,20.186,20.186,0,0,1-.39-3.965v-5.355a21.252,21.252,0,0,1,20.694-20.947,24.852,24.852,0,0,1,14.879-14.137,25.343,25.343,0,0,1,31.9,14.14,21.264,21.264,0,0,1,20.693,20.94v5.359a20.758,20.758,0,0,1-5.553,14,20.892,20.892,0,0,1,11.811,18.717v2.151A21.266,21.266,0,0,1,390.92,187.409Z" transform="translate(-317.861 -89.697)" fill="#333"/>
        </g>
        <g id="Group_7709" data-name="Group 7709" transform="translate(471.748 172.433)">
          <path id="Path_3727" data-name="Path 3727" d="M431.121,171.372a1.1,1.1,0,0,1-.824-.367,16.648,16.648,0,0,0-23.485-1.231q-.544.489-1.044,1.026a1.108,1.108,0,0,1-1.334.223,9.217,9.217,0,0,0-4.327-1.083H400.1a1.109,1.109,0,0,1,0-2.218h.008a11.446,11.446,0,0,1,4.613.976q.3-.293.608-.572a18.872,18.872,0,0,1,26.021.764,18.916,18.916,0,0,1,8.4-1.982h0a1.109,1.109,0,1,1,0,2.218,16.691,16.691,0,0,0-8.091,2.106A1.1,1.1,0,0,1,431.121,171.372Z" transform="translate(-398.992 -163.294)" fill="#333"/>
        </g>
        <g id="Group_7710" data-name="Group 7710" transform="translate(443.289 190.784)">
          <path id="Path_3728" data-name="Path 3728" d="M389.321,219.891h-.007a16.136,16.136,0,0,1-15.987-16.064V202.21a16.022,16.022,0,0,1,9.317-14.567,19.319,19.319,0,0,1-.163-2.4,18.821,18.821,0,0,1,2.232-8.92,1.109,1.109,0,1,1,1.954,1.049,16.609,16.609,0,0,0-1.968,7.863,17.183,17.183,0,0,0,.263,2.893,1.111,1.111,0,0,1-.681,1.223,13.82,13.82,0,0,0-8.736,12.861v1.612a13.912,13.912,0,0,0,13.782,13.849,1.109,1.109,0,0,1-.007,2.218Z" transform="translate(-373.328 -175.739)" fill="#333"/>
        </g>
        <g id="Group_7711" data-name="Group 7711" transform="translate(341.843 179.796)">
          <path id="Path_3729" data-name="Path 3729" d="M299.4,219.331h-.017a1.109,1.109,0,0,1-1.092-1.126c0-.254.371-25.57,0-34.66,0-1.367-.2-13.026-6.922-15.57a1.109,1.109,0,0,1,.784-2.075c7.951,3.007,8.354,15.187,8.354,17.6.373,9.106,0,34.483,0,34.739A1.11,1.11,0,0,1,299.4,219.331Z" transform="translate(-290.649 -165.83)" fill="#333"/>
        </g>
        <g id="Group_7712" data-name="Group 7712" transform="translate(361.166 186.254)">
          <path id="Path_3730" data-name="Path 3730" d="M308.118,218.7a1.109,1.109,0,0,1-1.109-1.109V182.866a11.552,11.552,0,0,1,2.419-7.706,10.5,10.5,0,0,1,7.484-3.5,1.108,1.108,0,1,1,.185,2.209c-8.447.708-7.9,8.569-7.874,8.9l0,34.815A1.108,1.108,0,0,1,308.118,218.7Z" transform="translate(-306.99 -171.653)" fill="#333"/>
        </g>
        <g id="Group_7713" data-name="Group 7713" transform="translate(312.199 134.468)">
          <path id="Path_3731" data-name="Path 3731" d="M313.851,194.248a1.109,1.109,0,0,1,0-2.218h21.1a12.506,12.506,0,0,0,12.44-12.433v-1.465a12.429,12.429,0,0,0-6.52-10.922,1.11,1.11,0,0,1-.571-1.125,14.876,14.876,0,0,0-14.867-16.88h-.5a1.108,1.108,0,0,1-1.1-1.247,14.452,14.452,0,0,0,.113-1.712,15,15,0,0,0-30.005.006v.473a1.109,1.109,0,0,1-.985,1.1,14.98,14.98,0,0,0-13.316,14.889,14.239,14.239,0,0,0,.113,1.7,1.111,1.111,0,0,1-1.1,1.249h-1.517A12.505,12.505,0,0,0,264.7,178.112v1.466a12.507,12.507,0,0,0,12.444,12.428h25.382a1.109,1.109,0,1,1,0,2.218H277.137a14.731,14.731,0,0,1-14.658-14.642v-1.474a14.729,14.729,0,0,1,14.655-14.658h.31c-.012-.244-.019-.487-.02-.731a17.2,17.2,0,0,1,14.309-16.959,17.22,17.22,0,0,1,34.433.49c0,.251-.009.5-.022.751a17.242,17.242,0,0,1,16.509,17.206q-.007.717-.071,1.428a14.647,14.647,0,0,1,7.027,12.5v1.47a14.73,14.73,0,0,1-14.655,14.646Z" transform="translate(-262.479 -129.032)" fill="#333"/>
        </g>
        <g id="Group_7714" data-name="Group 7714" transform="translate(1.686 178.455)">
          <path id="Path_3732" data-name="Path 3732" d="M22.853,229.414H6.14a1.109,1.109,0,1,1,0-2.218H22.851a13.039,13.039,0,0,0,13.163-12.759v-1.5a12.709,12.709,0,0,0-6.888-11.2,1.108,1.108,0,0,1-.582-1.135,14.864,14.864,0,0,0,.142-1.932,15.647,15.647,0,0,0-15.861-15.381H12.3a1.11,1.11,0,0,1-1.1-1.252,14.3,14.3,0,0,0,.119-1.754,15.322,15.322,0,0,0-8.374-13.565,1.109,1.109,0,1,1,1.025-1.967,17.534,17.534,0,0,1,9.567,15.539c0,.265-.01.529-.024.8A17.848,17.848,0,0,1,30.9,198.675c0,.49-.029.982-.074,1.469a14.9,14.9,0,0,1,7.4,12.79v1.508A15.262,15.262,0,0,1,22.853,229.414Z" transform="translate(-2.347 -164.62)" fill="#333"/>
        </g>
        <g id="Group_7715" data-name="Group 7715" transform="translate(344.649 168.896)">
          <path id="Path_3733" data-name="Path 3733" d="M302.2,170.908a1.109,1.109,0,0,1-1.05-.751c-2.35-6.9-7-7.729-7.193-7.761a1.112,1.112,0,0,1-.921-1.265,1.1,1.1,0,0,1,1.253-.928c.249.037,6.152.995,8.962,9.239a1.11,1.11,0,0,1-.693,1.407A1.081,1.081,0,0,1,302.2,170.908Z" transform="translate(-293.019 -160.189)" fill="#333"/>
        </g>
        <g id="Group_7716" data-name="Group 7716" transform="translate(357.819 159.833)">
          <path id="Path_3734" data-name="Path 3734" d="M305.6,165.482a1.109,1.109,0,0,1-1.109-1.109v-10.89a1.109,1.109,0,1,1,2.218,0v10.89A1.109,1.109,0,0,1,305.6,165.482Z" transform="translate(-304.489 -152.374)" fill="#333"/>
        </g>
        <g id="Group_7717" data-name="Group 7717" transform="translate(357.14 176.955)">
          <path id="Path_3735" data-name="Path 3735" d="M304.679,176.8a1.075,1.075,0,0,1-.264-.032,1.11,1.11,0,0,1-.814-1.342,10.98,10.98,0,0,1,10.122-8.31,1.093,1.093,0,0,1,1.157,1.059,1.109,1.109,0,0,1-1.059,1.157,8.748,8.748,0,0,0-8.065,6.623A1.11,1.11,0,0,1,304.679,176.8Z" transform="translate(-303.569 -167.107)" fill="#333"/>
        </g>
        <g id="Group_7718" data-name="Group 7718" transform="translate(458.308 195.549)">
          <path id="Path_3736" data-name="Path 3736" d="M387.981,219.642a1.109,1.109,0,0,1-.694-1.974,14.668,14.668,0,0,1,9.155-3.219h.345q-.018-.366-.021-.73a17.216,17.216,0,0,1,14.31-16.972,17.22,17.22,0,0,1,30.578-10.358,1.109,1.109,0,1,1-1.722,1.4,15,15,0,0,0-26.646,9.451v.472a1.11,1.11,0,0,1-.984,1.1,14.993,14.993,0,0,0-13.319,14.9,14.443,14.443,0,0,0,.113,1.705,1.109,1.109,0,0,1-1.1,1.249h-1.517a12.446,12.446,0,0,0-7.8,2.731A1.107,1.107,0,0,1,387.981,219.642Z" transform="translate(-386.872 -180.035)" fill="#333"/>
        </g>
        <g id="Group_7719" data-name="Group 7719" transform="translate(404.18 141.25)">
          <path id="Path_3737" data-name="Path 3737" d="M353.438,146.744a1.107,1.107,0,0,1-.868-.419c-.046-.057-4.605-5.752-8.49-7.632a1.109,1.109,0,0,1,.967-2c4.341,2.1,9.061,8,9.259,8.25a1.109,1.109,0,0,1-.868,1.8Z" transform="translate(-343.454 -136.586)" fill="#333"/>
        </g>
        <g id="Group_7720" data-name="Group 7720" transform="translate(426.445 154.266)">
          <path id="Path_3738" data-name="Path 3738" d="M359.246,152.51a1.109,1.109,0,0,1-.692-1.976,12.326,12.326,0,0,1,6.8-2.668,1.109,1.109,0,1,1,.165,2.211,10.127,10.127,0,0,0-5.583,2.19A1.1,1.1,0,0,1,359.246,152.51Z" transform="translate(-358.137 -147.863)" fill="#333"/>
        </g>
        <g id="Group_7721" data-name="Group 7721" transform="translate(0 210.693)">
          <path id="Path_3739" data-name="Path 3739" d="M1.936,248.244a1.109,1.109,0,0,1-.349-2.162c.792-.263,80-26.627,150.648-52.322a1.108,1.108,0,1,1,.757,2.084C82.316,221.549,3.078,247.924,2.286,248.188A1.134,1.134,0,0,1,1.936,248.244Z" transform="translate(-0.827 -193.692)" fill="#333"/>
        </g>
        <g id="Group_7722" data-name="Group 7722" transform="translate(196.811 226.396)">
          <path id="Path_3740" data-name="Path 3740" d="M167.97,249.189a1.109,1.109,0,0,1-.724-1.949q5.013-4.321,10.2-8.708c11.273-9.575,22.93-19.479,34.011-30.361a1.109,1.109,0,0,1,1.554,1.583c-11.138,10.938-22.826,20.867-34.129,30.469q-5.168,4.388-10.189,8.7A1.111,1.111,0,0,1,167.97,249.189Z" transform="translate(-166.861 -207.854)" fill="#333"/>
        </g>
        <g id="Group_7726" data-name="Group 7726" transform="translate(107.804 226.149)">
          <g id="Group_7723" data-name="Group 7723" transform="translate(0 36.199)">
            <path id="Path_3741" data-name="Path 3741" d="M92.314,243.72a1.109,1.109,0,0,1-.407-2.141q1.529-.6,3.087-1.223a1.109,1.109,0,0,1,.823,2.059q-1.565.625-3.1,1.228A1.112,1.112,0,0,1,92.314,243.72Z" transform="translate(-91.204 -240.276)" fill="#333"/>
          </g>
          <g id="Group_7724" data-name="Group 7724" transform="translate(9.127 4.431)">
            <path id="Path_3742" data-name="Path 3742" d="M100.545,243.183a1.109,1.109,0,0,1-.419-2.136q2.962-1.208,6.012-2.471a1.109,1.109,0,1,1,.849,2.048q-3.056,1.267-6.026,2.476A1.112,1.112,0,0,1,100.545,243.183Zm12.021-4.986a1.109,1.109,0,0,1-.432-2.13q2.961-1.251,5.98-2.549a1.109,1.109,0,1,1,.875,2.038q-3.024,1.3-5.991,2.554A1.119,1.119,0,0,1,112.566,238.2Zm11.956-5.141a1.109,1.109,0,0,1-.445-2.125q2.952-1.291,5.942-2.621a1.109,1.109,0,0,1,.9,2.027q-2.994,1.331-5.955,2.626A1.085,1.085,0,0,1,124.522,233.057Zm11.88-5.288a1.109,1.109,0,0,1-.458-2.119q2.947-1.332,5.91-2.7a1.109,1.109,0,1,1,.928,2.014q-2.969,1.367-5.923,2.706A1.116,1.116,0,0,1,136.4,227.769Zm11.817-5.445a1.109,1.109,0,0,1-.472-2.112q2.937-1.377,5.876-2.78a1.109,1.109,0,0,1,.955,2q-2.942,1.405-5.888,2.787A1.113,1.113,0,0,1,148.22,222.324Zm11.743-5.608a1.109,1.109,0,0,1-.486-2.107q2.924-1.422,5.834-2.865a1.108,1.108,0,1,1,.985,1.986q-2.914,1.447-5.848,2.874A1.113,1.113,0,0,1,159.963,216.717Z" transform="translate(-99.435 -211.627)" fill="#333"/>
          </g>
          <g id="Group_7725" data-name="Group 7725" transform="translate(80.209)">
            <path id="Path_3743" data-name="Path 3743" d="M164.648,211.361a1.109,1.109,0,0,1-.5-2.1q1.484-.753,2.96-1.508a1.108,1.108,0,1,1,1.011,1.973q-1.48.758-2.968,1.514A1.1,1.1,0,0,1,164.648,211.361Z" transform="translate(-163.538 -207.631)" fill="#333"/>
          </g>
        </g>
      </g>
      <g id="Foreground" transform="translate(639.466 1021.421)">
        <g id="Group_7728" data-name="Group 7728" transform="translate(0 0)">
          <path id="Path_3746" data-name="Path 3746" d="M257.92,76.3a9.414,9.414,0,1,0-13.087,11.466l.059.031a9.3,9.3,0,0,0,1.542.594l.74,2.827.535,2.046.357,1.367.675,2.581a.523.523,0,0,0,.507.391h.013a.524.524,0,0,0,.5-.417l.64-3.063.3-1.447.478-2.294.417-1.992a9.434,9.434,0,0,0,4.26-2.587c.073-.077.146-.152.217-.231a9.424,9.424,0,0,0,1.507-2.308,9.305,9.305,0,0,0,.839-3.453c.008-.153.02-.3.02-.458A9.361,9.361,0,0,0,257.92,76.3Zm-6.351,5.232h-1.015v1.745H248.81V81.527h-3.6V80.289l3.7-5.437h1.645v5.293h1.015Z" transform="translate(-122.785 -41.744)" fill="#333"/>
          <path id="Path_3747" data-name="Path 3747" d="M247.24,76.763,245.693,79.1h2.031V77.667c0-.238.011-.583.029-1.037s.034-.716.046-.789h-.046A6.429,6.429,0,0,1,247.24,76.763Z" transform="translate(-121.699 -40.695)" fill="#333"/>
          <path id="Path_3748" data-name="Path 3748" d="M202.253,97.12a9.4,9.4,0,0,0-2.58,18.44l.491,1.88.9,3.459.909,3.482a.525.525,0,0,0,.507.39h.013a.521.521,0,0,0,.5-.416l.765-3.661.752-3.6.32-1.536a9.4,9.4,0,0,0-2.581-18.44Zm2.225,12.8a4.113,4.113,0,0,1-2.543.682,6.2,6.2,0,0,1-2.456-.458v-1.528a5.6,5.6,0,0,0,1.089.406,4.579,4.579,0,0,0,1.176.157,2.292,2.292,0,0,0,1.316-.3,1.107,1.107,0,0,0,.424-.97.875.875,0,0,0-.489-.848,3.627,3.627,0,0,0-1.56-.25h-.646v-1.376h.657a3.055,3.055,0,0,0,1.447-.259.932.932,0,0,0,.457-.885q0-.965-1.211-.965a2.779,2.779,0,0,0-.853.14,4.159,4.159,0,0,0-.962.482l-.833-1.237a4.634,4.634,0,0,1,2.777-.836,3.585,3.585,0,0,1,2.086.535,1.709,1.709,0,0,1,.765,1.485,1.99,1.99,0,0,1-.483,1.354,2.512,2.512,0,0,1-1.356.767v.034a2.716,2.716,0,0,1,1.56.624,1.746,1.746,0,0,1,.53,1.338A2.266,2.266,0,0,1,204.478,109.919Z" transform="translate(-131.11 -36.906)" fill="#333"/>
          <path id="Path_3749" data-name="Path 3749" d="M159.04,125.865a10.58,10.58,0,1,0-9.937,18.064l2.594,9.925a.59.59,0,0,0,.57.439h.014a.589.589,0,0,0,.562-.469l.918-4.4.848-4.061.3-1.44a10.543,10.543,0,0,0,4.13-18.064Zm-3.485,12.275H148.5v-1.48l2.533-2.555q1.126-1.15,1.47-1.6a3.516,3.516,0,0,0,.5-.822,2.094,2.094,0,0,0,.152-.786,1.146,1.146,0,0,0-.335-.9,1.306,1.306,0,0,0-.894-.3,2.577,2.577,0,0,0-1.139.269,5.879,5.879,0,0,0-1.152.764l-1.159-1.37a7.548,7.548,0,0,1,1.235-.9,4.566,4.566,0,0,1,1.07-.4,5.5,5.5,0,0,1,1.3-.141,3.848,3.848,0,0,1,1.67.344,2.668,2.668,0,0,1,1.125.965,2.56,2.56,0,0,1,.4,1.418,3.484,3.484,0,0,1-.245,1.305,5.033,5.033,0,0,1-.76,1.25,18.607,18.607,0,0,1-1.812,1.825l-1.3,1.219v.1h4.4Z" transform="translate(-140.265 -32.266)" fill="#333"/>
          <path id="Path_3750" data-name="Path 3750" d="M163.086,151.242c7.066,2.92,16.127,4.99,24.889,6.993,11.686,2.669,23.769,5.43,26.258,9.522a2.578,2.578,0,0,1,.328,2.038c-1.47,2.274-15.4,9.385-72.96,30.277a1.763,1.763,0,0,0,.6,3.42,1.72,1.72,0,0,0,.6-.107c67.924-24.651,74.405-29.758,75.15-32.611a6.062,6.062,0,0,0-.7-4.845c-3.266-5.367-14.955-8.039-28.492-11.131-8.62-1.968-17.534-4-24.326-6.811a30.455,30.455,0,0,1-8.156-4.73l-.8,3.829A36.376,36.376,0,0,0,163.086,151.242Z" transform="translate(-140.437 -28.693)" fill="#333"/>
          <path id="Path_3751" data-name="Path 3751" d="M177.506,202.291q-1.551.8-3.135,1.614A1.175,1.175,0,0,0,175.445,206q1.587-.813,3.146-1.617a1.177,1.177,0,1,0-1.086-2.088Z" transform="translate(-134.51 -18.206)" fill="#333"/>
          <path id="Path_3752" data-name="Path 3752" d="M223.864,120.522c-2.35.137-4.756.279-7.194.434a1.175,1.175,0,0,0,.073,2.348l.075,0c2.435-.153,4.836-.3,7.182-.432a1.175,1.175,0,1,0-.137-2.347Z" transform="translate(-127.062 -32.74)" fill="#333"/>
          <path id="Path_3753" data-name="Path 3753" d="M236.063,119.8c-2.277.148-4.68.291-7.18.435a1.175,1.175,0,0,0,.067,2.349l.068,0c2.506-.145,4.915-.287,7.2-.435a1.177,1.177,0,0,0,1.1-1.249A1.2,1.2,0,0,0,236.063,119.8Z" transform="translate(-124.889 -32.869)" fill="#333"/>
          <path id="Path_3754" data-name="Path 3754" d="M248.142,118.7c-1.89.277-4.209.53-7.091.775a1.175,1.175,0,0,0,.1,2.345c.033,0,.067,0,.1,0,2.929-.249,5.3-.508,7.232-.792a1.175,1.175,0,1,0-.342-2.325Z" transform="translate(-122.717 -33.067)" fill="#333"/>
          <path id="Path_3755" data-name="Path 3755" d="M246.7,104.493q-.831-.479-1.614-.95a1.176,1.176,0,1,0-1.213,2.016q.8.481,1.649.97a49.7,49.7,0,0,1,4.35,2.778,1.176,1.176,0,1,0,1.388-1.9A51.183,51.183,0,0,0,246.7,104.493Z" transform="translate(-122.124 -35.793)" fill="#333"/>
          <path id="Path_3756" data-name="Path 3756" d="M160.259,136.621a5.509,5.509,0,0,0,.914,2.942,1.177,1.177,0,1,0,2-1.249,3.179,3.179,0,0,1-.555-1.693,4.294,4.294,0,0,1,1.848-3.053,1.176,1.176,0,1,0-1.531-1.786,8.4,8.4,0,0,0-2.089,2.533,12.2,12.2,0,0,1-.574,2.15C160.267,136.516,160.259,136.568,160.259,136.621Z" transform="translate(-136.909 -30.786)" fill="#333"/>
          <path id="Path_3757" data-name="Path 3757" d="M272.918,80.807c-2.161-.077-4.283-.114-6.3-.114l-.932,0a1.176,1.176,0,0,0,.009,2.351h.008l.909,0c2,0,4.095.038,6.228.111h.041a1.175,1.175,0,0,0,.04-2.349Z" transform="translate(-118.349 -39.831)" fill="#333"/>
          <path id="Path_3758" data-name="Path 3758" d="M209.131,183.639c-1.762,1.326-3.716,2.714-5.806,4.122a1.176,1.176,0,0,0,1.317,1.948c2.125-1.431,4.114-2.841,5.909-4.195a1.176,1.176,0,1,0-1.42-1.875Z" transform="translate(-129.334 -21.546)" fill="#333"/>
          <path id="Path_3759" data-name="Path 3759" d="M209.753,154.792a1.174,1.174,0,0,0-.634-1.537c-2.1-.872-4.4-1.713-6.857-2.5a1.176,1.176,0,1,0-.72,2.238c2.39.766,4.634,1.584,6.671,2.431a1.178,1.178,0,0,0,1.54-.633Z" transform="translate(-129.705 -27.368)" fill="#333"/>
          <path id="Path_3760" data-name="Path 3760" d="M222.508,164.913a1.178,1.178,0,0,0-2.243.721,9.594,9.594,0,0,1,.378,1.661,7.9,7.9,0,0,1,.071,1.054,9.927,9.927,0,0,1-.7,3.51,1.178,1.178,0,0,0,2.2.831,12.264,12.264,0,0,0,.847-4.341,10.235,10.235,0,0,0-.092-1.368A12,12,0,0,0,222.508,164.913Z" transform="translate(-126.283 -24.982)" fill="#333"/>
          <path id="Path_3761" data-name="Path 3761" d="M188.71,196.547q-3.061,1.7-6.294,3.43a1.176,1.176,0,0,0,1.113,2.071q3.25-1.739,6.327-3.449a1.175,1.175,0,1,0-1.146-2.052Z" transform="translate(-133.075 -19.232)" fill="#333"/>
          <path id="Path_3762" data-name="Path 3762" d="M199.167,190.417c-1.913,1.187-3.976,2.427-6.13,3.685a1.176,1.176,0,1,0,1.189,2.029c2.173-1.268,4.255-2.519,6.186-3.718a1.176,1.176,0,1,0-1.244-2Z" transform="translate(-131.177 -20.329)" fill="#333"/>
          <path id="Path_3763" data-name="Path 3763" d="M213.722,155.634a1.177,1.177,0,1,0-1.186,2.032,28.875,28.875,0,0,1,5.552,4.075,1.176,1.176,0,1,0,1.639-1.688A31.282,31.282,0,0,0,213.722,155.634Z" transform="translate(-127.706 -26.518)" fill="#333"/>
          <path id="Path_3764" data-name="Path 3764" d="M217.795,175.629a47.449,47.449,0,0,1-4.9,5,1.177,1.177,0,0,0,1.571,1.752,49.424,49.424,0,0,0,5.143-5.252,1.176,1.176,0,1,0-1.814-1.5Z" transform="translate(-127.608 -23.006)" fill="#333"/>
          <path id="Path_3765" data-name="Path 3765" d="M211.644,121.3c-2.391.173-4.8.36-7.2.567a1.175,1.175,0,0,0,.1,2.347.97.97,0,0,0,.1,0c2.39-.2,4.786-.392,7.168-.565a1.175,1.175,0,1,0-.172-2.343Z" transform="translate(-129.234 -32.602)" fill="#333"/>
          <path id="Path_3766" data-name="Path 3766" d="M253.4,111.137a1.174,1.174,0,0,0-.683,1.516,4.4,4.4,0,0,1,.29,1.59,12.176,12.176,0,0,1-.664,3.3l-.231.828-.016.019a1.177,1.177,0,0,0,1.766,1.556,2.279,2.279,0,0,0,.5-.894l.244-.853a14.046,14.046,0,0,0,.757-3.953,6.736,6.736,0,0,0-.442-2.427A1.179,1.179,0,0,0,253.4,111.137Z" transform="translate(-120.612 -34.425)" fill="#333"/>
          <path id="Path_3767" data-name="Path 3767" d="M190.293,147.685a1.176,1.176,0,1,0-.469,2.3c2.38.482,4.724,1.017,6.97,1.587a1.175,1.175,0,1,0,.582-2.277C195.094,148.718,192.71,148.175,190.293,147.685Z" transform="translate(-131.813 -27.908)" fill="#333"/>
          <path id="Path_3768" data-name="Path 3768" d="M237.095,88.164a1.176,1.176,0,1,0-1.173-2.038c-3.032,1.739-4.633,3.9-4.759,6.418a1.177,1.177,0,0,0,1.118,1.233h.059a1.176,1.176,0,0,0,1.176-1.117C233.6,90.993,234.8,89.479,237.095,88.164Z" transform="translate(-124.286 -38.891)" fill="#333"/>
          <path id="Path_3769" data-name="Path 3769" d="M188.577,124.916a1.18,1.18,0,0,0-1.352-.971c-2.515.41-4.915.855-7.132,1.324a1.175,1.175,0,0,0,.243,2.325,1.163,1.163,0,0,0,.245-.026c2.182-.462,4.545-.9,7.023-1.3A1.176,1.176,0,0,0,188.577,124.916Z" transform="translate(-133.544 -32.133)" fill="#333"/>
          <path id="Path_3770" data-name="Path 3770" d="M167.3,140.808a1.176,1.176,0,1,0-1.15,2.052,53.917,53.917,0,0,0,6.69,3.066,1.154,1.154,0,0,0,.426.08,1.175,1.175,0,0,0,.426-2.27A51.766,51.766,0,0,1,167.3,140.808Z" transform="translate(-135.967 -29.155)" fill="#333"/>
          <path id="Path_3771" data-name="Path 3771" d="M239.507,102.856a1.176,1.176,0,1,0,1.4-1.89,33.992,33.992,0,0,1-5.193-4.579,1.177,1.177,0,0,0-1.762,1.561A36.229,36.229,0,0,0,239.507,102.856Z" transform="translate(-123.842 -37.107)" fill="#333"/>
          <path id="Path_3772" data-name="Path 3772" d="M176.563,127.353a1.181,1.181,0,0,0-1.457-.8,62.181,62.181,0,0,0-6.927,2.394,1.176,1.176,0,0,0,.457,2.259,1.2,1.2,0,0,0,.457-.092,60,60,0,0,1,6.663-2.3A1.173,1.173,0,0,0,176.563,127.353Z" transform="translate(-135.627 -31.675)" fill="#333"/>
          <path id="Path_3773" data-name="Path 3773" d="M183.157,146.552c-.322-.078-2.2-.547-4.751-1.318a1.175,1.175,0,1,0-.684,2.249c2.86.867,4.848,1.346,4.931,1.366a1.04,1.04,0,0,0,.134.025c.038,0,.808.1,2.128.3a1.175,1.175,0,1,0,.357-2.323C185.254,146.849,183.759,146.624,183.157,146.552Z" transform="translate(-133.949 -28.35)" fill="#333"/>
          <path id="Path_3774" data-name="Path 3774" d="M200.719,123.405a1.171,1.171,0,0,0-1.295-1.046c-2.522.262-4.938.542-7.181.83a1.176,1.176,0,0,0,.15,2.342,1.352,1.352,0,0,0,.153-.009c2.223-.286,4.62-.564,7.124-.826A1.177,1.177,0,0,0,200.719,123.405Z" transform="translate(-131.397 -32.414)" fill="#333"/>
          <path id="Path_3775" data-name="Path 3775" d="M234.864,182.118c-.424-.168-.833-.362-1.235-.567-.229-.118-.457-.233-.679-.362-4.071,6.981-10.81,15.086-20.484,24.707-.5.5-.99.992-1.508,1.5a1.764,1.764,0,0,0,2.475,2.515c10.3-10.1,17.457-18.5,21.942-25.835Z" transform="translate(-127.977 -21.939)" fill="#333"/>
          <path id="Path_3776" data-name="Path 3776" d="M157.723,126.477a12.405,12.405,0,0,1,2.176,2.83c10.583-5.789,25.406-9.488,45.638-11.336l-.906-3.465C183.873,116.453,168.661,120.364,157.723,126.477Z" transform="translate(-137.36 -33.811)" fill="#333"/>
          <path id="Path_3777" data-name="Path 3777" d="M244.262,77.242c-7.617,1.541-16.491,7.53-18.233,15.824-.926,4.409-.086,10.982,9.177,17.253,2.156,1.46,4.1,2.75,5.81,3.891,3.181,2.115,6.047,4.022,7.558,5.236-2.125.2-6.1.2-10.515.2-4.118-.009-9.239-.008-15.417.112q-9.7.186-18.225.749l-.75,3.591c5.918-.409,12.244-.683,19.044-.814,6.142-.12,11.246-.121,15.346-.112,11.2,0,14.215.011,14.946-2.391.715-2.357-1.56-3.871-10.026-9.5-1.707-1.136-3.639-2.421-5.785-3.875-6.049-4.1-8.713-8.8-7.7-13.612,1.352-6.44,8.594-11.553,15.083-13.007a11.038,11.038,0,0,1-.35-2.733C244.221,77.777,244.242,77.511,244.262,77.242Z" transform="translate(-129.181 -40.445)" fill="#333"/>
          <path id="Path_3778" data-name="Path 3778" d="M257.142,78.813c6.518-.173,14.388-.035,24.579.5l-2.567-3.659c-9.139-.432-16.369-.528-22.448-.356a11.063,11.063,0,0,1,.452,3.115C257.158,78.545,257.148,78.678,257.142,78.813Z" transform="translate(-119.738 -40.806)" fill="#333"/>
          <path id="Path_3779" data-name="Path 3779" d="M240.566,84.252a1.156,1.156,0,0,0-.144.944,1.177,1.177,0,0,0,1.132.851,1.134,1.134,0,0,0,.232-.033c.186-.054.372-.112.558-.165A11.3,11.3,0,0,1,240.566,84.252Z" transform="translate(-122.645 -39.197)" fill="#333"/>
          <path id="Path_3780" data-name="Path 3780" d="M242.163,85.629l-.031-.022c-.186.053-.372.111-.558.165a.808.808,0,0,0,.093-.013C241.83,85.713,242,85.674,242.163,85.629Z" transform="translate(-122.432 -38.956)" fill="#333"/>
          <path id="Path_3781" data-name="Path 3781" d="M260.048,80.882c-1.12.064-2.228.146-3.326.239a11.152,11.152,0,0,1-1.07,2.2c-.06.1-.117.191-.179.284,1.543-.151,3.109-.283,4.707-.373a1.178,1.178,0,0,0,1.11-1.24A1.192,1.192,0,0,0,260.048,80.882Z" transform="translate(-119.958 -39.797)" fill="#333"/>
          <path id="Path_3782" data-name="Path 3782" d="M281.63,83.187l-1.352-1.927c-.8-.058-1.6-.115-2.413-.167a1.192,1.192,0,0,0-1.251,1.1,1.238,1.238,0,0,0,1.1,1.249q1.764.115,3.511.244c.029,0,.06,0,.089,0a1.15,1.15,0,0,0,.554-.159Z" transform="translate(-116.194 -39.76)" fill="#333"/>
          <path id="Path_3783" data-name="Path 3783" d="M261.859,100.027c-3.558-2.019-8.429-4.785-8.657-5.907,0-.006.362-.717,3.265-1.652.78-.251,1.569-.481,2.362-.7l-.362-1.387-.53-2.027q-1.286.348-2.554.754c-2.508.806-5.421,2.057-5.683,4.593-.34,3.283,3.937,5.711,10.411,9.387,9.8,5.564,22,12.487,18.373,22.471-2.791,7.681-23.589,8.451-47.671,9.344-15.369.569-32.787,1.215-50.524,3.58a1.519,1.519,0,0,0-.192.035c-7.982,1.98-10.656,3.441-10.6,5.791.077,3.074,4.681,4.129,17.984,6.731,4.619.9,9.853,1.928,14.953,3.15,1.606.385,3.545.761,5.789,1.2,11.21,2.176,28.15,5.464,34.671,15.644.2.31.362.633.537.951.207-.06.418-.112.63-.163a14.173,14.173,0,0,1,3.062-.386,20.18,20.18,0,0,0-1.252-2.3c-7.336-11.455-25.171-14.916-36.972-17.206-2.2-.428-4.108-.8-5.638-1.165-5.172-1.239-10.446-2.27-15.1-3.181-5.382-1.052-11.883-2.324-14.387-3.372a39.294,39.294,0,0,1,7.078-2.245c17.536-2.331,34.828-2.972,50.09-3.538,27.436-1.017,47.26-1.752,50.863-11.667C286.449,113.985,271.651,105.585,261.859,100.027Z" transform="translate(-135.264 -38.466)" fill="#333"/>
          <path id="Path_3784" data-name="Path 3784" d="M289.777,87.307a1.8,1.8,0,0,0-.267-.041c-1.976-.1-4-.231-6.07-.36-10.235-.637-21.5-1.336-32.309.276l-.481,2.3-.291,1.395c10.837-1.819,22.4-1.1,32.859-.455,2.079.131,4.118.257,6.106.363a1.8,1.8,0,0,0,1.858-1.668A1.762,1.762,0,0,0,289.777,87.307Z" transform="translate(-120.868 -38.852)" fill="#333"/>
          <path id="Path_3785" data-name="Path 3785" d="M305.216,62.491a17.7,17.7,0,0,0-17.35-16.485,17.47,17.47,0,0,0-17.231,16.485,17.721,17.721,0,0,0,3.611,11.817l4.668,6.653,2.575,3.671,3.48,4.959,1.713,2.441a1.519,1.519,0,0,0,1.217.651h.055a1.455,1.455,0,0,0,1.213-.651l12.377-17.725A18.313,18.313,0,0,0,305.216,62.491Zm-10.067,1.123a7.335,7.335,0,0,1-7.341,7.267h-.06a7.327,7.327,0,0,1,.058-14.653h.06a7.314,7.314,0,0,1,7.284,7.33Z" transform="translate(-117.264 -46.006)" fill="#333"/>
          <path id="Path_3786" data-name="Path 3786" d="M238.066,160.905c-.237-.014-.472-.035-.713-.035a11.838,11.838,0,0,0-2.254.22c-.214.041-.424.1-.634.15a11.725,11.725,0,0,0-3.07,21.508c.206.12.417.231.63.338a11.706,11.706,0,0,0,2.1.833l.227.872,2.655,10.155a.654.654,0,0,0,.634.489h.015a.655.655,0,0,0,.624-.521l2.3-10.995a11.737,11.737,0,0,0-2.514-23.014Zm.384,17.311h-2.37v-6.473l.024-1.064.038-1.163q-.59.588-.82.773l-1.289,1.033L232.89,169.9l3.612-2.869h1.948Z" transform="translate(-125.281 -25.557)" fill="#333"/>
        </g>
      </g>
    </g>
  </g>
</svg>
