<svg xmlns="http://www.w3.org/2000/svg" viewBox="0 0 400 320"><defs><style>.cls-1{fill:none;}.cls-1,.cls-2{stroke:#58b3b2;stroke-linecap:round;stroke-linejoin:round;stroke-width:2px;}.cls-2,.cls-9{fill:#fff;}.cls-3{fill:#c0e2e2;}.cls-4{fill:#b28b67;}.cls-5{fill:#2e3e5a;}.cls-6,.cls-7{fill:#ffd964;}.cls-7{stroke:#fdd651;}.cls-8{fill:#708daf;}.cls-10{fill:#96b7df;}</style></defs><g id="Background_lines" data-name="Background lines"><line id="Line_191" data-name="Line 191" class="cls-1" x1="392.63" y1="6.77" x2="392.63" y2="311.54"/><line id="Line_192" data-name="Line 192" class="cls-1" x1="364.61" y1="6.77" x2="364.61" y2="311.54"/><line id="Line_195" data-name="Line 195" class="cls-1" x1="176.69" y1="6.77" x2="176.69" y2="309.63"/><line id="Line_196" data-name="Line 196" class="cls-1" x1="148.68" y1="6.77" x2="148.68" y2="309.63"/><line id="Line_201" data-name="Line 201" class="cls-1" x1="182.35" y1="213.99" x2="356.73" y2="213.99"/><line id="Line_202" data-name="Line 202" class="cls-1" x1="74.88" y1="213.99" x2="143.11" y2="213.99"/><line id="Line_203" data-name="Line 203" class="cls-1" x1="143.45" y1="201.24" x2="75.17" y2="201.24"/><line id="Line_204" data-name="Line 204" class="cls-1" x1="356.73" y1="201.24" x2="182.35" y2="201.24"/><line id="Line_205" data-name="Line 205" class="cls-1" x1="183.35" y1="103.02" x2="356.73" y2="103.02"/><line id="Line_206" data-name="Line 206" class="cls-1" x1="3.77" y1="103.02" x2="143.11" y2="103.02"/><line id="Line_207" data-name="Line 207" class="cls-1" x1="142.56" y1="91.43" x2="3.53" y2="91.43"/><line id="Line_214" data-name="Line 214" class="cls-1" x1="356.73" y1="91.43" x2="183.02" y2="91.43"/><path id="Path_3833" data-name="Path 3833" class="cls-2" d="M188.37,187.07c0,10.94,44.2,10.94,44.2,0s-9.9-19.8-22.1-19.8S188.37,176.13,188.37,187.07Z"/><ellipse id="Ellipse_32" data-name="Ellipse 32" class="cls-2" cx="211.98" cy="37.11" rx="12.21" ry="1.67" transform="translate(-0.4 2.35) rotate(-0.63)"/><path id="Path_3834" data-name="Path 3834" class="cls-1" d="M224.26,37s23.4,38.64-1,47.67A46.94,46.94,0,0,1,212.36,86a41.86,41.86,0,0,1-10.58-1.15c-24.62-8.48-2.08-47.63-2.08-47.63"/><ellipse id="Ellipse_38" data-name="Ellipse 38" class="cls-2" cx="257.26" cy="129.76" rx="12.21" ry="2.22" transform="translate(-1.55 3.12) rotate(-0.69)"/><path id="Path_3886" data-name="Path 3886" class="cls-1" d="M269.55,129.61A72.12,72.12,0,0,0,271.23,153c4,15.59,11.33,33.3-2.47,40.06a35.79,35.79,0,0,1-10.87,1.81,32.52,32.52,0,0,1-10.59-1.55c-13.88-6.39-6.08-23.38-2.54-39a65.11,65.11,0,0,0,.22-24.38"/><ellipse id="Ellipse_34" data-name="Ellipse 34" class="cls-1" cx="100.49" cy="17.56" rx="17.06" ry="2.33" transform="translate(-0.19 1.11) rotate(-0.63)"/><path id="Path_3836" data-name="Path 3836" class="cls-1" d="M117.65,17.37s32.67,54-1.44,66.57A64.7,64.7,0,0,1,101,85.87a58.88,58.88,0,0,1-14.79-1.6c-34.37-11.85-2.9-66.52-2.9-66.52"/><ellipse id="Ellipse_35" data-name="Ellipse 35" class="cls-2" cx="270.3" cy="37.11" rx="12.21" ry="1.67" transform="translate(-0.39 2.99) rotate(-0.63)"/><ellipse id="Ellipse_39" data-name="Ellipse 39" class="cls-2" cx="329.44" cy="37.11" rx="12.21" ry="1.67" transform="matrix(1, -0.01, 0.01, 1, -0.39, 3.65)"/><path id="Path_3837" data-name="Path 3837" class="cls-1" d="M282.58,37s23.4,38.64-1,47.67A46.79,46.79,0,0,1,270.68,86a42,42,0,0,1-10.59-1.15C235.48,76.4,258,37.25,258,37.25"/><path id="Path_3887" data-name="Path 3887" class="cls-1" d="M341.73,37s23.39,38.64-1,47.67A46.94,46.94,0,0,1,329.82,86a41.86,41.86,0,0,1-10.58-1.15c-24.62-8.48-2.08-47.63-2.08-47.63"/><g id="Group_7838" data-name="Group 7838"><g id="Group_7823" data-name="Group 7823"><path id="Path_3840" data-name="Path 3840" class="cls-1" d="M313.35,158.24c-4.4.13-5,.41-5,.63,0,.41,9.22.73,20.59.73s20.59-.32,20.59-.73c0-.17-1.75-.33-4.68-.46"/><path id="Path_3841" data-name="Path 3841" class="cls-1" d="M349.59,158.87l-4.37,36.5c0,.35-7.27.63-16.22.63s-16.23-.28-16.23-.63l-4.37-36.5"/></g><g id="Group_7824" data-name="Group 7824"><path id="Path_3842" data-name="Path 3842" class="cls-1" d="M342.77,159.13a21.36,21.36,0,0,0,9.82-12.37c-4.73,3.87-12,5.79-15.85,12.4"/><path id="Path_3843" data-name="Path 3843" class="cls-1" d="M341,154.35a10.45,10.45,0,0,0,.47-5.26,29.31,29.31,0,0,0-6.23,3.71,17.73,17.73,0,0,0-4.73,6.56"/><path id="Path_3844" data-name="Path 3844" class="cls-1" d="M329.59,158.34a6.88,6.88,0,0,0-3.41-3l-4.64-2.52A25.94,25.94,0,0,1,315,148.4a.83.83,0,0,0-.49-.31c-.45-.05-.63.51-.62.92.08,3.35,3.19,8.3,6.1,10.33"/><path id="Path_3845" data-name="Path 3845" class="cls-1" d="M315.76,154.11a9.73,9.73,0,0,0-3.23-2.64c-2-1-4-1.28-6-2.28a1.11,1.11,0,0,0-.62-.17.66.66,0,0,0-.53.62,1.48,1.48,0,0,0,.27.81,26.75,26.75,0,0,0,2.71,3.86c2.09,2.5,4.57,3.61,6.06,4.67"/><path id="Path_3846" data-name="Path 3846" class="cls-1" d="M332.13,156.26c3.3-4.48,3.9-12.2,1.33-17.06a1,1,0,0,0-.47-.52c-.38-.15-.8.11-1.12.36a23,23,0,0,0-4.54,4.22c-2.25,3-2.62,7.82-2.12,11.46"/><path id="Path_3847" data-name="Path 3847" class="cls-1" d="M341.61,152.19a9.46,9.46,0,0,0,5-4,24.73,24.73,0,0,0,2.51-5.72A34.62,34.62,0,0,0,337.24,148a11.5,11.5,0,0,0-2.53,2.68"/><path id="Path_3848" data-name="Path 3848" class="cls-1" d="M339.83,146.15A15.32,15.32,0,0,0,341,132.72a12.66,12.66,0,0,1-2.39,3.23c-.78.76-2,1.35-2.7,2.18a5.81,5.81,0,0,0-1.33,3.61"/><path id="Path_3849" data-name="Path 3849" class="cls-1" d="M327.54,142.9c.31-1-.46-2.42-1.06-3.29a11.5,11.5,0,0,0-2.31-2.26l-4.73-3.84c.28,2.72-.4,5.49.13,8.18a17,17,0,0,0,1.42,3.9,17.51,17.51,0,0,0,3.78,5.57"/><path id="Path_3850" data-name="Path 3850" class="cls-1" d="M321.87,147.36a7.33,7.33,0,0,0-2.72-2.18,16.37,16.37,0,0,0-3-1.1,16.17,16.17,0,0,1-5.8-3.05,11.76,11.76,0,0,0,3.5,8.62"/><path id="Path_3851" data-name="Path 3851" class="cls-1" d="M319.43,138.69c-.28-1.48-2.2-2.81-3.49-3.74a13.16,13.16,0,0,1-3.56-3.09,18.57,18.57,0,0,0,.07,6.31,9.51,9.51,0,0,0,3.25,5.47"/><path id="Path_3852" data-name="Path 3852" class="cls-1" d="M331.54,139.05a8.66,8.66,0,0,0-1-6.67c-1.08-1.71-2.53-3.21-3.46-5a28,28,0,0,0-3.7,6.11,4.05,4.05,0,0,0-.33,2.63"/><path id="Path_3853" data-name="Path 3853" class="cls-1" d="M336.87,137.2c1.36-2.38,1-5.24.66-7.9a18.41,18.41,0,0,1-2.93,2.35,7.3,7.3,0,0,0-2.69,4.83"/></g></g><g id="Group_7823-2" data-name="Group 7823-2"><path id="Path_3840-2" data-name="Path 3840-2" class="cls-1" d="M14.69,47.78c-4.4.14-5,.41-5,.64,0,.4,9.22.73,20.6.73s20.59-.33,20.59-.73c0-.18-1.76-.34-4.68-.47"/><path id="Path_3841-2" data-name="Path 3841-2" class="cls-1" d="M50.92,48.41,46.56,84.92c0,.34-7.27.62-16.23.62s-16.22-.28-16.22-.62L9.74,48.41"/></g><g id="Group_7824-2" data-name="Group 7824-2"><path id="Path_3842-2" data-name="Path 3842-2" class="cls-1" d="M44.11,48.68a21.43,21.43,0,0,0,9.82-12.37c-4.74,3.86-12,5.78-15.86,12.39"/><path id="Path_3843-2" data-name="Path 3843-2" class="cls-1" d="M42.32,43.89a10.56,10.56,0,0,0,.47-5.26,29.1,29.1,0,0,0-6.23,3.72,17.35,17.35,0,0,0-4.73,6.56"/><path id="Path_3844-2" data-name="Path 3844-2" class="cls-1" d="M30.93,47.88a7,7,0,0,0-3.41-3l-4.65-2.52A26.27,26.27,0,0,1,16.32,38a.87.87,0,0,0-.49-.32c-.44-.05-.63.51-.62.92.09,3.35,3.19,8.3,6.11,10.33"/><path id="Path_3845-2" data-name="Path 3845-2" class="cls-1" d="M17.1,43.66A9.69,9.69,0,0,0,13.87,41c-2-1-4-1.28-6-2.29a1.13,1.13,0,0,0-.62-.16.64.64,0,0,0-.53.62A1.56,1.56,0,0,0,7,40a27.14,27.14,0,0,0,2.72,3.86c2.09,2.49,4.57,3.6,6,4.67"/><path id="Path_3846-2" data-name="Path 3846-2" class="cls-1" d="M33.47,45.8c3.29-4.48,3.89-12.19,1.32-17a1,1,0,0,0-.47-.52c-.37-.16-.79.1-1.11.35a23.61,23.61,0,0,0-4.54,4.22c-2.25,3-2.62,7.83-2.12,11.47"/><path id="Path_3847-2" data-name="Path 3847-2" class="cls-1" d="M43,41.73a9.31,9.31,0,0,0,5-4,24.32,24.32,0,0,0,2.51-5.72,34.57,34.57,0,0,0-11.88,5.47,11.34,11.34,0,0,0-2.53,2.69"/><path id="Path_3848-2" data-name="Path 3848-2" class="cls-1" d="M41.16,35.69a15.29,15.29,0,0,0,1.2-13.43A12.66,12.66,0,0,1,40,25.49c-.79.77-2,1.36-2.7,2.19a5.77,5.77,0,0,0-1.33,3.6"/><path id="Path_3849-2" data-name="Path 3849-2" class="cls-1" d="M28.88,32.45c.3-1-.47-2.42-1.06-3.3a11.73,11.73,0,0,0-2.31-2.25l-4.74-3.85c.28,2.72-.39,5.49.14,8.18a17.49,17.49,0,0,0,1.41,3.9,17.69,17.69,0,0,0,3.79,5.58"/><path id="Path_3850-2" data-name="Path 3850-2" class="cls-1" d="M23.21,36.91a7.21,7.21,0,0,0-2.72-2.18,17,17,0,0,0-3-1.11,15.78,15.78,0,0,1-5.8-3,11.73,11.73,0,0,0,3.5,8.63"/><path id="Path_3851-2" data-name="Path 3851-2" class="cls-1" d="M20.77,28.23c-.29-1.48-2.2-2.8-3.49-3.74a13.5,13.5,0,0,1-3.57-3.08,18.57,18.57,0,0,0,.08,6.31A9.4,9.4,0,0,0,17,33.18"/><path id="Path_3852-2" data-name="Path 3852-2" class="cls-1" d="M32.88,28.59a8.68,8.68,0,0,0-1-6.66c-1.08-1.71-2.53-3.22-3.47-5A29.28,29.28,0,0,0,24.73,23a4.15,4.15,0,0,0-.33,2.64"/><path id="Path_3853-2" data-name="Path 3853-2" class="cls-1" d="M38.21,26.74c1.36-2.38,1-5.23.66-7.9a17.53,17.53,0,0,1-2.94,2.35A7.31,7.31,0,0,0,33.25,26"/></g></g><g id="Background_solid" data-name="Background solid"><path id="Subtraction_5" data-name="Subtraction 5" class="cls-3" d="M300.31,284.8a27.89,27.89,0,0,1-9.85-1.93,48.65,48.65,0,0,1-13.66-8.35c-6.28-5.41-8.53-10.15-9.32-13.18a12.66,12.66,0,0,1,2.89-11.91c3.09-3.64,8.14-6.38,15-8.14a77.18,77.18,0,0,1,18.42-2.09c1.54,0,3.05,0,4.51.11,12.3.66,26.1,3.4,42.19,8.38a183.91,183.91,0,0,1,25,10c7.36,3.53,15.21,7.74,24,12.89v6c-1.74-1-3.49-2.1-5.19-3.12-9.4-5.69-19.12-11.57-30-15.23a145.53,145.53,0,0,0-46.53-7.15h-1.6c-.42,0-1-.06-1.75-.12l-.42,0c-.93-.09-1.91-.17-2.84-.17-2.62,0-3.93.65-4,2a1.1,1.1,0,0,0,.31.81c.67.71,2.4,1.05,5.28,1.05,1.58,0,3.23-.11,4.49-.2l1-.07c.89-.07,1.6-.12,2-.12h0a149.75,149.75,0,0,1,24.55,2.27,116.34,116.34,0,0,1,42.39,16.26,17.63,17.63,0,0,1-6.69,8,18.35,18.35,0,0,1-9.88,2.79,21.42,21.42,0,0,1-4.85-.56A80.55,80.55,0,0,1,355,279.3a64.77,64.77,0,0,0-12.46-4,32.15,32.15,0,0,0-5.28-.43,37.4,37.4,0,0,0-10.5,1.57,88.39,88.39,0,0,0-10.42,3.93C311.09,282.66,306.1,284.8,300.31,284.8Z"/><path id="Subtraction_4" data-name="Subtraction 4" class="cls-3" d="M399.5,258.28h0a70.25,70.25,0,0,1-13.87-11.81,108.92,108.92,0,0,1-11.54-15.17,154.13,154.13,0,0,1-15.49-32.41,148,148,0,0,1-4.4-16.17,142.68,142.68,0,0,1-2.85-19.51,87.06,87.06,0,0,1,.59-19.56,40.25,40.25,0,0,1,5.91-16.32,24.4,24.4,0,0,1,8.37-7.76,28.85,28.85,0,0,1,12.59-3.38c.66,0,1.34,0,2,0a44.62,44.62,0,0,1,18.67,4.2v79.74l-.23-.24c-1.32-1.31-2.25-2-2.77-2a.42.42,0,0,0-.39.21c-.34.53,0,2.08.87,4.6s2.06,5,2.52,6v49.64Z"/><g id="Group_7836" data-name="Group 7836"><path id="Leaf_Me_Alone_" data-name="Leaf Me Alone " class="cls-3" d="M17.48,153.15c7.8-.41,17.46,4.15,18.29,12.63.61,6.16.43,12.3,1.36,18.46a50.06,50.06,0,0,0,4.5,14.12c2.08,4.31,6.39,8,7.5,12.58a19.7,19.7,0,0,1-.66,9.93c-1.19,3.48-.56,3.21,1.83,6.13a79.56,79.56,0,0,1,11.87,18.46c4.29,9.87,7.11,21.4,5.52,32.2-.2,1.37-.44,6.29-2.33,6.64-2.11.38-1.12-2.43-1-3.34.71-5.8,1.34-10.87.49-16.77-3.35-22.73-19.67-37.7-30.3-57-.58-1-1.81-3.36-2.67-4.93-1.36-2.47-2.72-7.16-4.55-9-3.45-3.45-.28,3.48.4,4.81.85,1.67,1.78,3.45,2.65,4.92,4,6.79,8.44,14.21,12.56,21.21-17.8,4.07-30.34-17.32-35.13-31.39-3.94-11.59-8.66-38.68,9.68-39.68"/><path id="Leaf_Me_Alone_2" data-name="Leaf Me Alone 2" class="cls-3" d="M122,131.65c-13,1-21.41,9.64-25.31,21.67-2.1,6.49-2.34,13.15-3.51,19.82-1.75,10-5.53,17.62-12.91,24.77a24.77,24.77,0,0,0-5.17,6.91,29.44,29.44,0,0,0-6,8.53c-2,4.29-2.5,9.43-.25,13.71a14,14,0,0,0,3.66,4.5,88.36,88.36,0,0,0-8.68,39.64c.22,8.21.62,16.42,1.09,24.62.12,2.2.84,5.84,1.92,2.15,1-3.38-.26-8.68-.37-12.21-.56-17.18-1-32.81,6-48.87q1.13-2.52,2.35-5a1.1,1.1,0,0,0,.14-.09l.09.07a2.85,2.85,0,0,1,.21-.32,4,4,0,0,0,.63-.9,6.32,6.32,0,0,0,1.34-2.45h0a233.21,233.21,0,0,1,14.52-20.53s5.56-7.57,4.69-3.36c-.41,2-4.53,5.91-6.19,8.05a202.13,202.13,0,0,0-11.59,16.71,8.75,8.75,0,0,0-1.66,2.66c-.27.51-.52,1-.77,1.48,12.71,4.21,22.61-4.26,29.35-14.1l0,0a43.21,43.21,0,0,1,6.79-7.57c4.38-3.58,9.07-4.22,14.24-6,14.09-4.82,20.08-23.08,22-36.62,2.15-15.3-8.35-38.74-26.68-37.23"/><path id="Leaf_Me_Alone_3" data-name="Leaf Me Alone 3" class="cls-3" d="M96.26,88.83c-13.38,13.94-19.85,33.26-25,51.42-5.72,20.28-9.49,40.88-9.64,62-.09,13.86-.47,27.8.34,41.64a145.06,145.06,0,0,0,1.56,14.7c.06.4,1.8,11.26,3.47,8.73,1-1.45-1.79-11.26-2-12.9a211.35,211.35,0,0,1-1.38-27.78c.09-15.29-.35-30.49,1.19-45.72a49.94,49.94,0,0,1,1-6.88c.57-2.37-.16-1.34,1.7-2.27s4.07-.78,5.94-1.92c7.47-4.53,11.29-16.16,14.27-23.8a147,147,0,0,0,7.12-27.22A195,195,0,0,0,97.4,98.51,52.81,52.81,0,0,1,98,92a14.93,14.93,0,0,0,.66-2.09c-.05-1.06-.69-1.7-.75-2.6-.56.51-1.11,1-1.65,1.55"/><path id="Base" class="cls-3" d="M23.29,274.41A41.7,41.7,0,0,0,65,316.12h0a41.7,41.7,0,0,0,41.7-41.71"/><path id="Leaf_Me_Alone_4" data-name="Leaf Me Alone 4" class="cls-3" d="M109.83,289.84a6.39,6.39,0,0,1-4.36-1.54,8.66,8.66,0,0,1-2.36-3.78,32.47,32.47,0,0,1-1.24-9.4A38.23,38.23,0,0,0,100.52,265a17.71,17.71,0,0,0-5.49-8.4c-.71-.61-1.46-1.19-2.18-1.75s-1.32-1-2-1.55l-.3-.26c-2-1.72-4.15-3.49-4.41-6.29a4.38,4.38,0,0,1,.75-3.4,3.23,3.23,0,0,1,2.53-.9,10.27,10.27,0,0,1,2.14.26c.12,0,.42.14.84.3a16.17,16.17,0,0,0,4.27,1.21.74.74,0,0,0,.64-.22.62.62,0,0,0,0-.59c-.25-.59-1.1-1.12-2.52-1.56-2.86-.31-5.57-.59-7.18-.59a5.21,5.21,0,0,0-1,.08,15.75,15.75,0,0,0-7.68,4.28,27.4,27.4,0,0,0-5.31,7.65,58.2,58.2,0,0,0-4.91,17.87c-.12,1-.24,2.15-.34,3.42h-2.2a76.21,76.21,0,0,1,.81-8.26,53,53,0,0,1,5.83-17,25.36,25.36,0,0,1,5.69-6.93,15.84,15.84,0,0,1,7.9-3.54,11,11,0,0,1,1.28-.05c.82,0,1.82,0,2.81.09a7.28,7.28,0,0,1,3.12-.92c.43,0,.88-.05,1.33-.05a22.43,22.43,0,0,1,7.51,1.38,32.43,32.43,0,0,1,7.19,3.65,37.17,37.17,0,0,1,6.2,5.2,31.73,31.73,0,0,1,4.59,6,23.27,23.27,0,0,1,2.87,11.63,37.65,37.65,0,0,1-2,11.95,27.35,27.35,0,0,1-4,7.91c-2.16,2.77-4.61,4.19-7.31,4.22Z"/></g></g><g id="Core_illustration" data-name="Core illustration"><path id="Neck" class="cls-4" d="M251,205.81l-15.15-70.62H225l-10,70.62Z"/><path id="Head" class="cls-4" d="M197.3,170.15c11.25,2.9,54.4-19.29,52.14-51.45s-47-25.08-55.72-8.85S186,167.25,197.3,170.15Z"/><path id="hair" class="cls-5" d="M177.74,87.35a7.8,7.8,0,0,1,5.46-5.54,7.19,7.19,0,0,1,2-.2c.25,0,.31.08.43-.09a2.75,2.75,0,0,0,.12-.57,9.63,9.63,0,0,1,.41-1.36,11,11,0,0,1,2.67-4,13.44,13.44,0,0,1,8-3.82,11.89,11.89,0,0,1,4.84.66,19.56,19.56,0,0,1,2.35,1c.23.12,1,.68,1.21.64s.76-.67,1-.83a14.27,14.27,0,0,1,8.9-2.71c3.59,0,7.06.21,10.06,2.4a21.48,21.48,0,0,1,1.81,1.5c.31.28.59.58.87.88s.34.37.5.56.22.44.6.21a7.49,7.49,0,0,1,4.8-1.08,10.84,10.84,0,0,1,2.89.82c.32.13,1,.67,1.38.68a7.33,7.33,0,0,0,1.39-.62,11.41,11.41,0,0,1,5.79-.53,14.85,14.85,0,0,1,5.68,2.23,7.66,7.66,0,0,1,2.1,1.91c.25.34.47.7.75,1s.49.37.58.61a12.34,12.34,0,0,1,2.41-1.06,5.82,5.82,0,0,1,3.38.13A13.41,13.41,0,0,1,265.49,84a15.19,15.19,0,0,1,2,2.66c.26.45.51.92.73,1.4a4.8,4.8,0,0,0,.33.73c.18.27.31.28.64.39a10.47,10.47,0,0,1,4.44,3,10.22,10.22,0,0,1,2.29,4.87,2.51,2.51,0,0,0,.1.6c.08.08.42,0,.55.06a12.1,12.1,0,0,1,1.34.23,10.93,10.93,0,0,1,2.34.85,12.21,12.21,0,0,1,6,7.16,14.52,14.52,0,0,1-.23,10,9,9,0,0,1-.74,1.45c-.17.29-.23.29-.12.59s.37.65.52,1a14.43,14.43,0,0,1,1.06,3.32,15.5,15.5,0,0,1,.18,5.76,8.42,8.42,0,0,1-.89,2.52,6.69,6.69,0,0,1-.78,1.13,5.91,5.91,0,0,1-.48.52c-.11.09-.21.19-.31.29-.2.26-.24,0-.14.42a17.08,17.08,0,0,0,.68,1.58q.3.79.57,1.62a24.14,24.14,0,0,1,.82,3.38,10.51,10.51,0,0,1-.75,6.56,6.54,6.54,0,0,1-1.85,2.2,7.26,7.26,0,0,1-1.22.75c-.22.1-.5.15-.61.36s.06.69.09.94a15.67,15.67,0,0,1-.18,6.78,9.34,9.34,0,0,1-3.71,5,11.55,11.55,0,0,1-11.54.32,11.94,11.94,0,0,1-2.58-1.77c-2,2.66-6,2.58-8.92,1.82a12.82,12.82,0,0,1-8.15-6.73c-2.28,2.77-7,1.87-8.63-1.13a7.26,7.26,0,0,1-.73-2.37c-.06-.43,0-.86-.06-1.29a6.92,6.92,0,0,0-.63-1.6,8.81,8.81,0,0,1-.67-3.2,16.38,16.38,0,0,1,.12-1.71,5.94,5.94,0,0,0-.18-1.51,6.9,6.9,0,0,0,2.92-.36,5.78,5.78,0,0,0,2.26-1.59,13.1,13.1,0,0,0,2.83-5.3c1.29-4.2.76-9.24-3.46-11.54-2-1.08-7.87-1.08-10.21-.54s-5.26,6-5.4,6.5c-.08.32,0,.71-.33.93-.64.46-1.69-.34-2.16-.74a8.49,8.49,0,0,1-1.91-2.54,31.22,31.22,0,0,1-2.6-6.37c-.48-1.7-.79-3.45-1.42-5.11a7.79,7.79,0,0,0-3.14-4,27.78,27.78,0,0,0-5.4-2.19,13.33,13.33,0,0,1-5-2.75,7,7,0,0,1-.86-1c-.2-.28-.39-.8-.69-1-.46-.27-1.14.43-1.54.68a18,18,0,0,0-5,4.94,30.87,30.87,0,0,0-3.3,5.88c-.66,1.58-1.07,3.61-2.22,4.9-.51.58-4.35.93-5.59.43a7.17,7.17,0,0,1-3.05-2.64,4.1,4.1,0,0,1-.35-2.69c.11-.54.33-1,.45-1.58a5.31,5.31,0,0,1,.41-1.28,3.17,3.17,0,0,1,2-1.57,9.31,9.31,0,0,1-2.13-2.88,12.55,12.55,0,0,1-1.1-3.75,4.62,4.62,0,0,1,.61-2.93,7.81,7.81,0,0,1,2.5-2.07A16.45,16.45,0,0,1,179.8,97C178,94.17,176.8,90.67,177.74,87.35Z"/><g id="Group_10056" data-name="Group 10056"><path id="Head-2" class="cls-6" d="M195.05,172.76c5.18,1.34,17.1-2.64,28.57-10.68,3-12.17.06-27.68-.73-27.17-10.11,1.29-20.16,2.68-37,1.56C184.75,152.88,187.75,170.88,195.05,172.76Z"/><path id="Path_3889" data-name="Path 3889" class="cls-7" d="M223.41,161.53c2.15-1.36,13.82-18.4,13.82-18.4s-.78-.07-.95.16-14.91,15.4-14.91,15.4S221.27,162.89,223.41,161.53Z"/><path id="Path_3890" data-name="Path 3890" class="cls-7" d="M220.11,139.78l6.41-11.72s.14-.56-.35,0-9.69,11.36-9.69,11.36Z"/></g><path id="Subtraction_38" data-name="Subtraction 38" class="cls-4" d="M110.31,319.55H89.46L60,297a208.42,208.42,0,0,1-21.25-4.78c-4.9-1.48-7.69-2.88-8.3-4.15a1.15,1.15,0,0,1,0-1.11,4.39,4.39,0,0,1,2.61-2.15,12.84,12.84,0,0,1,3.31-.47c1.73-.09,3.35-.18,4.23-1.31,2-2.57-2.91-10.5-8-17.93-1.9-2.78-2.59-4.73-2-5.79a2.08,2.08,0,0,1,2-.87,8.89,8.89,0,0,1,2.5.45,108.48,108.48,0,0,1,14.14,9.5A169.6,169.6,0,0,1,63.9,281.44l56.71,24.91-10.3,13.2Z"/><path id="Subtraction_39" data-name="Subtraction 39" class="cls-8" d="M209.08,319.55H82.91a121.61,121.61,0,0,1-12.73-11.81l9.58-21.42c12,4.32,22,7.71,31.39,10.25,10.63,2.87,19.42,4.26,26.87,4.26A41.91,41.91,0,0,0,156,297.28a20.21,20.21,0,0,0,6.89-5.8,63.37,63.37,0,0,0,6.48-10c4.25-7.85,8.42-17.83,12.83-28.4,9.31-22.27,19.85-47.51,35-62.17l13.54,2.32A375,375,0,0,1,227,256a278.55,278.55,0,0,1-6.82,33.48,165.77,165.77,0,0,1-11.12,30.05Z"/><path id="Subtraction_40" data-name="Subtraction 40" class="cls-9" d="M285.6,319.55H175.77c2.66-7.14,5.53-14.29,8.58-21.86,6.39-15.93,13-32.39,18.09-50.17a230.53,230.53,0,0,0,6.2-27.59A190.13,190.13,0,0,0,211,190.27l34.55-5.41c11,17.74,19.6,37.57,26.19,60.61,3.11,10.9,5.77,22.4,8.12,35.15,2.19,11.91,4.06,24.65,5.72,38.93Z"/><path id="Subtraction_41" data-name="Subtraction 41" class="cls-10" d="M299.62,319.55h-94c1.7-14.37,4.25-30.4,7.59-47.62,2.66-13.79,5.85-28.38,9.44-43.35,6.11-25.5,11.38-43.54,11.44-43.72H247.8a304.79,304.79,0,0,1,37,26.77A281.43,281.43,0,0,1,342.78,279a306.23,306.23,0,0,1,20.92,40.58H303.19c-1.18-2.12-2.37-4.26-3.53-6.36L296.24,307c1.19,4.24,2.33,8.48,3.38,12.6Z"/></g></svg>