<svg xmlns="http://www.w3.org/2000/svg" viewBox="0 0 440 252"><defs><style>.cls-1{fill:#fcf4e3;}.cls-2{fill:#f3dea7;}.cls-3{fill:#edca73;}.cls-4{fill:#333;}</style></defs><g id="Bkg_colour" data-name="Bkg colour"><rect class="cls-1" width="440" height="252"/></g><g id="Bkg_lines" data-name="Bkg lines"><path class="cls-2" d="M392.18,102.6h-31.9a1,1,0,0,1,0-2h30.9V91.79H360.59a1,1,0,0,1,0-2h31.59a1,1,0,0,1,1,1V101.6A1,1,0,0,1,392.18,102.6Z"/><path class="cls-2" d="M384.25,201a1,1,0,0,1-1-1V101.6a1,1,0,0,1,2,0V200A1,1,0,0,1,384.25,201Z"/><path class="cls-2" d="M376.82,127.38H363.19a1,1,0,0,1-1-1V115a7.82,7.82,0,0,1,15.63,0v11.38A1,1,0,0,1,376.82,127.38Zm-12.63-2h11.63V115a5.82,5.82,0,0,0-11.63,0Z"/><path class="cls-2" d="M384.25,170.66H375a1,1,0,0,1,0-2h9.27a1,1,0,0,1,0,2Z"/><path class="cls-2" d="M384.25,135.54H358a1,1,0,0,1,0-2h26.28a1,1,0,0,1,0,2Z"/><path class="cls-2" d="M365.24,85.42a1,1,0,0,1-1-1V73.14a1,1,0,0,1,1-1H427.4a1,1,0,0,1,0,2H366.24V84.42A1,1,0,0,1,365.24,85.42Z"/><path class="cls-2" d="M395.68,74.14a1,1,0,0,1-1-1c0-11.74,14.68-21.29,32.72-21.29a1,1,0,0,1,0,2c-16.94,0-30.72,8.65-30.72,19.29A1,1,0,0,1,395.68,74.14Z"/><path class="cls-2" d="M427.4,80H365.24a1,1,0,0,1,0-2H427.4a1,1,0,0,1,0,2Z"/><path class="cls-2" d="M52.91,228.39H7.52a1,1,0,0,1,0-2H52.91a1,1,0,0,1,0,2Z"/><path class="cls-2" d="M52.91,206.88H7.52a1,1,0,0,1,0-2H52.91a1,1,0,0,1,0,2Z"/><path class="cls-2" d="M427.4,206.88H382.74a1,1,0,0,1,0-2H427.4a1,1,0,0,1,0,2Z"/><path class="cls-2" d="M427.4,225.87H382.74a1,1,0,0,1,0-2H427.4a1,1,0,0,1,0,2Z"/><path class="cls-2" d="M71,93.81H7.52a1,1,0,1,1,0-2H69.76L67.9,83.88H7.52a1,1,0,1,1,0-2H68.69a1,1,0,0,1,1,.78L72,92.58a1,1,0,0,1-1,1.23Z"/><path class="cls-2" d="M68.69,160a1,1,0,0,1-1-1V92.81a1,1,0,0,1,2,0V159A1,1,0,0,1,68.69,160Z"/><path class="cls-2" d="M34,78.26a1,1,0,0,1-1-1V41.34a1,1,0,0,1,1.39-.92L81.26,60.3a1,1,0,0,1,.61.92V69.8a1,1,0,1,1-2,0V61.88L35,42.85V77.26A1,1,0,0,1,34,78.26Z"/><path class="cls-2" d="M80.87,70.8H34.52a1,1,0,1,1,0-2H80.87a1,1,0,0,1,0,2Z"/><path class="cls-2" d="M17.91,121.18H7.52a1,1,0,0,1-1-1V106.42a1,1,0,0,1,1-1H17.91a1,1,0,0,1,1,1v13.76A1,1,0,0,1,17.91,121.18Zm-9.39-2h8.39V107.42H8.52Z"/><path class="cls-2" d="M39.23,121.18H28.85a1,1,0,0,1-1-1V106.42a1,1,0,0,1,1-1H39.23a1,1,0,0,1,1,1v13.76A1,1,0,0,1,39.23,121.18Zm-9.38-2h8.38V107.42H29.85Z"/><path class="cls-2" d="M60.55,121.18H50.17a1,1,0,0,1-1-1V106.42a1,1,0,0,1,1-1H60.55a1,1,0,0,1,1,1v13.76A1,1,0,0,1,60.55,121.18Zm-9.38-2h8.38V107.42H51.17Z"/><path class="cls-2" d="M17.91,149.57H7.52a1,1,0,0,1-1-1V134.81a1,1,0,0,1,1-1H17.91a1,1,0,0,1,1,1v13.76A1,1,0,0,1,17.91,149.57Zm-9.39-2h8.39V135.81H8.52Z"/><path class="cls-2" d="M39.23,149.57H28.85a1,1,0,0,1-1-1V134.81a1,1,0,0,1,1-1H39.23a1,1,0,0,1,1,1v13.76A1,1,0,0,1,39.23,149.57Zm-9.38-2h8.38V135.81H29.85Z"/><path class="cls-2" d="M60.55,149.57H50.17a1,1,0,0,1-1-1V134.81a1,1,0,0,1,1-1H60.55a1,1,0,0,1,1,1v13.76A1,1,0,0,1,60.55,149.57Zm-9.38-2h8.38V135.81H51.17Z"/><path class="cls-2" d="M17.91,178H7.52a1,1,0,0,1-1-1V163.21a1,1,0,0,1,1-1H17.91a1,1,0,0,1,1,1V177A1,1,0,0,1,17.91,178Zm-9.39-2h8.39V164.21H8.52Z"/><path class="cls-2" d="M39.23,178H28.85a1,1,0,0,1-1-1V163.21a1,1,0,0,1,1-1H39.23a1,1,0,0,1,1,1V177A1,1,0,0,1,39.23,178Zm-9.38-2h8.38V164.21H29.85Z"/><path class="cls-2" d="M50.17,178a1,1,0,0,1-1-1V163.21a1,1,0,0,1,1-1H60.55a1,1,0,0,1,0,2H51.17V177A1,1,0,0,1,50.17,178Z"/><path class="cls-2" d="M426.72,131.41a1,1,0,0,1-1-1V91.1a1,1,0,0,1,2,0v39.31A1,1,0,0,1,426.72,131.41Z"/><path class="cls-2" d="M426.72,188.9a1,1,0,0,1-1-1V148.58a1,1,0,0,1,2,0V187.9A1,1,0,0,1,426.72,188.9Z"/><path class="cls-2" d="M416.17,131.41a1,1,0,0,1-1-1V91.1a1,1,0,1,1,2,0v39.31A1,1,0,0,1,416.17,131.41Z"/><path class="cls-2" d="M416.17,188.9a1,1,0,0,1-1-1V148.58a1,1,0,1,1,2,0V187.9A1,1,0,0,1,416.17,188.9Z"/><path class="cls-2" d="M405.62,131.41a1,1,0,0,1-1-1V91.1a1,1,0,0,1,2,0v39.31A1,1,0,0,1,405.62,131.41Z"/><path class="cls-2" d="M405.62,188.9a1,1,0,0,1-1-1V148.58a1,1,0,0,1,2,0V187.9A1,1,0,0,1,405.62,188.9Z"/><path class="cls-2" d="M395.07,131.41a1,1,0,0,1-1-1V112.16a1,1,0,0,1,2,0v18.25A1,1,0,0,1,395.07,131.41Z"/><path class="cls-2" d="M395.07,188.9a1,1,0,0,1-1-1V148.58a1,1,0,1,1,2,0V187.9A1,1,0,0,1,395.07,188.9Z"/><path class="cls-2" d="M376.82,161.28H363.19a1,1,0,0,1-1-1V148.9a7.82,7.82,0,0,1,15.63,0v11.38A1,1,0,0,1,376.82,161.28Zm-12.63-2h11.63V148.9a5.82,5.82,0,0,0-11.63,0Z"/><path class="cls-2" d="M43.58,78a1,1,0,0,1-1-1V69.8a1,1,0,0,1,2,0V77A1,1,0,0,1,43.58,78Z"/><path class="cls-2" d="M52.83,78a1,1,0,0,1-1-1V69.8a1,1,0,0,1,2,0V77A1,1,0,0,1,52.83,78Z"/><path class="cls-2" d="M62.08,78a1,1,0,0,1-1-1V69.8a1,1,0,0,1,2,0V77A1,1,0,0,1,62.08,78Z"/><path class="cls-2" d="M71.33,78a1,1,0,0,1-1-1V69.8a1,1,0,0,1,2,0V77A1,1,0,0,1,71.33,78Z"/><path class="cls-2" d="M319.16,142.11h-2.27a20.57,20.57,0,0,1-8.28-1.76,27.16,27.16,0,0,1-12.13-11.21,1,1,0,0,1,1.72-1,25.19,25.19,0,0,0,11.22,10.4,18.47,18.47,0,0,0,7.47,1.59h2.27a18.51,18.51,0,0,0,7.47-1.59,25.18,25.18,0,0,0,11.22-10.4,1,1,0,1,1,1.71,1,27.06,27.06,0,0,1-12.13,11.21A20.49,20.49,0,0,1,319.16,142.11Z"/><path class="cls-2" d="M296.48,129.14a29.84,29.84,0,0,1-4.12-15.34l.12-16.65a1,1,0,0,1,.4-.79,1,1,0,0,1,.87-.16c.17,0,17.88,4.75,23.36-7.36a1,1,0,0,1,1.33-.5,1,1,0,0,1,.49,1.33c-5.27,11.63-20.05,9.63-24.46,8.74l-.11,15.39a27.93,27.93,0,0,0,3.84,14.32Z"/><path class="cls-2" d="M293.85,141.16h-.06a14.33,14.33,0,0,1-13.46-14.29V97.56c0-.61-.21-15.57,10.17-26.18,6.55-6.69,15.81-10.09,27.52-10.09a1,1,0,0,1,0,2c-11.15,0-19.92,3.19-26.08,9.47-9.79,10-9.61,24.63-9.61,24.78v29.33a12.33,12.33,0,0,0,11.58,12.29,1,1,0,0,1,.94,1.06A1,1,0,0,1,293.85,141.16Z"/><path class="cls-2" d="M326.25,197.51a1,1,0,0,1-.75-.35,1,1,0,0,1,.1-1.41l25.88-22.32-5.93-8.8a1,1,0,0,1,.27-1.39,1,1,0,0,1,1.39.27l6.42,9.54a1,1,0,0,1-.17,1.31l-26.55,22.9A1,1,0,0,1,326.25,197.51Z"/><path class="cls-2" d="M310.17,197.51a1,1,0,0,1-.65-.25L283,174.36a1,1,0,0,1-.17-1.31l6.42-9.54a1,1,0,0,1,1.66,1.12l-5.93,8.8,25.88,22.32a1,1,0,0,1-.65,1.76Z"/><path class="cls-2" d="M279.19,162.14a1,1,0,0,1-.89-.54,1,1,0,0,1,.42-1.35,44.72,44.72,0,0,1,4.56-2.07c4.28-1.68,14.25-6.28,14.25-12.79v-8.08a1,1,0,0,1,2,0v8.08c0,7.46-9.73,12.38-15.52,14.65a44,44,0,0,0-4.36,2A1,1,0,0,1,279.19,162.14Z"/><path class="cls-2" d="M353.84,226.53a1,1,0,0,1-1-1V196a1,1,0,0,1,2,0v29.49A1,1,0,0,1,353.84,226.53Z"/><path class="cls-2" d="M376.19,226.53a1,1,0,0,1-1-1V191.67c0-10.24-4.74-19.61-13.35-26.39a36.47,36.47,0,0,0-9.42-5.24c-5.8-2.27-15.52-7.19-15.52-14.65v-8.08a1,1,0,0,1,2,0v8.08c0,6.51,10,11.11,14.24,12.79a38.28,38.28,0,0,1,9.93,5.53c9.11,7.16,14.12,17.09,14.12,28v33.86A1,1,0,0,1,376.19,226.53Z"/><path class="cls-2" d="M318,194.16a1,1,0,0,1-.85-.48l-19.5-32a1,1,0,0,1,1.71-1L318,191.24l18.64-30.62a1,1,0,0,1,1.71,1l-19.5,32A1,1,0,0,1,318,194.16Z"/><path class="cls-2" d="M317.65,159.82c-7.15,0-13.46-1.38-16.46-3.61a1,1,0,0,1,1.2-1.6c2.62,1.95,8.62,3.21,15.26,3.21s12.55-1.24,15.21-3.17a1,1,0,0,1,1.18,1.62C331,158.46,324.73,159.82,317.65,159.82Z"/><path class="cls-2" d="M342.19,141.16a1,1,0,0,1-.06-2,12.33,12.33,0,0,0,11.58-12.29V97.56c0-.17.19-14.8-9.61-24.8-6.16-6.28-14.93-9.47-26.08-9.47a1,1,0,0,1,0-2c11.71,0,21,3.4,27.52,10.09C355.93,82,355.72,97,355.71,97.58v29.29a14.33,14.33,0,0,1-13.46,14.29Z"/><path class="cls-2" d="M338.7,129.63a1.06,1.06,0,0,1-.51-.14,1,1,0,0,1-.34-1.37,27.93,27.93,0,0,0,3.84-14.32l-.11-15.39c-4.42.88-19.2,2.89-24.47-8.74a1,1,0,1,1,1.82-.83c5.49,12.11,23.19,7.4,23.37,7.36a1,1,0,0,1,.87.16,1,1,0,0,1,.4.79l.12,16.64a29.86,29.86,0,0,1-4.13,15.35A1,1,0,0,1,338.7,129.63Z"/><polygon class="cls-2" points="91.4 87.77 91.4 87.77 91.4 87.77 91.4 87.77"/><path class="cls-2" d="M118,142.35H114.8a20.49,20.49,0,0,1-8.23-1.75A27.05,27.05,0,0,1,94.5,129.45a29.76,29.76,0,0,1-4.1-15.26V87.77a1,1,0,0,1,1.76-.64c.11.12,11.22,12.67,49.23,12.67a1,1,0,0,1,1,1v13.39a29.67,29.67,0,0,1-4.11,15.26h0a27,27,0,0,1-12.07,11.15A20.42,20.42,0,0,1,118,142.35ZM92.4,90.07v24.12a27.69,27.69,0,0,0,3.82,14.23,24.94,24.94,0,0,0,11.15,10.34,18.29,18.29,0,0,0,7.43,1.59H118a18.29,18.29,0,0,0,7.43-1.59,24.89,24.89,0,0,0,11.15-10.34h0a27.7,27.7,0,0,0,3.83-14.23V101.8C110,101.62,96.77,93.63,92.4,90.07Z"/><path class="cls-2" d="M152.79,153.28a1,1,0,0,1-1-1V98c0-.17.16-14.71-9.59-24.65C136.07,67.14,127.35,64,116.26,64h-.33C104.84,64,96.12,67.14,90,73.39,80.26,83.33,80.44,97.87,80.44,98v54.26a1,1,0,0,1-2,0V98c0-.61-.21-15.48,10.12-26,6.51-6.65,15.72-10,27.37-10h.33c11.65,0,20.87,3.38,27.38,10C154,82.56,153.8,97.43,153.79,98.06v54.22A1,1,0,0,1,152.79,153.28Z"/><path class="cls-2" d="M124.11,197.43a1,1,0,0,1-.75-.34,1,1,0,0,1,.1-1.41l25.73-22.2-5.89-8.74a1,1,0,1,1,1.66-1.12l6.38,9.48a1,1,0,0,1-.17,1.32l-26.4,22.77A1,1,0,0,1,124.11,197.43Z"/><path class="cls-2" d="M108.12,197.43a1,1,0,0,1-.66-.24l-26.4-22.77a1,1,0,0,1-.18-1.32l6.39-9.48a1,1,0,1,1,1.66,1.12L83,173.48l25.73,22.2a1,1,0,0,1,.1,1.41A1,1,0,0,1,108.12,197.43Z"/><path class="cls-2" d="M58.46,228.25a1,1,0,0,1-1-1V191.63c0-10.81,5-20.69,14-27.81a38.06,38.06,0,0,1,9.88-5.5c4.25-1.67,14.16-6.24,14.16-12.72v-5a1,1,0,0,1,2,0v5c0,7.43-9.67,12.32-15.44,14.58a36.31,36.31,0,0,0-9.36,5.21c-8.57,6.74-13.28,16.06-13.28,26.24v35.62A1,1,0,0,1,58.46,228.25Z"/><path class="cls-2" d="M80.47,227.58a1,1,0,0,1-1-1V196a1,1,0,0,1,2,0v30.61A1,1,0,0,1,80.47,227.58Z"/><path class="cls-2" d="M155.82,162.75a1,1,0,0,1-.49-.13,41.21,41.21,0,0,0-5.21-2.44c-5.76-2.26-15.43-7.15-15.43-14.58v-5a1,1,0,0,1,2,0v5c0,6.48,9.91,11.05,14.16,12.72a43.12,43.12,0,0,1,5.46,2.56,1,1,0,0,1-.49,1.87Z"/><path class="cls-2" d="M115.92,194.11a1,1,0,0,1-.85-.48L95.68,161.79a1,1,0,0,1,.34-1.38,1,1,0,0,1,1.37.34l18.53,30.43,18.53-30.43a1,1,0,1,1,1.71,1l-19.38,31.84A1,1,0,0,1,115.92,194.11Z"/><path class="cls-2" d="M115.56,160c-7.12,0-13.39-1.37-16.37-3.59a1,1,0,1,1,1.19-1.6C103,156.71,109,158,115.56,158s12.48-1.23,15.12-3.15a1,1,0,1,1,1.18,1.62C128.85,158.61,122.6,160,115.56,160Z"/></g><g id="Fill"><path class="cls-3" d="M210.78,133.87a12.31,12.31,0,0,0,5.83,1.41A26.07,26.07,0,0,1,210.78,133.87Z"/><path class="cls-3" d="M183.87,163.57,178,172.25a1.51,1.51,0,0,0,.49,2.14l29.75,21L182,169Z"/><path class="cls-3" d="M252.22,163.57l5.89,8.68a1.51,1.51,0,0,1-.49,2.14l-29.75,21L254.1,169Z"/><path class="cls-3" d="M239.51,156.21l-20,23.31a1.91,1.91,0,0,1-2.91,0l-20-23.31,21.14,35.5.32-.53.33.53Z"/><path class="cls-3" d="M181.72,210.33a1.79,1.79,0,0,1-1.79-1.78V194.84a1.79,1.79,0,1,1,3.57,0v13.71A1.78,1.78,0,0,1,181.72,210.33Z"/><path class="cls-3" d="M254,210.33a1.78,1.78,0,0,1-1.78-1.78V194.84a1.79,1.79,0,1,1,3.57,0v13.71A1.79,1.79,0,0,1,254,210.33Z"/><path class="cls-3" d="M208,126.12l-3.88-5.45c-2.58-3.63-4.27-9.35-4.9-13.9a2.18,2.18,0,0,0-.16-.66h0c-.94-4.32-1.33-13.38-1.48-18.72a71.58,71.58,0,0,1,.66-9.7l.2-1.11C200,67.65,205.56,62.4,213.1,59a35.66,35.66,0,0,1,10.7-2.58c-1-.09-2.11-.15-3.24-.15H219A36.56,36.56,0,0,0,205.06,59c-7.54,3.39-13.09,8.64-14.65,17.57l-.55,3.17a24.43,24.43,0,0,0-.4,3.48c-7.5,0-4.82,13.5-4.82,13.5.63,5.18,2.82,8.83,5.79,8.89.68,0,.77,1.15.77,1.15.63,4.55,2.31,10.27,4.89,13.9l3.88,5.45A24.41,24.41,0,0,0,211.34,135a22.23,22.23,0,0,0,7.66,1.37h1.56a22.08,22.08,0,0,0,3.24-.24,23,23,0,0,1-4.43-1.13A24.38,24.38,0,0,1,208,126.12Z"/><path class="cls-3" d="M197.86,133.72c-1.58-1.08-1.41.08-1.41.08.44,8.1-1,11-1.11,11.31a81.41,81.41,0,0,1-7.87,6.87c-1.5,1.13-7.16,2.73-10.54,4.49-1.39.64-13.1,8.43-13.47,10.24a30.86,30.86,0,0,0-8.2,20.95s.37,19.36,0,20.89,9.31,1.94,9.27-1.42.15-18.31.15-18.31-1.65-18.77,15.39-27.91c12.62-6.77,13-7,17.29-12S199.44,134.8,197.86,133.72Z"/></g><g id="Outlines"><path class="cls-4" d="M155.17,210.05a1.51,1.51,0,0,1-1.5-1.5V190.1c0-11.92,5.5-22.8,15.47-30.65a42,42,0,0,1,10.88-6c4.56-1.79,15.18-6.68,15.18-13.49V134.4a1.5,1.5,0,0,1,3,0v5.51c0,8.34-10.71,13.78-17.09,16.28A38.82,38.82,0,0,0,171,161.81c-9.24,7.27-14.33,17.31-14.33,28.29v18.45A1.5,1.5,0,0,1,155.17,210.05Z"/><path class="cls-4" d="M179.17,210.05a1.51,1.51,0,0,1-1.5-1.5V194.84a1.5,1.5,0,0,1,3,0v13.71A1.5,1.5,0,0,1,179.17,210.05Z"/><path class="cls-4" d="M256.68,210.05a1.5,1.5,0,0,1-1.5-1.5V194.84a1.5,1.5,0,1,1,3,0v13.71A1.5,1.5,0,0,1,256.68,210.05Z"/><path class="cls-4" d="M280.92,210.05a1.5,1.5,0,0,1-1.5-1.5V190.1c0-11-5.09-21-14.33-28.29A38.82,38.82,0,0,0,255,156.19c-6.38-2.5-17.09-7.94-17.09-16.28V134.4a1.5,1.5,0,1,1,3,0v5.51c0,6.81,10.62,11.7,15.18,13.49a42,42,0,0,1,10.88,6c10,7.85,15.47,18.73,15.47,30.65v18.45A1.51,1.51,0,0,1,280.92,210.05Z"/><path class="cls-4" d="M217.84,193.21a1.48,1.48,0,0,1-1.28-.72l-21.14-34.72a1.5,1.5,0,1,1,2.56-1.56l19.86,32.62,19.85-32.62a1.5,1.5,0,0,1,2.57,1.56l-21.14,34.72A1.49,1.49,0,0,1,217.84,193.21Z"/><path class="cls-4" d="M191.35,100.87a1.49,1.49,0,0,1-1.46-1.16,41.34,41.34,0,0,1-1-7.44,1.5,1.5,0,0,1,3-.09,40,40,0,0,0,.95,6.85,1.5,1.5,0,0,1-1.12,1.8A1.32,1.32,0,0,1,191.35,100.87Z"/><path class="cls-4" d="M246.37,100.87a1.45,1.45,0,0,1-.35,0,1.5,1.5,0,0,1-1.11-1.8,40.47,40.47,0,0,0,.94-6.85,1.48,1.48,0,0,1,1.54-1.45,1.5,1.5,0,0,1,1.46,1.54,42.37,42.37,0,0,1-1,7.44A1.49,1.49,0,0,1,246.37,100.87Z"/><path class="cls-4" d="M219.4,138.18h-1.51a21.77,21.77,0,0,1-7.94-1.5,25.19,25.19,0,0,1-11.68-9.53l-3.75-5.53c-2.75-4.08-4.37-10.24-5-14.68-3.25-.55-5.65-4.37-6.34-10.23-.22-1.19-1.61-9.5,1.66-13.41a5.49,5.49,0,0,1,3.06-1.88c.06-.62.16-1.44.32-2.42l.54-3.21c1.44-8.67,6.34-14.86,15-18.94a35.07,35.07,0,0,1,14.1-2.91h1.51a35.31,35.31,0,0,1,14.08,2.89c.39.13,3.22.71,5.7,1.18l3.62.86a1.56,1.56,0,0,1,1,.81,1.5,1.5,0,0,1,0,1.29l-1.13,2.42a23.91,23.91,0,0,1,5.81,12.4L249,79c.16,1,.26,1.8.32,2.42a5.49,5.49,0,0,1,3.06,1.88c3.27,3.91,1.88,12.22,1.66,13.41-.69,5.86-3.09,9.68-6.34,10.23-.61,4.5-2.22,10.62-5,14.68L239,127.15a25.19,25.19,0,0,1-11.68,9.53A21.73,21.73,0,0,1,219.4,138.18Zm-30.08-53.9a2.6,2.6,0,0,0-2.14.94c-2.05,2.46-1.42,8.76-1,11,0,0,0,.07,0,.1.52,4.49,2.22,7.66,4.13,7.7,1.21,0,2.09,1,2.2,2.55.51,3.83,2,9.71,4.48,13.37l3.75,5.54A22.15,22.15,0,0,0,211,133.88a18.94,18.94,0,0,0,6.86,1.3h1.51a18.94,18.94,0,0,0,6.86-1.3,22.15,22.15,0,0,0,10.27-8.41l3.75-5.54c2.48-3.66,4-9.54,4.49-13.45A2.39,2.39,0,0,1,247,104c1.91,0,3.61-3.21,4.13-7.7,0,0,0-.07,0-.1.42-2.23,1-8.53-1-11a2.6,2.6,0,0,0-2.14-.94h0a1.5,1.5,0,0,1-1.5-1.48,24.53,24.53,0,0,0-.36-3.31l-.54-3.21a20.56,20.56,0,0,0-5.7-11.54,1.5,1.5,0,0,1-.3-1.69l.79-1.68-1.77-.43c-5.66-1.07-6.15-1.3-6.33-1.38a32.12,32.12,0,0,0-12.82-2.62h-1.51A32.22,32.22,0,0,0,205,59.57c-7.77,3.67-12,9-13.28,16.71l-.54,3.21a24.53,24.53,0,0,0-.36,3.31,1.5,1.5,0,0,1-1.5,1.48Z"/><path class="cls-4" d="M239.61,92.49h-.28A1.48,1.48,0,0,1,237.9,91a110.75,110.75,0,0,0-.83-11.94c-5,1.33-21.39,4.94-36.92-.1a61.3,61.3,0,0,0-.29,11,1.48,1.48,0,0,1-.43,1.13,1.51,1.51,0,0,1-1.13.44,7.68,7.68,0,0,1-7.53-6.32A13,13,0,0,1,188.46,84a1.5,1.5,0,0,1,1.79-2.41,11,11,0,0,0,2.43,1.24,1.5,1.5,0,0,1,1,1.31,4.8,4.8,0,0,0,3.15,4.18c-.34-10.76,1.11-11.84,1.61-12.21a1.81,1.81,0,0,1,1.75-.27c17.5,6.11,37.3,0,37.5,0a1.51,1.51,0,0,1,1.77.72c.92,1.69,1.29,8.75,1.42,12.64,2-1.12,2.43-4.77,2.44-4.82a1.51,1.51,0,0,1,1.14-1.3,6,6,0,0,0,2.79-1.16.44.44,0,0,0-.08.1l2.54,1.6c-.2.32-1,1.35-3.58,2.12C245.51,88.52,243.66,92.49,239.61,92.49Z"/><path class="cls-4" d="M210,196.83a1.51,1.51,0,0,1-1-.39l-28.42-25.68a1.49,1.49,0,0,1-.25-1.92l6.87-10.69a1.5,1.5,0,0,1,2.52,1.62l-6.18,9.62L211,194.21a1.5,1.5,0,0,1-1,2.62Z"/><path class="cls-4" d="M226,196.83a1.48,1.48,0,0,1-1.11-.5,1.49,1.49,0,0,1,.11-2.12l27.47-24.82-6.19-9.62a1.5,1.5,0,0,1,2.53-1.62l6.87,10.69a1.49,1.49,0,0,1-.25,1.92L227,196.44A1.51,1.51,0,0,1,226,196.83Z"/><path class="cls-4" d="M218.05,150.44c-7.76,0-14.62-1.59-17.9-4.14a1.5,1.5,0,1,1,1.84-2.37c2.24,1.75,8.08,3.51,16.06,3.51,6.84,0,13.27-1.39,16-3.46a1.5,1.5,0,1,1,1.81,2.39C232.55,148.88,225.73,150.44,218.05,150.44Z"/><path class="cls-4" d="M207.27,163.16a1.5,1.5,0,0,1-1.11-2.51l11.17-12.26a1.5,1.5,0,1,1,2.22,2l-11.17,12.26A1.5,1.5,0,0,1,207.27,163.16Z"/><path class="cls-4" d="M229.61,163.16a1.5,1.5,0,0,1-1.11-.49l-11.17-12.26a1.5,1.5,0,1,1,2.22-2l11.17,12.26a1.5,1.5,0,0,1-1.11,2.51Z"/><ellipse class="cls-4" cx="218.01" cy="158.96" rx="1.42" ry="1.48"/><ellipse class="cls-4" cx="218.01" cy="167.84" rx="1.42" ry="1.48"/><ellipse class="cls-4" cx="218.01" cy="176.72" rx="1.42" ry="1.48"/></g></svg> 