<svg xmlns="http://www.w3.org/2000/svg" xmlns:xlink="http://www.w3.org/1999/xlink" viewBox="0 0 440 252"><defs><style>.cls-1{fill:#f1dae9;}.cls-2{fill:#ffecf3;}.cls-3{clip-path:url(#clip-path);}.cls-4{clip-path:url(#clip-path-2);}.cls-5{clip-path:url(#clip-path-3);}.cls-6{clip-path:url(#clip-path-4);}.cls-7{clip-path:url(#clip-path-5);}.cls-8{clip-path:url(#clip-path-6);}.cls-9{clip-path:url(#clip-path-7);}.cls-10{clip-path:url(#clip-path-8);}.cls-11{clip-path:url(#clip-path-9);}.cls-12{clip-path:url(#clip-path-10);}.cls-13{clip-path:url(#clip-path-11);}.cls-14{clip-path:url(#clip-path-12);}.cls-15{clip-path:url(#clip-path-13);}.cls-16{clip-path:url(#clip-path-14);}.cls-17{clip-path:url(#clip-path-15);}.cls-18{clip-path:url(#clip-path-16);}.cls-19{clip-path:url(#clip-path-17);}.cls-20{clip-path:url(#clip-path-18);}.cls-21{clip-path:url(#clip-path-19);}.cls-22{clip-path:url(#clip-path-20);}.cls-23{clip-path:url(#clip-path-21);}.cls-24{clip-path:url(#clip-path-22);}.cls-25{clip-path:url(#clip-path-23);}.cls-26{clip-path:url(#clip-path-24);}.cls-27{clip-path:url(#clip-path-25);}.cls-28{clip-path:url(#clip-path-26);}.cls-29{clip-path:url(#clip-path-27);}.cls-30{clip-path:url(#clip-path-28);}.cls-31{clip-path:url(#clip-path-29);}.cls-32{clip-path:url(#clip-path-30);}.cls-33{clip-path:url(#clip-path-31);}.cls-34{clip-path:url(#clip-path-32);}.cls-35{clip-path:url(#clip-path-33);}.cls-36{clip-path:url(#clip-path-34);}.cls-37{clip-path:url(#clip-path-35);}.cls-38{clip-path:url(#clip-path-36);}.cls-39{clip-path:url(#clip-path-37);}.cls-40{clip-path:url(#clip-path-38);}.cls-41{clip-path:url(#clip-path-39);}.cls-42{clip-path:url(#clip-path-40);}.cls-43{clip-path:url(#clip-path-41);}.cls-44{clip-path:url(#clip-path-42);}.cls-45{clip-path:url(#clip-path-43);}.cls-46{clip-path:url(#clip-path-44);}.cls-47{clip-path:url(#clip-path-45);}.cls-48{clip-path:url(#clip-path-46);}.cls-49{clip-path:url(#clip-path-47);}.cls-50{clip-path:url(#clip-path-48);}.cls-51{fill:#b64d94;}.cls-52{fill:#333;}</style><clipPath id="clip-path"><path class="cls-1" d="M72.26,199a1.17,1.17,0,1,1,0-2.3h58.62a1.17,1.17,0,1,1,0,2.3Z"/></clipPath><clipPath id="clip-path-2"><path class="cls-1" d="M309.07,198.78c-.94,0-1.7-.48-1.7-1.07s.76-1.08,1.7-1.08h32.4c.94,0,1.7.48,1.7,1.08s-.76,1.07-1.7,1.07Z"/></clipPath><clipPath id="clip-path-3"><path class="cls-1" d="M388.32,199.05a1.18,1.18,0,0,1,0-2.35h5.76a1.18,1.18,0,0,1,0,2.35Z"/></clipPath><clipPath id="clip-path-4"><path class="cls-1" d="M404.52,199.05a1.18,1.18,0,0,1,0-2.35h27.92a1.18,1.18,0,0,1,0,2.35Z"/></clipPath><clipPath id="clip-path-5"><path class="cls-1" d="M219.07,35.75a1.17,1.17,0,1,1,2.34,0V56a1.18,1.18,0,0,1-.31.8L209.94,69a1.17,1.17,0,0,1-1.72-1.59l10.85-11.79Z"/></clipPath><clipPath id="clip-path-6"><path class="cls-1" d="M247.88,56A27.64,27.64,0,1,1,220.24,28.4,27.64,27.64,0,0,1,247.88,56Zm-2.35,0a25.29,25.29,0,1,0-25.29,25.29A25.29,25.29,0,0,0,245.53,56Z"/></clipPath><clipPath id="clip-path-7"><path class="cls-1" d="M253.89,56a33.65,33.65,0,1,1-33.65-33.65A33.66,33.66,0,0,1,253.89,56Zm-2.35,0a31.3,31.3,0,1,0-31.3,31.3A31.3,31.3,0,0,0,251.54,56Z"/></clipPath><clipPath id="clip-path-8"><path class="cls-1" d="M372.62,222H359a12.64,12.64,0,0,1-12.63-12.63V183a1.18,1.18,0,0,1,1.18-1.17h36.56a1.18,1.18,0,0,1,1.17,1.17v26.41A12.63,12.63,0,0,1,372.62,222Zm-23.93-12.63A10.28,10.28,0,0,0,359,219.65h13.65a10.28,10.28,0,0,0,10.28-10.28V184.14H348.69Z"/></clipPath><clipPath id="clip-path-9"><path class="cls-1" d="M388.32,190.17a1.18,1.18,0,0,1,0-2.35h2.85a10,10,0,0,1,0,20h-2.85a1.17,1.17,0,1,1,0-2.34h2.85a7.65,7.65,0,1,0,0-15.29Z"/></clipPath><clipPath id="clip-path-10"><path class="cls-1" d="M347.52,226.48a1.18,1.18,0,1,1,0-2.35h36.56a1.18,1.18,0,0,1,0,2.35Z"/></clipPath><clipPath id="clip-path-11"><path class="cls-1" d="M96,57.12H7.92a1.18,1.18,0,0,1,0-2.35H97.18a1.17,1.17,0,0,1,1.17,1.17V123.5a1.17,1.17,0,0,1-1.17,1.17H8.1a1.17,1.17,0,1,1,0-2.34H96Z"/></clipPath><clipPath id="clip-path-12"><path class="cls-1" d="M103.09,50H8.1a1.18,1.18,0,1,1,0-2.35h96.16a1.17,1.17,0,0,1,1.17,1.17v81.72a1.17,1.17,0,0,1-1.17,1.17H8.1a1.17,1.17,0,1,1,0-2.34h95Z"/></clipPath><clipPath id="clip-path-13"><path class="cls-1" d="M81.14,74.43H8.1a1.18,1.18,0,1,1,0-2.35H82.32a1.17,1.17,0,0,1,1.17,1.18v32.93a1.17,1.17,0,0,1-1.17,1.17H8.1a1.18,1.18,0,1,1,0-2.35h73Z"/></clipPath><clipPath id="clip-path-14"><path class="cls-1" d="M63.58,42.8A1.17,1.17,0,1,1,62,44.53L39.92,24.17a1.17,1.17,0,1,1,1.59-1.73Z"/></clipPath><clipPath id="clip-path-15"><path class="cls-1" d="M19.44,44.53a1.16,1.16,0,0,1-1.65-.07,1.18,1.18,0,0,1,.06-1.66L39.92,22.44a1.17,1.17,0,0,1,1.59,1.73Z"/></clipPath><clipPath id="clip-path-16"><path class="cls-1" d="M320.66,116.47a1.18,1.18,0,1,1,0-2.35H431.84a1.18,1.18,0,0,1,0,2.35Z"/></clipPath><clipPath id="clip-path-17"><path class="cls-1" d="M318.29,106a1.18,1.18,0,0,1,0-2.35H431.84a1.18,1.18,0,0,1,0,2.35Z"/></clipPath><clipPath id="clip-path-18"><path class="cls-1" d="M350.94,42.27h-7.27A1.66,1.66,0,0,0,342,43.93V96.78a1.66,1.66,0,0,0,1.66,1.66h7.27a1.66,1.66,0,0,0,1.66-1.66V43.93A1.66,1.66,0,0,0,350.94,42.27Zm0-2.35a4,4,0,0,1,4,4V96.78a4,4,0,0,1-4,4h-7.27a4,4,0,0,1-4-4V43.93a4,4,0,0,1,4-4Z"/></clipPath><clipPath id="clip-path-19"><path class="cls-1" d="M344.94,68.84a1.18,1.18,0,1,1,0-2.35h4.73a1.18,1.18,0,0,1,0,2.35Z"/></clipPath><clipPath id="clip-path-20"><path class="cls-1" d="M344.94,74.13a1.18,1.18,0,1,1,0-2.35h4.73a1.18,1.18,0,0,1,0,2.35Z"/></clipPath><clipPath id="clip-path-21"><path class="cls-1" d="M362.12,44.56A1.68,1.68,0,0,0,361,46.64l15.48,50.53a1.67,1.67,0,0,0,2.07,1.11l6.95-2.13a1.66,1.66,0,0,0,1.1-2.08L371.13,43.54a1.65,1.65,0,0,0-2.07-1.1Zm6.25-4.37a4,4,0,0,1,5,2.66l15.47,50.54a4,4,0,0,1-2.65,5l-6.95,2.13a4,4,0,0,1-5-2.66L358.77,47.32a4,4,0,0,1,2.66-5Z"/></clipPath><clipPath id="clip-path-22"><path class="cls-1" d="M371.11,69.6a1.18,1.18,0,1,1-.69-2.25L374.94,66a1.17,1.17,0,1,1,.69,2.24Z"/></clipPath><clipPath id="clip-path-23"><path class="cls-1" d="M372.66,74.66a1.18,1.18,0,1,1-.69-2.25L376.49,71a1.17,1.17,0,1,1,.69,2.24Z"/></clipPath><clipPath id="clip-path-24"><path class="cls-1" d="M333.08,42.27h-7.27a1.66,1.66,0,0,0-1.66,1.66V96.78a1.66,1.66,0,0,0,1.66,1.66h7.27a1.66,1.66,0,0,0,1.66-1.66V43.93A1.66,1.66,0,0,0,333.08,42.27Zm0-2.35a4,4,0,0,1,4,4V96.78a4,4,0,0,1-4,4h-7.27a4,4,0,0,1-4-4V43.93a4,4,0,0,1,4-4Z"/></clipPath><clipPath id="clip-path-25"><path class="cls-1" d="M327.08,68.84a1.18,1.18,0,0,1,0-2.35h4.73a1.18,1.18,0,1,1,0,2.35Z"/></clipPath><clipPath id="clip-path-26"><path class="cls-1" d="M327.08,74.13a1.18,1.18,0,0,1,0-2.35h4.73a1.18,1.18,0,1,1,0,2.35Z"/></clipPath><clipPath id="clip-path-27"><path class="cls-1" d="M296.46,42.27h-7.27a1.66,1.66,0,0,0-1.66,1.66V96.78a1.66,1.66,0,0,0,1.66,1.66h7.27a1.66,1.66,0,0,0,1.66-1.66V43.93A1.66,1.66,0,0,0,296.46,42.27Zm0-2.35a4,4,0,0,1,4,4V96.78a4,4,0,0,1-4,4h-7.27a4,4,0,0,1-4-4V43.93a4,4,0,0,1,4-4Z"/></clipPath><clipPath id="clip-path-28"><path class="cls-1" d="M315.22,42.27H308a1.66,1.66,0,0,0-1.66,1.66V96.78A1.66,1.66,0,0,0,308,98.44h7.26a1.66,1.66,0,0,0,1.66-1.66V43.93A1.66,1.66,0,0,0,315.22,42.27Zm0-2.35a4,4,0,0,1,4,4V96.78a4,4,0,0,1-4,4H308a4,4,0,0,1-4-4V43.93a4,4,0,0,1,4-4Z"/></clipPath><clipPath id="clip-path-29"><path class="cls-1" d="M290.46,68.84a1.18,1.18,0,0,1,0-2.35h4.73a1.18,1.18,0,0,1,0,2.35Z"/></clipPath><clipPath id="clip-path-30"><path class="cls-1" d="M290.46,74.13a1.18,1.18,0,0,1,0-2.35h4.73a1.18,1.18,0,0,1,0,2.35Z"/></clipPath><clipPath id="clip-path-31"><path class="cls-1" d="M309.22,68.84a1.18,1.18,0,0,1,0-2.35H314a1.18,1.18,0,0,1,0,2.35Z"/></clipPath><clipPath id="clip-path-32"><path class="cls-1" d="M309.22,74.13a1.18,1.18,0,0,1,0-2.35H314a1.18,1.18,0,0,1,0,2.35Z"/></clipPath><clipPath id="clip-path-33"><path class="cls-1" d="M430.67,76.57V68.74h-31v7.83Zm-32.21,2.35a1.18,1.18,0,0,1-1.17-1.17V67.56a1.18,1.18,0,0,1,1.17-1.17h33.38A1.17,1.17,0,0,1,433,67.56V77.75a1.17,1.17,0,0,1-1.17,1.17Z"/></clipPath><clipPath id="clip-path-34"><path class="cls-1" d="M400.15,77.9a1.18,1.18,0,0,1,2.33-.31l2.84,21.54a1.18,1.18,0,1,1-2.33.31Z"/></clipPath><clipPath id="clip-path-35"><path class="cls-1" d="M427.82,77.59a1.18,1.18,0,0,1,2.33.31l-2.84,21.54a1.17,1.17,0,1,1-2.32-.31Z"/></clipPath><clipPath id="clip-path-36"><path class="cls-1" d="M416.33,63.26a1.18,1.18,0,0,1-2.35,0V33a1.18,1.18,0,0,1,2.35,0Z"/></clipPath><clipPath id="clip-path-37"><path class="cls-1" d="M411.07,39.15a9.94,9.94,0,0,0-9-2.72,9.93,9.93,0,0,0,11.7,11.69A9.93,9.93,0,0,0,411.07,39.15Zm1.66-1.66a12.29,12.29,0,0,1,3.17,11.92,1.18,1.18,0,0,1-.83.82A12.28,12.28,0,0,1,400,35.15a1.17,1.17,0,0,1,.82-.83A12.3,12.3,0,0,1,412.73,37.49Z"/></clipPath><clipPath id="clip-path-38"><path class="cls-1" d="M415.59,48.27a1.17,1.17,0,1,1-1.66,1.66l-6.82-6.82a1.17,1.17,0,0,1,1.66-1.66Z"/></clipPath><clipPath id="clip-path-39"><path class="cls-1" d="M417.58,47a12.28,12.28,0,0,1,11.91-3.17,1.18,1.18,0,0,1,.83.83,12.28,12.28,0,0,1-15.09,15.08,1.15,1.15,0,0,1-.82-.82A12.28,12.28,0,0,1,417.58,47Zm1.66,1.66a9.92,9.92,0,0,0-2.72,9,9.94,9.94,0,0,0,11.69-11.7A9.93,9.93,0,0,0,419.24,48.61Z"/></clipPath><clipPath id="clip-path-40"><path class="cls-1" d="M416.37,59.39a1.17,1.17,0,1,1-1.66-1.66l6.82-6.82a1.17,1.17,0,1,1,1.66,1.66Z"/></clipPath><clipPath id="clip-path-41"><path class="cls-1" d="M9.18,226.71H33.33V143.47H9.18ZM8,229.05a1.17,1.17,0,0,1-1.17-1.17V142.3A1.17,1.17,0,0,1,8,141.13H34.5a1.17,1.17,0,0,1,1.17,1.17v85.58a1.17,1.17,0,0,1-1.17,1.17Z"/></clipPath><clipPath id="clip-path-42"><path class="cls-1" d="M66,226.71V143.47H41.89v83.24Zm-25.31,2.34a1.17,1.17,0,0,1-1.18-1.17V142.3a1.17,1.17,0,0,1,1.18-1.17H67.21a1.17,1.17,0,0,1,1.17,1.17v85.58a1.17,1.17,0,0,1-1.17,1.17Z"/></clipPath><clipPath id="clip-path-43"><path class="cls-1" d="M26.83,215.07a5.58,5.58,0,1,1-5.57-5.57A5.57,5.57,0,0,1,26.83,215.07Zm-2.34,0a3.23,3.23,0,1,0-3.23,3.23A3.23,3.23,0,0,0,24.49,215.07Z"/></clipPath><clipPath id="clip-path-44"><path class="cls-1" d="M59.54,215.07A5.58,5.58,0,1,1,54,209.5,5.58,5.58,0,0,1,59.54,215.07Zm-2.35,0A3.23,3.23,0,1,0,54,218.3,3.23,3.23,0,0,0,57.19,215.07Z"/></clipPath><clipPath id="clip-path-45"><path class="cls-1" d="M15,199.05a1.18,1.18,0,1,1,0-2.35H27.56a1.18,1.18,0,1,1,0,2.35Z"/></clipPath><clipPath id="clip-path-46"><path class="cls-1" d="M17.31,203.7a1.18,1.18,0,0,1,0-2.35H25.2a1.18,1.18,0,0,1,0,2.35Z"/></clipPath><clipPath id="clip-path-47"><path class="cls-1" d="M47.65,199.05a1.18,1.18,0,0,1,0-2.35H60.27a1.18,1.18,0,0,1,0,2.35Z"/></clipPath><clipPath id="clip-path-48"><path class="cls-1" d="M50,203.7a1.18,1.18,0,0,1,0-2.35H57.9a1.18,1.18,0,1,1,0,2.35Z"/></clipPath></defs><g id="Bkg_colour" data-name="Bkg colour"><rect class="cls-2" width="440" height="252"/></g><g id="Bkg_lines" data-name="Bkg lines"><path class="cls-1" d="M72.26,199a1.17,1.17,0,1,1,0-2.3h58.62a1.17,1.17,0,1,1,0,2.3Z"/><g class="cls-3"><rect class="cls-1" x="65.18" y="192.06" width="72.78" height="11.54"/></g><path class="cls-1" d="M309.07,198.78c-.94,0-1.7-.48-1.7-1.07s.76-1.08,1.7-1.08h32.4c.94,0,1.7.48,1.7,1.08s-.76,1.07-1.7,1.07Z"/><g class="cls-4"><rect class="cls-1" x="300.52" y="192.31" width="49.5" height="10.8"/></g><path class="cls-1" d="M388.32,199.05a1.18,1.18,0,0,1,0-2.35h5.76a1.18,1.18,0,0,1,0,2.35Z"/><g class="cls-5"><rect class="cls-1" x="382.42" y="191.97" width="17.56" height="11.81"/></g><path class="cls-1" d="M404.52,199.05a1.18,1.18,0,0,1,0-2.35h27.92a1.18,1.18,0,0,1,0,2.35Z"/><g class="cls-6"><rect class="cls-1" x="398.62" y="191.97" width="39.72" height="11.81"/></g><path class="cls-1" d="M219.07,35.75a1.17,1.17,0,1,1,2.34,0V56a1.18,1.18,0,0,1-.31.8L209.94,69a1.17,1.17,0,0,1-1.72-1.59l10.85-11.79Z"/><g class="cls-7"><rect class="cls-1" x="203.18" y="29.84" width="22.97" height="44.22"/></g><path class="cls-1" d="M247.88,56A27.64,27.64,0,1,1,220.24,28.4,27.64,27.64,0,0,1,247.88,56Zm-2.35,0a25.29,25.29,0,1,0-25.29,25.29A25.29,25.29,0,0,0,245.53,56Z"/><g class="cls-8"><rect class="cls-1" x="187.87" y="23.67" width="64.74" height="64.74"/></g><path class="cls-1" d="M253.89,56a33.65,33.65,0,1,1-33.65-33.65A33.66,33.66,0,0,1,253.89,56Zm-2.35,0a31.3,31.3,0,1,0-31.3,31.3A31.3,31.3,0,0,0,251.54,56Z"/><g class="cls-9"><rect class="cls-1" x="181.86" y="17.66" width="76.76" height="76.76"/></g><path class="cls-1" d="M372.62,222H359a12.64,12.64,0,0,1-12.63-12.63V183a1.18,1.18,0,0,1,1.18-1.17h36.56a1.18,1.18,0,0,1,1.17,1.17v26.41A12.63,12.63,0,0,1,372.62,222Zm-23.93-12.63A10.28,10.28,0,0,0,359,219.65h13.65a10.28,10.28,0,0,0,10.28-10.28V184.14H348.69Z"/><g class="cls-10"><rect class="cls-1" x="341.61" y="177.06" width="48.37" height="49.67"/></g><path class="cls-1" d="M388.32,190.17a1.18,1.18,0,0,1,0-2.35h2.85a10,10,0,0,1,0,20h-2.85a1.17,1.17,0,1,1,0-2.34h2.85a7.65,7.65,0,1,0,0-15.29Z"/><g class="cls-11"><rect class="cls-1" x="382.42" y="183.09" width="23.48" height="29.44"/></g><path class="cls-1" d="M347.52,226.48a1.18,1.18,0,1,1,0-2.35h36.56a1.18,1.18,0,0,1,0,2.35Z"/><g class="cls-12"><rect class="cls-1" x="341.61" y="219.4" width="48.37" height="11.81"/></g><path class="cls-1" d="M96,57.12H7.92a1.18,1.18,0,0,1,0-2.35H97.18a1.17,1.17,0,0,1,1.17,1.17V123.5a1.17,1.17,0,0,1-1.17,1.17H8.1a1.17,1.17,0,1,1,0-2.34H96Z"/><g class="cls-13"><rect class="cls-1" x="2.02" y="50.04" width="101.06" height="79.36"/></g><path class="cls-1" d="M103.09,50H8.1a1.18,1.18,0,1,1,0-2.35h96.16a1.17,1.17,0,0,1,1.17,1.17v81.72a1.17,1.17,0,0,1-1.17,1.17H8.1a1.17,1.17,0,1,1,0-2.34h95Z"/><g class="cls-14"><rect class="cls-1" x="2.19" y="42.96" width="107.97" height="93.53"/></g><path class="cls-1" d="M81.14,74.43H8.1a1.18,1.18,0,1,1,0-2.35H82.32a1.17,1.17,0,0,1,1.17,1.18v32.93a1.17,1.17,0,0,1-1.17,1.17H8.1a1.18,1.18,0,1,1,0-2.35h73Z"/><g class="cls-15"><rect class="cls-1" x="2.19" y="67.35" width="86.03" height="44.74"/></g><path class="cls-1" d="M63.58,42.8A1.17,1.17,0,1,1,62,44.53L39.92,24.17a1.17,1.17,0,1,1,1.59-1.73Z"/><g class="cls-16"><rect class="cls-1" x="34.81" y="17.4" width="33.88" height="32.17"/></g><path class="cls-1" d="M19.44,44.53a1.16,1.16,0,0,1-1.65-.07,1.18,1.18,0,0,1,.06-1.66L39.92,22.44a1.17,1.17,0,0,1,1.59,1.73Z"/><g class="cls-17"><rect class="cls-1" x="12.74" y="17.4" width="33.88" height="32.17"/></g><path class="cls-1" d="M320.66,116.47a1.18,1.18,0,1,1,0-2.35H431.84a1.18,1.18,0,0,1,0,2.35Z"/><g class="cls-18"><rect class="cls-1" x="314.75" y="109.39" width="122.99" height="11.81"/></g><path class="cls-1" d="M318.29,106a1.18,1.18,0,0,1,0-2.35H431.84a1.18,1.18,0,0,1,0,2.35Z"/><g class="cls-19"><rect class="cls-1" x="312.39" y="98.96" width="125.36" height="11.81"/></g><path class="cls-1" d="M350.94,42.27h-7.27A1.66,1.66,0,0,0,342,43.93V96.78a1.66,1.66,0,0,0,1.66,1.66h7.27a1.66,1.66,0,0,0,1.66-1.66V43.93A1.66,1.66,0,0,0,350.94,42.27Zm0-2.35a4,4,0,0,1,4,4V96.78a4,4,0,0,1-4,4h-7.27a4,4,0,0,1-4-4V43.93a4,4,0,0,1,4-4Z"/><g class="cls-20"><rect class="cls-1" x="334.93" y="35.19" width="24.74" height="70.33"/></g><path class="cls-1" d="M344.94,68.84a1.18,1.18,0,1,1,0-2.35h4.73a1.18,1.18,0,0,1,0,2.35Z"/><g class="cls-21"><rect class="cls-1" x="339.03" y="61.76" width="16.54" height="11.81"/></g><path class="cls-1" d="M344.94,74.13a1.18,1.18,0,1,1,0-2.35h4.73a1.18,1.18,0,0,1,0,2.35Z"/><g class="cls-22"><rect class="cls-1" x="339.03" y="67.05" width="16.54" height="11.81"/></g><path class="cls-1" d="M362.12,44.56A1.68,1.68,0,0,0,361,46.64l15.48,50.53a1.67,1.67,0,0,0,2.07,1.11l6.95-2.13a1.66,1.66,0,0,0,1.1-2.08L371.13,43.54a1.65,1.65,0,0,0-2.07-1.1Zm6.25-4.37a4,4,0,0,1,5,2.66l15.47,50.54a4,4,0,0,1-2.65,5l-6.95,2.13a4,4,0,0,1-5-2.66L358.77,47.32a4,4,0,0,1,2.66-5Z"/><g class="cls-23"><rect class="cls-1" x="353.86" y="35.28" width="39.9" height="70.14"/></g><path class="cls-1" d="M371.11,69.6a1.18,1.18,0,1,1-.69-2.25L374.94,66a1.17,1.17,0,1,1,.69,2.24Z"/><g class="cls-24"><rect class="cls-1" x="364.86" y="61.19" width="16.33" height="13.19"/></g><path class="cls-1" d="M372.66,74.66a1.18,1.18,0,1,1-.69-2.25L376.49,71a1.17,1.17,0,1,1,.69,2.24Z"/><g class="cls-25"><rect class="cls-1" x="366.41" y="66.25" width="16.33" height="13.19"/></g><path class="cls-1" d="M333.08,42.27h-7.27a1.66,1.66,0,0,0-1.66,1.66V96.78a1.66,1.66,0,0,0,1.66,1.66h7.27a1.66,1.66,0,0,0,1.66-1.66V43.93A1.66,1.66,0,0,0,333.08,42.27Zm0-2.35a4,4,0,0,1,4,4V96.78a4,4,0,0,1-4,4h-7.27a4,4,0,0,1-4-4V43.93a4,4,0,0,1,4-4Z"/><g class="cls-26"><rect class="cls-1" x="317.08" y="35.19" width="24.74" height="70.33"/></g><path class="cls-1" d="M327.08,68.84a1.18,1.18,0,0,1,0-2.35h4.73a1.18,1.18,0,1,1,0,2.35Z"/><g class="cls-27"><rect class="cls-1" x="321.18" y="61.76" width="16.54" height="11.81"/></g><path class="cls-1" d="M327.08,74.13a1.18,1.18,0,0,1,0-2.35h4.73a1.18,1.18,0,1,1,0,2.35Z"/><g class="cls-28"><rect class="cls-1" x="321.18" y="67.05" width="16.54" height="11.81"/></g><path class="cls-1" d="M296.46,42.27h-7.27a1.66,1.66,0,0,0-1.66,1.66V96.78a1.66,1.66,0,0,0,1.66,1.66h7.27a1.66,1.66,0,0,0,1.66-1.66V43.93A1.66,1.66,0,0,0,296.46,42.27Zm0-2.35a4,4,0,0,1,4,4V96.78a4,4,0,0,1-4,4h-7.27a4,4,0,0,1-4-4V43.93a4,4,0,0,1,4-4Z"/><g class="cls-29"><rect class="cls-1" x="280.45" y="35.19" width="24.74" height="70.33"/></g><path class="cls-1" d="M315.22,42.27H308a1.66,1.66,0,0,0-1.66,1.66V96.78A1.66,1.66,0,0,0,308,98.44h7.26a1.66,1.66,0,0,0,1.66-1.66V43.93A1.66,1.66,0,0,0,315.22,42.27Zm0-2.35a4,4,0,0,1,4,4V96.78a4,4,0,0,1-4,4H308a4,4,0,0,1-4-4V43.93a4,4,0,0,1,4-4Z"/><g class="cls-30"><rect class="cls-1" x="299.22" y="35.19" width="24.74" height="70.33"/></g><path class="cls-1" d="M290.46,68.84a1.18,1.18,0,0,1,0-2.35h4.73a1.18,1.18,0,0,1,0,2.35Z"/><g class="cls-31"><rect class="cls-1" x="284.55" y="61.76" width="16.54" height="11.81"/></g><path class="cls-1" d="M290.46,74.13a1.18,1.18,0,0,1,0-2.35h4.73a1.18,1.18,0,0,1,0,2.35Z"/><g class="cls-32"><rect class="cls-1" x="284.55" y="67.05" width="16.54" height="11.81"/></g><path class="cls-1" d="M309.22,68.84a1.18,1.18,0,0,1,0-2.35H314a1.18,1.18,0,0,1,0,2.35Z"/><g class="cls-33"><rect class="cls-1" x="303.32" y="61.76" width="16.54" height="11.81"/></g><path class="cls-1" d="M309.22,74.13a1.18,1.18,0,0,1,0-2.35H314a1.18,1.18,0,0,1,0,2.35Z"/><g class="cls-34"><rect class="cls-1" x="303.32" y="67.05" width="16.54" height="11.81"/></g><path class="cls-1" d="M430.67,76.57V68.74h-31v7.83Zm-32.21,2.35a1.18,1.18,0,0,1-1.17-1.17V67.56a1.18,1.18,0,0,1,1.17-1.17h33.38A1.17,1.17,0,0,1,433,67.56V77.75a1.17,1.17,0,0,1-1.17,1.17Z"/><g class="cls-35"><rect class="cls-1" x="392.56" y="61.66" width="45.18" height="21.99"/></g><path class="cls-1" d="M400.15,77.9a1.18,1.18,0,0,1,2.33-.31l2.84,21.54a1.18,1.18,0,1,1-2.33.31Z"/><g class="cls-36"><rect class="cls-1" x="395.41" y="71.84" width="14.65" height="33.35"/></g><path class="cls-1" d="M427.82,77.59a1.18,1.18,0,0,1,2.33.31l-2.84,21.54a1.17,1.17,0,1,1-2.32-.31Z"/><g class="cls-37"><rect class="cls-1" x="420.24" y="71.84" width="14.65" height="33.35"/></g><path class="cls-1" d="M416.33,63.26a1.18,1.18,0,0,1-2.35,0V33a1.18,1.18,0,0,1,2.35,0Z"/><g class="cls-38"><rect class="cls-1" x="409.25" y="27.13" width="11.81" height="42.03"/></g><path class="cls-1" d="M411.07,39.15a9.94,9.94,0,0,0-9-2.72,9.93,9.93,0,0,0,11.7,11.69A9.93,9.93,0,0,0,411.07,39.15Zm1.66-1.66a12.29,12.29,0,0,1,3.17,11.92,1.18,1.18,0,0,1-.83.82A12.28,12.28,0,0,1,400,35.15a1.17,1.17,0,0,1,.82-.83A12.3,12.3,0,0,1,412.73,37.49Z"/><g class="cls-39"><rect class="cls-1" x="394.82" y="29.16" width="26.23" height="26.23"/></g><path class="cls-1" d="M415.59,48.27a1.17,1.17,0,1,1-1.66,1.66l-6.82-6.82a1.17,1.17,0,0,1,1.66-1.66Z"/><g class="cls-40"><rect class="cls-1" x="402.04" y="36.37" width="18.63" height="18.63"/></g><path class="cls-1" d="M417.58,47a12.28,12.28,0,0,1,11.91-3.17,1.18,1.18,0,0,1,.83.83,12.28,12.28,0,0,1-15.09,15.08,1.15,1.15,0,0,1-.82-.82A12.28,12.28,0,0,1,417.58,47Zm1.66,1.66a9.92,9.92,0,0,0-2.72,9,9.94,9.94,0,0,0,11.69-11.7A9.93,9.93,0,0,0,419.24,48.61Z"/><g class="cls-41"><rect class="cls-1" x="409.25" y="38.62" width="26.23" height="26.23"/></g><path class="cls-1" d="M416.37,59.39a1.17,1.17,0,1,1-1.66-1.66l6.82-6.82a1.17,1.17,0,1,1,1.66,1.66Z"/><g class="cls-42"><rect class="cls-1" x="409.64" y="45.83" width="18.63" height="18.63"/></g><path class="cls-1" d="M9.18,226.71H33.33V143.47H9.18ZM8,229.05a1.17,1.17,0,0,1-1.17-1.17V142.3A1.17,1.17,0,0,1,8,141.13H34.5a1.17,1.17,0,0,1,1.17,1.17v85.58a1.17,1.17,0,0,1-1.17,1.17Z"/><g class="cls-43"><rect class="cls-1" x="2.11" y="136.4" width="38.3" height="97.39"/></g><path class="cls-1" d="M66,226.71V143.47H41.89v83.24Zm-25.31,2.34a1.17,1.17,0,0,1-1.18-1.17V142.3a1.17,1.17,0,0,1,1.18-1.17H67.21a1.17,1.17,0,0,1,1.17,1.17v85.58a1.17,1.17,0,0,1-1.17,1.17Z"/><g class="cls-44"><rect class="cls-1" x="34.81" y="136.4" width="38.3" height="97.39"/></g><path class="cls-1" d="M26.83,215.07a5.58,5.58,0,1,1-5.57-5.57A5.57,5.57,0,0,1,26.83,215.07Zm-2.34,0a3.23,3.23,0,1,0-3.23,3.23A3.23,3.23,0,0,0,24.49,215.07Z"/><g class="cls-45"><rect class="cls-1" x="10.95" y="204.76" width="20.61" height="20.61"/></g><path class="cls-1" d="M59.54,215.07A5.58,5.58,0,1,1,54,209.5,5.58,5.58,0,0,1,59.54,215.07Zm-2.35,0A3.23,3.23,0,1,0,54,218.3,3.23,3.23,0,0,0,57.19,215.07Z"/><g class="cls-46"><rect class="cls-1" x="43.65" y="204.76" width="20.61" height="20.61"/></g><path class="cls-1" d="M15,199.05a1.18,1.18,0,1,1,0-2.35H27.56a1.18,1.18,0,1,1,0,2.35Z"/><g class="cls-47"><rect class="cls-1" x="9.04" y="191.97" width="24.42" height="11.81"/></g><path class="cls-1" d="M17.31,203.7a1.18,1.18,0,0,1,0-2.35H25.2a1.18,1.18,0,0,1,0,2.35Z"/><g class="cls-48"><rect class="cls-1" x="11.41" y="196.62" width="19.69" height="11.81"/></g><path class="cls-1" d="M47.65,199.05a1.18,1.18,0,0,1,0-2.35H60.27a1.18,1.18,0,0,1,0,2.35Z"/><g class="cls-49"><rect class="cls-1" x="41.75" y="191.97" width="24.42" height="11.81"/></g><path class="cls-1" d="M50,203.7a1.18,1.18,0,0,1,0-2.35H57.9a1.18,1.18,0,1,1,0,2.35Z"/><g class="cls-50"><rect class="cls-1" x="44.12" y="196.62" width="19.69" height="11.81"/></g></g><g id="Fill"><path class="cls-51" d="M138.34,201.89v4.29h53.17l-1.24-4.29-26.61-92.2H142.94c-5.08,0-4.6,7.17-4.6,7.17Z"/><path class="cls-51" d="M141.07,210.91c-6.8,0-6.51-2-7.44-3.41a11,11,0,0,1-.55-1.32h-8.57a11.66,11.66,0,0,0,.91,4.73c2.8,6.42,11.11,6.57,11.11,6.57H301.25c8.47,0,12-3.47,13.45-6.57Z"/></g><g id="Outlines"><path class="cls-52" d="M315.71,204.56H124.51a1.62,1.62,0,0,0-1.63,1.62,12.93,12.93,0,0,0,12.93,12.93h168.6a12.93,12.93,0,0,0,12.93-12.93A1.62,1.62,0,0,0,315.71,204.56Zm-11.3,11.3H135.81a9.68,9.68,0,0,1-9.54-8.05h74.34a4.72,4.72,0,0,0,4.42,3.1h30.16a4.72,4.72,0,0,0,4.42-3.1H314A9.68,9.68,0,0,1,304.41,215.86Z"/><path class="cls-52" d="M138.35,200.77a1.63,1.63,0,0,0,1.63-1.63V116.86a5.54,5.54,0,0,1,5.54-5.54H294.7a5.54,5.54,0,0,1,5.55,5.54v82.28a1.63,1.63,0,1,0,3.25,0V116.86a8.8,8.8,0,0,0-8.8-8.8H145.52a8.8,8.8,0,0,0-8.8,8.8v82.28A1.63,1.63,0,0,0,138.35,200.77Z"/><path class="cls-52" d="M292.48,199.91a1.63,1.63,0,0,0,1.63-1.63V118.22a1.63,1.63,0,0,0-1.63-1.62H147.74a1.63,1.63,0,0,0-1.63,1.62v80.06a1.63,1.63,0,0,0,3.26,0V119.85H290.85v78.43A1.63,1.63,0,0,0,292.48,199.91Z"/><path class="cls-52" d="M169.31,136.45h-1.58a1.36,1.36,0,0,1-1.37-1.36v-1.58a1.36,1.36,0,0,1,1.37-1.36h1.58a1.36,1.36,0,0,1,1.36,1.36v1.58A1.36,1.36,0,0,1,169.31,136.45Z"/><path class="cls-52" d="M169.31,146.36h-1.58a1.36,1.36,0,0,1-1.37-1.36v-1.58a1.36,1.36,0,0,1,1.37-1.36h1.58a1.36,1.36,0,0,1,1.36,1.36V145A1.36,1.36,0,0,1,169.31,146.36Z"/><path class="cls-52" d="M169.31,156.27h-1.58a1.36,1.36,0,0,1-1.37-1.36v-1.58a1.37,1.37,0,0,1,1.37-1.37h1.58a1.37,1.37,0,0,1,1.36,1.37v1.58A1.36,1.36,0,0,1,169.31,156.27Z"/><path class="cls-52" d="M219.24,135.93H179.36a1.63,1.63,0,0,1,0-3.26h39.88a1.63,1.63,0,0,1,0,3.26Z"/><path class="cls-52" d="M219.24,145.84H179.36a1.63,1.63,0,0,1,0-3.26h39.88a1.63,1.63,0,0,1,0,3.26Z"/><path class="cls-52" d="M219.24,155.74H179.36a1.63,1.63,0,1,1,0-3.25h39.88a1.63,1.63,0,1,1,0,3.25Z"/><path class="cls-52" d="M219.28,188H168.52a1.63,1.63,0,0,1-1.63-1.63V164a1.63,1.63,0,1,1,3.25,0v20.7h49.14a1.63,1.63,0,0,1,0,3.25Z"/><path class="cls-52" d="M175,181.45a1.62,1.62,0,0,1-1.62-1.62v-4.11a1.63,1.63,0,1,1,3.25,0v4.11A1.63,1.63,0,0,1,175,181.45Z"/><path class="cls-52" d="M182.4,181.45a1.63,1.63,0,0,1-1.63-1.62v-6.06a1.63,1.63,0,1,1,3.25,0v6.06A1.62,1.62,0,0,1,182.4,181.45Z"/><path class="cls-52" d="M189.77,181.45a1.63,1.63,0,0,1-1.62-1.62v-8a1.63,1.63,0,0,1,3.25,0v8A1.63,1.63,0,0,1,189.77,181.45Z"/><path class="cls-52" d="M197.15,181.45a1.63,1.63,0,0,1-1.63-1.62v-10a1.63,1.63,0,0,1,3.26,0v10A1.63,1.63,0,0,1,197.15,181.45Z"/><path class="cls-52" d="M204.53,181.45a1.63,1.63,0,0,1-1.63-1.62V167.91a1.63,1.63,0,1,1,3.25,0v11.92A1.63,1.63,0,0,1,204.53,181.45Z"/><path class="cls-52" d="M211.9,181.45a1.63,1.63,0,0,1-1.63-1.62V166a1.63,1.63,0,0,1,3.26,0v13.87A1.63,1.63,0,0,1,211.9,181.45Z"/><path class="cls-52" d="M219.28,181.45a1.63,1.63,0,0,1-1.63-1.62V164a1.63,1.63,0,1,1,3.25,0v15.82A1.62,1.62,0,0,1,219.28,181.45Z"/><path class="cls-52" d="M269.85,188H233.37a1.62,1.62,0,0,1-1.62-1.63v-52a1.62,1.62,0,0,1,1.62-1.63h36.48a1.63,1.63,0,0,1,1.63,1.63v52A1.63,1.63,0,0,1,269.85,188ZM235,184.71h33.23V135.93H235Z"/><path class="cls-52" d="M261.18,145.35H242.05a1.63,1.63,0,0,1,0-3.26h19.13a1.63,1.63,0,0,1,0,3.26Z"/><path class="cls-52" d="M257.93,153.64H242.05a1.63,1.63,0,1,1,0-3.25h15.88a1.63,1.63,0,0,1,0,3.25Z"/><path class="cls-52" d="M261.18,161.94H242.05a1.63,1.63,0,1,1,0-3.25h19.13a1.63,1.63,0,1,1,0,3.25Z"/><path class="cls-52" d="M257.93,170.24H242.05a1.63,1.63,0,1,1,0-3.25h15.88a1.63,1.63,0,0,1,0,3.25Z"/><path class="cls-52" d="M261.18,178.54H242.05a1.63,1.63,0,0,1,0-3.26h19.13a1.63,1.63,0,0,1,0,3.26Z"/></g></svg> 