<svg xmlns="http://www.w3.org/2000/svg" viewBox="0 0 440 252"><defs><style>.cls-1{fill:#ebf4ff;}.cls-2{fill:#abc5e5;}.cls-3{fill:#70b0ff;}.cls-4{fill:#333;}</style></defs><g id="Bkg_colour" data-name="Bkg colour"><rect class="cls-1" width="440" height="252"/></g><g id="Bkg_lines" data-name="Bkg lines"><path class="cls-2" d="M432.92,86.74H339.68a1.14,1.14,0,1,1,0-2.27h91.39l-5.6-11H339.68a1.14,1.14,0,1,1,0-2.27h86.49a1.15,1.15,0,0,1,1,.62l6.75,13.3a1.13,1.13,0,0,1,0,1.11A1.15,1.15,0,0,1,432.92,86.74Z"/><path class="cls-2" d="M264.34,137.74a1.13,1.13,0,0,1-1.13-1.14v-9.9a1.14,1.14,0,0,1,2.27,0v9.9A1.14,1.14,0,0,1,264.34,137.74Z"/><path class="cls-2" d="M264.34,202.5a1.13,1.13,0,0,1-1.13-1.14V183.2a1.14,1.14,0,0,1,2.27,0v18.16A1.14,1.14,0,0,1,264.34,202.5Z"/><path class="cls-2" d="M331.09,202.5a1.14,1.14,0,0,1-1.14-1.14V55L296.9,20.88a1.14,1.14,0,1,1,1.63-1.58l33.38,34.43a1.15,1.15,0,0,1,.32.79V201.36A1.14,1.14,0,0,1,331.09,202.5Z"/><path class="cls-2" d="M322.87,65H272.26a1.14,1.14,0,1,1,0-2.28h50.61a1.14,1.14,0,0,1,0,2.28Z"/><path class="cls-2" d="M322.87,78.32H272.26a1.14,1.14,0,1,1,0-2.27h50.61a1.14,1.14,0,1,1,0,2.27Z"/><path class="cls-2" d="M322.87,91.62h-17a1.14,1.14,0,1,1,0-2.28h17a1.14,1.14,0,0,1,0,2.28Z"/><path class="cls-2" d="M322.87,104.91H296.09a1.14,1.14,0,0,1,0-2.27h26.78a1.14,1.14,0,1,1,0,2.27Z"/><path class="cls-2" d="M322.44,118.2H305.87a1.14,1.14,0,1,1,0-2.27h16.57a1.14,1.14,0,1,1,0,2.27Z"/><path class="cls-2" d="M322.44,144.67H293.1a1.14,1.14,0,1,1,0-2.27h29.34a1.14,1.14,0,1,1,0,2.27Z"/><path class="cls-2" d="M322.44,158H302.87a1.14,1.14,0,1,1,0-2.27h19.57a1.14,1.14,0,1,1,0,2.27Z"/><path class="cls-2" d="M322.44,171.28H297.87a1.14,1.14,0,1,1,0-2.27h24.57a1.14,1.14,0,1,1,0,2.27Z"/><path class="cls-2" d="M322.44,184.56H272.26a1.14,1.14,0,1,1,0-2.27h50.18a1.14,1.14,0,1,1,0,2.27Z"/><path class="cls-2" d="M322.44,197.85H272.26a1.14,1.14,0,1,1,0-2.27h50.18a1.14,1.14,0,1,1,0,2.27Z"/><path class="cls-2" d="M426.17,202.5a1.14,1.14,0,0,1-1.14-1.14V85.6a1.14,1.14,0,0,1,2.27,0V201.36A1.14,1.14,0,0,1,426.17,202.5Z"/><path class="cls-2" d="M356.16,117.22H339.4a1.13,1.13,0,0,1-1.14-1.13v-14a9.52,9.52,0,1,1,19,0v14A1.13,1.13,0,0,1,356.16,117.22ZM340.53,115H355V102.09a7.25,7.25,0,1,0-14.49,0Z"/><path class="cls-2" d="M386.59,117.22H369.83a1.12,1.12,0,0,1-1.13-1.13v-14a9.52,9.52,0,1,1,19,0v14A1.13,1.13,0,0,1,386.59,117.22ZM371,115h14.48V102.09a7.24,7.24,0,1,0-14.48,0Z"/><path class="cls-2" d="M417,117.22H400.26a1.13,1.13,0,0,1-1.13-1.13v-14a9.52,9.52,0,1,1,19,0v14A1.13,1.13,0,0,1,417,117.22ZM401.4,115h14.49V102.09a7.25,7.25,0,1,0-14.49,0Z"/><path class="cls-2" d="M356.16,151.79H339.4a1.13,1.13,0,0,1-1.14-1.13v-14a9.52,9.52,0,1,1,19,0v14A1.13,1.13,0,0,1,356.16,151.79Zm-15.63-2.27H355V136.66a7.25,7.25,0,1,0-14.49,0Z"/><path class="cls-2" d="M386.59,151.79H369.83a1.12,1.12,0,0,1-1.13-1.13v-14a9.52,9.52,0,1,1,19,0v14A1.13,1.13,0,0,1,386.59,151.79ZM371,149.52h14.48V136.66a7.24,7.24,0,1,0-14.48,0Z"/><path class="cls-2" d="M417,151.79H400.26a1.13,1.13,0,0,1-1.13-1.13v-14a9.52,9.52,0,1,1,19,0v14A1.13,1.13,0,0,1,417,151.79Zm-15.62-2.27h14.49V136.66a7.25,7.25,0,1,0-14.49,0Z"/><path class="cls-2" d="M371.72,202.5a1.14,1.14,0,0,1-1.14-1.14V177.43a13.45,13.45,0,1,0-26.89,0v23.93a1.14,1.14,0,1,1-2.27,0V177.43a15.72,15.72,0,1,1,31.44,0v23.93A1.14,1.14,0,0,1,371.72,202.5Z"/><path class="cls-2" d="M414.7,202.5a1.14,1.14,0,0,1-1.13-1.14V177.43a13.45,13.45,0,0,0-26.9,0v23.93a1.14,1.14,0,1,1-2.27,0V177.43a15.72,15.72,0,1,1,31.44,0v23.93A1.14,1.14,0,0,1,414.7,202.5Z"/><path class="cls-2" d="M206.71,242H15.09a1.14,1.14,0,1,1,0-2.27H206.71a1.14,1.14,0,0,1,0,2.27Z"/><path class="cls-2" d="M206.71,215H15.09a1.14,1.14,0,1,1,0-2.27H206.71a1.14,1.14,0,0,1,0,2.27Z"/><path class="cls-2" d="M426.17,215h-188a1.14,1.14,0,1,1,0-2.27h188a1.14,1.14,0,0,1,0,2.27Z"/><path class="cls-2" d="M426.17,242h-188a1.14,1.14,0,1,1,0-2.27h188a1.14,1.14,0,0,1,0,2.27Z"/><path class="cls-2" d="M40.89,75.93H14.27a1.14,1.14,0,1,1,0-2.27H39.46l-2.34-9.94H14.27a1.14,1.14,0,1,1,0-2.27H38a1.14,1.14,0,0,1,1.11.87L42,74.53a1.14,1.14,0,0,1-1.11,1.4Z"/><path class="cls-2" d="M38,201.31a1.14,1.14,0,0,1-1.13-1.13V74.79a1.14,1.14,0,0,1,2.27,0V200.18A1.14,1.14,0,0,1,38,201.31Z"/><path class="cls-2" d="M117.15,202.5a1.14,1.14,0,0,1-1.14-1.14V92.28H47.43a1.14,1.14,0,1,1,0-2.27h69.72a1.14,1.14,0,0,1,1.14,1.14V201.36A1.14,1.14,0,0,1,117.15,202.5Z"/><path class="cls-2" d="M117.15,92.28A1.13,1.13,0,0,1,116,91.15V73.06H47.43a1.14,1.14,0,1,1,0-2.27h69.72a1.14,1.14,0,0,1,1.14,1.13V91.15A1.13,1.13,0,0,1,117.15,92.28Z"/><path class="cls-2" d="M107.25,65.12A1.13,1.13,0,0,1,106.12,64V46.48a1.13,1.13,0,0,1,1.13-1.13h95.68a1.14,1.14,0,0,1,0,2.27H108.39V64A1.14,1.14,0,0,1,107.25,65.12Z"/><path class="cls-2" d="M117.15,65.12A1.14,1.14,0,0,1,116,64V54.52a1.14,1.14,0,0,1,2.28,0V64A1.14,1.14,0,0,1,117.15,65.12Z"/><path class="cls-2" d="M128.77,202.5a1.14,1.14,0,0,1-1.14-1.14V54.52a1.14,1.14,0,1,1,2.27,0V201.36A1.13,1.13,0,0,1,128.77,202.5Z"/><path class="cls-2" d="M140.39,202.5a1.14,1.14,0,0,1-1.14-1.14V54.52a1.14,1.14,0,1,1,2.27,0V201.36A1.14,1.14,0,0,1,140.39,202.5Z"/><path class="cls-2" d="M152,81.65a1.14,1.14,0,0,1-1.13-1.14v-26a1.14,1.14,0,1,1,2.27,0v26A1.14,1.14,0,0,1,152,81.65Z"/><path class="cls-2" d="M186.86,80.57a1.13,1.13,0,0,1-1.14-1.13V54.52a1.14,1.14,0,1,1,2.28,0V79.44A1.13,1.13,0,0,1,186.86,80.57Z"/><path class="cls-2" d="M198.48,80.57a1.13,1.13,0,0,1-1.14-1.13V54.52a1.14,1.14,0,0,1,2.28,0V79.44A1.13,1.13,0,0,1,198.48,80.57Z"/><path class="cls-2" d="M175.24,80.57a1.12,1.12,0,0,1-1.13-1.13V54.52a1.14,1.14,0,1,1,2.27,0V79.44A1.13,1.13,0,0,1,175.24,80.57Z"/><path class="cls-2" d="M105.8,104.91H47.43a1.14,1.14,0,1,1,0-2.27H105.8a1.14,1.14,0,1,1,0,2.27Z"/><path class="cls-2" d="M105.8,129H47.43a1.14,1.14,0,1,1,0-2.27H105.8a1.14,1.14,0,1,1,0,2.27Z"/><path class="cls-2" d="M105.8,153H47.43a1.14,1.14,0,0,1,0-2.28H105.8a1.14,1.14,0,0,1,0,2.28Z"/><path class="cls-2" d="M105.8,177H47.43a1.14,1.14,0,1,1,0-2.27H105.8a1.14,1.14,0,1,1,0,2.27Z"/><path class="cls-2" d="M105.8,201.08H47.43a1.14,1.14,0,1,1,0-2.27H105.8a1.14,1.14,0,1,1,0,2.27Z"/><path class="cls-2" d="M24.76,117.47a1.14,1.14,0,0,1-1.13-1.13V91a1.14,1.14,0,1,1,2.27,0v25.33A1.14,1.14,0,0,1,24.76,117.47Z"/><path class="cls-2" d="M14.27,117.47a1.14,1.14,0,0,1-1.14-1.13V91a1.14,1.14,0,1,1,2.27,0v25.33A1.13,1.13,0,0,1,14.27,117.47Z"/><path class="cls-2" d="M24.76,159.39a1.14,1.14,0,0,1-1.13-1.13V132.93a1.14,1.14,0,1,1,2.27,0v25.33A1.14,1.14,0,0,1,24.76,159.39Z"/><path class="cls-2" d="M14.27,159.39a1.14,1.14,0,0,1-1.14-1.13V132.93a1.14,1.14,0,1,1,2.27,0v25.33A1.13,1.13,0,0,1,14.27,159.39Z"/><path class="cls-2" d="M24.76,201.31a1.14,1.14,0,0,1-1.13-1.13V174.85a1.14,1.14,0,1,1,2.27,0v25.33A1.14,1.14,0,0,1,24.76,201.31Z"/><path class="cls-2" d="M14.27,201.31a1.14,1.14,0,0,1-1.14-1.13V174.85a1.14,1.14,0,1,1,2.27,0v25.33A1.13,1.13,0,0,1,14.27,201.31Z"/><path class="cls-2" d="M77.84,66.63A1.13,1.13,0,0,1,76.7,65.5V13.2L16.45,38.78a1.14,1.14,0,0,1-.89-2.09L77.4,10.43a1.16,1.16,0,0,1,1.07.1,1.14,1.14,0,0,1,.51,1v54A1.13,1.13,0,0,1,77.84,66.63Z"/><path class="cls-2" d="M16,57.09A1.14,1.14,0,0,1,14.87,56V37.73a1.14,1.14,0,0,1,2.28,0V56A1.14,1.14,0,0,1,16,57.09Z"/><path class="cls-2" d="M265.18,80.57a1.12,1.12,0,0,1-1.13-1.13V54.52a1.17,1.17,0,0,1,.31-.79L297.21,19.3a1.14,1.14,0,0,1,1.64,1.57L266.32,55V79.44A1.13,1.13,0,0,1,265.18,80.57Z"/><path class="cls-2" d="M150.72,202.5a1.14,1.14,0,0,1-1.14-1.14V183.7a1.14,1.14,0,0,1,2.28,0v17.66A1.14,1.14,0,0,1,150.72,202.5Z"/><path class="cls-2" d="M162.66,202.5a1.14,1.14,0,0,1-1.14-1.14V183.7a1.14,1.14,0,0,1,2.28,0v17.66A1.14,1.14,0,0,1,162.66,202.5Z"/><path class="cls-2" d="M174.6,202.5a1.14,1.14,0,0,1-1.14-1.14V183.7a1.14,1.14,0,0,1,2.28,0v17.66A1.14,1.14,0,0,1,174.6,202.5Z"/><path class="cls-2" d="M186.54,202.5a1.14,1.14,0,0,1-1.14-1.14V183.7a1.14,1.14,0,0,1,2.28,0v17.66A1.14,1.14,0,0,1,186.54,202.5Z"/><path class="cls-2" d="M198.48,202.5a1.14,1.14,0,0,1-1.14-1.14V183.7a1.14,1.14,0,0,1,2.28,0v17.66A1.14,1.14,0,0,1,198.48,202.5Z"/><path class="cls-2" d="M163.62,80.57a1.13,1.13,0,0,1-1.13-1.13V61.12a1.14,1.14,0,1,1,2.27,0V79.44A1.13,1.13,0,0,1,163.62,80.57Z"/><path class="cls-2" d="M163.62,136.63a1.14,1.14,0,0,1-1.13-1.14V126.7a1.14,1.14,0,0,1,2.27,0v8.79A1.14,1.14,0,0,1,163.62,136.63Z"/><path class="cls-2" d="M175.24,136.63a1.13,1.13,0,0,1-1.13-1.14V126.7a1.14,1.14,0,0,1,2.27,0v8.79A1.14,1.14,0,0,1,175.24,136.63Z"/><path class="cls-2" d="M186.86,136.63a1.14,1.14,0,0,1-1.14-1.14V126.7a1.14,1.14,0,0,1,2.28,0v8.79A1.14,1.14,0,0,1,186.86,136.63Z"/><path class="cls-2" d="M198.48,136.63a1.14,1.14,0,0,1-1.14-1.14V126.7a1.14,1.14,0,0,1,2.28,0v8.79A1.14,1.14,0,0,1,198.48,136.63Z"/><path class="cls-2" d="M322.44,131.39H272.26a1.14,1.14,0,1,1,0-2.27h50.18a1.14,1.14,0,1,1,0,2.27Z"/></g><g id="Fill"><path class="cls-3" d="M228.37,180.61a2.1,2.1,0,0,0-2.08,2.11v57.87a2.09,2.09,0,1,0,4.17,0V182.72A2.1,2.1,0,0,0,228.37,180.61Z"/><rect class="cls-3" x="226.29" y="125.96" width="4.16" height="10.97" rx="2.08"/><rect class="cls-3" x="226.29" y="59.72" width="4.16" height="20.91" rx="2.08"/><path class="cls-3" d="M237,49.72V45.58h-3.86v4.89a1.82,1.82,0,0,1-1.82,1.83H211a1.82,1.82,0,0,0-1.82,1.82v.27a1.8,1.8,0,0,0,.78,1.49l.07,0a1.83,1.83,0,0,0,1,.33h24.09a2.24,2.24,0,0,0,.51-.07h0A1.81,1.81,0,0,0,237,54.43V52.3h-.21V49.72Z"/><polygon class="cls-3" points="150.16 140.37 161.64 157.69 150.26 176.27 273.45 176.27 285.9 176.27 285.9 174.64 150.16 140.37"/><polygon class="cls-3" points="150.16 85.5 161.64 102.98 150.26 121.75 273.45 121.75 285.9 121.75 285.9 120.1 150.16 85.5"/></g><g id="Outlines"><path class="cls-4" d="M259.62,90.16a13.31,13.31,0,1,0,13.32,13.3A13.32,13.32,0,0,0,259.62,90.16Zm3.71,2.53a11.47,11.47,0,0,1,6.17,5.07l.37.63h-5.11l-.08-.31a21.38,21.38,0,0,0-1.86-4.79l-.51-1Zm.16,10.77a20.73,20.73,0,0,1-.23,2.81l-.05.36h-7.16l-.05-.36a18,18,0,0,1,0-5.61l.05-.36h7.16l.05.36A19.39,19.39,0,0,1,263.49,103.46ZM259.63,91.8l.35.5a19.77,19.77,0,0,1,2.68,5.55l.16.54h-6.37l.16-.54a19.5,19.5,0,0,1,2.68-5.55Zm-9.86,6a11.4,11.4,0,0,1,6.17-5.07l1-.35-.51,1a20.73,20.73,0,0,0-1.86,4.79l-.08.31H249.4Zm-1.17,8.55a11.12,11.12,0,0,1,0-5.69l.08-.32h5.44l-.05.47a19.21,19.21,0,0,0,0,5.39l.05.47h-5.44Zm7.34,7.93a11.4,11.4,0,0,1-6.17-5.07l-.37-.63h5.11l.08.31a20.73,20.73,0,0,0,1.86,4.79l.51,1Zm3.69.89-.34-.5a19.5,19.5,0,0,1-2.68-5.55l-.16-.54h6.37l-.16.54a19.77,19.77,0,0,1-2.68,5.55Zm9.87-6a11.47,11.47,0,0,1-6.17,5.07l-1,.35.51-1a21.38,21.38,0,0,0,1.86-4.79l.08-.31h5.11Zm1.09-2.54h-5.45l.06-.47a19.21,19.21,0,0,0,0-5.39l-.06-.47h5.45l.08.32a11.12,11.12,0,0,1,0,5.69Z"/><path class="cls-4" d="M259.62,117.15a13.69,13.69,0,1,1,13.7-13.69A13.69,13.69,0,0,1,259.62,117.15Zm0-26.62a12.94,12.94,0,1,0,12.95,12.93A12.94,12.94,0,0,0,259.62,90.53Zm0,25.26-.65-1a19.81,19.81,0,0,1-2.73-5.65l-.31-1h7.39l-.31,1a20.08,20.08,0,0,1-2.73,5.65ZM257,108.91l0,.06a19.06,19.06,0,0,0,2.63,5.45l0,0,0,0A19.46,19.46,0,0,0,262.3,109l0-.06Zm4.57,6.35,1-1.79a20.83,20.83,0,0,0,1.82-4.71l.16-.6h6l-.7,1.2a11.84,11.84,0,0,1-6.37,5.24Zm3.53-6.35v0a21.32,21.32,0,0,1-1.89,4.87l-.06.1.11,0a11,11,0,0,0,6-4.91l0-.07Zm-7.3,6.35-1.93-.66a11.81,11.81,0,0,1-6.38-5.25l-.69-1.19h6.05l.15.6a20.59,20.59,0,0,0,1.83,4.7Zm-7.7-6.35,0,.07a11,11,0,0,0,6,4.91l.11,0-.05-.1a21,21,0,0,1-1.89-4.88v0Zm20.83-1.9h-6.16l.11-.9a22.4,22.4,0,0,0,.19-2.65,21.93,21.93,0,0,0-.19-2.65l-.11-.89h6.16l.15.61a11.52,11.52,0,0,1,0,5.87Zm-5.31-.75,4.73,0a10.72,10.72,0,0,0,0-5.51v0h-4.73v0a23.06,23.06,0,0,1,.2,2.74,21.85,21.85,0,0,1-.2,2.75Zm-2,.75h-7.81l-.1-.69a18.64,18.64,0,0,1,0-5.71l.1-.69h7.81l.09.69a17.83,17.83,0,0,1,0,5.71Zm-7.16-.75,6.51,0a20.32,20.32,0,0,0,.22-2.76,20.08,20.08,0,0,0-.22-2.75v0l-6.51,0a18.61,18.61,0,0,0-.22,2.75,20.19,20.19,0,0,0,.22,2.76Zm-1.84.75h-6.15l-.15-.61a11.24,11.24,0,0,1,0-5.87l.15-.61h6.15l-.1.89a18.65,18.65,0,0,0,0,5.31Zm-5.57-.75h4.73v-.05a19.92,19.92,0,0,1,0-5.49v0l-4.74,0a10.72,10.72,0,0,0,0,5.51Zm21.55-7.49h-6l-.16-.6a20.83,20.83,0,0,0-1.82-4.71l-1-1.79,1.93.66a11.84,11.84,0,0,1,6.37,5.24ZM265.05,98h4.16l0-.07a11,11,0,0,0-6-4.91l-.11,0,.06.11A21.22,21.22,0,0,1,265,98Zm-1.72.75h-7.39l.31-1A20,20,0,0,1,259,92.08l.65-.94.66.94A20.19,20.19,0,0,1,263,97.75ZM257,98h5.37l0-.06a19.33,19.33,0,0,0-2.63-5.45l0-.05,0,.05A19.06,19.06,0,0,0,257,98Zm-2.15.75h-6.05l.69-1.19a11.81,11.81,0,0,1,6.38-5.25l1.93-.66-1,1.79A20.86,20.86,0,0,0,255,98.17ZM250.05,98l4.18,0a21.22,21.22,0,0,1,1.89-4.88l.05-.11-.11,0a11,11,0,0,0-6,4.91Z"/><path class="cls-4" d="M230.73,136.66a1.5,1.5,0,0,1-1.5-1.5v-7.59a1.5,1.5,0,1,1,3,0v7.59A1.5,1.5,0,0,1,230.73,136.66Z"/><path class="cls-4" d="M215.57,136.66a1.5,1.5,0,0,1-1.5-1.5v-7.59a1.5,1.5,0,0,1,3,0v7.59A1.5,1.5,0,0,1,215.57,136.66Z"/><path class="cls-4" d="M215.57,80.82a1.5,1.5,0,0,1-1.5-1.5V61.55a1.5,1.5,0,0,1,3,0V79.32A1.5,1.5,0,0,1,215.57,80.82Z"/><path class="cls-4" d="M230.73,80.82a1.5,1.5,0,0,1-1.5-1.5V61.46a1.5,1.5,0,0,1,3,0V79.32A1.5,1.5,0,0,1,230.73,80.82Z"/><path class="cls-4" d="M235.44,57.93H210.86a3.17,3.17,0,0,1-3.16-3.16V47.42a3.17,3.17,0,0,1,3.16-3.17h24.58a3.17,3.17,0,0,1,3.16,3.17v7.35A3.17,3.17,0,0,1,235.44,57.93ZM210.86,47.25a.17.17,0,0,0-.16.17v7.35a.16.16,0,0,0,.16.16h24.58a.16.16,0,0,0,.16-.16V47.42a.17.17,0,0,0-.16-.17Z"/><path class="cls-4" d="M230.73,243a1.5,1.5,0,0,1-1.5-1.5V182.27a1.5,1.5,0,0,1,3,0v59.19A1.5,1.5,0,0,1,230.73,243Z"/><path class="cls-4" d="M215.57,243a1.5,1.5,0,0,1-1.5-1.5V182.27a1.5,1.5,0,0,1,3,0v59.19A1.5,1.5,0,0,1,215.57,243Z"/><path class="cls-4" d="M284.33,178.67H153.42a4.2,4.2,0,0,1-3.75-2.36,4.51,4.51,0,0,1,.41-4.74l9.13-12.28a1.55,1.55,0,0,0,0-1.81l-9.13-12.28a4.51,4.51,0,0,1-.41-4.74,4.2,4.2,0,0,1,3.75-2.36H284.33a4.23,4.23,0,0,1,3.37,1.73l11.62,15.89a4.55,4.55,0,0,1,0,5.33L287.7,176.94A4.23,4.23,0,0,1,284.33,178.67ZM153.42,141.1a1.19,1.19,0,0,0-1.06.7,1.53,1.53,0,0,0,.12,1.61l9.14,12.28a4.55,4.55,0,0,1,0,5.39l-9.14,12.28a1.52,1.52,0,0,0-.12,1.6,1.18,1.18,0,0,0,1.06.71H284.33a1.17,1.17,0,0,0,.95-.51l11.62-15.88a1.55,1.55,0,0,0,0-1.79l-11.62-15.88a1.17,1.17,0,0,0-.95-.51Z"/><path class="cls-4" d="M230.36,153.62H172.23a1.5,1.5,0,0,1,0-3h58.13a1.5,1.5,0,0,1,0,3Z"/><path class="cls-4" d="M230.36,166.15H172.23a1.5,1.5,0,0,1,0-3h58.13a1.5,1.5,0,0,1,0,3Z"/><path class="cls-4" d="M284.33,123.92H153.42a4.22,4.22,0,0,1-3.74-2.36,4.58,4.58,0,0,1,.39-4.78l9.14-12.39a1.61,1.61,0,0,0,0-1.85l-9.14-12.39a4.58,4.58,0,0,1-.39-4.78A4.22,4.22,0,0,1,153.42,83H284.33a4.19,4.19,0,0,1,3.37,1.75l11.63,16a4.61,4.61,0,0,1,0,5.35l-11.63,16A4.19,4.19,0,0,1,284.33,123.92ZM153.42,86a1.22,1.22,0,0,0-1.06.71,1.59,1.59,0,0,0,.13,1.65l9.13,12.39a4.61,4.61,0,0,1,0,5.41l-9.13,12.39a1.59,1.59,0,0,0-.13,1.65,1.22,1.22,0,0,0,1.06.71H284.33a1.18,1.18,0,0,0,.95-.52l11.62-16a1.61,1.61,0,0,0,0-1.83l-11.62-16a1.19,1.19,0,0,0-.95-.51Z"/><path class="cls-4" d="M230.36,99.2H172.23a1.5,1.5,0,0,1,0-3h58.13a1.5,1.5,0,0,1,0,3Z"/><path class="cls-4" d="M230.36,110.72H172.23a1.5,1.5,0,0,1,0-3h58.13a1.5,1.5,0,0,1,0,3Z"/><path class="cls-4" d="M266.6,161.39h0a3.93,3.93,0,0,0-2.57,1l-7.33-3.7v0l7.11-4.4a4,4,0,0,0,6.83-2.87h0a4,4,0,0,0-4-4h0a4,4,0,0,0-4,4,.49.49,0,0,0,0,.12l-6.89,4.27a4,4,0,0,0-3-1.38,4,4,0,1,0,0,8.08h0a4,4,0,0,0,2.7-1.07l7.21,3.63a3.57,3.57,0,0,0,0,.46,4,4,0,0,0,8.08,0h0A4,4,0,0,0,266.6,161.39Z"/></g></svg> 