<svg xmlns="http://www.w3.org/2000/svg" xmlns:xlink="http://www.w3.org/1999/xlink" viewBox="0 0 440 252"><defs><style>.cls-1{fill:#aab2c4;}.cls-2{fill:#e5e8f1;}.cls-3{clip-path:url(#clip-path);}.cls-4{clip-path:url(#clip-path-2);}.cls-5{clip-path:url(#clip-path-3);}.cls-6{clip-path:url(#clip-path-4);}.cls-7{clip-path:url(#clip-path-5);}.cls-8{clip-path:url(#clip-path-6);}.cls-9{clip-path:url(#clip-path-7);}.cls-10{clip-path:url(#clip-path-8);}.cls-11{clip-path:url(#clip-path-9);}.cls-12{clip-path:url(#clip-path-10);}.cls-13{clip-path:url(#clip-path-11);}.cls-14{clip-path:url(#clip-path-12);}.cls-15{clip-path:url(#clip-path-13);}.cls-16{clip-path:url(#clip-path-14);}.cls-17{clip-path:url(#clip-path-15);}.cls-18{fill:none;}.cls-19{fill:#526680;}.cls-20,.cls-21{fill:#333;}.cls-21{fill-rule:evenodd;}</style><clipPath id="clip-path"><path class="cls-1" d="M357.68,184a24.62,24.62,0,1,1,16.22,30.81A24.63,24.63,0,0,1,357.68,184Zm2.53.79a22,22,0,1,0,27.49-14.47A22,22,0,0,0,360.21,184.82Z"/></clipPath><clipPath id="clip-path-2"><path class="cls-1" d="M358,186a1.33,1.33,0,0,1-.79,2.53l-14.9-4.62a5,5,0,0,1,3-9.57L360.13,179a1.32,1.32,0,1,1-.78,2.53l-14.91-4.62a2.36,2.36,0,0,0-1.4,4.5Z"/></clipPath><clipPath id="clip-path-3"><path class="cls-1" d="M355.05,171.46a1.32,1.32,0,1,1-2.53-.78L356,159.56a10.83,10.83,0,0,1,13.56-7.14l43.1,13.37a10.84,10.84,0,0,1,7.15,13.56l-13.37,43.11a10.85,10.85,0,0,1-13.57,7.14l-43.1-13.37a10.84,10.84,0,0,1-7.14-13.57l3.69-11.88a1.32,1.32,0,1,1,2.53.78l-3.69,11.89a8.19,8.19,0,0,0,5.4,10.25l43.1,13.37a8.2,8.2,0,0,0,10.25-5.4l13.36-43.1a8.19,8.19,0,0,0-5.39-10.25L368.75,155a8.19,8.19,0,0,0-10.25,5.4Z"/></clipPath><clipPath id="clip-path-4"><path class="cls-1" d="M87.89,210.53a10.74,10.74,0,0,1-10.74,10.74,10.35,10.35,0,0,1-2.16-.22,10.74,10.74,0,1,1,12.79-12A11,11,0,0,1,87.89,210.53Zm-2.4,0a9.23,9.23,0,0,0-.08-1.18,8.34,8.34,0,1,0-9.94,9.35,7.85,7.85,0,0,0,1.68.17A8.33,8.33,0,0,0,85.49,210.53Z"/></clipPath><clipPath id="clip-path-5"><path class="cls-1" d="M91.36,213.44A1.2,1.2,0,1,1,93.25,212a10.74,10.74,0,0,1-16.06,14.19,1.19,1.19,0,0,1,0-1.69,1.2,1.2,0,0,1,1.7,0,8.34,8.34,0,0,0,12.48-11Z"/></clipPath><clipPath id="clip-path-6"><path class="cls-1" d="M104.4,191.11a10.75,10.75,0,1,1-10.75-10.74A10.74,10.74,0,0,1,104.4,191.11Zm-2.4,0a8.35,8.35,0,1,0-8.35,8.34A8.34,8.34,0,0,0,102,191.11Z"/></clipPath><clipPath id="clip-path-7"><path class="cls-1" d="M4.92,228.56a1.2,1.2,0,1,0-.47,2.36l29.2,5.8a11.38,11.38,0,0,0,12.57-6.46,11.64,11.64,0,0,0,.78-2.47l5.91-29.74,6-30,.15-.77A11.36,11.36,0,0,0,50.08,154l-40.9-8.12a11.23,11.23,0,0,0-4.51,0,1.21,1.21,0,0,0-.94,1.42,1.22,1.22,0,0,0,1.43.94,8.84,8.84,0,0,1,3.55,0l40.9,8.12a8.94,8.94,0,0,1,7,10.51l-.16.77-6,30-5.9,29.74a8.45,8.45,0,0,1-.62,1.94,8.94,8.94,0,0,1-9.9,5.09Z"/></clipPath><clipPath id="clip-path-8"><path class="cls-1" d="M59.34,175.24a1.21,1.21,0,1,0,.47-2.37l-6-1.19a1.2,1.2,0,1,0-.47,2.36Z"/></clipPath><clipPath id="clip-path-9"><path class="cls-1" d="M57.29,185.56a1.21,1.21,0,0,0,.47-2.37l-6-1.19a1.2,1.2,0,1,0-.47,2.36Z"/></clipPath><clipPath id="clip-path-10"><path class="cls-1" d="M55.25,195.88a1.21,1.21,0,0,0,.47-2.37l-6-1.19a1.2,1.2,0,0,0-.47,2.36Z"/></clipPath><clipPath id="clip-path-11"><path class="cls-1" d="M53.2,206.2a1.21,1.21,0,0,0,.47-2.37l-6-1.2a1.21,1.21,0,0,0-.47,2.37Z"/></clipPath><clipPath id="clip-path-12"><path class="cls-1" d="M51.15,216.51a1.2,1.2,0,1,0,.47-2.36l-6-1.2a1.21,1.21,0,0,0-.46,2.37Z"/></clipPath><clipPath id="clip-path-13"><path class="cls-1" d="M49.1,226.83a1.2,1.2,0,1,0,.47-2.36l-6-1.2a1.21,1.21,0,0,0-.47,2.37Z"/></clipPath><clipPath id="clip-path-14"><path class="cls-1" d="M31.07,190.85a1.21,1.21,0,0,0,1.42-.95,1.2,1.2,0,0,0-1-1.41l-15.4-3.06a1.2,1.2,0,0,0-.47,2.36Z"/></clipPath><clipPath id="clip-path-15"><path class="cls-1" d="M34.47,198.68a1.21,1.21,0,1,0,.47-2.37L10,191.37a1.2,1.2,0,0,0-.47,2.36Z"/></clipPath></defs><g id="Bkg_colour" data-name="Bkg colour"><rect class="cls-2" width="440" height="252"/></g><g id="Bkg_lines" data-name="Bkg lines"><path class="cls-1" d="M357.68,184a24.62,24.62,0,1,1,16.22,30.81A24.63,24.63,0,0,1,357.68,184Zm2.53.79a22,22,0,1,0,27.49-14.47A22,22,0,0,0,360.21,184.82Z"/><g class="cls-3"><rect class="cls-1" x="351.22" y="161.36" width="59.93" height="59.93" transform="translate(43.08 451.31) rotate(-64.21)"/></g><path class="cls-1" d="M358,186a1.33,1.33,0,0,1-.79,2.53l-14.9-4.62a5,5,0,0,1,3-9.57L360.13,179a1.32,1.32,0,1,1-.78,2.53l-14.91-4.62a2.36,2.36,0,0,0-1.4,4.5Z"/><g class="cls-4"><rect class="cls-1" x="338.28" y="164.28" width="22.99" height="33.01" transform="translate(34.82 417.07) rotate(-64.21)"/></g><path class="cls-1" d="M355.05,171.46a1.32,1.32,0,1,1-2.53-.78L356,159.56a10.83,10.83,0,0,1,13.56-7.14l43.1,13.37a10.84,10.84,0,0,1,7.15,13.56l-13.37,43.11a10.85,10.85,0,0,1-13.57,7.14l-43.1-13.37a10.84,10.84,0,0,1-7.14-13.57l3.69-11.88a1.32,1.32,0,1,1,2.53.78l-3.69,11.89a8.19,8.19,0,0,0,5.4,10.25l43.1,13.37a8.2,8.2,0,0,0,10.25-5.4l13.36-43.1a8.19,8.19,0,0,0-5.39-10.25L368.75,155a8.19,8.19,0,0,0-10.25,5.4Z"/><g class="cls-5"><rect class="cls-1" x="339.33" y="149.15" width="83.72" height="83.72" transform="translate(43.37 451.14) rotate(-64.21)"/></g><path class="cls-1" d="M87.89,210.53a10.74,10.74,0,0,1-10.74,10.74,10.35,10.35,0,0,1-2.16-.22,10.74,10.74,0,1,1,12.79-12A11,11,0,0,1,87.89,210.53Zm-2.4,0a9.23,9.23,0,0,0-.08-1.18,8.34,8.34,0,1,0-9.94,9.35,7.85,7.85,0,0,0,1.68.17A8.33,8.33,0,0,0,85.49,210.53Z"/><g class="cls-6"><rect class="cls-1" x="61.57" y="194.96" width="31.15" height="31.15"/></g><path class="cls-1" d="M91.36,213.44A1.2,1.2,0,1,1,93.25,212a10.74,10.74,0,0,1-16.06,14.19,1.19,1.19,0,0,1,0-1.69,1.2,1.2,0,0,1,1.7,0,8.34,8.34,0,0,0,12.48-11Z"/><g class="cls-7"><rect class="cls-1" x="72" y="206.67" width="28.33" height="27.44"/></g><path class="cls-1" d="M104.4,191.11a10.75,10.75,0,1,1-10.75-10.74A10.74,10.74,0,0,1,104.4,191.11Zm-2.4,0a8.35,8.35,0,1,0-8.35,8.34A8.34,8.34,0,0,0,102,191.11Z"/><g class="cls-8"><rect class="cls-1" x="78.08" y="175.53" width="31.15" height="31.15"/></g><path class="cls-1" d="M4.92,228.56a1.2,1.2,0,1,0-.47,2.36l29.2,5.8a11.38,11.38,0,0,0,12.57-6.46,11.64,11.64,0,0,0,.78-2.47l5.91-29.74,6-30,.15-.77A11.36,11.36,0,0,0,50.08,154l-40.9-8.12a11.23,11.23,0,0,0-4.51,0,1.21,1.21,0,0,0-.94,1.42,1.22,1.22,0,0,0,1.43.94,8.84,8.84,0,0,1,3.55,0l40.9,8.12a8.94,8.94,0,0,1,7,10.51l-.16.77-6,30-5.9,29.74a8.45,8.45,0,0,1-.62,1.94,8.94,8.94,0,0,1-9.9,5.09Z"/><g class="cls-9"><rect class="cls-1" x="-1.38" y="140.77" width="65.46" height="101.03"/></g><path class="cls-1" d="M59.34,175.24a1.21,1.21,0,1,0,.47-2.37l-6-1.19a1.2,1.2,0,1,0-.47,2.36Z"/><g class="cls-10"><rect class="cls-1" x="47.48" y="166.8" width="18.16" height="13.32"/></g><path class="cls-1" d="M57.29,185.56a1.21,1.21,0,0,0,.47-2.37l-6-1.19a1.2,1.2,0,1,0-.47,2.36Z"/><g class="cls-11"><rect class="cls-1" x="45.43" y="177.12" width="18.16" height="13.32"/></g><path class="cls-1" d="M55.25,195.88a1.21,1.21,0,0,0,.47-2.37l-6-1.19a1.2,1.2,0,0,0-.47,2.36Z"/><g class="cls-12"><rect class="cls-1" x="43.39" y="187.44" width="18.16" height="13.32"/></g><path class="cls-1" d="M53.2,206.2a1.21,1.21,0,0,0,.47-2.37l-6-1.2a1.21,1.21,0,0,0-.47,2.37Z"/><g class="cls-13"><rect class="cls-1" x="41.34" y="197.75" width="18.16" height="13.32"/></g><path class="cls-1" d="M51.15,216.51a1.2,1.2,0,1,0,.47-2.36l-6-1.2a1.21,1.21,0,0,0-.46,2.37Z"/><g class="cls-14"><rect class="cls-1" x="39.29" y="208.07" width="18.16" height="13.32"/></g><path class="cls-1" d="M49.1,226.83a1.2,1.2,0,1,0,.47-2.36l-6-1.2a1.21,1.21,0,0,0-.47,2.37Z"/><g class="cls-15"><rect class="cls-1" x="37.24" y="218.39" width="18.16" height="13.32"/></g><path class="cls-1" d="M31.07,190.85a1.21,1.21,0,0,0,1.42-.95,1.2,1.2,0,0,0-1-1.41l-15.4-3.06a1.2,1.2,0,0,0-.47,2.36Z"/><g class="cls-16"><rect class="cls-1" x="9.85" y="180.55" width="27.53" height="15.18"/></g><path class="cls-1" d="M34.47,198.68a1.21,1.21,0,1,0,.47-2.37L10,191.37a1.2,1.2,0,0,0-.47,2.36Z"/><g class="cls-17"><rect class="cls-1" x="3.72" y="186.49" width="37.05" height="17.07"/></g><path class="cls-1" d="M362.53,122.66,344.26,63.71,410.68,85a1.15,1.15,0,0,0,1.25-.39L438,51V47.27L410.62,82.6,342.87,60.88a1.14,1.14,0,0,0-1.14.27,1.16,1.16,0,0,0-.29,1.15l19.25,62.12a1.13,1.13,0,0,0,1.09.8,1.26,1.26,0,0,0,.33,0L438,101.65V99.27Z"/><path class="cls-1" d="M350.8,57.07a1.26,1.26,0,0,0,.33,0,1.13,1.13,0,0,0,.75-1.42l-8-25.81,23.82-7.38a1.14,1.14,0,1,0-.67-2.17L342.13,28a1.14,1.14,0,0,0-.75,1.43l8.33,26.89A1.13,1.13,0,0,0,350.8,57.07Z"/><path class="cls-1" d="M356.31,35.71a1.14,1.14,0,0,0,1.09.8,1,1,0,0,0,.34,0l45.35-14a1.14,1.14,0,0,0-.67-2.17L357.06,34.29A1.14,1.14,0,0,0,356.31,35.71Z"/><path class="cls-1" d="M359.76,46.84a1.13,1.13,0,0,0,1.09.8,1.26,1.26,0,0,0,.33,0L431.6,25.77a1.14,1.14,0,1,0-.67-2.17L360.51,45.42A1.14,1.14,0,0,0,359.76,46.84Z"/><path class="cls-1" d="M363.21,58a1.13,1.13,0,0,0,1.08.8,1,1,0,0,0,.34,0l70.42-21.82a1.14,1.14,0,0,0-.68-2.17L364,56.54A1.13,1.13,0,0,0,363.21,58Z"/><path class="cls-1" d="M421.74,50.83,383.49,62.68a1.14,1.14,0,0,0,.33,2.22,1,1,0,0,0,.34-.05L422.41,53a1.14,1.14,0,1,0-.67-2.17Z"/><rect class="cls-18" x="63.39" y="72.29" width="8.74" height="6.67"/><rect class="cls-18" x="39.41" y="46.87" width="9.59" height="6.08"/><rect class="cls-18" x="51.4" y="63.82" width="9.59" height="6.08"/><rect class="cls-18" x="51.4" y="72.29" width="9.59" height="6.67"/><rect class="cls-18" x="39.41" y="72.29" width="9.59" height="6.67"/><rect class="cls-18" x="15.44" y="72.29" width="9.59" height="6.67"/><rect class="cls-18" x="39.41" y="63.82" width="9.59" height="6.08"/><rect class="cls-18" x="27.43" y="46.87" width="9.59" height="6.08"/><rect class="cls-18" x="3.73" y="72.29" width="9.31" height="6.67"/><rect class="cls-18" x="15.44" y="46.87" width="9.59" height="6.08"/><rect class="cls-18" x="27.43" y="63.82" width="9.59" height="6.08"/><rect class="cls-18" x="15.44" y="63.82" width="9.59" height="6.08"/><rect class="cls-18" x="63.39" y="46.87" width="8.74" height="6.08"/><rect class="cls-18" x="51.4" y="37.8" width="9.59" height="6.67"/><rect class="cls-18" x="63.39" y="37.8" width="8.74" height="6.67"/><rect class="cls-18" x="63.39" y="63.82" width="8.74" height="6.08"/><rect class="cls-18" x="39.41" y="37.8" width="9.59" height="6.67"/><rect class="cls-18" x="63.39" y="55.34" width="8.74" height="6.08"/><rect class="cls-18" x="3.73" y="63.82" width="9.31" height="6.08"/><rect class="cls-18" x="27.43" y="37.8" width="9.59" height="6.67"/><rect class="cls-18" x="3.73" y="55.34" width="9.31" height="6.08"/><rect class="cls-18" x="3.73" y="46.87" width="9.31" height="6.08"/><rect class="cls-18" x="15.44" y="37.8" width="9.59" height="6.67"/><rect class="cls-18" x="3.73" y="37.8" width="9.31" height="6.67"/><rect class="cls-18" x="27.43" y="72.29" width="9.59" height="6.67"/><rect class="cls-18" x="27.43" y="55.34" width="9.59" height="6.08"/><rect class="cls-18" x="39.41" y="55.34" width="9.59" height="6.08"/><rect class="cls-18" x="51.4" y="55.34" width="9.59" height="6.08"/><path class="cls-18" d="M91.46,124.22V36.1A8.07,8.07,0,0,0,83.39,28H3.73V35.4H73.32a1.2,1.2,0,0,1,1.2,1.2V80.16a1.2,1.2,0,0,1-1.2,1.2H3.73v9.51H14.24a1.2,1.2,0,0,1,1.2,1.2V120.8a1.2,1.2,0,0,1-1.2,1.2H3.73v10.3H83.39A8.07,8.07,0,0,0,91.46,124.22Z"/><rect class="cls-18" x="3.73" y="93.27" width="9.31" height="26.33"/><rect class="cls-18" x="15.44" y="55.34" width="9.59" height="6.08"/><rect class="cls-18" x="51.4" y="46.87" width="9.59" height="6.08"/><path class="cls-1" d="M3.73,28H83.39a8.07,8.07,0,0,1,8.07,8.07v88.12a8.07,8.07,0,0,1-8.07,8.08H3.73v2.39H83.39a10.47,10.47,0,0,0,10.47-10.47V36.1A10.47,10.47,0,0,0,83.39,25.63H3.73Z"/><path class="cls-1" d="M3.73,21.59H92.66a1.2,1.2,0,1,0,0-2.4H3.73Z"/><rect class="cls-1" x="60.99" y="55.34" width="2.4" height="6.08"/><rect class="cls-1" x="60.99" y="46.87" width="2.4" height="6.08"/><rect class="cls-1" x="60.99" y="72.29" width="2.4" height="6.67"/><rect class="cls-1" x="60.99" y="37.8" width="2.4" height="6.67"/><rect class="cls-1" x="60.99" y="63.82" width="2.4" height="6.08"/><rect class="cls-1" x="49" y="72.29" width="2.4" height="6.67"/><rect class="cls-1" x="49" y="37.8" width="2.4" height="6.67"/><rect class="cls-1" x="49" y="55.34" width="2.4" height="6.08"/><rect class="cls-1" x="49" y="63.82" width="2.4" height="6.08"/><rect class="cls-1" x="49" y="46.87" width="2.4" height="6.08"/><rect class="cls-1" x="37.01" y="46.87" width="2.4" height="6.08"/><rect class="cls-1" x="37.01" y="63.82" width="2.4" height="6.08"/><rect class="cls-1" x="37.01" y="37.8" width="2.4" height="6.67"/><rect class="cls-1" x="37.01" y="55.34" width="2.4" height="6.08"/><rect class="cls-1" x="37.01" y="72.29" width="2.4" height="6.67"/><rect class="cls-1" x="25.03" y="72.29" width="2.4" height="6.67"/><rect class="cls-1" x="25.03" y="37.8" width="2.4" height="6.67"/><rect class="cls-1" x="25.03" y="63.82" width="2.4" height="6.08"/><rect class="cls-1" x="25.03" y="46.87" width="2.4" height="6.08"/><rect class="cls-1" x="25.03" y="55.34" width="2.4" height="6.08"/><rect class="cls-1" x="13.04" y="63.82" width="2.4" height="6.08"/><rect class="cls-1" x="13.04" y="55.34" width="2.4" height="6.08"/><rect class="cls-1" x="13.04" y="46.87" width="2.4" height="6.08"/><rect class="cls-1" x="13.04" y="72.29" width="2.4" height="6.67"/><rect class="cls-1" x="13.04" y="37.8" width="2.4" height="6.67"/><rect class="cls-1" x="3.73" y="69.89" width="9.31" height="2.4"/><rect class="cls-1" x="63.39" y="69.89" width="8.74" height="2.4"/><rect class="cls-1" x="51.4" y="69.89" width="9.59" height="2.4"/><rect class="cls-1" x="27.43" y="69.89" width="9.59" height="2.4"/><rect class="cls-1" x="39.41" y="69.89" width="9.59" height="2.4"/><rect class="cls-1" x="15.44" y="69.89" width="9.59" height="2.4"/><rect class="cls-1" x="60.99" y="69.89" width="2.4" height="2.4"/><rect class="cls-1" x="49" y="69.89" width="2.4" height="2.4"/><rect class="cls-1" x="37.01" y="69.89" width="2.4" height="2.4"/><rect class="cls-1" x="25.03" y="69.89" width="2.4" height="2.4"/><rect class="cls-1" x="13.04" y="69.89" width="2.4" height="2.4"/><rect class="cls-1" x="63.39" y="61.42" width="8.74" height="2.4"/><rect class="cls-1" x="27.43" y="61.42" width="9.59" height="2.4"/><rect class="cls-1" x="51.4" y="61.42" width="9.59" height="2.4"/><rect class="cls-1" x="3.73" y="61.42" width="9.31" height="2.4"/><rect class="cls-1" x="39.41" y="61.42" width="9.59" height="2.4"/><rect class="cls-1" x="15.44" y="61.42" width="9.59" height="2.4"/><rect class="cls-1" x="60.99" y="61.42" width="2.4" height="2.4"/><rect class="cls-1" x="49" y="61.42" width="2.4" height="2.4"/><rect class="cls-1" x="37.01" y="61.42" width="2.4" height="2.4"/><rect class="cls-1" x="25.03" y="61.42" width="2.4" height="2.4"/><rect class="cls-1" x="13.04" y="61.42" width="2.4" height="2.4"/><rect class="cls-1" x="3.73" y="52.94" width="9.31" height="2.4"/><rect class="cls-1" x="27.43" y="52.94" width="9.59" height="2.4"/><rect class="cls-1" x="63.39" y="52.94" width="8.74" height="2.4"/><rect class="cls-1" x="15.44" y="52.94" width="9.59" height="2.4"/><rect class="cls-1" x="51.4" y="52.94" width="9.59" height="2.4"/><rect class="cls-1" x="39.41" y="52.94" width="9.59" height="2.4"/><rect class="cls-1" x="60.99" y="52.94" width="2.4" height="2.4"/><rect class="cls-1" x="49" y="52.94" width="2.4" height="2.4"/><rect class="cls-1" x="37.01" y="52.94" width="2.4" height="2.4"/><rect class="cls-1" x="25.03" y="52.94" width="2.4" height="2.4"/><rect class="cls-1" x="13.04" y="52.94" width="2.4" height="2.4"/><rect class="cls-1" x="39.41" y="44.47" width="9.59" height="2.4"/><rect class="cls-1" x="27.43" y="44.47" width="9.59" height="2.4"/><rect class="cls-1" x="51.4" y="44.47" width="9.59" height="2.4"/><rect class="cls-1" x="63.39" y="44.47" width="8.74" height="2.4"/><rect class="cls-1" x="3.73" y="44.47" width="9.31" height="2.4"/><rect class="cls-1" x="15.44" y="44.47" width="9.59" height="2.4"/><rect class="cls-1" x="60.99" y="44.47" width="2.4" height="2.4"/><rect class="cls-1" x="49" y="44.47" width="2.4" height="2.4"/><rect class="cls-1" x="37.01" y="44.47" width="2.4" height="2.4"/><rect class="cls-1" x="25.03" y="44.47" width="2.4" height="2.4"/><rect class="cls-1" x="13.04" y="44.47" width="2.4" height="2.4"/><path class="cls-1" d="M39.41,36.6v1.2H49V36.6a1.2,1.2,0,0,1,1.2-1.2h-12A1.2,1.2,0,0,1,39.41,36.6Z"/><path class="cls-1" d="M73.32,81.36a1.2,1.2,0,0,0,1.2-1.2V71.09a1.2,1.2,0,0,1-1.2,1.2h-1.2V79H63.39v1.2a1.2,1.2,0,0,1-2.4,0V79H51.4v1.2a1.2,1.2,0,0,1-2.4,0V79H39.41v1.2a1.2,1.2,0,0,1-2.4,0V79H27.43v1.2a1.2,1.2,0,0,1-2.4,0V79H15.44v1.2a1.2,1.2,0,0,1-2.4,0V79H3.73v2.4Z"/><path class="cls-1" d="M15.44,36.6v1.2H25V36.6a1.2,1.2,0,0,1,1.2-1.2h-12A1.2,1.2,0,0,1,15.44,36.6Z"/><path class="cls-1" d="M27.43,36.6v1.2H37V36.6a1.2,1.2,0,0,1,1.2-1.2h-12A1.2,1.2,0,0,1,27.43,36.6Z"/><path class="cls-1" d="M73.32,63.82h-1.2v6.07h1.2a1.2,1.2,0,0,1,1.2,1.2V62.62A1.2,1.2,0,0,1,73.32,63.82Z"/><path class="cls-1" d="M63.39,36.6v1.2h8.73v6.67h1.2a1.2,1.2,0,0,1,1.2,1.2V36.6a1.2,1.2,0,0,0-1.2-1.2H62.19A1.2,1.2,0,0,1,63.39,36.6Z"/><path class="cls-1" d="M51.4,36.6v1.2H61V36.6a1.2,1.2,0,0,1,1.2-1.2h-12A1.2,1.2,0,0,1,51.4,36.6Z"/><path class="cls-1" d="M73.32,46.87h-1.2v6.07h1.2a1.2,1.2,0,0,1,1.2,1.2V45.67A1.2,1.2,0,0,1,73.32,46.87Z"/><path class="cls-1" d="M73.32,55.34h-1.2v6.08h1.2a1.2,1.2,0,0,1,1.2,1.2V54.14A1.2,1.2,0,0,1,73.32,55.34Z"/><path class="cls-1" d="M13,37.8V36.6a1.2,1.2,0,0,1,1.2-1.2H3.73v2.4Z"/><path class="cls-1" d="M61,36.6v1.2h2.4V36.6a1.2,1.2,0,0,0-1.2-1.2h0A1.2,1.2,0,0,0,61,36.6Z"/><path class="cls-1" d="M61,80.16a1.2,1.2,0,0,0,2.4,0V79H61Z"/><path class="cls-1" d="M49,36.6v1.2h2.4V36.6a1.2,1.2,0,0,0-1.2-1.2h0A1.2,1.2,0,0,0,49,36.6Z"/><path class="cls-1" d="M49,80.16a1.2,1.2,0,0,0,2.4,0V79H49Z"/><path class="cls-1" d="M37,36.6v1.2h2.4V36.6a1.2,1.2,0,0,0-1.2-1.2h0A1.2,1.2,0,0,0,37,36.6Z"/><path class="cls-1" d="M37,80.16a1.2,1.2,0,0,0,2.4,0V79H37Z"/><path class="cls-1" d="M25,36.6v1.2h2.4V36.6a1.2,1.2,0,0,0-1.2-1.2h0A1.2,1.2,0,0,0,25,36.6Z"/><path class="cls-1" d="M25,80.16a1.2,1.2,0,0,0,2.4,0V79H25Z"/><path class="cls-1" d="M13,80.16a1.2,1.2,0,0,0,2.4,0V79H13Z"/><path class="cls-1" d="M13,36.6v1.2h2.4V36.6a1.2,1.2,0,0,0-1.2-1.2h0A1.2,1.2,0,0,0,13,36.6Z"/><path class="cls-1" d="M73.32,69.89h-1.2v2.4h1.2a1.2,1.2,0,0,0,0-2.4Z"/><path class="cls-1" d="M73.32,61.42h-1.2v2.4h1.2a1.2,1.2,0,1,0,0-2.4Z"/><path class="cls-1" d="M73.32,52.94h-1.2v2.4h1.2a1.2,1.2,0,0,0,0-2.4Z"/><path class="cls-1" d="M73.32,44.47h-1.2v2.4h1.2a1.2,1.2,0,0,0,0-2.4Z"/><path class="cls-1" d="M15.44,120.8V92.07a1.2,1.2,0,0,0-1.2-1.2H3.73v2.4H13V119.6H3.73V122H14.24A1.2,1.2,0,0,0,15.44,120.8Z"/></g><g id="Fill"><path class="cls-19" d="M269.17,69.82c3.51,3.64,2.34,96.1,2.08,108.84s-13,17.42-13,17.42-67.36,1.17-72.69-.65-9.08-6.71-7.91-4.29a17.51,17.51,0,0,0,15.7,10h65.44c9.67,0,17.54-8.11,17.54-18.08V81.68a18.1,18.1,0,0,0-11.17-16.84A11.59,11.59,0,0,1,269.17,69.82Z"/><polygon class="cls-19" points="190.72 78.1 216.43 167.56 183.22 167.56 183.22 78.1 190.72 78.1"/></g><g id="Outlines"><path class="cls-20" d="M179.8,125.33h-2.09a1.5,1.5,0,0,1,0-3h2.09a1.5,1.5,0,0,1,0,3Zm-8.09,0h-4a1.5,1.5,0,0,1,0-3h4a1.5,1.5,0,0,1,0,3Zm-10,0h-4a1.5,1.5,0,0,1,0-3h4a1.5,1.5,0,0,1,0,3Zm-10,0h-4a1.5,1.5,0,0,1,0-3h4a1.5,1.5,0,0,1,0,3Z"/><path class="cls-20" d="M160.42,176.91a1.5,1.5,0,0,1-.89-2.71l3.21-2.38a1.51,1.51,0,0,1,1.79,2.42l-3.22,2.38A1.55,1.55,0,0,1,160.42,176.91Zm8-5.95a1.5,1.5,0,0,1-.89-2.71l3.21-2.37a1.49,1.49,0,0,1,2.1.31,1.51,1.51,0,0,1-.31,2.1l-3.22,2.38A1.48,1.48,0,0,1,168.46,171Zm8-6a1.5,1.5,0,0,1-.9-2.7l3.22-2.38a1.5,1.5,0,1,1,1.78,2.41l-3.21,2.38A1.48,1.48,0,0,1,176.5,165Z"/><path class="cls-20" d="M289.39,177a1.55,1.55,0,0,1-.89-.29l-3.23-2.35a1.5,1.5,0,1,1,1.77-2.43l3.23,2.35a1.5,1.5,0,0,1-.88,2.72Zm-8.09-5.89a1.51,1.51,0,0,1-.88-.28l-3.23-2.36A1.5,1.5,0,1,1,279,166l3.23,2.35a1.5,1.5,0,0,1-.88,2.71Zm-8.08-5.88a1.48,1.48,0,0,1-.89-.29l-3.23-2.35a1.5,1.5,0,0,1,1.77-2.43l3.23,2.36a1.5,1.5,0,0,1-.88,2.71Z"/><path class="cls-20" d="M270.1,95.2a1.49,1.49,0,0,1-1.21-.61,1.51,1.51,0,0,1,.31-2.1l3.22-2.38a1.5,1.5,0,1,1,1.78,2.41L271,94.9A1.49,1.49,0,0,1,270.1,95.2Zm8-6a1.49,1.49,0,0,1-1.2-.61,1.51,1.51,0,0,1,.31-2.1l3.22-2.38a1.5,1.5,0,1,1,1.78,2.41L279,89A1.5,1.5,0,0,1,278.13,89.25Zm8-6a1.47,1.47,0,0,1-1.2-.61,1.49,1.49,0,0,1,.31-2.1l3.22-2.38a1.5,1.5,0,0,1,1.78,2.42L287.07,83A1.58,1.58,0,0,1,286.17,83.3Z"/><path class="cls-20" d="M179.82,95a1.53,1.53,0,0,1-.88-.28l-3.23-2.36a1.5,1.5,0,0,1,1.76-2.42l3.24,2.35a1.5,1.5,0,0,1-.89,2.71Zm-8.08-5.88a1.43,1.43,0,0,1-.88-.29l-3.24-2.35A1.5,1.5,0,0,1,169.39,84l3.23,2.36a1.49,1.49,0,0,1,.33,2.09A1.48,1.48,0,0,1,171.74,89.08Zm-8.09-5.88a1.54,1.54,0,0,1-.88-.29l-3.23-2.35a1.5,1.5,0,0,1,1.76-2.43l3.24,2.35a1.5,1.5,0,0,1-.89,2.72Z"/><path class="cls-20" d="M300.45,125.33h-2.86a1.5,1.5,0,0,1,0-3h2.86a1.5,1.5,0,0,1,0,3Zm-8.86,0h-4a1.5,1.5,0,0,1,0-3h4a1.5,1.5,0,0,1,0,3Zm-10,0h-4a1.5,1.5,0,0,1,0-3h4a1.5,1.5,0,0,1,0,3Zm-10,0h-4a1.5,1.5,0,0,1,0-3h4a1.5,1.5,0,0,1,0,3Z"/><path class="cls-20" d="M227.37,139.16c-3.17,0-6-.16-6.17-.16l-.24,0a7.14,7.14,0,0,1-4.38-3.38c-1.12-2.07-6-10.56-6.68-11.65a3.5,3.5,0,0,1,.94-4.43,3.94,3.94,0,0,1,5.46.12l.17.18V109.59a4.09,4.09,0,0,1,4.1-4,3.71,3.71,0,0,1,2.76,1.09,4.35,4.35,0,0,1,1.11,3l0,6.87a3.9,3.9,0,0,1,2,.2,3.58,3.58,0,0,1,1.9,1.52A3.18,3.18,0,0,1,231,118a3.48,3.48,0,0,1,2,1.52,3.68,3.68,0,0,1,3.38,0c1.33.56,2.05,2.08,2.06,4.46a74.91,74.91,0,0,1-.29,8.44c-.08,2.15-1.39,6.16-5.88,6.53C230.76,139.12,229,139.16,227.37,139.16ZM221.53,136A96.2,96.2,0,0,0,232,136c2.92-.24,3.11-3.34,3.12-3.69a.81.81,0,0,0,0-.15,69.52,69.52,0,0,0,.28-8.12c0-1.45-.33-1.77-.34-1.77-.78-.39-1.55.58-1.58.62a1.51,1.51,0,0,1-2.68-.72c-.06-.44-.34-1.16-.62-1.22l-.14,0c-.33-.11-.33-.11-1.23.57l-.3.22a1.5,1.5,0,0,1-2.36-.86c-.17-.71-.43-1.21-.69-1.29l-.11,0A1.33,1.33,0,0,0,224,120a1.5,1.5,0,0,1-2.63-1l0-9.39c0-1-.61-1-.87-1a1.06,1.06,0,0,0-1.1,1.09v14.87a1.55,1.55,0,0,1-1.14,1.57c-1.23.33-1.75-.57-2.62-2.06a16.3,16.3,0,0,0-1.46-2.23,1,1,0,0,0-1.38-.1,1.06,1.06,0,0,0-.41.66c.68,1.07,5.63,9.69,6.76,11.78A4.16,4.16,0,0,0,221.53,136Z"/><path class="cls-20" d="M263,169.59H184.88a1.16,1.16,0,0,1-1.16-1.16V79.33a1.16,1.16,0,0,1,1.16-1.16H263a1.16,1.16,0,0,1,1.16,1.16v89.1A1.16,1.16,0,0,1,263,169.59Zm-77-2.32h75.83V80.49H186Z"/><path class="cls-20" d="M256.29,197.43H191.62c-9.56,0-17.33-8-17.33-17.87V79.33c0-9.85,7.77-17.86,17.33-17.86h64.67c9.56,0,17.33,8,17.33,17.86V179.56C273.62,189.41,265.85,197.43,256.29,197.43ZM191.62,63.79a15.3,15.3,0,0,0-15,15.54V179.56c0,8.58,6.73,15.55,15,15.55h64.67c8.28,0,15-7,15-15.55V79.33a15.3,15.3,0,0,0-15-15.54ZM232,186.29H215.87a3.95,3.95,0,0,1,0-7.89H232a3.95,3.95,0,0,1,0,7.89Zm-16.17-5.57a1.63,1.63,0,0,0,0,3.25H232a1.63,1.63,0,0,0,0-3.25ZM263,169.59H184.88a1.16,1.16,0,0,1-1.16-1.16V79.33a1.16,1.16,0,0,1,1.16-1.16H263a1.16,1.16,0,0,1,1.16,1.16v89.1A1.16,1.16,0,0,1,263,169.59Zm-77-2.32h75.83V80.49H186Z"/><path class="cls-20" d="M256.29,197.8H191.62c-9.76,0-17.71-8.18-17.71-18.24V79.33c0-10.06,8-18.24,17.71-18.24h64.67c9.76,0,17.71,8.18,17.71,18.24V179.56C274,189.62,266.05,197.8,256.29,197.8Zm-64.67-136c-9.35,0-17,7.85-17,17.49V179.56c0,9.65,7.61,17.49,17,17.49h64.67c9.35,0,17-7.84,17-17.49V79.33c0-9.64-7.61-17.49-17-17.49Zm64.67,133.64H191.62a15.68,15.68,0,0,1-15.39-15.92V79.33a15.68,15.68,0,0,1,15.39-15.92h64.67a15.68,15.68,0,0,1,15.39,15.92V179.56A15.68,15.68,0,0,1,256.29,195.48ZM191.62,64.16C183.55,64.16,177,71,177,79.33V179.56a14.93,14.93,0,0,0,14.64,15.17h64.67a14.93,14.93,0,0,0,14.64-15.17V79.33c0-8.36-6.57-15.17-14.64-15.17ZM232,186.67H215.87a4.32,4.32,0,0,1,0-8.64H232a4.32,4.32,0,0,1,0,8.64Zm-16.17-7.89a3.57,3.57,0,0,0,0,7.14H232a3.57,3.57,0,0,0,0-7.14ZM232,184.35H215.87a2,2,0,0,1,0-4H232a2,2,0,0,1,0,4Zm-16.17-3.25a1.25,1.25,0,0,0,0,2.5H232a1.25,1.25,0,0,0,0-2.5ZM263,170H184.88a1.54,1.54,0,0,1-1.53-1.53V79.33a1.54,1.54,0,0,1,1.53-1.53H263a1.53,1.53,0,0,1,1.53,1.53v89.1A1.53,1.53,0,0,1,263,170ZM184.88,78.55a.78.78,0,0,0-.78.78v89.1a.78.78,0,0,0,.78.78H263a.78.78,0,0,0,.78-.78V79.33a.78.78,0,0,0-.78-.78Zm77.37,89.09H185.67V80.12h76.58Zm-75.83-.75H261.5v-86H186.42Z"/><path class="cls-20" d="M145.06,87.94a22,22,0,0,1-5.67-.75,21.77,21.77,0,0,1-5.25-39.87h0a21.76,21.76,0,1,1,10.92,40.62Zm-9.42-38a18.77,18.77,0,1,0,25.63,6.87,18.64,18.64,0,0,0-25.63-6.87Z"/><path class="cls-21" d="M148.67,68.24a2.75,2.75,0,0,0-2.17,1.07l-4.73-2.42a2.84,2.84,0,0,0,.1-.72,2.77,2.77,0,0,0-.12-.78l4.7-2.41a2.78,2.78,0,1,0-.56-1.67,3.38,3.38,0,0,0,.1.72l-4.72,2.42a2.78,2.78,0,1,0,0,3.38L146,70.24a2.56,2.56,0,0,0-.13.79,2.79,2.79,0,1,0,2.78-2.79Z"/><path class="cls-20" d="M148.67,74.56A3.54,3.54,0,0,1,145.14,71c0-.13,0-.26,0-.39l-3.68-1.88a3.54,3.54,0,1,1,0-5.23l3.73-1.91a3,3,0,0,1,0-.31,3.53,3.53,0,1,1,1.14,2.6l-3.68,1.88c0,.13,0,.25,0,.38s0,.2,0,.31l3.73,1.9a3.49,3.49,0,0,1,2.33-.89,3.54,3.54,0,1,1,0,7.07Zm-1.82-4.49-.11.38a1.91,1.91,0,0,0-.1.58,2,2,0,1,0,2-2,2,2,0,0,0-1.58.78Zm-7.76-5.94a2,2,0,0,0,0,4.07,2,2,0,0,0,1.62-.82l.23-.31.1-.38a1.74,1.74,0,0,0,.08-.52,1.87,1.87,0,0,0-.09-.56l-.13-.41-.22-.28A2,2,0,0,0,139.09,64.13Zm7.73-1.91.23.31a2,2,0,1,0-.41-1.22,2.34,2.34,0,0,0,.08.54Z"/><path class="cls-20" d="M145,210.93a21.76,21.76,0,0,1-18.81-32.64h0A21.76,21.76,0,1,1,145,210.93Zm-16.21-31.14a18.77,18.77,0,1,0,25.62-6.86,18.75,18.75,0,0,0-25.62,6.86Z"/><path class="cls-20" d="M151.82,186.22a6.93,6.93,0,0,0-12.95-1.85,5.55,5.55,0,0,0,.61,11.06h12a4.61,4.61,0,0,0,.32-9.21Zm-.32,7.36h-12a3.7,3.7,0,1,1,0-7.4h.65a5.09,5.09,0,0,1,10,1.39V188h1.39a2.78,2.78,0,0,1,0,5.55Z"/><path class="cls-20" d="M151.5,195.8h-12a5.92,5.92,0,0,1-.84-11.78,7.3,7.3,0,0,1,13.49,1.85,5,5,0,0,1-.63,9.93ZM145,181a6.53,6.53,0,0,0-5.82,3.53l-.1.18-.2,0a5.17,5.17,0,0,0,.57,10.31h12a4.23,4.23,0,0,0,.3-8.46l-.29,0,0-.28A6.57,6.57,0,0,0,145,181Zm6.47,13h-12a4.08,4.08,0,1,1,0-8.15h.38a5.46,5.46,0,0,1,10.63,1.76v.09h1a3.15,3.15,0,1,1,0,6.3Zm-12-7.4a3.33,3.33,0,1,0,0,6.65h12a2.4,2.4,0,1,0,0-4.8h-1.76v-.84a4.72,4.72,0,0,0-9.25-1.29l-.07.28Z"/><g id="Path-2"><path class="cls-20" d="M120,133.46l17.83-7.65L120,118.17v6l12.74,1.69L120,127.51Z"/></g><path class="cls-20" d="M126.59,147.57a21.76,21.76,0,0,1-18.81-32.64h0a21.76,21.76,0,1,1,18.81,32.64Zm-16.21-31.14A18.76,18.76,0,1,0,144.74,121a18.75,18.75,0,0,0-34.36-4.53Z"/><path class="cls-20" d="M309,67.06a1.76,1.76,0,0,0,1.56-.92l3.21-5.8A.9.9,0,0,0,313,59H299.79L299,57.23H296V59h1.79L301,65.8,299.83,68a1.8,1.8,0,0,0,1.57,2.66h10.72V68.85H301.4l1-1.79Zm-8.4-6.26h10.87L309,65.27h-6.28Zm.76,10.73a1.79,1.79,0,1,0,1.78,1.79A1.79,1.79,0,0,0,301.4,71.53Zm8.94,0a1.79,1.79,0,1,0,1.78,1.79A1.79,1.79,0,0,0,310.34,71.53Z"/><path class="cls-20" d="M310.34,75.48a2.16,2.16,0,1,1,2.16-2.16A2.16,2.16,0,0,1,310.34,75.48Zm0-3.57a1.41,1.41,0,1,0,1.41,1.41A1.41,1.41,0,0,0,310.34,71.91Zm-8.94,3.57a2.16,2.16,0,1,1,2.16-2.16A2.16,2.16,0,0,1,301.4,75.48Zm0-3.57a1.41,1.41,0,1,0,1.41,1.41A1.41,1.41,0,0,0,301.4,71.91Zm10.72-.9H301.4A2.14,2.14,0,0,1,299.54,70a2.16,2.16,0,0,1,0-2.16l1.12-2-3-6.4H296a.37.37,0,0,1-.37-.38V57.23a.37.37,0,0,1,.37-.38H299a.38.38,0,0,1,.34.22l.74,1.57h13a1.26,1.26,0,0,1,1.1,1.88l-3.2,5.8A2.14,2.14,0,0,1,309,67.44H302.6l-.57,1h10.09a.38.38,0,0,1,.38.38v1.79A.38.38,0,0,1,312.12,71ZM296.41,58.64h1.41a.38.38,0,0,1,.34.21l3.22,6.79a.4.4,0,0,1,0,.34l-1.21,2.18a1.41,1.41,0,0,0,1.24,2.1h10.35v-1H301.4a.39.39,0,0,1-.33-.18.35.35,0,0,1,0-.37l1-1.79a.37.37,0,0,1,.33-.19H309a1.41,1.41,0,0,0,1.24-.73l3.2-5.8a.49.49,0,0,0,0-.51.51.51,0,0,0-.44-.26H299.79a.36.36,0,0,1-.33-.22l-.74-1.57h-2.31Zm12.63,7h-6.28a.38.38,0,0,1-.34-.22L300.31,61a.36.36,0,0,1,0-.36.37.37,0,0,1,.31-.17h10.87a.38.38,0,0,1,.32.18.38.38,0,0,1,0,.37l-2.47,4.48A.4.4,0,0,1,309,65.65Zm-6-.75h5.82l2.05-3.72h-9.63Z"/><path class="cls-20" d="M304.94,87.92A21.55,21.55,0,0,1,294.1,85a21.79,21.79,0,0,1-8-29.72h0a21.76,21.76,0,1,1,18.81,32.64ZM288.73,56.79a18.76,18.76,0,1,0,11.39-8.74,18.79,18.79,0,0,0-11.39,8.74Z"/><path class="cls-20" d="M304.94,210.93a21.76,21.76,0,0,1-18.81-32.64h0a21.76,21.76,0,1,1,18.81,32.64Zm-16.21-31.14a18.76,18.76,0,1,0,34.36,4.53,18.75,18.75,0,0,0-34.36-4.53Z"/><g id="Download"><path class="cls-20" d="M296.86,196.15v-7.1h2v5.07h12.17v-5.07h2v7.1Zm3.4-9.07,1.44-1.44,2.26,2.27v-8h2V188l2.39-2.39,1.43,1.44L305,191.85Z"/><path class="cls-20" d="M313.09,196.4H296.86a.25.25,0,0,1-.25-.25V189a.25.25,0,0,1,.25-.25h2a.26.26,0,0,1,.25.25v4.83h11.67V189a.26.26,0,0,1,.25-.25h2a.25.25,0,0,1,.25.25v7.11A.25.25,0,0,1,313.09,196.4Zm-16-.5h15.73v-6.61h-1.53v4.83a.25.25,0,0,1-.25.25H298.89a.25.25,0,0,1-.25-.25v-4.83h-1.53Zm7.93-3.8a.24.24,0,0,1-.18-.07l-4.78-4.78a.26.26,0,0,1-.07-.17.29.29,0,0,1,.07-.18l1.44-1.44a.29.29,0,0,1,.18-.07h0a.26.26,0,0,1,.17.07l1.84,1.84v-7.39a.25.25,0,0,1,.25-.25h2a.25.25,0,0,1,.25.25v7.52l2-2a.29.29,0,0,1,.18-.07h0a.26.26,0,0,1,.17.07L310,186.9a.24.24,0,0,1,0,.35L305.21,192A.23.23,0,0,1,305,192.1Zm-4.43-5L305,191.5l4.42-4.42L308.38,186l-2.21,2.21a.26.26,0,0,1-.28,0,.25.25,0,0,1-.15-.23v-7.87h-1.53v7.75a.25.25,0,0,1-.15.23.24.24,0,0,1-.28-.06L301.7,186Z"/></g><path class="cls-20" d="M323.34,147.57a21.76,21.76,0,0,1-18.81-32.64h0a21.76,21.76,0,1,1,18.81,32.64Zm-16.21-31.14a18.76,18.76,0,1,0,25.63-6.86,18.76,18.76,0,0,0-25.63,6.86Z"/><path class="cls-20" d="M330.5,117.56H316.93a1.69,1.69,0,0,0-1.69,1.69v15.26l3.39-3.39H330.5a1.7,1.7,0,0,0,1.69-1.7V119.25A1.69,1.69,0,0,0,330.5,117.56Zm-.85,11.86h-11l-1.7,1.7v-11a.86.86,0,0,1,.85-.85h11.87a.85.85,0,0,1,.85.85v8.48A.85.85,0,0,1,329.65,129.42Z"/><path class="cls-20" d="M314.74,135.72V119.25a2.19,2.19,0,0,1,2.19-2.19H330.5a2.19,2.19,0,0,1,2.19,2.19v10.17a2.2,2.2,0,0,1-2.19,2.2H318.84Zm2.19-17.66a1.19,1.19,0,0,0-1.19,1.19V133.3l2.68-2.68H330.5a1.19,1.19,0,0,0,1.19-1.2V119.25a1.19,1.19,0,0,0-1.19-1.19Zm-.5,14.27V120.1a1.36,1.36,0,0,1,1.35-1.35h11.87A1.36,1.36,0,0,1,331,120.1v8.48a1.35,1.35,0,0,1-1.35,1.34H318.84Zm1.35-12.58a.35.35,0,0,0-.35.35v9.81l1-1h11.23a.35.35,0,0,0,.35-.34V120.1a.35.35,0,0,0-.35-.35Z"/></g></svg> 