<svg xmlns="http://www.w3.org/2000/svg" xmlns:xlink="http://www.w3.org/1999/xlink" viewBox="0 0 440 252"><defs><style>.cls-1{fill:#beb3d9;}.cls-2{fill:#f1eefa;}.cls-3{clip-path:url(#clip-path);}.cls-4{clip-path:url(#clip-path-2);}.cls-5{clip-path:url(#clip-path-3);}.cls-6{clip-path:url(#clip-path-4);}.cls-7{clip-path:url(#clip-path-5);}.cls-8{clip-path:url(#clip-path-6);}.cls-9{clip-path:url(#clip-path-7);}.cls-10{clip-path:url(#clip-path-8);}.cls-11{clip-path:url(#clip-path-9);}.cls-12{clip-path:url(#clip-path-10);}.cls-13{clip-path:url(#clip-path-11);}.cls-14{clip-path:url(#clip-path-12);}.cls-15{clip-path:url(#clip-path-13);}.cls-16{clip-path:url(#clip-path-14);}.cls-17{clip-path:url(#clip-path-15);}.cls-18{clip-path:url(#clip-path-16);}.cls-19{clip-path:url(#clip-path-17);}.cls-20{clip-path:url(#clip-path-18);}.cls-21{clip-path:url(#clip-path-19);}.cls-22{clip-path:url(#clip-path-20);}.cls-23{clip-path:url(#clip-path-21);}.cls-24{clip-path:url(#clip-path-22);}.cls-25{clip-path:url(#clip-path-23);}.cls-26{clip-path:url(#clip-path-24);}.cls-27{clip-path:url(#clip-path-25);}.cls-28{clip-path:url(#clip-path-26);}.cls-29{clip-path:url(#clip-path-27);}.cls-30{clip-path:url(#clip-path-28);}.cls-31{clip-path:url(#clip-path-29);}.cls-32{clip-path:url(#clip-path-30);}.cls-33{clip-path:url(#clip-path-31);}.cls-34{clip-path:url(#clip-path-32);}.cls-35{clip-path:url(#clip-path-33);}.cls-36{fill:none;stroke:#beb3d9;stroke-linecap:round;stroke-linejoin:round;stroke-width:2.5px;}.cls-37{fill:#745fd7;}.cls-38{fill:#333;}</style><clipPath id="clip-path"><path class="cls-1" d="M10.55,27.43a1.2,1.2,0,0,1,0-2.4H115.66A10.47,10.47,0,0,1,126.13,35.5v88.12a10.47,10.47,0,0,1-10.47,10.47H10.55a1.2,1.2,0,1,1,0-2.39H115.66a8.08,8.08,0,0,0,8.07-8.08V35.5a8.07,8.07,0,0,0-8.07-8.07Z"/></clipPath><clipPath id="clip-path-2"><path class="cls-1" d="M10.55,21a1.2,1.2,0,0,1,0-2.4H124.93a1.2,1.2,0,0,1,0,2.4Z"/></clipPath><clipPath id="clip-path-3"><path class="cls-1" d="M93.25,36a1.2,1.2,0,0,1,2.4,0V79.56a1.2,1.2,0,0,1-2.4,0Z"/></clipPath><clipPath id="clip-path-4"><path class="cls-1" d="M81.27,36a1.2,1.2,0,1,1,2.39,0V79.56a1.2,1.2,0,1,1-2.39,0Z"/></clipPath><clipPath id="clip-path-5"><path class="cls-1" d="M69.28,36a1.2,1.2,0,0,1,2.4,0V79.56a1.2,1.2,0,0,1-2.4,0Z"/></clipPath><clipPath id="clip-path-6"><path class="cls-1" d="M57.29,36a1.2,1.2,0,1,1,2.4,0V79.56a1.2,1.2,0,0,1-2.4,0Z"/></clipPath><clipPath id="clip-path-7"><path class="cls-1" d="M45.31,36a1.2,1.2,0,0,1,2.4,0V79.56a1.2,1.2,0,0,1-2.4,0Z"/></clipPath><clipPath id="clip-path-8"><path class="cls-1" d="M33.32,36a1.2,1.2,0,1,1,2.4,0V79.56a1.2,1.2,0,0,1-2.4,0Z"/></clipPath><clipPath id="clip-path-9"><path class="cls-1" d="M21.33,36a1.2,1.2,0,1,1,2.4,0V79.56a1.2,1.2,0,1,1-2.4,0Z"/></clipPath><clipPath id="clip-path-10"><path class="cls-1" d="M105.59,69.29a1.2,1.2,0,1,1,0,2.4h-95a1.2,1.2,0,0,1,0-2.4Z"/></clipPath><clipPath id="clip-path-11"><path class="cls-1" d="M105.59,60.82a1.2,1.2,0,0,1,0,2.4h-95a1.2,1.2,0,0,1,0-2.4Z"/></clipPath><clipPath id="clip-path-12"><path class="cls-1" d="M105.59,52.34a1.2,1.2,0,1,1,0,2.4h-95a1.2,1.2,0,1,1,0-2.4Z"/></clipPath><clipPath id="clip-path-13"><path class="cls-1" d="M105.59,43.87a1.2,1.2,0,0,1,0,2.4h-95a1.2,1.2,0,1,1,0-2.4Z"/></clipPath><clipPath id="clip-path-14"><path class="cls-1" d="M104.39,37.2H10.55a1.2,1.2,0,1,1,0-2.4h95a1.2,1.2,0,0,1,1.2,1.2V79.56a1.2,1.2,0,0,1-1.2,1.2h-95a1.2,1.2,0,1,1,0-2.4h93.84Z"/></clipPath><clipPath id="clip-path-15"><path class="cls-1" d="M10.55,92.67a1.2,1.2,0,1,1,0-2.4h36a1.2,1.2,0,0,1,1.2,1.2V120.2a1.2,1.2,0,0,1-1.2,1.2h-36a1.2,1.2,0,1,1,0-2.4H45.31V92.67Z"/></clipPath><clipPath id="clip-path-16"><path class="cls-1" d="M68.4,207.25a22.26,22.26,0,1,1-25.32-18.7A22.26,22.26,0,0,1,68.4,207.25Zm-2.37.36a19.86,19.86,0,1,0-16.69,22.6A19.87,19.87,0,0,0,66,207.61Z"/></clipPath><clipPath id="clip-path-17"><path class="cls-1" d="M67.28,205.49a1.2,1.2,0,1,1-.36-2.37l14-2.1a4.53,4.53,0,0,1,1.35,9l-14,2.1a1.2,1.2,0,1,1-.36-2.38l14-2.1a2.13,2.13,0,1,0-.63-4.21Z"/></clipPath><clipPath id="clip-path-18"><path class="cls-1" d="M75.36,216.2a1.2,1.2,0,0,1,2.37-.36l1.57,10.41a9.8,9.8,0,0,1-8.24,11.15L30.7,243.47a9.8,9.8,0,0,1-11.15-8.23l-6.07-40.36a9.8,9.8,0,0,1,8.23-11.15l40.36-6.08a9.82,9.82,0,0,1,11.16,8.24L74.9,197a1.2,1.2,0,1,1-2.37.36l-1.68-11.13A7.4,7.4,0,0,0,62.43,180L22.07,186.1a7.41,7.41,0,0,0-6.22,8.42l6.07,40.36a7.4,7.4,0,0,0,8.43,6.22L70.7,235a7.42,7.42,0,0,0,6.23-8.43Z"/></clipPath><clipPath id="clip-path-19"><path class="cls-1" d="M136.65,185.56a10.74,10.74,0,1,1-10.74-10.74A10.74,10.74,0,0,1,136.65,185.56Zm-2.4,0a8.34,8.34,0,1,0-8.34,8.34A8.33,8.33,0,0,0,134.25,185.56Z"/></clipPath><clipPath id="clip-path-20"><path class="cls-1" d="M343.82,192.28l-30-9.26a10.66,10.66,0,0,1-7-13.33L329,98.07a10.66,10.66,0,0,1,13.33-7l30,9.26a10.65,10.65,0,0,1,7,13.33l-22.13,71.62A10.67,10.67,0,0,1,343.82,192.28Zm.85-2.78a7.76,7.76,0,0,0,9.7-5.12l22.13-71.62a7.76,7.76,0,0,0-5.12-9.7l-29.95-9.25a7.75,7.75,0,0,0-9.7,5.12L309.6,170.54a7.75,7.75,0,0,0,5.12,9.7Z"/></clipPath><clipPath id="clip-path-21"><path class="cls-1" d="M331.15,182.66a4.95,4.95,0,1,1,6.19-3.26A4.94,4.94,0,0,1,331.15,182.66Zm2.23-7.2a2.6,2.6,0,1,0,1.71,3.24A2.59,2.59,0,0,0,333.38,175.46Z"/></clipPath><clipPath id="clip-path-22"><path class="cls-1" d="M349.4,105.05a1.45,1.45,0,0,1,.85-2.78l9.07,2.8a1.45,1.45,0,0,1-.86,2.78Z"/></clipPath><clipPath id="clip-path-23"><path class="cls-1" d="M311.47,162.82a1.4,1.4,0,0,1,.83-2.67L358,174.27a1.4,1.4,0,1,1-.83,2.67Z"/></clipPath><clipPath id="clip-path-24"><path class="cls-1" d="M327.61,107.34a1.45,1.45,0,0,1,.86-2.78L376,119.25a1.47,1.47,0,0,1,1,1.82,1.45,1.45,0,0,1-1.82,1Z"/></clipPath><clipPath id="clip-path-25"><path class="cls-1" d="M434.41,103.28a1.21,1.21,0,0,1,.47,2.37l-29.2,5.79A11.36,11.36,0,0,1,393.11,105a11.55,11.55,0,0,1-.78-2.46l-5.91-29.74-5.95-30-.15-.77a11.36,11.36,0,0,1,8.93-13.35l40.9-8.12a11.23,11.23,0,0,1,4.51,0,1.2,1.2,0,1,1-.49,2.35,9,9,0,0,0-3.55,0l-40.9,8.12a9,9,0,0,0-7,10.52l.16.77,6,30,5.9,29.74a8.78,8.78,0,0,0,.62,1.94,8.94,8.94,0,0,0,9.9,5.09Z"/></clipPath><clipPath id="clip-path-26"><path class="cls-1" d="M380,50a1.2,1.2,0,1,1-.47-2.36l6-1.2a1.21,1.21,0,1,1,.47,2.37Z"/></clipPath><clipPath id="clip-path-27"><path class="cls-1" d="M382,60.28a1.2,1.2,0,1,1-.47-2.36l6-1.2a1.21,1.21,0,0,1,.47,2.37Z"/></clipPath><clipPath id="clip-path-28"><path class="cls-1" d="M384.08,70.6a1.2,1.2,0,0,1-.47-2.36l6-1.2a1.21,1.21,0,0,1,.47,2.37Z"/></clipPath><clipPath id="clip-path-29"><path class="cls-1" d="M386.13,80.92a1.2,1.2,0,0,1-.47-2.36l6-1.2a1.2,1.2,0,0,1,.47,2.36Z"/></clipPath><clipPath id="clip-path-30"><path class="cls-1" d="M388.18,91.24a1.2,1.2,0,1,1-.47-2.36l6-1.2a1.2,1.2,0,1,1,.46,2.36Z"/></clipPath><clipPath id="clip-path-31"><path class="cls-1" d="M390.23,101.56a1.2,1.2,0,1,1-.47-2.36l6-1.2a1.2,1.2,0,1,1,.47,2.36Z"/></clipPath><clipPath id="clip-path-32"><path class="cls-1" d="M408.26,65.58a1.21,1.21,0,0,1-.47-2.37l15.4-3.05a1.2,1.2,0,0,1,.47,2.36Z"/></clipPath><clipPath id="clip-path-33"><path class="cls-1" d="M404.86,73.4a1.2,1.2,0,1,1-.47-2.36l24.93-5a1.21,1.21,0,0,1,.47,2.37Z"/></clipPath></defs><g id="Bkg_colour" data-name="Bkg colour"><rect class="cls-2" width="440" height="252"/></g><g id="Bkg_lines" data-name="Bkg lines"><path class="cls-1" d="M10.55,27.43a1.2,1.2,0,0,1,0-2.4H115.66A10.47,10.47,0,0,1,126.13,35.5v88.12a10.47,10.47,0,0,1-10.47,10.47H10.55a1.2,1.2,0,1,1,0-2.39H115.66a8.08,8.08,0,0,0,8.07-8.08V35.5a8.07,8.07,0,0,0-8.07-8.07Z"/><g class="cls-3"><rect class="cls-1" x="4.51" y="20.2" width="126.45" height="118.73"/></g><path class="cls-1" d="M10.55,21a1.2,1.2,0,0,1,0-2.4H124.93a1.2,1.2,0,0,1,0,2.4Z"/><g class="cls-4"><rect class="cls-1" x="4.51" y="13.75" width="126.45" height="12.07"/></g><path class="cls-1" d="M93.25,36a1.2,1.2,0,0,1,2.4,0V79.56a1.2,1.2,0,0,1-2.4,0Z"/><g class="cls-5"><rect class="cls-1" x="88.41" y="29.96" width="12.07" height="55.64"/></g><path class="cls-1" d="M81.27,36a1.2,1.2,0,1,1,2.39,0V79.56a1.2,1.2,0,1,1-2.39,0Z"/><g class="cls-6"><rect class="cls-1" x="76.43" y="29.96" width="12.07" height="55.64"/></g><path class="cls-1" d="M69.28,36a1.2,1.2,0,0,1,2.4,0V79.56a1.2,1.2,0,0,1-2.4,0Z"/><g class="cls-7"><rect class="cls-1" x="64.44" y="29.96" width="12.07" height="55.64"/></g><path class="cls-1" d="M57.29,36a1.2,1.2,0,1,1,2.4,0V79.56a1.2,1.2,0,0,1-2.4,0Z"/><g class="cls-8"><rect class="cls-1" x="52.46" y="29.96" width="12.07" height="55.64"/></g><path class="cls-1" d="M45.31,36a1.2,1.2,0,0,1,2.4,0V79.56a1.2,1.2,0,0,1-2.4,0Z"/><g class="cls-9"><rect class="cls-1" x="40.47" y="29.96" width="12.07" height="55.64"/></g><path class="cls-1" d="M33.32,36a1.2,1.2,0,1,1,2.4,0V79.56a1.2,1.2,0,0,1-2.4,0Z"/><g class="cls-10"><rect class="cls-1" x="28.48" y="29.96" width="12.07" height="55.64"/></g><path class="cls-1" d="M21.33,36a1.2,1.2,0,1,1,2.4,0V79.56a1.2,1.2,0,1,1-2.4,0Z"/><g class="cls-11"><rect class="cls-1" x="16.5" y="29.96" width="12.07" height="55.64"/></g><path class="cls-1" d="M105.59,69.29a1.2,1.2,0,1,1,0,2.4h-95a1.2,1.2,0,0,1,0-2.4Z"/><g class="cls-12"><rect class="cls-1" x="4.51" y="64.46" width="107.11" height="12.07"/></g><path class="cls-1" d="M105.59,60.82a1.2,1.2,0,0,1,0,2.4h-95a1.2,1.2,0,0,1,0-2.4Z"/><g class="cls-13"><rect class="cls-1" x="4.51" y="55.98" width="107.11" height="12.07"/></g><path class="cls-1" d="M105.59,52.34a1.2,1.2,0,1,1,0,2.4h-95a1.2,1.2,0,1,1,0-2.4Z"/><g class="cls-14"><rect class="cls-1" x="4.51" y="47.51" width="107.11" height="12.07"/></g><path class="cls-1" d="M105.59,43.87a1.2,1.2,0,0,1,0,2.4h-95a1.2,1.2,0,1,1,0-2.4Z"/><g class="cls-15"><rect class="cls-1" x="4.51" y="39.03" width="107.11" height="12.07"/></g><path class="cls-1" d="M104.39,37.2H10.55a1.2,1.2,0,1,1,0-2.4h95a1.2,1.2,0,0,1,1.2,1.2V79.56a1.2,1.2,0,0,1-1.2,1.2h-95a1.2,1.2,0,1,1,0-2.4h93.84Z"/><g class="cls-16"><rect class="cls-1" x="4.51" y="29.96" width="107.11" height="55.64"/></g><path class="cls-1" d="M10.55,92.67a1.2,1.2,0,1,1,0-2.4h36a1.2,1.2,0,0,1,1.2,1.2V120.2a1.2,1.2,0,0,1-1.2,1.2h-36a1.2,1.2,0,1,1,0-2.4H45.31V92.67Z"/><g class="cls-17"><rect class="cls-1" x="4.51" y="85.44" width="48.03" height="40.8"/></g><path class="cls-1" d="M68.4,207.25a22.26,22.26,0,1,1-25.32-18.7A22.26,22.26,0,0,1,68.4,207.25Zm-2.37.36a19.86,19.86,0,1,0-16.69,22.6A19.87,19.87,0,0,0,66,207.61Z"/><g class="cls-18"><rect class="cls-1" x="19.29" y="183.46" width="54.2" height="54.2"/></g><path class="cls-1" d="M67.28,205.49a1.2,1.2,0,1,1-.36-2.37l14-2.1a4.53,4.53,0,0,1,1.35,9l-14,2.1a1.2,1.2,0,1,1-.36-2.38l14-2.1a2.13,2.13,0,1,0-.63-4.21Z"/><g class="cls-19"><rect class="cls-1" x="61.06" y="196.13" width="29.86" height="20.79"/></g><path class="cls-1" d="M75.36,216.2a1.2,1.2,0,0,1,2.37-.36l1.57,10.41a9.8,9.8,0,0,1-8.24,11.15L30.7,243.47a9.8,9.8,0,0,1-11.15-8.23l-6.07-40.36a9.8,9.8,0,0,1,8.23-11.15l40.36-6.08a9.82,9.82,0,0,1,11.16,8.24L74.9,197a1.2,1.2,0,1,1-2.37.36l-1.68-11.13A7.4,7.4,0,0,0,62.43,180L22.07,186.1a7.41,7.41,0,0,0-6.22,8.42l6.07,40.36a7.4,7.4,0,0,0,8.43,6.22L70.7,235a7.42,7.42,0,0,0,6.23-8.43Z"/><g class="cls-20"><rect class="cls-1" x="8.53" y="172.71" width="75.72" height="75.71"/></g><path class="cls-1" d="M136.65,185.56a10.74,10.74,0,1,1-10.74-10.74A10.74,10.74,0,0,1,136.65,185.56Zm-2.4,0a8.34,8.34,0,1,0-8.34,8.34A8.33,8.33,0,0,0,134.25,185.56Z"/><g class="cls-21"><rect class="cls-1" x="110.33" y="169.98" width="31.15" height="31.15"/></g><path class="cls-1" d="M343.82,192.28l-30-9.26a10.66,10.66,0,0,1-7-13.33L329,98.07a10.66,10.66,0,0,1,13.33-7l30,9.26a10.65,10.65,0,0,1,7,13.33l-22.13,71.62A10.67,10.67,0,0,1,343.82,192.28Zm.85-2.78a7.76,7.76,0,0,0,9.7-5.12l22.13-71.62a7.76,7.76,0,0,0-5.12-9.7l-29.95-9.25a7.75,7.75,0,0,0-9.7,5.12L309.6,170.54a7.75,7.75,0,0,0,5.12,9.7Z"/><g class="cls-22"><rect class="cls-1" x="297.72" y="84.51" width="90.65" height="114.3" transform="translate(-11.59 32.21) rotate(-5.29)"/></g><path class="cls-1" d="M331.15,182.66a4.95,4.95,0,1,1,6.19-3.26A4.94,4.94,0,0,1,331.15,182.66Zm2.23-7.2a2.6,2.6,0,1,0,1.71,3.24A2.59,2.59,0,0,0,333.38,175.46Z"/><g class="cls-23"><rect class="cls-1" x="322.94" y="168.26" width="19.35" height="19.35" transform="translate(-14.98 31.4) rotate(-5.29)"/></g><path class="cls-1" d="M349.4,105.05a1.45,1.45,0,0,1,.85-2.78l9.07,2.8a1.45,1.45,0,0,1-.86,2.78Z"/><g class="cls-24"><rect class="cls-1" x="342.66" y="95.94" width="23.39" height="18.25" transform="translate(-8.17 33.09) rotate(-5.29)"/></g><path class="cls-1" d="M311.47,162.82a1.4,1.4,0,0,1,.83-2.67L358,174.27a1.4,1.4,0,1,1-.83,2.67Z"/><g class="cls-25"><rect class="cls-1" x="305.61" y="152.38" width="58.27" height="32.33" transform="translate(-14.1 31.56) rotate(-5.29)"/></g><path class="cls-1" d="M327.61,107.34a1.45,1.45,0,0,1,.86-2.78L376,119.25a1.47,1.47,0,0,1,1,1.82,1.45,1.45,0,0,1-1.82,1Z"/><g class="cls-26"><rect class="cls-1" x="321.5" y="96.48" width="60.62" height="33.63" transform="translate(-8.94 32.9) rotate(-5.29)"/></g><path class="cls-1" d="M434.41,103.28a1.21,1.21,0,0,1,.47,2.37l-29.2,5.79A11.36,11.36,0,0,1,393.11,105a11.55,11.55,0,0,1-.78-2.46l-5.91-29.74-5.95-30-.15-.77a11.36,11.36,0,0,1,8.93-13.35l40.9-8.12a11.23,11.23,0,0,1,4.51,0,1.2,1.2,0,1,1-.49,2.35,9,9,0,0,0-3.55,0l-40.9,8.12a9,9,0,0,0-7,10.52l.16.77,6,30,5.9,29.74a8.78,8.78,0,0,0,.62,1.94,8.94,8.94,0,0,0,9.9,5.09Z"/><g class="cls-27"><rect class="cls-1" x="375.25" y="15.49" width="65.46" height="101.03"/></g><path class="cls-1" d="M380,50a1.2,1.2,0,1,1-.47-2.36l6-1.2a1.21,1.21,0,1,1,.47,2.37Z"/><g class="cls-28"><rect class="cls-1" x="373.69" y="41.52" width="18.16" height="13.32"/></g><path class="cls-1" d="M382,60.28a1.2,1.2,0,1,1-.47-2.36l6-1.2a1.21,1.21,0,0,1,.47,2.37Z"/><g class="cls-29"><rect class="cls-1" x="375.74" y="51.84" width="18.16" height="13.32"/></g><path class="cls-1" d="M384.08,70.6a1.2,1.2,0,0,1-.47-2.36l6-1.2a1.21,1.21,0,0,1,.47,2.37Z"/><g class="cls-30"><rect class="cls-1" x="377.79" y="62.16" width="18.16" height="13.32"/></g><path class="cls-1" d="M386.13,80.92a1.2,1.2,0,0,1-.47-2.36l6-1.2a1.2,1.2,0,0,1,.47,2.36Z"/><g class="cls-31"><rect class="cls-1" x="379.84" y="72.48" width="18.16" height="13.32"/></g><path class="cls-1" d="M388.18,91.24a1.2,1.2,0,1,1-.47-2.36l6-1.2a1.2,1.2,0,1,1,.46,2.36Z"/><g class="cls-32"><rect class="cls-1" x="381.88" y="82.8" width="18.16" height="13.32"/></g><path class="cls-1" d="M390.23,101.56a1.2,1.2,0,1,1-.47-2.36l6-1.2a1.2,1.2,0,1,1,.47,2.36Z"/><g class="cls-33"><rect class="cls-1" x="383.93" y="93.12" width="18.16" height="13.32"/></g><path class="cls-1" d="M408.26,65.58a1.21,1.21,0,0,1-.47-2.37l15.4-3.05a1.2,1.2,0,0,1,.47,2.36Z"/><g class="cls-34"><rect class="cls-1" x="401.96" y="55.28" width="27.53" height="15.18"/></g><path class="cls-1" d="M404.86,73.4a1.2,1.2,0,1,1-.47-2.36l24.93-5a1.21,1.21,0,0,1,.47,2.37Z"/><g class="cls-35"><rect class="cls-1" x="398.56" y="61.21" width="37.05" height="17.07"/></g><rect class="cls-36" x="339.93" y="183.3" width="91.33" height="11.13" transform="translate(10.78 398.32) rotate(-55.29)"/><polygon class="cls-36" points="364.17 229.58 351.98 236.89 355.02 223.24 364.17 229.58"/><polyline class="cls-36" points="416.41 154.82 423.67 159.84 404.95 186.87"/><rect class="cls-36" x="409.2" y="141.19" width="11.13" height="11.13" transform="translate(157.35 -210.05) rotate(34.71)"/></g><g id="Fill"><path class="cls-37" d="M285.54,51.05c4.49,4.66,3,122.87,2.66,139.17s-16.63,22.28-16.63,22.28-86.13,1.5-92.94-.83-11.62-8.59-10.13-5.49A22.41,22.41,0,0,0,188.59,219h83.68c12.36,0,22.42-10.37,22.42-23.12V66.21a23.15,23.15,0,0,0-14.28-21.54C284.54,47.89,285.54,51.05,285.54,51.05Z"/><polygon class="cls-37" points="196.03 61.19 228.17 175.59 174.97 175.59 174.97 61.19 196.03 61.19"/></g><g id="Outlines"><path class="cls-38" d="M183.92,137.18h83a1.38,1.38,0,0,0,0-2.76h-83a1.38,1.38,0,1,0,0,2.76Z"/><path class="cls-38" d="M183.92,149.53h72.71a1.39,1.39,0,1,0,0-2.77H183.92a1.39,1.39,0,1,0,0,2.77Z"/><path class="cls-38" d="M183.92,124.84h72.71a1.39,1.39,0,1,0,0-2.77H183.92a1.39,1.39,0,1,0,0,2.77Z"/><path class="cls-38" d="M183.92,161.87h79.43a1.38,1.38,0,0,0,0-2.76H183.92a1.38,1.38,0,1,0,0,2.76Z"/><path class="cls-38" d="M210.59,111.28a1.38,1.38,0,0,0,1.38-1.39,14.6,14.6,0,0,1,29.2,0,1.39,1.39,0,1,0,2.77,0,17.37,17.37,0,1,0-34.74,0A1.39,1.39,0,0,0,210.59,111.28Z"/><path class="cls-38" d="M226.32,89a8.59,8.59,0,1,0-8.59-8.58A8.59,8.59,0,0,0,226.32,89Zm0-14.41a5.83,5.83,0,1,1-5.82,5.83A5.83,5.83,0,0,1,226.32,74.61Z"/><path class="cls-38" d="M194,103.28a1.38,1.38,0,0,0,1.38-1.38,10.25,10.25,0,0,1,15.72-8.66,1.38,1.38,0,1,0,1.48-2.33,13,13,0,0,0-20,11A1.38,1.38,0,0,0,194,103.28Z"/><path class="cls-38" d="M205.45,86.17a6.63,6.63,0,1,0-6.62-6.62A6.63,6.63,0,0,0,205.45,86.17Zm0-10.48a3.86,3.86,0,1,1-3.85,3.86A3.86,3.86,0,0,1,205.45,75.69Z"/><path class="cls-38" d="M241.52,93.24a10.25,10.25,0,0,1,15.72,8.66,1.39,1.39,0,0,0,2.77,0,13,13,0,0,0-20-11,1.38,1.38,0,1,0,1.48,2.33Z"/><path class="cls-38" d="M247.19,86.17a6.63,6.63,0,1,0-6.63-6.62A6.63,6.63,0,0,0,247.19,86.17Zm0-10.48a3.86,3.86,0,1,1-3.86,3.86A3.86,3.86,0,0,1,247.19,75.69Z"/><path class="cls-38" d="M276,178H174.87a1.5,1.5,0,0,1-1.5-1.5V61.21a1.5,1.5,0,0,1,1.5-1.5H276a1.5,1.5,0,0,1,1.5,1.5V176.49A1.5,1.5,0,0,1,276,178Zm-99.61-3h98.11V62.71H176.37Z"/><path class="cls-38" d="M267.27,214H183.59c-12.37,0-22.43-10.37-22.43-23.12V61.21c0-12.75,10.06-23.11,22.43-23.11h83.68c12.36,0,22.42,10.36,22.42,23.11V190.9C289.69,203.65,279.63,214,267.27,214ZM183.59,41.1c-10.71,0-19.43,9-19.43,20.11V190.9c0,11.09,8.72,20.12,19.43,20.12h83.68c10.71,0,19.42-9,19.42-20.12V61.21c0-11.09-8.71-20.11-19.42-20.11Zm52.3,158.51H215a5.11,5.11,0,0,1,0-10.21h20.92a5.11,5.11,0,0,1,0,10.21ZM215,192.4a2.11,2.11,0,0,0,0,4.21h20.92a2.11,2.11,0,0,0,0-4.21ZM276,178H174.87a1.5,1.5,0,0,1-1.5-1.5V61.21a1.5,1.5,0,0,1,1.5-1.5H276a1.5,1.5,0,0,1,1.5,1.5V176.49A1.5,1.5,0,0,1,276,178Zm-99.61-3h98.11V62.71H176.37Z"/></g></svg> 