<svg xmlns="http://www.w3.org/2000/svg" xmlns:xlink="http://www.w3.org/1999/xlink" viewBox="0 0 440 252"><defs><style>.cls-1{fill:#c1b8ed;}.cls-2{clip-path:url(#clip-path);}.cls-3{clip-path:url(#clip-path-2);}.cls-4{clip-path:url(#clip-path-3);}.cls-5{clip-path:url(#clip-path-4);}.cls-6{clip-path:url(#clip-path-5);}.cls-7{clip-path:url(#clip-path-6);}.cls-8{clip-path:url(#clip-path-7);}.cls-9{clip-path:url(#clip-path-8);}.cls-10{clip-path:url(#clip-path-9);}.cls-11{clip-path:url(#clip-path-10);}.cls-12{clip-path:url(#clip-path-11);}.cls-13{clip-path:url(#clip-path-12);}.cls-14{clip-path:url(#clip-path-13);}.cls-15{clip-path:url(#clip-path-14);}.cls-16{clip-path:url(#clip-path-15);}.cls-17{clip-path:url(#clip-path-16);}.cls-18{clip-path:url(#clip-path-17);}.cls-19{clip-path:url(#clip-path-18);}.cls-20{clip-path:url(#clip-path-19);}.cls-21{clip-path:url(#clip-path-20);}.cls-22{clip-path:url(#clip-path-21);}.cls-23{clip-path:url(#clip-path-22);}.cls-24{clip-path:url(#clip-path-23);}.cls-25{clip-path:url(#clip-path-24);}.cls-26{clip-path:url(#clip-path-25);}.cls-27{clip-path:url(#clip-path-26);}.cls-28{clip-path:url(#clip-path-27);}.cls-29{clip-path:url(#clip-path-28);}.cls-30{clip-path:url(#clip-path-29);}.cls-31{clip-path:url(#clip-path-30);}.cls-32{clip-path:url(#clip-path-31);}.cls-33{clip-path:url(#clip-path-32);}.cls-34{clip-path:url(#clip-path-33);}.cls-35{clip-path:url(#clip-path-34);}.cls-36{clip-path:url(#clip-path-35);}.cls-37{fill:#745fd7;}.cls-38{fill:#231f20;}</style><clipPath id="clip-path"><path class="cls-1" d="M349.14,59.92h77.17a1.12,1.12,0,0,0,0-2.23h-78.2a1.08,1.08,0,0,0-1,1.12V123a1.07,1.07,0,0,0,1,1.11h78.05a1.12,1.12,0,0,0,0-2.23h-77Z"/></clipPath><clipPath id="clip-path-2"><path class="cls-1" d="M342.93,53.19h83.23a1.12,1.12,0,0,0,0-2.23H341.9a1.07,1.07,0,0,0-1,1.12v77.66a1.07,1.07,0,0,0,1,1.11h84.26a1.12,1.12,0,0,0,0-2.23H342.93Z"/></clipPath><clipPath id="clip-path-3"><path class="cls-1" d="M362.16,76.38h64a1.12,1.12,0,0,0,0-2.23h-65a1.07,1.07,0,0,0-1,1.11v31.29a1.08,1.08,0,0,0,1,1.12h65a1.12,1.12,0,0,0,0-2.23h-64Z"/></clipPath><clipPath id="clip-path-4"><path class="cls-1" d="M367.71,46.32a1.09,1.09,0,0,0-.06,1.58,1.19,1.19,0,0,0,1.64.06L391.1,28.61a1.09,1.09,0,0,0,.06-1.58,1.18,1.18,0,0,0-1.63-.06Z"/></clipPath><clipPath id="clip-path-5"><path class="cls-1" d="M411.34,48A1.18,1.18,0,0,0,413,47.9a1.09,1.09,0,0,0-.06-1.58L391.1,27a1.19,1.19,0,0,0-1.64.06,1.09,1.09,0,0,0,.07,1.58Z"/></clipPath><clipPath id="clip-path-6"><path class="cls-1" d="M23.29,31.6H16.63a1.54,1.54,0,0,0-1.52,1.56v49.9a1.54,1.54,0,0,0,1.52,1.56h6.66a1.54,1.54,0,0,0,1.52-1.56V33.16A1.54,1.54,0,0,0,23.29,31.6Zm0-2.22A3.72,3.72,0,0,1,27,33.16v49.9a3.72,3.72,0,0,1-3.67,3.78H16.63A3.72,3.72,0,0,1,13,83.06V33.16a3.72,3.72,0,0,1,3.67-3.78Z"/></clipPath><clipPath id="clip-path-7"><path class="cls-1" d="M17.79,56.68a1.11,1.11,0,0,1,0-2.22h4.34a1.11,1.11,0,0,1,0,2.22Z"/></clipPath><clipPath id="clip-path-8"><path class="cls-1" d="M17.79,61.67a1.11,1.11,0,0,1,0-2.21h4.34a1.11,1.11,0,0,1,0,2.21Z"/></clipPath><clipPath id="clip-path-9"><path class="cls-1" d="M41.1,31.6H34.45a1.54,1.54,0,0,0-1.53,1.56v49.9a1.54,1.54,0,0,0,1.53,1.56H41.1a1.55,1.55,0,0,0,1.53-1.56V33.16A1.55,1.55,0,0,0,41.1,31.6Zm0-2.22a3.73,3.73,0,0,1,3.68,3.78v49.9a3.73,3.73,0,0,1-3.68,3.78H34.45a3.73,3.73,0,0,1-3.68-3.78V33.16a3.73,3.73,0,0,1,3.68-3.78Z"/></clipPath><clipPath id="clip-path-10"><path class="cls-1" d="M35.61,56.68a1.11,1.11,0,0,1,0-2.22h4.33a1.11,1.11,0,0,1,0,2.22Z"/></clipPath><clipPath id="clip-path-11"><path class="cls-1" d="M35.61,61.67a1.11,1.11,0,0,1,0-2.21h4.33a1.11,1.11,0,0,1,0,2.21Z"/></clipPath><clipPath id="clip-path-12"><path class="cls-1" d="M75.83,31.6H69.17a1.54,1.54,0,0,0-1.52,1.56v49.9a1.54,1.54,0,0,0,1.52,1.56h6.66a1.54,1.54,0,0,0,1.52-1.56V33.16A1.54,1.54,0,0,0,75.83,31.6Zm0-2.22a3.72,3.72,0,0,1,3.67,3.78v49.9a3.72,3.72,0,0,1-3.67,3.78H69.17a3.72,3.72,0,0,1-3.67-3.78V33.16a3.72,3.72,0,0,1,3.67-3.78Z"/></clipPath><clipPath id="clip-path-13"><path class="cls-1" d="M70.33,56.68a1.11,1.11,0,0,1,0-2.22h4.34a1.11,1.11,0,0,1,0,2.22Z"/></clipPath><clipPath id="clip-path-14"><path class="cls-1" d="M70.33,61.67a1.11,1.11,0,0,1,0-2.21h4.34a1.11,1.11,0,0,1,0,2.21Z"/></clipPath><clipPath id="clip-path-15"><path class="cls-1" d="M93.64,31.6H87a1.55,1.55,0,0,0-1.53,1.56v49.9A1.55,1.55,0,0,0,87,84.62h6.65a1.54,1.54,0,0,0,1.53-1.56V33.16A1.54,1.54,0,0,0,93.64,31.6Zm0-2.22a3.73,3.73,0,0,1,3.68,3.78v49.9a3.73,3.73,0,0,1-3.68,3.78H87a3.73,3.73,0,0,1-3.68-3.78V33.16A3.73,3.73,0,0,1,87,29.38Z"/></clipPath><clipPath id="clip-path-16"><path class="cls-1" d="M88.15,56.68a1.11,1.11,0,0,1,0-2.22h4.33a1.11,1.11,0,0,1,0,2.22Z"/></clipPath><clipPath id="clip-path-17"><path class="cls-1" d="M88.15,61.67a1.11,1.11,0,0,1,0-2.21h4.33a1.11,1.11,0,0,1,0,2.21Z"/></clipPath><clipPath id="clip-path-18"><path class="cls-1" d="M112.41,31.6h-6.66a1.54,1.54,0,0,0-1.52,1.56v49.9a1.54,1.54,0,0,0,1.52,1.56h6.66a1.54,1.54,0,0,0,1.52-1.56V33.16A1.54,1.54,0,0,0,112.41,31.6Zm0-2.22a3.72,3.72,0,0,1,3.67,3.78v49.9a3.72,3.72,0,0,1-3.67,3.78h-6.66a3.72,3.72,0,0,1-3.67-3.78V33.16a3.72,3.72,0,0,1,3.67-3.78Z"/></clipPath><clipPath id="clip-path-19"><path class="cls-1" d="M106.91,56.68a1.11,1.11,0,0,1,0-2.22h4.34a1.11,1.11,0,0,1,0,2.22Z"/></clipPath><clipPath id="clip-path-20"><path class="cls-1" d="M106.91,61.67a1.11,1.11,0,0,1,0-2.21h4.34a1.11,1.11,0,0,1,0,2.21Z"/></clipPath><clipPath id="clip-path-21"><path class="cls-1" d="M23.29,117.72H16.63a1.54,1.54,0,0,0-1.52,1.57v49.89a1.54,1.54,0,0,0,1.52,1.57h6.66a1.54,1.54,0,0,0,1.52-1.57V119.29A1.54,1.54,0,0,0,23.29,117.72Zm0-2.21A3.72,3.72,0,0,1,27,119.29v49.89A3.72,3.72,0,0,1,23.29,173H16.63A3.72,3.72,0,0,1,13,169.18V119.29a3.72,3.72,0,0,1,3.67-3.78Z"/></clipPath><clipPath id="clip-path-22"><path class="cls-1" d="M17.79,142.81a1.11,1.11,0,0,1,0-2.22h4.34a1.11,1.11,0,0,1,0,2.22Z"/></clipPath><clipPath id="clip-path-23"><path class="cls-1" d="M17.79,147.8a1.11,1.11,0,0,1,0-2.22h4.34a1.11,1.11,0,0,1,0,2.22Z"/></clipPath><clipPath id="clip-path-24"><path class="cls-1" d="M41.1,117.72H34.45a1.55,1.55,0,0,0-1.53,1.57v49.89a1.55,1.55,0,0,0,1.53,1.57H41.1a1.55,1.55,0,0,0,1.53-1.57V119.29A1.55,1.55,0,0,0,41.1,117.72Zm0-2.21a3.73,3.73,0,0,1,3.68,3.78v49.89A3.73,3.73,0,0,1,41.1,173H34.45a3.73,3.73,0,0,1-3.68-3.78V119.29a3.73,3.73,0,0,1,3.68-3.78Z"/></clipPath><clipPath id="clip-path-25"><path class="cls-1" d="M35.61,142.81a1.11,1.11,0,0,1,0-2.22h4.33a1.11,1.11,0,0,1,0,2.22Z"/></clipPath><clipPath id="clip-path-26"><path class="cls-1" d="M35.61,147.8a1.11,1.11,0,0,1,0-2.22h4.33a1.11,1.11,0,0,1,0,2.22Z"/></clipPath><clipPath id="clip-path-27"><path class="cls-1" d="M75.83,117.72H69.17a1.54,1.54,0,0,0-1.52,1.57v49.89a1.54,1.54,0,0,0,1.52,1.57h6.66a1.54,1.54,0,0,0,1.52-1.57V119.29A1.54,1.54,0,0,0,75.83,117.72Zm0-2.21a3.72,3.72,0,0,1,3.67,3.78v49.89A3.72,3.72,0,0,1,75.83,173H69.17a3.72,3.72,0,0,1-3.67-3.78V119.29a3.72,3.72,0,0,1,3.67-3.78Z"/></clipPath><clipPath id="clip-path-28"><path class="cls-1" d="M70.33,142.81a1.11,1.11,0,0,1,0-2.22h4.34a1.11,1.11,0,0,1,0,2.22Z"/></clipPath><clipPath id="clip-path-29"><path class="cls-1" d="M70.33,147.8a1.11,1.11,0,0,1,0-2.22h4.34a1.11,1.11,0,0,1,0,2.22Z"/></clipPath><clipPath id="clip-path-30"><path class="cls-1" d="M93.64,117.72H87a1.55,1.55,0,0,0-1.53,1.57v49.89A1.55,1.55,0,0,0,87,170.75h6.65a1.55,1.55,0,0,0,1.53-1.57V119.29A1.55,1.55,0,0,0,93.64,117.72Zm0-2.21a3.73,3.73,0,0,1,3.68,3.78v49.89A3.73,3.73,0,0,1,93.64,173H87a3.73,3.73,0,0,1-3.68-3.78V119.29A3.73,3.73,0,0,1,87,115.51Z"/></clipPath><clipPath id="clip-path-31"><path class="cls-1" d="M88.15,142.81a1.11,1.11,0,0,1,0-2.22h4.33a1.11,1.11,0,0,1,0,2.22Z"/></clipPath><clipPath id="clip-path-32"><path class="cls-1" d="M88.15,147.8a1.11,1.11,0,0,1,0-2.22h4.33a1.11,1.11,0,0,1,0,2.22Z"/></clipPath><clipPath id="clip-path-33"><path class="cls-1" d="M112.41,117.72h-6.66a1.54,1.54,0,0,0-1.52,1.57v49.89a1.54,1.54,0,0,0,1.52,1.57h6.66a1.54,1.54,0,0,0,1.52-1.57V119.29A1.54,1.54,0,0,0,112.41,117.72Zm0-2.21a3.72,3.72,0,0,1,3.67,3.78v49.89a3.72,3.72,0,0,1-3.67,3.78h-6.66a3.72,3.72,0,0,1-3.67-3.78V119.29a3.72,3.72,0,0,1,3.67-3.78Z"/></clipPath><clipPath id="clip-path-34"><path class="cls-1" d="M106.91,142.81a1.11,1.11,0,0,1,0-2.22h4.34a1.11,1.11,0,0,1,0,2.22Z"/></clipPath><clipPath id="clip-path-35"><path class="cls-1" d="M106.91,147.8a1.11,1.11,0,0,1,0-2.22h4.34a1.11,1.11,0,0,1,0,2.22Z"/></clipPath></defs><g id="Background"><path class="cls-1" d="M349.14,59.92h77.17a1.12,1.12,0,0,0,0-2.23h-78.2a1.08,1.08,0,0,0-1,1.12V123a1.07,1.07,0,0,0,1,1.11h78.05a1.12,1.12,0,0,0,0-2.23h-77Z"/><g class="cls-2"><rect class="cls-1" x="342.94" y="53.2" width="88.55" height="75.42"/></g><path class="cls-1" d="M342.93,53.19h83.23a1.12,1.12,0,0,0,0-2.23H341.9a1.07,1.07,0,0,0-1,1.12v77.66a1.07,1.07,0,0,0,1,1.11h84.26a1.12,1.12,0,0,0,0-2.23H342.93Z"/><g class="cls-3"><rect class="cls-1" x="336.73" y="46.47" width="94.6" height="88.88"/></g><path class="cls-1" d="M362.16,76.38h64a1.12,1.12,0,0,0,0-2.23h-65a1.07,1.07,0,0,0-1,1.11v31.29a1.08,1.08,0,0,0,1,1.12h65a1.12,1.12,0,0,0,0-2.23h-64Z"/><g class="cls-4"><rect class="cls-1" x="355.96" y="69.65" width="75.38" height="42.51"/></g><path class="cls-1" d="M367.71,46.32a1.09,1.09,0,0,0-.06,1.58,1.19,1.19,0,0,0,1.64.06L391.1,28.61a1.09,1.09,0,0,0,.06-1.58,1.18,1.18,0,0,0-1.63-.06Z"/><g class="cls-5"><rect class="cls-1" x="362.67" y="22.18" width="33.48" height="30.57"/></g><path class="cls-1" d="M411.34,48A1.18,1.18,0,0,0,413,47.9a1.09,1.09,0,0,0-.06-1.58L391.1,27a1.19,1.19,0,0,0-1.64.06,1.09,1.09,0,0,0,.07,1.58Z"/><g class="cls-6"><rect class="cls-1" x="384.48" y="22.18" width="33.48" height="30.57"/></g><path class="cls-1" d="M23.29,31.6H16.63a1.54,1.54,0,0,0-1.52,1.56v49.9a1.54,1.54,0,0,0,1.52,1.56h6.66a1.54,1.54,0,0,0,1.52-1.56V33.16A1.54,1.54,0,0,0,23.29,31.6Zm0-2.22A3.72,3.72,0,0,1,27,33.16v49.9a3.72,3.72,0,0,1-3.67,3.78H16.63A3.72,3.72,0,0,1,13,83.06V33.16a3.72,3.72,0,0,1,3.67-3.78Z"/><g class="cls-7"><rect class="cls-1" x="8.62" y="24.92" width="22.68" height="66.39"/></g><path class="cls-1" d="M17.79,56.68a1.11,1.11,0,0,1,0-2.22h4.34a1.11,1.11,0,0,1,0,2.22Z"/><g class="cls-8"><rect class="cls-1" x="12.38" y="50" width="15.16" height="11.15"/></g><path class="cls-1" d="M17.79,61.67a1.11,1.11,0,0,1,0-2.21h4.34a1.11,1.11,0,0,1,0,2.21Z"/><g class="cls-9"><rect class="cls-1" x="12.38" y="54.99" width="15.16" height="11.15"/></g><path class="cls-1" d="M41.1,31.6H34.45a1.54,1.54,0,0,0-1.53,1.56v49.9a1.54,1.54,0,0,0,1.53,1.56H41.1a1.55,1.55,0,0,0,1.53-1.56V33.16A1.55,1.55,0,0,0,41.1,31.6Zm0-2.22a3.73,3.73,0,0,1,3.68,3.78v49.9a3.73,3.73,0,0,1-3.68,3.78H34.45a3.73,3.73,0,0,1-3.68-3.78V33.16a3.73,3.73,0,0,1,3.68-3.78Z"/><g class="cls-10"><rect class="cls-1" x="26.44" y="24.92" width="22.68" height="66.39"/></g><path class="cls-1" d="M35.61,56.68a1.11,1.11,0,0,1,0-2.22h4.33a1.11,1.11,0,0,1,0,2.22Z"/><g class="cls-11"><rect class="cls-1" x="30.19" y="50" width="15.16" height="11.15"/></g><path class="cls-1" d="M35.61,61.67a1.11,1.11,0,0,1,0-2.21h4.33a1.11,1.11,0,0,1,0,2.21Z"/><g class="cls-12"><rect class="cls-1" x="30.19" y="54.99" width="15.16" height="11.15"/></g><path class="cls-1" d="M75.83,31.6H69.17a1.54,1.54,0,0,0-1.52,1.56v49.9a1.54,1.54,0,0,0,1.52,1.56h6.66a1.54,1.54,0,0,0,1.52-1.56V33.16A1.54,1.54,0,0,0,75.83,31.6Zm0-2.22a3.72,3.72,0,0,1,3.67,3.78v49.9a3.72,3.72,0,0,1-3.67,3.78H69.17a3.72,3.72,0,0,1-3.67-3.78V33.16a3.72,3.72,0,0,1,3.67-3.78Z"/><g class="cls-13"><rect class="cls-1" x="61.16" y="24.92" width="22.68" height="66.39"/></g><path class="cls-1" d="M70.33,56.68a1.11,1.11,0,0,1,0-2.22h4.34a1.11,1.11,0,0,1,0,2.22Z"/><g class="cls-14"><rect class="cls-1" x="64.92" y="50" width="15.16" height="11.15"/></g><path class="cls-1" d="M70.33,61.67a1.11,1.11,0,0,1,0-2.21h4.34a1.11,1.11,0,0,1,0,2.21Z"/><g class="cls-15"><rect class="cls-1" x="64.92" y="54.99" width="15.16" height="11.15"/></g><path class="cls-1" d="M93.64,31.6H87a1.55,1.55,0,0,0-1.53,1.56v49.9A1.55,1.55,0,0,0,87,84.62h6.65a1.54,1.54,0,0,0,1.53-1.56V33.16A1.54,1.54,0,0,0,93.64,31.6Zm0-2.22a3.73,3.73,0,0,1,3.68,3.78v49.9a3.73,3.73,0,0,1-3.68,3.78H87a3.73,3.73,0,0,1-3.68-3.78V33.16A3.73,3.73,0,0,1,87,29.38Z"/><g class="cls-16"><rect class="cls-1" x="78.98" y="24.92" width="22.68" height="66.39"/></g><path class="cls-1" d="M88.15,56.68a1.11,1.11,0,0,1,0-2.22h4.33a1.11,1.11,0,0,1,0,2.22Z"/><g class="cls-17"><rect class="cls-1" x="82.74" y="50" width="15.16" height="11.15"/></g><path class="cls-1" d="M88.15,61.67a1.11,1.11,0,0,1,0-2.21h4.33a1.11,1.11,0,0,1,0,2.21Z"/><g class="cls-18"><rect class="cls-1" x="82.74" y="54.99" width="15.16" height="11.15"/></g><path class="cls-1" d="M112.41,31.6h-6.66a1.54,1.54,0,0,0-1.52,1.56v49.9a1.54,1.54,0,0,0,1.52,1.56h6.66a1.54,1.54,0,0,0,1.52-1.56V33.16A1.54,1.54,0,0,0,112.41,31.6Zm0-2.22a3.72,3.72,0,0,1,3.67,3.78v49.9a3.72,3.72,0,0,1-3.67,3.78h-6.66a3.72,3.72,0,0,1-3.67-3.78V33.16a3.72,3.72,0,0,1,3.67-3.78Z"/><g class="cls-19"><rect class="cls-1" x="97.74" y="24.92" width="22.68" height="66.39"/></g><path class="cls-1" d="M106.91,56.68a1.11,1.11,0,0,1,0-2.22h4.34a1.11,1.11,0,0,1,0,2.22Z"/><g class="cls-20"><rect class="cls-1" x="101.5" y="50" width="15.16" height="11.15"/></g><path class="cls-1" d="M106.91,61.67a1.11,1.11,0,0,1,0-2.21h4.34a1.11,1.11,0,0,1,0,2.21Z"/><g class="cls-21"><rect class="cls-1" x="101.5" y="54.99" width="15.16" height="11.15"/></g><path class="cls-1" d="M23.29,117.72H16.63a1.54,1.54,0,0,0-1.52,1.57v49.89a1.54,1.54,0,0,0,1.52,1.57h6.66a1.54,1.54,0,0,0,1.52-1.57V119.29A1.54,1.54,0,0,0,23.29,117.72Zm0-2.21A3.72,3.72,0,0,1,27,119.29v49.89A3.72,3.72,0,0,1,23.29,173H16.63A3.72,3.72,0,0,1,13,169.18V119.29a3.72,3.72,0,0,1,3.67-3.78Z"/><g class="cls-22"><rect class="cls-1" x="8.62" y="111.04" width="22.68" height="66.39"/></g><path class="cls-1" d="M17.79,142.81a1.11,1.11,0,0,1,0-2.22h4.34a1.11,1.11,0,0,1,0,2.22Z"/><g class="cls-23"><rect class="cls-1" x="12.38" y="136.12" width="15.16" height="11.15"/></g><path class="cls-1" d="M17.79,147.8a1.11,1.11,0,0,1,0-2.22h4.34a1.11,1.11,0,0,1,0,2.22Z"/><g class="cls-24"><rect class="cls-1" x="12.38" y="141.12" width="15.16" height="11.15"/></g><path class="cls-1" d="M41.1,117.72H34.45a1.55,1.55,0,0,0-1.53,1.57v49.89a1.55,1.55,0,0,0,1.53,1.57H41.1a1.55,1.55,0,0,0,1.53-1.57V119.29A1.55,1.55,0,0,0,41.1,117.72Zm0-2.21a3.73,3.73,0,0,1,3.68,3.78v49.89A3.73,3.73,0,0,1,41.1,173H34.45a3.73,3.73,0,0,1-3.68-3.78V119.29a3.73,3.73,0,0,1,3.68-3.78Z"/><g class="cls-25"><rect class="cls-1" x="26.44" y="111.04" width="22.68" height="66.39"/></g><path class="cls-1" d="M35.61,142.81a1.11,1.11,0,0,1,0-2.22h4.33a1.11,1.11,0,0,1,0,2.22Z"/><g class="cls-26"><rect class="cls-1" x="30.19" y="136.12" width="15.16" height="11.15"/></g><path class="cls-1" d="M35.61,147.8a1.11,1.11,0,0,1,0-2.22h4.33a1.11,1.11,0,0,1,0,2.22Z"/><g class="cls-27"><rect class="cls-1" x="30.19" y="141.12" width="15.16" height="11.15"/></g><path class="cls-1" d="M75.83,117.72H69.17a1.54,1.54,0,0,0-1.52,1.57v49.89a1.54,1.54,0,0,0,1.52,1.57h6.66a1.54,1.54,0,0,0,1.52-1.57V119.29A1.54,1.54,0,0,0,75.83,117.72Zm0-2.21a3.72,3.72,0,0,1,3.67,3.78v49.89A3.72,3.72,0,0,1,75.83,173H69.17a3.72,3.72,0,0,1-3.67-3.78V119.29a3.72,3.72,0,0,1,3.67-3.78Z"/><g class="cls-28"><rect class="cls-1" x="61.16" y="111.04" width="22.68" height="66.39"/></g><path class="cls-1" d="M70.33,142.81a1.11,1.11,0,0,1,0-2.22h4.34a1.11,1.11,0,0,1,0,2.22Z"/><g class="cls-29"><rect class="cls-1" x="64.92" y="136.12" width="15.16" height="11.15"/></g><path class="cls-1" d="M70.33,147.8a1.11,1.11,0,0,1,0-2.22h4.34a1.11,1.11,0,0,1,0,2.22Z"/><g class="cls-30"><rect class="cls-1" x="64.92" y="141.12" width="15.16" height="11.15"/></g><path class="cls-1" d="M93.64,117.72H87a1.55,1.55,0,0,0-1.53,1.57v49.89A1.55,1.55,0,0,0,87,170.75h6.65a1.55,1.55,0,0,0,1.53-1.57V119.29A1.55,1.55,0,0,0,93.64,117.72Zm0-2.21a3.73,3.73,0,0,1,3.68,3.78v49.89A3.73,3.73,0,0,1,93.64,173H87a3.73,3.73,0,0,1-3.68-3.78V119.29A3.73,3.73,0,0,1,87,115.51Z"/><g class="cls-31"><rect class="cls-1" x="78.98" y="111.04" width="22.68" height="66.39"/></g><path class="cls-1" d="M88.15,142.81a1.11,1.11,0,0,1,0-2.22h4.33a1.11,1.11,0,0,1,0,2.22Z"/><g class="cls-32"><rect class="cls-1" x="82.74" y="136.12" width="15.16" height="11.15"/></g><path class="cls-1" d="M88.15,147.8a1.11,1.11,0,0,1,0-2.22h4.33a1.11,1.11,0,0,1,0,2.22Z"/><g class="cls-33"><rect class="cls-1" x="82.74" y="141.12" width="15.16" height="11.15"/></g><path class="cls-1" d="M112.41,117.72h-6.66a1.54,1.54,0,0,0-1.52,1.57v49.89a1.54,1.54,0,0,0,1.52,1.57h6.66a1.54,1.54,0,0,0,1.52-1.57V119.29A1.54,1.54,0,0,0,112.41,117.72Zm0-2.21a3.72,3.72,0,0,1,3.67,3.78v49.89a3.72,3.72,0,0,1-3.67,3.78h-6.66a3.72,3.72,0,0,1-3.67-3.78V119.29a3.72,3.72,0,0,1,3.67-3.78Z"/><g class="cls-34"><rect class="cls-1" x="97.74" y="111.04" width="22.68" height="66.39"/></g><path class="cls-1" d="M106.91,142.81a1.11,1.11,0,0,1,0-2.22h4.34a1.11,1.11,0,0,1,0,2.22Z"/><g class="cls-35"><rect class="cls-1" x="101.5" y="136.12" width="15.16" height="11.15"/></g><path class="cls-1" d="M106.91,147.8a1.11,1.11,0,0,1,0-2.22h4.34a1.11,1.11,0,0,1,0,2.22Z"/><g class="cls-36"><rect class="cls-1" x="101.5" y="141.12" width="15.16" height="11.15"/></g><path class="cls-1" d="M249.43,48a26.72,26.72,0,1,1,45.15,19.33H298a29.19,29.19,0,1,0-43.74,0h3.44A26.63,26.63,0,0,1,249.43,48Z"/><path class="cls-1" d="M243.09,48A33.06,33.06,0,1,1,303,67.29h3a35.54,35.54,0,1,0-59.64,0h3A33,33,0,0,1,243.09,48Z"/><path class="cls-1" d="M293.66,48h-18a1,1,0,0,1-1-1V24.73a1,1,0,0,1,2,0V46h17a1,1,0,0,1,0,2Z"/><path class="cls-1" d="M425.34,232.23h-411a1,1,0,1,1,0-2h411a1,1,0,0,1,0,2Z"/><path class="cls-1" d="M199.88,181H14.32a1,1,0,1,1,0-2H199.88a1,1,0,0,1,0,2Z"/><path class="cls-1" d="M425.34,181H239.45a1,1,0,0,1,0-2H425.34a1,1,0,0,1,0,2Z"/><path class="cls-1" d="M49.57,173.93a1,1,0,0,1-1-1V12.2a1,1,0,1,1,2,0V172.93A1,1,0,0,1,49.57,173.93Z"/><path class="cls-1" d="M60.44,173.93a1,1,0,0,1-1-1V12.2a1,1,0,0,1,2,0V172.93A1,1,0,0,1,60.44,173.93Z"/><path class="cls-1" d="M188.35,70a1,1,0,0,1-1-1V12.2a1,1,0,1,1,2,0V69A1,1,0,0,1,188.35,70Z"/><path class="cls-1" d="M199.22,70a1,1,0,0,1-1-1V12.2a1,1,0,1,1,2,0V69A1,1,0,0,1,199.22,70Z"/><path class="cls-1" d="M188.35,173.93a1,1,0,0,1-1-1V90.46a1,1,0,0,1,2,0v82.47A1,1,0,0,1,188.35,173.93Z"/><path class="cls-1" d="M199.22,173.93a1,1,0,0,1-1-1V90.46a1,1,0,0,1,2,0v82.47A1,1,0,0,1,199.22,173.93Z"/><path class="cls-1" d="M44.92,102.88H14.32a1,1,0,1,1,0-2h30.6a1,1,0,1,1,0,2Z"/><path class="cls-1" d="M44.92,92H14.32a1,1,0,0,1,0-2h30.6a1,1,0,0,1,0,2Z"/><path class="cls-1" d="M139.14,102.88h-74a1,1,0,0,1,0-2h74a1,1,0,0,1,0,2Z"/><path class="cls-1" d="M143.13,92h-78a1,1,0,0,1,0-2h78a1,1,0,0,1,0,2Z"/><path class="cls-1" d="M183.59,102.88H162.41a1,1,0,1,1,0-2h21.18a1,1,0,1,1,0,2Z"/><path class="cls-1" d="M183.59,92H158.65a1,1,0,0,1,0-2h24.94a1,1,0,0,1,0,2Z"/><path class="cls-1" d="M122,68.83V33.16a1.55,1.55,0,0,1,1.53-1.56h6.65a1.55,1.55,0,0,1,1.53,1.56V68.83h2.15V33.16a3.73,3.73,0,0,0-3.68-3.78h-6.65a3.73,3.73,0,0,0-3.68,3.78v49.9a3.8,3.8,0,0,0,1.84,3.26l.45-.07Z"/><path class="cls-1" d="M124.73,56.68h4.33a1.11,1.11,0,0,0,0-2.22h-4.33a1.11,1.11,0,0,0,0,2.22Z"/><path class="cls-1" d="M124.73,61.67h4.33a1.11,1.11,0,0,0,0-2.21h-4.33a1.11,1.11,0,0,0,0,2.21Z"/><path class="cls-1" d="M139.67,68.83V33.16a1.54,1.54,0,0,1,1.52-1.56h6.66a1.54,1.54,0,0,1,1.52,1.56V68.83h2.15V33.16a3.72,3.72,0,0,0-3.67-3.78h-6.66a3.72,3.72,0,0,0-3.67,3.78V68.83Z"/><path class="cls-1" d="M142.35,56.68h4.34a1.11,1.11,0,0,0,0-2.22h-4.34a1.11,1.11,0,0,0,0,2.22Z"/><path class="cls-1" d="M142.35,61.67h4.34a1.11,1.11,0,0,0,0-2.21h-4.34a1.11,1.11,0,0,0,0,2.21Z"/><path class="cls-1" d="M158.37,35.8a1.55,1.55,0,0,1,1-1.95l6.35-2a1.54,1.54,0,0,1,1.92,1l11.42,36h2.26L169.67,32.21A3.73,3.73,0,0,0,165,29.72l-6.35,2a3.73,3.73,0,0,0-2.36,4.71l10.29,32.38h2.25Z"/><path class="cls-1" d="M168.05,57.4l4.13-1.31a1.11,1.11,0,0,0-.67-2.11l-4.13,1.31a1.11,1.11,0,0,0,.67,2.11Z"/><path class="cls-1" d="M169.56,62.16l4.14-1.31a1.11,1.11,0,0,0-.67-2.11l-4.14,1.31a1.1,1.1,0,0,0-.69,1.38A1.09,1.09,0,0,0,169.56,62.16Z"/></g><g id="Fill"><path class="cls-37" d="M136.2,123.49v19.12s2.33,5.82,2.49,6.82,5.49,3.66,5.49,3.66l3,1.83s16.8,2.82,23.78-1c-4.66,4-5.65,4.65-5.65,4.65s-25.44,11.64-38.41-10.64a147.61,147.61,0,0,1,1.33-24.61Z"/><path class="cls-37" d="M272,123.49v19.12s2.33,5.82,2.49,6.82,5.49,3.66,5.49,3.66l3,1.83s16.8,2.82,23.78-1c-4.65,4-5.65,4.65-5.65,4.65s-25.44,11.64-38.41-10.64a147.61,147.61,0,0,1,1.33-24.61Z"/><path class="cls-37" d="M157.54,204s-.67,5.09,3.32,5.54,116,0,116,0,9.33.38,5.1-6.21c-4-6.21-17.07-12.41-17.07-12.41l9.75,9.31,3.33,3.54S276.37,206,275.7,206l-98.21-.44Z"/><path class="cls-37" d="M218.73,65.47v-26s1.1-.22-2.89.22-5.76,6.43-5.76,6.43,0,9.28,0,22.9A14.26,14.26,0,0,1,218.73,65.47Z"/><path class="cls-37" d="M226.93,91.34l-8.2,2.8-8.59-3.54c0,36.69-.24,83.35-1.17,87.21-1.55,6.42-10.86,12.85-10.86,12.85l20.62.23v-90.3a13.45,13.45,0,0,0,8.2-2.37A67.56,67.56,0,0,1,226.93,91.34Z"/></g><g id="Outlines"><path class="cls-38" d="M131.65,85.78a6,6,0,0,1-3.94-1.39,6.47,6.47,0,0,1-2-5.13,6.81,6.81,0,0,1,2-5.2,6.44,6.44,0,0,1,4.49-1.62h66.05a1.5,1.5,0,0,1,0,3H132a3.49,3.49,0,0,0-2.32.83,4,4,0,0,0-1,3,3.66,3.66,0,0,0,1,2.87,3.19,3.19,0,0,0,2.25.63h66.29a1.5,1.5,0,1,1,0,3h-66C132.09,85.76,131.9,85.78,131.65,85.78Z"/><path class="cls-38" d="M165.3,119.23a1.51,1.51,0,0,1-1.32-.79L151.29,95.08l-13.51,23.4a1.5,1.5,0,1,1-2.6-1.5L150,91.26a1.47,1.47,0,0,1,1.32-.75,1.52,1.52,0,0,1,1.3.78l14,25.72a1.49,1.49,0,0,1-.6,2A1.43,1.43,0,0,1,165.3,119.23Z"/><path class="cls-38" d="M151.28,163.34c-14.06,0-25.5-8.35-25.5-18.61,0-.42,0-.84.06-1.25v-20a1.5,1.5,0,0,1,1.5-1.5h48a1.5,1.5,0,0,1,1.5,1.5v20.76a1.54,1.54,0,0,1-.06.43v0C176.78,155,165.34,163.34,151.28,163.34ZM128.84,125v18.56a.66.66,0,0,1,0,.14c0,.35-.05.69-.05,1,0,8.61,10.09,15.61,22.5,15.61s22.5-7,22.5-15.61c0-.09,0-.18,0-.26v-.17a1.42,1.42,0,0,1,.08-.54V125Z"/><path class="cls-38" d="M151.29,156c-9,0-16.34-5.42-16.34-12.09,0-.27,0-.53,0-.8V130.81a1.5,1.5,0,0,1,3,0v12.55a5.63,5.63,0,0,0,0,.58c0,5,6,9.09,13.34,9.09a1.5,1.5,0,0,1,0,3Z"/><path class="cls-38" d="M307.58,85.78a6,6,0,0,0,3.94-1.39,6.47,6.47,0,0,0,2-5.13,6.81,6.81,0,0,0-2-5.2,6.45,6.45,0,0,0-4.49-1.62H241a1.5,1.5,0,0,0,0,3H307.2a3.49,3.49,0,0,1,2.32.83,4,4,0,0,1,1,3,3.7,3.7,0,0,1-1,2.87,3.2,3.2,0,0,1-2.25.63H241a1.5,1.5,0,0,0,0,3h66C307.14,85.76,307.33,85.78,307.58,85.78Z"/><path class="cls-38" d="M301.09,119.23a1.51,1.51,0,0,1-1.32-.79L287.08,95.08l-13.51,23.4A1.5,1.5,0,0,1,271,117l14.85-25.72a1.51,1.51,0,0,1,1.3-.75h0a1.52,1.52,0,0,1,1.3.78l14,25.72a1.5,1.5,0,0,1-.61,2A1.43,1.43,0,0,1,301.09,119.23Z"/><path class="cls-38" d="M287.07,163.34c-14.06,0-25.5-8.35-25.5-18.61,0-.42,0-.84.06-1.25v-20a1.5,1.5,0,0,1,1.5-1.5h48a1.5,1.5,0,0,1,1.5,1.5v20.76a1.54,1.54,0,0,1-.06.43v0C312.57,155,301.13,163.34,287.07,163.34ZM264.63,125v18.56a.66.66,0,0,1,0,.14c0,.35-.05.69-.05,1,0,8.61,10.09,15.61,22.5,15.61s22.5-7,22.5-15.61c0-.09,0-.18,0-.26v-.17a1.42,1.42,0,0,1,.08-.54V125Z"/><path class="cls-38" d="M287.08,156c-9,0-16.34-5.42-16.34-12.09,0-.27,0-.53,0-.8V130.81a1.5,1.5,0,0,1,3,0v12.55a5.63,5.63,0,0,0,0,.58c0,5,6,9.09,13.34,9.09a1.5,1.5,0,0,1,0,3Z"/><path class="cls-38" d="M219.67,95.41a15.5,15.5,0,1,1,15.5-15.5A15.51,15.51,0,0,1,219.67,95.41Zm0-28a12.5,12.5,0,1,0,12.5,12.5A12.51,12.51,0,0,0,219.67,67.41Z"/><path class="cls-38" d="M219.67,88.3a8.39,8.39,0,1,1,0-16.78,1.5,1.5,0,0,1,0,3,5.39,5.39,0,1,0,0,10.78,1.5,1.5,0,0,1,0,3Z"/><path class="cls-38" d="M227.37,62.47a1.5,1.5,0,0,1-1.5-1.5V46a7.78,7.78,0,0,0-7.37-4.82A7,7,0,0,0,211.58,46v14.6a1.5,1.5,0,0,1-3,0V45.74a1.18,1.18,0,0,1,0-.37,10,10,0,0,1,9.87-7.18,10.82,10.82,0,0,1,10.3,7.08,1.49,1.49,0,0,1,.07.47V61A1.5,1.5,0,0,1,227.37,62.47Z"/><path class="cls-38" d="M206.31,185.07a1.5,1.5,0,0,1-.85-2.74c3.25-2.23,3.34-7.48,3.34-8.07V97.55a1.5,1.5,0,0,1,3,0v76.71c0,1.23-.22,7.51-4.64,10.55A1.57,1.57,0,0,1,206.31,185.07Z"/><path class="cls-38" d="M230.92,185.07a1.54,1.54,0,0,1-.84-.26c-4.42-3-4.64-9.32-4.64-10.55V97.55a1.5,1.5,0,0,1,3,0v76.71c0,.59.09,5.84,3.34,8.07a1.5,1.5,0,0,1-.86,2.74Z"/><path class="cls-38" d="M276.69,206.8H159.87a2.63,2.63,0,0,1-1.77-.59,2.26,2.26,0,0,1-.78-1.76c0-3.91,11.17-14.84,16.29-14.84H263c3.35,0,8.14,4.14,10,5.93,1.47,1.37,6.25,6.06,6.25,8.91a2.26,2.26,0,0,1-.78,1.76A2.63,2.63,0,0,1,276.69,206.8Zm-.45-2.35h0Zm-115.69-.66H276c-1.41-3-9.82-11.19-13.09-11.19H173.61c-1.2,0-4.2,1.58-7.93,5.06A25.08,25.08,0,0,0,160.55,203.79Z"/></g></svg> 