<svg xmlns="http://www.w3.org/2000/svg" viewBox="0 0 440 252"><defs><style>.cls-1{fill:#c7dfdf;}.cls-2{fill:#4fb2b1;}.cls-3{fill:#231f20;}</style></defs><g id="Background"><path class="cls-1" d="M202.24,202.68H12.86a1,1,0,0,1,0-2H202.24a1,1,0,0,1,0,2Z"/><path class="cls-1" d="M202.24,185.22H12.86a1,1,0,1,1,0-2H202.24a1,1,0,0,1,0,2Z"/><path class="cls-1" d="M424.38,202.68H235.28a1,1,0,0,1,0-2h189.1a1,1,0,0,1,0,2Z"/><path class="cls-1" d="M424.38,185.22H235.28a1,1,0,0,1,0-2h189.1a1,1,0,0,1,0,2Z"/><path class="cls-1" d="M24.83,157.45H14a1,1,0,0,1-1-1V142.19a1,1,0,0,1,1-1h10.8a1,1,0,0,1,1,1v14.26A1,1,0,0,1,24.83,157.45Zm-9.8-2h8.8V143.19H15Z"/><path class="cls-1" d="M45.62,157.45H34.81a1,1,0,0,1-1-1V142.19a1,1,0,0,1,1-1H45.62a1,1,0,0,1,1,1v14.26A1,1,0,0,1,45.62,157.45Zm-9.81-2h8.81V143.19H35.81Z"/><path class="cls-1" d="M66.4,157.45H55.59a1,1,0,0,1-1-1V142.19a1,1,0,0,1,1-1H66.4a1,1,0,0,1,1,1v14.26A1,1,0,0,1,66.4,157.45Zm-9.81-2H65.4V143.19H56.59Z"/><path class="cls-1" d="M24.83,129.42H14a1,1,0,0,1-1-1V114.15a1,1,0,0,1,1-1h10.8a1,1,0,0,1,1,1v14.27A1,1,0,0,1,24.83,129.42Zm-9.8-2h8.8V115.15H15Z"/><path class="cls-1" d="M45.62,129.42H34.81a1,1,0,0,1-1-1V114.15a1,1,0,0,1,1-1H45.62a1,1,0,0,1,1,1v14.27A1,1,0,0,1,45.62,129.42Zm-9.81-2h8.81V115.15H35.81Z"/><path class="cls-1" d="M66.4,129.42H55.59a1,1,0,0,1-1-1V114.15a1,1,0,0,1,1-1H66.4a1,1,0,0,1,1,1v14.27A1,1,0,0,1,66.4,129.42Zm-9.81-2H65.4V115.15H56.59Z"/><path class="cls-1" d="M24.83,101.38H14a1,1,0,0,1-1-1V86.12a1,1,0,0,1,1-1h10.8a1,1,0,0,1,1,1v14.26A1,1,0,0,1,24.83,101.38Zm-9.8-2h8.8V87.12H15Z"/><path class="cls-1" d="M45.62,101.38H34.81a1,1,0,0,1-1-1V86.12a1,1,0,0,1,1-1H45.62a1,1,0,0,1,1,1v14.26A1,1,0,0,1,45.62,101.38Zm-9.81-2h8.81V87.12H35.81Z"/><path class="cls-1" d="M66.4,101.38H55.59a1,1,0,0,1-1-1V86.12a1,1,0,0,1,1-1H66.4a1,1,0,0,1,1,1v14.26A1,1,0,0,1,66.4,101.38Zm-9.81-2H65.4V87.12H56.59Z"/><path class="cls-1" d="M76,74.65H13.2a1,1,0,0,1,0-2H74.72l-2.26-8H12.86a1,1,0,0,1,0-2H73.21a1,1,0,0,1,1,.73l2.84,10a1,1,0,0,1-.17.88A1,1,0,0,1,76,74.65Z"/><path class="cls-1" d="M40,60a1,1,0,0,1-1-1V22.77a1,1,0,0,1,.46-.84,1,1,0,0,1,.95-.07l62.85,27.82a1,1,0,0,1-.81,1.83L41,24.31V59A1,1,0,0,1,40,60Z"/><path class="cls-1" d="M105.81,93.6a1,1,0,0,1-1-1V51.92h-65a1,1,0,0,1,0-2h66a1,1,0,0,1,1,1V92.6A1,1,0,0,1,105.81,93.6Z"/><path class="cls-1" d="M73.77,112.45a1,1,0,0,1-1-1V73.76a1,1,0,0,1,2,0v37.69A1,1,0,0,1,73.77,112.45Z"/><path class="cls-1" d="M73.77,177.74a1,1,0,0,1-1-1V130.51a1,1,0,0,1,2,0v46.23A1,1,0,0,1,73.77,177.74Z"/><path class="cls-1" d="M127.64,151.91H80.53a1,1,0,0,1,0-2h47.11a1,1,0,0,1,0,2Z"/><path class="cls-1" d="M127.64,163.21H80.53a1,1,0,0,1,0-2h47.11a1,1,0,0,1,0,2Z"/><path class="cls-1" d="M127.64,174.52H80.53a1,1,0,0,1,0-2h47.11a1,1,0,0,1,0,2Z"/><path class="cls-1" d="M137,179.84a1,1,0,0,1-1-1V149.91a1,1,0,0,1,2,0v28.93A1,1,0,0,1,137,179.84Z"/><path class="cls-1" d="M145.91,179.84a1,1,0,0,1-1-1V149.91a1,1,0,0,1,2,0v28.93A1,1,0,0,1,145.91,179.84Z"/><path class="cls-1" d="M172.76,179.84a1,1,0,0,1-1-1V149.91a1,1,0,1,1,2,0v28.93A1,1,0,0,1,172.76,179.84Z"/><path class="cls-1" d="M163.81,179.84a1,1,0,0,1-1-1V149.91a1,1,0,0,1,2,0v28.93A1,1,0,0,1,163.81,179.84Z"/><path class="cls-1" d="M154.86,179.84a1,1,0,0,1-1-1V149.91a1,1,0,1,1,2,0v28.93A1,1,0,0,1,154.86,179.84Z"/><path class="cls-1" d="M137,92.49a1,1,0,0,1-1-1V56.58a1,1,0,0,1,2,0V91.49A1,1,0,0,1,137,92.49Z"/><path class="cls-1" d="M145.91,92.49a1,1,0,0,1-1-1V56.58a1,1,0,0,1,2,0V91.49A1,1,0,0,1,145.91,92.49Z"/><path class="cls-1" d="M172.76,92.49a1,1,0,0,1-1-1V56.58a1,1,0,1,1,2,0V91.49A1,1,0,0,1,172.76,92.49Z"/><path class="cls-1" d="M163.81,92.49a1,1,0,0,1-1-1V56.58a1,1,0,1,1,2,0V91.49A1,1,0,0,1,163.81,92.49Z"/><path class="cls-1" d="M154.86,92.49a1,1,0,0,1-1-1V56.58a1,1,0,1,1,2,0V91.49A1,1,0,0,1,154.86,92.49Z"/><path class="cls-1" d="M181.4,93.05a1,1,0,0,1-1-1V51.81H129.75V91.72a1,1,0,0,1-2,0V50.81a1,1,0,0,1,1-1H181.4a1,1,0,0,1,1,1V92.05A1,1,0,0,1,181.4,93.05Z"/><path class="cls-1" d="M326.73,176h-14.3a1,1,0,0,1-1-1V160.77a1.15,1.15,0,0,1,.08-.41,9,9,0,0,1,8.12-5,8.78,8.78,0,0,1,8,5,1.09,1.09,0,0,1,.08.39V175A1,1,0,0,1,326.73,176Zm-13.3-2h12.3V161a6.79,6.79,0,0,0-6.1-3.66,7,7,0,0,0-6.2,3.67Z"/><path class="cls-1" d="M350.61,176h-14.3a1,1,0,0,1-1-1V160.77a1,1,0,0,1,.09-.41,9,9,0,0,1,8.12-5,8.78,8.78,0,0,1,8,5,1.09,1.09,0,0,1,.08.39V175A1,1,0,0,1,350.61,176Zm-13.3-2h12.3V161a6.77,6.77,0,0,0-6.09-3.66,7,7,0,0,0-6.21,3.67Z"/><path class="cls-1" d="M374.5,176H360.2a1,1,0,0,1-1-1V160.77a1,1,0,0,1,.09-.41,9,9,0,0,1,8.11-5,8.78,8.78,0,0,1,8,5,1.09,1.09,0,0,1,.08.39V175A1,1,0,0,1,374.5,176Zm-13.3-2h12.3V161a6.79,6.79,0,0,0-6.1-3.66,7,7,0,0,0-6.2,3.67Z"/><path class="cls-1" d="M326.73,94.71a1,1,0,0,1-1-1v-.88a6.77,6.77,0,0,0-6.1-3.66,7,7,0,0,0-6.2,3.67v.87a1,1,0,0,1-2,0V92.6a1.15,1.15,0,0,1,.08-.41,9,9,0,0,1,8.12-5,8.78,8.78,0,0,1,8,5,1,1,0,0,1,.08.39v1.11A1,1,0,0,1,326.73,94.71Z"/><path class="cls-1" d="M351.11,97.81a1,1,0,0,1-1-1v-4A6.75,6.75,0,0,0,344,89.17a7,7,0,0,0-6.21,3.67v.87a1,1,0,0,1-2,0V92.6a1,1,0,0,1,.09-.41,9,9,0,0,1,8.12-5,8.78,8.78,0,0,1,8,5,1,1,0,0,1,.08.39v4.21A1,1,0,0,1,351.11,97.81Z"/><path class="cls-1" d="M374.5,107.79H360.2a1,1,0,0,1-1-1V92.6a1,1,0,0,1,.09-.41,9,9,0,0,1,8.11-5,8.78,8.78,0,0,1,8,5,1,1,0,0,1,.08.39v14.19A1,1,0,0,1,374.5,107.79Zm-13.3-2h12.3v-13a6.77,6.77,0,0,0-6.1-3.66,7,7,0,0,0-6.2,3.67Z"/><path class="cls-1" d="M374.5,141.88H360.2a1,1,0,0,1-1-1V132a1,1,0,0,1,2,0v7.93h12.3v-13a6.79,6.79,0,0,0-6.1-3.66,1,1,0,0,1,0-2,8.77,8.77,0,0,1,8,5,1,1,0,0,1,.08.39v14.19A1,1,0,0,1,374.5,141.88Z"/><path class="cls-1" d="M246.92,179.18a1,1,0,0,1-1-1V149.36a1,1,0,0,1,2,0v28.82A1,1,0,0,1,246.92,179.18Z"/><path class="cls-1" d="M306.44,179.18a1,1,0,0,1-1-1V149.36a1,1,0,0,1,2,0v28.82A1,1,0,0,1,306.44,179.18Z"/><path class="cls-1" d="M246.81,94.38a1,1,0,0,1-1-1V29.64a1,1,0,0,1,1-1H306a1,1,0,0,1,1,1l.34,63.74a1,1,0,0,1-1,1h0a1,1,0,0,1-1-1L305,30.64H247.81V93.38A1,1,0,0,1,246.81,94.38Z"/><path class="cls-1" d="M295,30.64a1,1,0,0,1-1-1V18.34H258.11V29.53a1,1,0,0,1-2,0V17.34a1,1,0,0,1,1-1H295a1,1,0,0,1,1,1v12.3A1,1,0,0,1,295,30.64Z"/><path class="cls-1" d="M258.78,52.92a6.54,6.54,0,1,1,6.54-6.54A6.54,6.54,0,0,1,258.78,52.92Zm0-11.08a4.54,4.54,0,1,0,4.54,4.54A4.54,4.54,0,0,0,258.78,41.84Z"/><path class="cls-1" d="M276.57,52.92a6.54,6.54,0,1,1,6.54-6.54A6.54,6.54,0,0,1,276.57,52.92Zm0-11.08a4.54,4.54,0,1,0,4.54,4.54A4.54,4.54,0,0,0,276.57,41.84Z"/><path class="cls-1" d="M294.36,52.92a6.54,6.54,0,1,1,6.54-6.54A6.54,6.54,0,0,1,294.36,52.92Zm0-11.08a4.54,4.54,0,1,0,4.54,4.54A4.54,4.54,0,0,0,294.36,41.84Z"/><path class="cls-1" d="M300.57,65.89h-48a1,1,0,0,1,0-2h48a1,1,0,0,1,0,2Z"/><path class="cls-1" d="M300.57,76.37h-48a1,1,0,0,1,0-2h48a1,1,0,0,1,0,2Z"/><path class="cls-1" d="M300.57,86.84h-48a1,1,0,0,1,0-2h48a1,1,0,0,1,0,2Z"/><path class="cls-1" d="M300.57,153.35h-48a1,1,0,0,1,0-2h48a1,1,0,0,1,0,2Z"/><path class="cls-1" d="M300.57,163.83h-48a1,1,0,0,1,0-2h48a1,1,0,0,1,0,2Z"/><path class="cls-1" d="M300.57,174.3h-48a1,1,0,0,1,0-2h48a1,1,0,0,1,0,2Z"/><path class="cls-1" d="M388.47,83.41H310.21a1,1,0,0,1,0-2h77.26V72.32H310a1,1,0,0,1,0-2h78.48a1,1,0,0,1,1,1V82.41A1,1,0,0,1,388.47,83.41Z"/><path class="cls-1" d="M362.31,65.89a1,1,0,0,1-1-1V53.36a1,1,0,0,1,1-1H424.6a1,1,0,0,1,0,2H363.31V64.89A1,1,0,0,1,362.31,65.89Z"/><path class="cls-1" d="M424.44,60.79h-62a1,1,0,0,1,0-2h62a1,1,0,0,1,0,2Z"/><path class="cls-1" d="M391.9,53.92a.77.77,0,0,1-.29-.05,1,1,0,0,1-.66-1.24c.05-.18,5.61-17.6,23.43-19.11a70,70,0,0,1,10.13-.08h.22a1,1,0,0,1,1,1,1,1,0,0,1-1,1,1.54,1.54,0,0,1-.33,0,69.05,69.05,0,0,0-9.85.08c-16.44,1.4-21.63,17.54-21.68,17.7A1,1,0,0,1,391.9,53.92Z"/><path class="cls-1" d="M422.83,111.53a1,1,0,0,1-1-1L421.61,72a1,1,0,0,1,1-1h0a1,1,0,0,1,1,1l.22,38.57a1,1,0,0,1-1,1Z"/><path class="cls-1" d="M412.85,111.59a1,1,0,0,1-1-1L411.64,72a1,1,0,0,1,1-1h0a1,1,0,0,1,1,1l.21,38.58a1,1,0,0,1-1,1Z"/><path class="cls-1" d="M402.88,111.53a1,1,0,0,1-1-1L401.66,72a1,1,0,0,1,1-1h0a1,1,0,0,1,1,1l.22,38.57a1,1,0,0,1-1,1Z"/><path class="cls-1" d="M392.9,111.59a1,1,0,0,1-1-1l-.1-17.5a1,1,0,0,1,1-1h0a1,1,0,0,1,1,1l.1,17.5a1,1,0,0,1-1,1Z"/><path class="cls-1" d="M422.83,167.56a1,1,0,0,1-1-1L421.61,128a1,1,0,0,1,1-1h0a1,1,0,0,1,1,1l.22,38.58a1,1,0,0,1-1,1Z"/><path class="cls-1" d="M412.85,167.62a1,1,0,0,1-1-1l-.21-38.58a1,1,0,0,1,1-1h0a1,1,0,0,1,1,1l.21,38.58a1,1,0,0,1-1,1Z"/><path class="cls-1" d="M402.88,167.56a1,1,0,0,1-1-1L401.66,128a1,1,0,0,1,1-1h0a1,1,0,0,1,1,1l.22,38.58a1,1,0,0,1-1,1Z"/><path class="cls-1" d="M392.9,167.62a1,1,0,0,1-1-1l-.22-38.58a1,1,0,0,1,1-1h0a1,1,0,0,1,1,1l.22,38.58a1,1,0,0,1-1,1Z"/><path class="cls-1" d="M382.32,179.07a1,1,0,0,1-1-1V82.79a1,1,0,0,1,2,0v95.28A1,1,0,0,1,382.32,179.07Z"/><path class="cls-1" d="M381.82,149.47H349.56a1,1,0,0,1,0-2h32.26a1,1,0,0,1,0,2Z"/><path class="cls-1" d="M381.82,115.05H366a1,1,0,0,1,0-2h15.8a1,1,0,0,1,0,2Z"/></g><g id="Fill"><path class="cls-2" d="M108.47,144.36C109.13,144.14,208,98,208,98l3.1-.67,2,2.44s.22,2.22.44,3.1.43,36.36.44,37a18.77,18.77,0,0,1-1.33,3.54s-.44,1.78-4.21,2-27.49-.22-27.49-.22Z"/><path class="cls-2" d="M328.72,144.36c-.67-.22-99.54-46.33-99.54-46.33l-3.11-.67-2,2.44s-.22,2.22-.44,3.1-.44,36.36-.45,37a19.49,19.49,0,0,0,1.33,3.54s.45,1.78,4.21,2,27.49-.22,27.49-.22Z"/><path class="cls-2" d="M226.52,231.38a3,3,0,0,1-3-3l-1-172.48a3,3,0,0,1,3-3h0a3,3,0,0,1,3,3l1,172.48a3,3,0,0,1-3,3Z"/><path class="cls-2" d="M199.58,52.14h31.71s1.55,0,1.55-2V43.71l4,.67,1.77,2.88-1.11,7.54s-3.83,3.18-4.21,2.88-28.82.22-28.82.22l-3.55-1.55Z"/></g><g id="Outlines"><path class="cls-3" d="M208.58,92.88a1.5,1.5,0,0,1-1.5-1.5V63.89a1.5,1.5,0,0,1,3,0V91.38A1.51,1.51,0,0,1,208.58,92.88Z"/><path class="cls-3" d="M229,92.88a1.5,1.5,0,0,1-1.5-1.5V63.89a1.5,1.5,0,0,1,3,0V91.38A1.5,1.5,0,0,1,229,92.88Z"/><path class="cls-3" d="M208.58,231.43a1.5,1.5,0,0,1-1.5-1.5V150.35a1.5,1.5,0,0,1,3,0v79.58A1.5,1.5,0,0,1,208.58,231.43Z"/><path class="cls-3" d="M229,231.43a1.5,1.5,0,0,1-1.5-1.5V150.35a1.5,1.5,0,0,1,3,0v79.58A1.5,1.5,0,0,1,229,231.43Z"/><path class="cls-3" d="M208,146.75H92.52a1.51,1.51,0,0,1-1.2-.6L72.92,122a1.52,1.52,0,0,1,0-1.81L91.33,96a1.49,1.49,0,0,1,1.19-.59H207.77c.52,0,3.92,0,6.08,2a5.56,5.56,0,0,1,1.66,4.1v39a5.58,5.58,0,0,1-1.66,4.11A9,9,0,0,1,208,146.75Zm-114.7-3H207.8c.76,0,2.88-.16,4-1.22a2.53,2.53,0,0,0,.74-1.94v-39a2.58,2.58,0,0,0-.75-1.95,6.28,6.28,0,0,0-3.91-1.2H93.26L76,121.06Z"/><path class="cls-3" d="M99,129.13a1.49,1.49,0,0,1-1.06-.44L91.24,122A1.46,1.46,0,0,1,90.8,121a1.49,1.49,0,0,1,.44-1.06l6.65-6.65a1.5,1.5,0,1,1,2.12,2.12L94.42,121l5.59,5.6a1.51,1.51,0,0,1,0,2.12A1.53,1.53,0,0,1,99,129.13Z"/><path class="cls-3" d="M195.83,114.38H108.7a1.5,1.5,0,1,1,0-3h87.13a1.5,1.5,0,1,1,0,3Z"/><path class="cls-3" d="M195.83,123.14H108.7a1.5,1.5,0,0,1,0-3h87.13a1.5,1.5,0,0,1,0,3Z"/><path class="cls-3" d="M195.83,131.89H116.9a1.5,1.5,0,0,1,0-3h78.93a1.5,1.5,0,1,1,0,3Z"/><path class="cls-3" d="M229.55,146.75a8.89,8.89,0,0,1-5.85-2.05,5.55,5.55,0,0,1-1.66-4.11v-39a5.51,5.51,0,0,1,1.66-4.1c2.15-2.08,5.56-2.06,6.07-2H345a1.49,1.49,0,0,1,1.19.59l18.4,24.14a1.49,1.49,0,0,1,0,1.81l-18.4,24.19a1.47,1.47,0,0,1-1.19.6H229.55Zm0-48.33a6,6,0,0,0-3.8,1.21,2.55,2.55,0,0,0-.74,1.94v39a2.53,2.53,0,0,0,.74,1.94,6.18,6.18,0,0,0,3.92,1.22H344.28l17.26-22.69L344.29,98.42H229.75A1,1,0,0,0,229.58,98.42Z"/><path class="cls-3" d="M338.6,129.13a1.5,1.5,0,0,1-1.06-2.56l5.59-5.6-5.59-5.59a1.49,1.49,0,0,1,0-2.12,1.51,1.51,0,0,1,2.12,0l6.65,6.65a1.53,1.53,0,0,1,.44,1.06,1.5,1.5,0,0,1-.44,1.06l-6.65,6.66A1.51,1.51,0,0,1,338.6,129.13Z"/><path class="cls-3" d="M328.84,114.38H241.72a1.5,1.5,0,0,1,0-3h87.12a1.5,1.5,0,0,1,0,3Z"/><path class="cls-3" d="M328.84,123.14H241.72a1.5,1.5,0,0,1,0-3h87.12a1.5,1.5,0,0,1,0,3Z"/><path class="cls-3" d="M320.64,131.89H241.72a1.5,1.5,0,0,1,0-3h78.92a1.5,1.5,0,0,1,0,3Z"/><path class="cls-3" d="M232.9,58.88H204.64a6.51,6.51,0,0,1-6.5-6.5v-4a6.51,6.51,0,0,1,6.5-6.5H232.9a6.51,6.51,0,0,1,6.5,6.5v4A6.5,6.5,0,0,1,232.9,58.88Zm-28.26-14a3.5,3.5,0,0,0-3.5,3.5v4a3.5,3.5,0,0,0,3.5,3.5H232.9a3.5,3.5,0,0,0,3.5-3.5v-4a3.5,3.5,0,0,0-3.5-3.5Z"/></g></svg> 