<svg xmlns="http://www.w3.org/2000/svg" viewBox="0 0 440 252"><defs><style>.cls-1{fill:#edd1e3;}.cls-2{fill:#b64d94;}.cls-3{fill:#231f20;}</style></defs><g id="Background"><path class="cls-1" d="M37.06,32H17.22a1,1,0,0,1,0-2H36.06v-7.2H17.22a1,1,0,0,1,0-2H37.06a1,1,0,0,1,1,1V31A1,1,0,0,1,37.06,32Z"/><path class="cls-1" d="M37.06,89.51H17.22a1,1,0,0,1,0-2H36.06v-7.2H17.22a1,1,0,0,1,0-2H37.06a1,1,0,0,1,1,1v9.2A1,1,0,0,1,37.06,89.51Z"/><path class="cls-1" d="M37.06,147H17.22a1,1,0,0,1,0-2H36.06v-7.2H17.22a1,1,0,0,1,0-2H37.06a1,1,0,0,1,1,1V146A1,1,0,0,1,37.06,147Z"/><path class="cls-1" d="M133,32H113.16a1,1,0,0,1-1-1v-9.2a1,1,0,0,1,1-1H133a1,1,0,0,1,1,1V31A1,1,0,0,1,133,32Zm-18.84-2H132v-7.2H114.16Z"/><path class="cls-1" d="M133,89.51H113.16a1,1,0,0,1-1-1v-9.2a1,1,0,0,1,1-1H133a1,1,0,0,1,0,2H114.16v7.2H133a1,1,0,0,1,0,2Z"/><path class="cls-1" d="M133,147H113.16a1,1,0,0,1-1-1v-9.2a1,1,0,0,1,1-1H133a1,1,0,0,1,0,2H114.16V145H133a1,1,0,0,1,0,2Z"/><path class="cls-1" d="M228.94,32H209.09a1,1,0,0,1-1-1v-9.2a1,1,0,0,1,1-1h19.85a1,1,0,0,1,1,1V31A1,1,0,0,1,228.94,32Zm-18.85-2h17.85v-7.2H210.09Z"/><path class="cls-1" d="M324.87,32H305a1,1,0,0,1-1-1v-9.2a1,1,0,0,1,1-1h19.84a1,1,0,0,1,1,1V31A1,1,0,0,1,324.87,32ZM306,30h17.84v-7.2H306Z"/><path class="cls-1" d="M324.87,89.51H305a1,1,0,0,1,0-2h18.84v-7.2H305a1,1,0,0,1,0-2h19.84a1,1,0,0,1,1,1v9.2A1,1,0,0,1,324.87,89.51Z"/><path class="cls-1" d="M324.87,147H305a1,1,0,0,1,0-2h18.84v-7.2H305a1,1,0,0,1,0-2h19.84a1,1,0,0,1,1,1V146A1,1,0,0,1,324.87,147Z"/><path class="cls-1" d="M420.81,32H401a1,1,0,0,1-1-1v-9.2a1,1,0,0,1,1-1h19.84a1,1,0,0,1,0,2H402V30h18.84a1,1,0,0,1,0,2Z"/><path class="cls-1" d="M420.81,89.51H401a1,1,0,0,1-1-1v-9.2a1,1,0,0,1,1-1h19.84a1,1,0,0,1,0,2H402v7.2h18.84a1,1,0,0,1,0,2Z"/><path class="cls-1" d="M420.81,147H401a1,1,0,0,1-1-1v-9.2a1,1,0,0,1,1-1h19.84a1,1,0,0,1,0,2H402V145h18.84a1,1,0,0,1,0,2Z"/><path class="cls-1" d="M52.22,185.2c-19,0-33.68,0-34.31-.17a1,1,0,0,1,.35-2c2.5.25,80.57.11,121.55,0h0a1,1,0,0,1,0,2C127.32,185.09,83.72,185.2,52.22,185.2Z"/><path class="cls-1" d="M52.23,125c-19.06,0-33.69,0-34.32-.17a1,1,0,0,1,.35-2c2.51.25,80.57.11,121.55,0h0a1,1,0,0,1,0,2C127.32,124.9,83.72,125,52.23,125Z"/><path class="cls-1" d="M52.23,68.35c-19.06,0-33.69,0-34.32-.16A1,1,0,0,1,17.13,67a1,1,0,0,1,1.13-.79c2.51.25,80.57.1,121.55,0h0a1,1,0,0,1,1,1,1,1,0,0,1-1,1C127.32,68.24,83.72,68.35,52.23,68.35Z"/><path class="cls-1" d="M77,175.74a1,1,0,0,1-1-1V21.11a1,1,0,0,1,2,0V174.74A1,1,0,0,1,77,175.74Z"/><path class="cls-1" d="M172.07,32.75a1,1,0,0,1-1-1V21.11a1,1,0,0,1,2,0V31.75A1,1,0,0,1,172.07,32.75Z"/><path class="cls-1" d="M268.18,32.75a1,1,0,0,1-1-1V21.11a1,1,0,0,1,2,0V31.75A1,1,0,0,1,268.18,32.75Z"/><path class="cls-1" d="M336.87,185.2c-19.05,0-33.67,0-34.31-.17a1,1,0,0,1-.78-1.17,1,1,0,0,1,1.14-.8c2.5.25,80.56.11,121.55,0h0a1,1,0,0,1,0,2C412,185.09,368.37,185.2,336.87,185.2Z"/><path class="cls-1" d="M336.88,125c-19.06,0-33.68,0-34.32-.17a1,1,0,0,1-.78-1.17,1,1,0,0,1,1.14-.8c2.49.25,80.56.1,121.55,0h0a1,1,0,0,1,0,2C412,124.9,368.38,125,336.88,125Z"/><path class="cls-1" d="M336.88,68.35c-19.06,0-33.68,0-34.32-.16a1,1,0,0,1-.78-1.18,1,1,0,0,1,1.14-.79c2.5.25,80.56.1,121.55,0h0a1,1,0,0,1,1,1,1,1,0,0,1-1,1C412,68.24,368.38,68.35,336.88,68.35Z"/><path class="cls-1" d="M361.62,175.74a1,1,0,0,1-1-1V21.11a1,1,0,0,1,2,0V174.74A1,1,0,0,1,361.62,175.74Z"/></g><g id="Fill"><path class="cls-2" d="M165.75,37.18s-13.3-.22-14,0a68,68,0,0,0-5.55,4.43L145.14,50l1.1,28.82v.22h-5.32v21.06h5.13l-.43,46.11h-5.14V168h4.94l-.28,31.26,2.43,6.87,5.33,3.33h23.27l13.53-.67Zm-11.51,41.9h14.59v21.06H154.24ZM169.3,168H154V146.25h15.3Z"/><path class="cls-2" d="M226.94,105c6.76-1.44,13-9.47,11.66-6.7a21.17,21.17,0,1,1-28.78-28c-6.16,7.85-7.15,10.85-7.15,17.83a17.74,17.74,0,0,0,9.2,15.07C217.21,106,220.18,106.46,226.94,105Z"/><path class="cls-2" d="M251.55,152.68a31.7,31.7,0,1,1-36.76-31.3c-18,3.92-22.43,25.09-22.66,30,3.11,25.39,24.72,28.49,33.59,28.27C229.6,180,248.33,170.2,251.55,152.68Z"/><path class="cls-2" d="M231.79,131.94c-4.52-3.45-10.1-2.39-17.8-1s-9.24,7.73-9.24,7.73l.38.38a20.11,20.11,0,0,1,30.21,26.51c.68.33,1.17.44,1.4.27,2.48-1.86,6.41-8.87,6.34-17.19S236.31,135.39,231.79,131.94Z"/><path class="cls-2" d="M292.3,225.5l-6-9.08c-.35-.54-1.06,5.87-1.06,5.87H266.3s-2.89-6.34-3.44-6.34H179.28c-.52,0-3,5.79-3,5.79l-18.73.11s-.9-5.78-1.26-5.26l-6.21,8.87a1.24,1.24,0,0,0-.05,1.39,1.52,1.52,0,0,0,1.31.71H291a1.54,1.54,0,0,0,1.31-.69A1.26,1.26,0,0,0,292.3,225.5Z"/></g><g id="Outlines"><path class="cls-3" d="M157.66,140a1.5,1.5,0,0,1-1.5-1.5V108.34a1.5,1.5,0,0,1,3,0v30.15A1.5,1.5,0,0,1,157.66,140Z"/><path class="cls-3" d="M275.36,199.3H167.66a11.51,11.51,0,0,1-11.5-11.5V176.18a1.5,1.5,0,0,1,3,0V187.8a8.51,8.51,0,0,0,8.5,8.5h107.7a8.52,8.52,0,0,0,8.5-8.5V59.26a8.52,8.52,0,0,0-8.5-8.5H167.66a8.51,8.51,0,0,0-8.5,8.5V72a1.5,1.5,0,0,1-3,0V59.26a11.51,11.51,0,0,1,11.5-11.5h107.7a11.51,11.51,0,0,1,11.5,11.5V187.8A11.51,11.51,0,0,1,275.36,199.3Z"/><path class="cls-3" d="M145.47,140a1.5,1.5,0,0,1-1.5-1.5V108.12a1.5,1.5,0,0,1,3,0v30.37A1.5,1.5,0,0,1,145.47,140Z"/><path class="cls-3" d="M287.44,211.49H155.36a11.51,11.51,0,0,1-11.5-11.5V176.18a1.5,1.5,0,0,1,3,0V200a8.51,8.51,0,0,0,8.5,8.5H287.44a8.51,8.51,0,0,0,8.5-8.5V47.07a8.51,8.51,0,0,0-8.5-8.5H155.36a8.51,8.51,0,0,0-8.5,8.5V72.21a1.5,1.5,0,0,1-3,0V47.07a11.51,11.51,0,0,1,11.5-11.5H287.44a11.51,11.51,0,0,1,11.5,11.5V200A11.51,11.51,0,0,1,287.44,211.49Z"/><path class="cls-3" d="M169.3,102.53H140.48A1.5,1.5,0,0,1,139,101V78.86a1.5,1.5,0,0,1,1.5-1.5H169.3a1.5,1.5,0,0,1,1.5,1.5V101A1.5,1.5,0,0,1,169.3,102.53Zm-27.32-3H167.8V80.36H142Z"/><path class="cls-3" d="M169.3,169.48H140.48A1.5,1.5,0,0,1,139,168V145.81a1.5,1.5,0,0,1,1.5-1.5H169.3a1.5,1.5,0,0,1,1.5,1.5V168A1.5,1.5,0,0,1,169.3,169.48Zm-27.32-3H167.8V147.31H142Z"/><path class="cls-3" d="M221.86,172.93a22.45,22.45,0,1,1,22.45-22.45A22.47,22.47,0,0,1,221.86,172.93Zm0-41.9a19.45,19.45,0,1,0,19.45,19.45A19.47,19.47,0,0,0,221.86,131Z"/><path class="cls-3" d="M221.86,181.24a30.77,30.77,0,1,1,30.76-30.76A30.8,30.8,0,0,1,221.86,181.24Zm0-58.53a27.77,27.77,0,1,0,27.76,27.77A27.8,27.8,0,0,0,221.86,122.71Z"/><path class="cls-3" d="M221.86,159.13a8.65,8.65,0,1,1,8.65-8.65A8.66,8.66,0,0,1,221.86,159.13Zm0-14.3a5.65,5.65,0,1,0,5.65,5.65A5.65,5.65,0,0,0,221.86,144.83Z"/><path class="cls-3" d="M216.61,146.94a1.51,1.51,0,0,1-.9-.29c-.43-.31-2.23-2.25-5.34-5.76a1.5,1.5,0,1,1,2.24-2c2.1,2.36,4.51,5,4.91,5.35a1.49,1.49,0,0,1-.91,2.69Z"/><path class="cls-3" d="M232.24,162.57a1.51,1.51,0,0,1-.9-.29c-.43-.31-2.23-2.25-5.34-5.76a1.5,1.5,0,1,1,2.24-2c2.1,2.36,4.51,5,4.91,5.35a1.49,1.49,0,0,1-.91,2.69Z"/><path class="cls-3" d="M211.27,162.34a1.5,1.5,0,0,1-1-2.62c2.37-2.1,5-4.5,5.36-4.9a1.48,1.48,0,0,1,2.08-.31,1.52,1.52,0,0,1,.32,2.11c-.32.44-2.26,2.23-5.77,5.34A1.45,1.45,0,0,1,211.27,162.34Z"/><path class="cls-3" d="M226.9,146.71a1.5,1.5,0,0,1-1-2.62c2.37-2.1,5-4.5,5.36-4.9a1.48,1.48,0,0,1,2.08-.31,1.53,1.53,0,0,1,.32,2.12c-.32.43-2.26,2.22-5.77,5.33A1.45,1.45,0,0,1,226.9,146.71Z"/><path class="cls-3" d="M221.84,94A7.15,7.15,0,1,1,229,86.84,7.16,7.16,0,0,1,221.84,94Zm0-11.3A4.15,4.15,0,1,0,226,86.84,4.15,4.15,0,0,0,221.84,82.69Z"/><path class="cls-3" d="M221.84,107.63a20.79,20.79,0,1,1,20.79-20.79A20.82,20.82,0,0,1,221.84,107.63Zm0-38.58a17.79,17.79,0,1,0,17.79,17.79A17.81,17.81,0,0,0,221.84,69.05Z"/><path class="cls-3" d="M209.43,88.34h-6.54a1.5,1.5,0,0,1,0-3h6.54a1.5,1.5,0,0,1,0,3Z"/><path class="cls-3" d="M240.8,88.34h-6.54a1.5,1.5,0,0,1,0-3h6.54a1.5,1.5,0,0,1,0,3Z"/><path class="cls-3" d="M221.84,107.29a1.5,1.5,0,0,1-1.5-1.5V99.25a1.5,1.5,0,0,1,3,0v6.54A1.5,1.5,0,0,1,221.84,107.29Z"/><path class="cls-3" d="M221.84,75.92a1.5,1.5,0,0,1-1.5-1.5V67.88a1.5,1.5,0,0,1,3,0v6.54A1.5,1.5,0,0,1,221.84,75.92Z"/><path class="cls-3" d="M205.7,97.59A1.49,1.49,0,0,1,205,94.8l2.3-1.34a1.5,1.5,0,1,1,1.5,2.6l-2.3,1.33A1.46,1.46,0,0,1,205.7,97.59Z"/><path class="cls-3" d="M235.46,80.41a1.5,1.5,0,0,1-.75-2.8l2.3-1.33a1.5,1.5,0,1,1,1.5,2.6l-2.3,1.33A1.48,1.48,0,0,1,235.46,80.41Z"/><path class="cls-3" d="M231,104.37a1.49,1.49,0,0,1-1.3-.75l-1.33-2.3a1.5,1.5,0,0,1,2.6-1.5l1.33,2.3a1.51,1.51,0,0,1-.55,2A1.48,1.48,0,0,1,231,104.37Z"/><path class="cls-3" d="M213.81,74.61a1.49,1.49,0,0,1-1.3-.75l-1.33-2.3a1.5,1.5,0,1,1,2.59-1.5l1.33,2.3a1.5,1.5,0,0,1-.54,2A1.48,1.48,0,0,1,213.81,74.61Z"/><path class="cls-3" d="M212.47,104.37a1.42,1.42,0,0,1-.74-.2,1.49,1.49,0,0,1-.55-2l1.33-2.3a1.5,1.5,0,1,1,2.59,1.5l-1.33,2.3A1.49,1.49,0,0,1,212.47,104.37Z"/><path class="cls-3" d="M229.66,74.61a1.43,1.43,0,0,1-.75-.2,1.49,1.49,0,0,1-.55-2l1.33-2.3a1.49,1.49,0,0,1,2.05-.55,1.51,1.51,0,0,1,.55,2L231,73.86A1.51,1.51,0,0,1,229.66,74.61Z"/><path class="cls-3" d="M237.76,97.59a1.48,1.48,0,0,1-.75-.2l-2.3-1.33a1.5,1.5,0,0,1,1.5-2.6l2.3,1.34a1.49,1.49,0,0,1-.75,2.79Z"/><path class="cls-3" d="M208,80.41a1.48,1.48,0,0,1-.75-.2L205,78.88a1.5,1.5,0,0,1,1.5-2.6l2.3,1.33a1.5,1.5,0,0,1-.75,2.8Z"/><path class="cls-3" d="M176.5,223.79H157.55a1.5,1.5,0,0,1-1.5-1.5v-7.48a1.5,1.5,0,0,1,3,0v6H175.5l2.61-6.25a1.5,1.5,0,0,1,2.77,1.16l-3,7.17A1.5,1.5,0,0,1,176.5,223.79Z"/><path class="cls-3" d="M285.25,223.79H266.3a1.48,1.48,0,0,1-1.38-.92l-3-7.17a1.5,1.5,0,1,1,2.77-1.15l2.61,6.24h16.45v-6a1.5,1.5,0,0,1,3,0v7.48A1.5,1.5,0,0,1,285.25,223.79Z"/></g></svg> 