<svg xmlns="http://www.w3.org/2000/svg" viewBox="0 0 350 190"><g id="b8eb2fda-df0f-45b2-90b0-a4fb152785ae" data-name="Shadow"><path d="M180.68,25.91c0,1.11-5,5.71-3.06,6,14.67,8.89,13.74,9.88,15.61,5.47,3.73-8.36,1.5-30.84,8.09-6.54,2.89-4,4.62,4.47,4.31,6.18,2.88.46.78,3.86,2.22,6,5.42,3.87,7.78,3.68,9.71,10.63,1.45-.36,2.51-.17,2.79,1.65.58,2.79,5.26,4.86,5.88,7.45,6.5,20.14-6.71,18.32-8.61,34.09-1.4,1-3.11-.18-3.07.24-7.22,4.16-8.27,2.17-11.25,1.26-3.9,4.2-9.15-1.68-10.19-.26-5-1.3-2.63-8.24-6.38-7.26-.51-2.48-1.91-3-1.91-3-1.74,4.29-1.67-1.83-.74-3.2-2.54-1.46-5.12,8.81-7.39,1.28-5.27-11.2-27-4.88-33,.29-13.76-1.51-11.33,5.2-19.94,2.29-2.62-1.47-2.29-2.76-2-3.27,3.21-2.65.15-6.64-1.16-10.36-.35-5.15-1.8-3-2.49-6.82-2.37-5.88,1.63-1.38.18-5.81-6.28-12,9.31-12.68,14.74-16,4.11,1.58,6.38-3.63,8.38-5.44-1.83-2.17.58-3.29,1.55-4,.75,2.93,2.23,3.72,2.2,1.2-.81-4.31,2.28-.91,2-1.81-1.18-2.78,2.71-4.4,4.52-5.84,4.25-3.49,4.13,2.28,8.94,2,1.17,0,1-.65.5-1.91C164.36,17.33,180.11,23.7,180.68,25.91Z" style="fill:#edca73"/><path d="M203.57,106.62c-.3-2.33,4.73,1.69,9.66-.57,1.92,3.2-3.23,9-5.7,7.61C205,113,204.48,107.75,203.57,106.62Z" style="fill:#edca73"/><path d="M200.66,171.82a68.33,68.33,0,0,1,6.26-17.63c1.56-2.85,5.83-5.81,9.57-7.71,5.49-2.8,10.89-5,15.15-7,3.92-1.8,14.14-14.3,17-17.2s-8.88,13.92-8.88,13.92l4.7-4.75-11.14,11.83-12.29,5.8s-7.42,6.26-7.42,7-2.79,9.51-2.79,9.51l-2.55,7.31S208.31,173.33,200.66,171.82Z" style="fill:#edca73"/><path d="M94.62,94.63s2.09-2.61,4-1.74a42,42,0,0,1,5.4,3.48,2.5,2.5,0,0,1,3,.52c1.56,1.4,3.3,3,3.3,3.66,0,.24,3,.42,3.65,2.49,1.29,3.79,6,12.76,6,12.76s-3.11,1.4-3.43.75-3.13.7-3.82,1.92a6.75,6.75,0,0,1-2.44,2.08l-2.61-2.61-4-13-3.31-7.48Z" style="fill:#edca73"/><path d="M255.42,93.63s-2.09-2.61-4-1.74a42,42,0,0,0-5.4,3.48,2.5,2.5,0,0,0-3,.52c-1.56,1.4-3.3,3-3.3,3.66,0,.24-2.95.42-3.66,2.49-1.28,3.79-6,12.76-6,12.76s3.11,1.4,3.43.75,3.13.7,3.82,1.92a6.75,6.75,0,0,0,2.44,2.08l2.61-2.61,4-13,3.31-7.48Z" style="fill:#edca73"/><path d="M148.38,171.82a68.33,68.33,0,0,0-6.26-17.63c-1.57-2.85-5.83-5.81-9.57-7.71-5.49-2.8-10.89-5-15.15-7-3.92-1.8-14.14-14.3-17-17.2s8.88,13.92,8.88,13.92l-4.7-4.75,11.13,11.83,12.3,5.8s7.42,6.26,7.42,7,2.79,9.51,2.79,9.51l2.55,7.31S140.73,173.33,148.38,171.82Z" style="fill:#edca73"/></g><g id="f6891671-87bf-417e-9e84-c42d27d94a1e" data-name="Background lines copy"><path d="M41.92,45.6H17a8.11,8.11,0,1,1,0-16.22h2.28a7,7,0,0,1,14,0h8.68a8.11,8.11,0,0,1,0,16.22ZM17,30.88A6.61,6.61,0,1,0,17,44.1H41.92a6.61,6.61,0,0,0,0-13.22H32.53a.76.76,0,0,1-.75-.75,5.53,5.53,0,1,0-11,0,.75.75,0,0,1-.75.75Z" style="fill:#e1aa21"/><path d="M268.65,43H235.3a10.6,10.6,0,0,1,0-21.2h11.84a9.15,9.15,0,0,1,18.23,0h3.28a10.6,10.6,0,1,1,0,21.2ZM235.3,23.25a9.1,9.1,0,0,0,0,18.2h33.35a9.1,9.1,0,1,0,0-18.2h-4a.74.74,0,0,1-.75-.75,7.65,7.65,0,0,0-15.29,0,.75.75,0,0,1-.75.75Z" style="fill:#e1aa21"/><path d="M37.56,76.32H1.93a.75.75,0,0,1,0-1.5H37.56a.75.75,0,0,1,0,1.5Z" style="fill:#e1aa21"/><path d="M37.56,87.89H1.5a.75.75,0,0,1,0-1.5H37.56a.75.75,0,0,1,0,1.5Z" style="fill:#e1aa21"/><path d="M45,188.7a.76.76,0,0,1-.75-.75V64.74a.75.75,0,0,1,.22-.53L73.57,35.32a.77.77,0,0,1,1.07,0,.75.75,0,0,1,0,1.06L45.79,65.05V188A.76.76,0,0,1,45,188.7Z" style="fill:#e1aa21"/><path d="M96.27,72H52.2a.75.75,0,0,1,0-1.5H96.27a.75.75,0,0,1,0,1.5Z" style="fill:#e1aa21"/><path d="M87.1,92.14H52.2a.75.75,0,0,1,0-1.5H87.1a.75.75,0,0,1,0,1.5Z" style="fill:#e1aa21"/><path d="M87.43,115.3H52.57a.75.75,0,0,1,0-1.5H87.43a.75.75,0,0,1,0,1.5Z" style="fill:#e1aa21"/><path d="M95.32,138.35H52.57a.75.75,0,1,1,0-1.5H95.32a.75.75,0,0,1,0,1.5Z" style="fill:#e1aa21"/><path d="M96.27,161.58H52.57a.75.75,0,1,1,0-1.5h43.7a.75.75,0,1,1,0,1.5Z" style="fill:#e1aa21"/><path d="M37.81,114.44H23.21a.75.75,0,0,1-.75-.75V101.5a8.05,8.05,0,0,1,16.1,0v12.19A.75.75,0,0,1,37.81,114.44ZM24,112.94h13.1V101.5a6.55,6.55,0,0,0-13.1,0Z" style="fill:#e1aa21"/><path d="M11.3,114.44H1.09a.75.75,0,0,1,0-1.5h9.46V101.5A6.55,6.55,0,0,0,4,95a6.46,6.46,0,0,0-2.3.42.75.75,0,0,1-1-.45.74.74,0,0,1,.44-1A8,8,0,0,1,4,93.45a8.06,8.06,0,0,1,8,8v12.19A.74.74,0,0,1,11.3,114.44Z" style="fill:#e1aa21"/><path d="M37.81,144.55H23.21a.76.76,0,0,1-.75-.75V131.6a8.05,8.05,0,0,1,16.1,0v12.2A.76.76,0,0,1,37.81,144.55ZM24,143.05h13.1V131.6a6.55,6.55,0,0,0-13.1,0Z" style="fill:#e1aa21"/><path d="M11.3,144.55H1.59a.75.75,0,0,1,0-1.5h9V131.6A6.54,6.54,0,0,0,4,125.06a6.7,6.7,0,0,0-2.23.38A.75.75,0,0,1,1.27,124,8.22,8.22,0,0,1,4,123.56a8.05,8.05,0,0,1,8,8v12.2A.75.75,0,0,1,11.3,144.55Z" style="fill:#e1aa21"/><path d="M35.06,188.7a.76.76,0,0,1-.75-.75V167.11a12,12,0,0,0-23.9,0V188a.75.75,0,0,1-1.5,0V167.11a13.45,13.45,0,1,1,26.9,0V188A.76.76,0,0,1,35.06,188.7Z" style="fill:#e1aa21"/><path d="M102.55,91.29h0a.74.74,0,0,1-.72-.78L102.67,65,74.3,36.38a.75.75,0,0,1,1.06-1.06L104,64.21a.77.77,0,0,1,.21.56l-.89,25.79A.74.74,0,0,1,102.55,91.29Z" style="fill:#e1aa21"/><path d="M269.33,102.57a.77.77,0,0,1-.59-.28.76.76,0,0,1,.13-1.06l68.48-53.72a34.68,34.68,0,0,1,11-6.27.75.75,0,0,1,.5,1.42,33.06,33.06,0,0,0-10.59,6l-68.5,53.74A.74.74,0,0,1,269.33,102.57Z" style="fill:#e1aa21"/><path d="M240.54,81.12a.77.77,0,0,1-.59-.28.76.76,0,0,1,.12-1.06l38.19-30a20.92,20.92,0,0,1,25.95.38l9.77,8.2a.74.74,0,0,1,.09,1,.76.76,0,0,1-1.06.1l-9.76-8.2a19.65,19.65,0,0,0-24.06-.35L241,81A.74.74,0,0,1,240.54,81.12Z" style="fill:#e1aa21"/><path d="M318,188.52s-.05-36.53-.05-42c0-6.18,3.64-7.22,4.84-7.56a.74.74,0,0,1,.93.51.76.76,0,0,1-.52.93c-1.12.32-3.75,1.07-3.75,6.12,0,5.48.05,42,.05,42Z" style="fill:#e1aa21"/><path d="M310.57,189.27h0a.76.76,0,0,1-.75-.75c0-.36.25-35.3,0-42.8,0-.77,0-1.49,0-2.15-.11-5.76-.13-7.31-7.9-12.67a.75.75,0,0,1-.19-1,.76.76,0,0,1,1.05-.2c8.39,5.81,8.43,8,8.54,13.88,0,.66,0,1.37,0,2.13.25,7.53,0,42.5,0,42.86A.74.74,0,0,1,310.57,189.27Z" style="fill:#e1aa21"/><path d="M309.74,158.83h-4.1a.75.75,0,0,1,0-1.5h4.1a.75.75,0,0,1,0,1.5Z" style="fill:#e1aa21"/><path d="M335.3,158.83H320.13a.75.75,0,0,1,0-1.5H335.3a13.29,13.29,0,0,0,13.27-13.28v-1.51a13.23,13.23,0,0,0-8.27-12.28.78.78,0,0,1-.45-.56.75.75,0,0,1,.22-.68,13.15,13.15,0,0,0,4.15-9.59v-3.79A13.29,13.29,0,0,0,331,102.37a.83.83,0,0,1-.77-.5,15.9,15.9,0,0,0-29.92,0,.75.75,0,0,1-.7.5,13.3,13.3,0,0,0-13.34,13.27v3.79a13.07,13.07,0,0,0,.24,2.5.75.75,0,1,1-1.47.28,14.39,14.39,0,0,1-.27-2.78v-3.79A14.8,14.8,0,0,1,299,100.87a17.39,17.39,0,0,1,32.36,0,14.8,14.8,0,0,1,14.32,14.76v3.79a14.59,14.59,0,0,1-3.85,9.9,14.71,14.71,0,0,1,8.2,13.21v1.51A14.79,14.79,0,0,1,335.3,158.83Z" style="fill:#e1aa21"/><path d="M272.76,188h0a.75.75,0,0,1-.74-.76c0-.18.27-18.53,0-25.18,0-3.53-1-9.84-5.06-11.36a.74.74,0,0,1-.44-1,.76.76,0,0,1,1-.44c5.93,2.23,6,11.66,6,12.73.27,6.66,0,25.05,0,25.23A.75.75,0,0,1,272.76,188Z" style="fill:#e1aa21"/><path d="M280.39,188a.74.74,0,0,1-.75-.75V162.06a8.27,8.27,0,0,1,1.75-5.56,7.52,7.52,0,0,1,5.39-2.52.75.75,0,1,1,.12,1.49,5.94,5.94,0,0,0-5.76,6.53v25.28A.75.75,0,0,1,280.39,188Z" style="fill:#e1aa21"/><path d="M296.33,166.91H281a.75.75,0,0,1,0-1.5h15.33a9.1,9.1,0,0,0,9.09-9.09v-1.07a9.12,9.12,0,0,0-4.77-8,.73.73,0,0,1-.38-.75,11.9,11.9,0,0,0,.09-1.37,11,11,0,0,0-10.95-11h-.34a.7.7,0,0,1-.57-.25.71.71,0,0,1-.19-.59,11.5,11.5,0,0,0,.08-1.25,11,11,0,1,0-21.91,0,.71.71,0,0,0,0,.14v.17a.75.75,0,0,1-.67.77,10.94,10.94,0,0,0-9.72,10.88,11.35,11.35,0,0,0,.08,1.25.76.76,0,0,1-.19.59.73.73,0,0,1-.56.25h-1.1a9.1,9.1,0,0,0-9.09,9.09v1.07a9.1,9.1,0,0,0,9.09,9.09h18.44a.75.75,0,0,1,0,1.5H254.34a10.6,10.6,0,0,1-10.59-10.59v-1.07a10.6,10.6,0,0,1,10.59-10.59h.29c0-.2,0-.4,0-.59A12.43,12.43,0,0,1,265,131.8a12.46,12.46,0,0,1,24.91.31c0,.19,0,.38,0,.58a12.46,12.46,0,0,1,12,12.45,10,10,0,0,1-.05,1.06,10.61,10.61,0,0,1,5.11,9.05v1.07A10.6,10.6,0,0,1,296.33,166.91Z" style="fill:#e1aa21"/><path d="M275,152.4a.76.76,0,0,1-.71-.51c-1.72-5-5.12-5.64-5.27-5.66a.76.76,0,0,1-.62-.86.75.75,0,0,1,.85-.63c.18,0,4.43.73,6.46,6.66a.75.75,0,0,1-.46,1A1.09,1.09,0,0,1,275,152.4Z" style="fill:#e1aa21"/><path d="M278.36,147.86a.75.75,0,0,1-.75-.75v-7.92a.75.75,0,0,1,1.5,0v7.92A.76.76,0,0,1,278.36,147.86Z" style="fill:#e1aa21"/><path d="M277.62,157.23h-.13a.74.74,0,0,1-.6-.87,8,8,0,0,1,7.26-6,.75.75,0,1,1,.15,1.49,6.36,6.36,0,0,0-5.94,4.82A.75.75,0,0,1,277.62,157.23Z" style="fill:#e1aa21"/><path d="M311.6,133a.75.75,0,0,1-.59-.29s-3.35-4.18-6.19-5.56a.75.75,0,0,1-.35-1,.76.76,0,0,1,1-.35c3.14,1.53,6.56,5.8,6.7,6a.75.75,0,0,1-.12,1.06A.78.78,0,0,1,311.6,133Z" style="fill:#e1aa21"/><path d="M317,138.07a.75.75,0,0,1-.5-1.31,9,9,0,0,1,4.94-1.95.77.77,0,0,1,.8.7.75.75,0,0,1-.69.8,7.57,7.57,0,0,0-4.06,1.57A.72.72,0,0,1,317,138.07Z" style="fill:#e1aa21"/><path d="M159.56,80.51a.75.75,0,0,1-.75-.75V32.06a.75.75,0,0,1,1.5,0v47.7A.74.74,0,0,1,159.56,80.51Z" style="fill:#e1aa21"/><path d="M193.11,98.79a.75.75,0,0,1-.75-.75V64.41h-32.8a.75.75,0,0,1,0-1.5h33.55a.75.75,0,0,1,.75.75V98A.74.74,0,0,1,193.11,98.79Z" style="fill:#e1aa21"/><path d="M217.68,97a.74.74,0,0,1-.25,0c-3.81-1.37-4.47-2.23-5.24-3.51l-.33-.53c-.11-.11-1-.7-7,.14a2.45,2.45,0,0,1-.67.07c-.42,0-1.7-.4-4.73-3.36a9.19,9.19,0,0,0-6.28-2.33.74.74,0,0,1-.8-.7.77.77,0,0,1,.71-.8,10.67,10.67,0,0,1,7.42,2.76c2.47,2.41,3.55,2.86,3.77,2.93l.37-.06c5.28-.74,7.74-.59,8.48.52.14.21.25.4.36.59.59,1,1,1.61,4.46,2.87a.75.75,0,0,1-.25,1.46Z" style="fill:#e1aa21"/><path d="M222.29,73a.72.72,0,0,1-.5-.2,4.23,4.23,0,0,0-5.84-.12.8.8,0,0,1-.51.19H193.11a.75.75,0,0,1,0-1.5h22a5.66,5.66,0,0,1,7.33.06,1.17,1.17,0,0,0,.33-.12,2.06,2.06,0,0,1,1-1.15,10.65,10.65,0,0,1,4.14-1A.75.75,0,1,1,228,70.7a9.31,9.31,0,0,0-3.41.74c-.27.17-.31.25-.36.39-.27.67-.7,1-1.79,1.16Z" style="fill:#e1aa21"/><path d="M185.2,64.41a.75.75,0,0,1-.75-.75V36.78a.75.75,0,0,1,1.5,0V63.66A.76.76,0,0,1,185.2,64.41Z" style="fill:#e1aa21"/></g><g id="f1bb96a0-8dfd-4b22-8b25-a1e33e3eb9b0" data-name="Foreground lines copy"><path d="M257.09,93.18c-.84-.6-1.9-.32-3,.19a2.05,2.05,0,0,0-.16-.55,1.7,1.7,0,0,0-1.13-.93,8.64,8.64,0,0,0-8,2.7h0A7.62,7.62,0,0,0,238,99.47c-.06.17-.14.35-.22.55a3.13,3.13,0,0,0-3,1.39c-1.15,1.59-5.11,11.85-6.15,14.59-4.52,2.32-12.69,7.85-15.09,9.5a42.68,42.68,0,0,0-19.08,8.11c-7.2,5.54-9.26,25.83-9.85,37.43a1.24,1.24,0,0,0,1.18,1.31h.07a1.24,1.24,0,0,0,1.24-1.18c.36-7,2.06-30.32,8.88-35.57a40.54,40.54,0,0,1,18.15-7.66,1.2,1.2,0,0,0,.58-.21c3.46-2.38,8-5.36,11.52-7.5a1.25,1.25,0,0,0-.15,1.46l2.89,4.75a1.25,1.25,0,0,0,1.07.6,1.47,1.47,0,0,0,.41-.07,16.25,16.25,0,0,0,5.51-3.38c-2.33,2.5-10.49,8.52-14.4,9.91-3.49,1.25-10.52,7.16-11.18,7.82a1.25,1.25,0,0,0,1.77,1.77c.71-.72,7.39-6.21,10.25-7.23,3.18-1.14,15.08-8.77,16.47-12.1a4.39,4.39,0,0,0,.28-2.15l2.57-2.17a1.27,1.27,0,0,0,.38-.56c0-.12,3.66-11.21,5.68-16.36,1.55-4,2.92-4.65,5.41-5.87.48-.24,1-.49,1.54-.78a5.91,5.91,0,0,1,.63-.31c0,.35-.11.79-.17,1.17s-.16,1-.24,1.52c-.45,3.43-6.58,23.5-8.09,26.52-1.43,2.86-11.75,15-12.79,15.94L232,141.85c-4.51,2.46-13.87,7.58-17.34,10.32-3.22,2.55-5.58,10.57-7.54,17.9l-.26,1a1.25,1.25,0,1,0,2.42.65l.26-1c1.24-4.65,3.83-14.33,6.67-16.57,3.3-2.61,12.89-7.86,17-10.1,1.52-.83,2.05-1.12,2.24-1.25,1.12-.75,12.13-13.87,13.65-16.9,1.61-3.23,7.84-23.64,8.33-27.31.07-.52.15-1,.22-1.45C257.93,95.35,258.16,93.94,257.09,93.18Zm-16.79,7.23a5.12,5.12,0,0,1,2.79-2.92C241,102,236.93,112,235.38,115.92a7.16,7.16,0,0,0-1.07-.54C235.48,112.45,238.93,103.77,240.3,100.41Zm-3.92,2.18a1.47,1.47,0,0,1,.54-.48c-1.75,4.34-4.36,10.92-5.12,12.81a4.74,4.74,0,0,0-.65,0C233.08,110,235.67,103.57,236.38,102.59Zm-1.6,18.52a10.84,10.84,0,0,1-4.25,3.12l-1.74-2.87a30.8,30.8,0,0,1,3.92-2.51h0a1.85,1.85,0,0,1,2,.6A1.23,1.23,0,0,1,234.78,121.11Zm10.65-19.5c-1.84,4.71-5,14.24-5.62,16.15l-1.52,1.29a9.62,9.62,0,0,0-.79-1.21l-.14-.15c1.29-3.24,6.56-16.44,8.52-20.22a5.91,5.91,0,0,1,5.67-3.23,1.45,1.45,0,0,1-.09.25,1,1,0,0,0-.06.25C249.07,95.91,247.18,97.15,245.43,101.61Z" style="fill:#333"/><path d="M200,101.1a11.77,11.77,0,0,1-4.88-1.43,11.88,11.88,0,0,0-1.31-.57,1.24,1.24,0,0,1-1,.15c-3.25-.85-4-3.67-4.57-5.53s-.64-1.87-1.17-1.73a1.26,1.26,0,0,1-1-.15,1.24,1.24,0,0,1-.56-.81,4.76,4.76,0,0,0-.41-1.2,1.62,1.62,0,0,1-1.17.66,1.47,1.47,0,0,1-1.38-.77,5.2,5.2,0,0,1-.34-2.66l-.2.25c-1.09,1.38-2.21,2.81-3.79,2.51s-2.23-2-2.7-3.55c-1.25-2.59-3.63-4.28-7.08-5-8-1.69-19.86,2.29-23.94,5.8a1.23,1.23,0,0,1-.95.3c-6.78-.74-9.26.54-11.45,1.67s-4.13,2.13-8.76.57l-.21-.1c-3.7-2.07-2.85-4.32-2.51-5a1.36,1.36,0,0,1,.31-.37c1.58-1.3,1-3-.46-6.36-.38-.85-.78-1.73-1.09-2.61a1.3,1.3,0,0,1-.07-.33c-.16-2.45-.54-2.89-1-3.39a5.87,5.87,0,0,1-1.46-3.17c-.85-2.11-1-3.21-.61-4a1.86,1.86,0,0,1,1-.91,5.73,5.73,0,0,0-.2-.73c-1.61-3.13-2-5.87-1.06-8.17,1.62-4.07,6.7-5.8,11.18-7.33A28.59,28.59,0,0,0,132.33,45a1.26,1.26,0,0,1,1.1-.1c2.07.79,3.48-.76,5.39-3.22.33-.42.65-.83,1-1.21a2.86,2.86,0,0,1-.31-1.72,4.5,4.5,0,0,1,2.3-2.88l.39-.27a1.26,1.26,0,0,1,1.17-.19,1.29,1.29,0,0,1,.8.88,3.7,3.7,0,0,0,.14.49A11.49,11.49,0,0,1,145.6,35c-.09-2.54,2.78-4.28,4.62-5.4l.77-.47c3.37-2.13,5-.66,6.25.42A4.1,4.1,0,0,0,160,30.91a1.86,1.86,0,0,1-.09-.24,1.22,1.22,0,0,1,0-.73c1.43-5.67,5.38-8.8,11.12-8.81h0c4.72,0,10.29,2.29,10.85,4.47a1.1,1.1,0,0,1,0,.36c0,.79-.63,1.61-1.8,3.1-.42.54-1.11,1.43-1.47,2,3.06,1.85,5.38,3.33,7.27,4.53,2.59,1.65,4.66,3,5.33,3.06a10.75,10.75,0,0,0,.68-1.42l.15-.36c1.21-2.73,1.78-7.22,2.24-10.84.64-5,.93-7.3,2.71-7.42,1.42-.1,2.43.9,5,10a2.3,2.3,0,0,1,1.7,0c2.13.91,3,5.17,3.17,7.41,1.68.8,1.65,2.69,1.64,3.89a4.9,4.9,0,0,0,.25,2.11c1.11.78,2.09,1.39,3,1.93,3.15,2,5.13,3.22,6.71,8.17a3,3,0,0,1,1.8.46,3.38,3.38,0,0,1,1.34,2.4c.2,1,1.44,2.09,2.63,3.17,1.39,1.25,2.83,2.54,3.23,4.18,4,12.53.6,17.14-3,22-2.37,3.18-4.82,6.47-5.55,12.51a1.22,1.22,0,0,1-.5.85,4,4,0,0,1-3.46.48c-5.81,3.3-8,2.82-10.63,1.72l-.66-.27A5.48,5.48,0,0,1,200,101.1Zm-6.41-4.53a6.6,6.6,0,0,1,2.59.84c2.47,1.16,4.5,1.91,6.24,0a1.25,1.25,0,0,1,1.28-.35c.59.18,1.11.4,1.57.59,1.89.79,3.26,1.36,8.45-1.59l.08-.08a1.66,1.66,0,0,1,1.62-.2,2.73,2.73,0,0,0,1.09.14c.91-6.27,3.57-9.84,5.94-13,3.52-4.73,6.31-8.46,2.63-19.85-.24-1-1.38-2-2.49-3-1.5-1.34-3-2.74-3.42-4.57a1.47,1.47,0,0,0-.26-.77s-.21-.12-1,.07a1.24,1.24,0,0,1-1.5-.87c-1.37-4.92-2.8-5.82-6-7.79-.95-.59-2-1.27-3.29-2.16a1.14,1.14,0,0,1-.3-.32A6,6,0,0,1,206,40c0-1.62-.09-1.63-.59-1.71a1.26,1.26,0,0,1-.83-.51,1.29,1.29,0,0,1-.21-1c.2-1.08-.73-5.13-1.58-5.75a2.08,2.08,0,0,0-.48.52,1.24,1.24,0,0,1-1.24.5,1.23,1.23,0,0,1-1-.9,81.56,81.56,0,0,0-2.75-8.8c-.2,1.13-.4,2.66-.57,4-.48,3.78-1.07,8.47-2.43,11.52l-.14.33c-.61,1.45-1,2.5-2.2,2.86-1.46.45-2.85-.43-7.45-3.36-1.92-1.22-4.3-2.73-7.44-4.64a1.68,1.68,0,0,1-1.09-1c-.47-1.2.49-2.52,2.1-4.58.34-.45.82-1.06,1.1-1.47a15.13,15.13,0,0,0-10.05-2.29c-3.47.56-5.75,2.72-6.79,6.41a2.55,2.55,0,0,1,0,2.46,2,2,0,0,1-1.76.76,6.41,6.41,0,0,1-5-2c-1.1-1-1.47-1.31-3.25-.18l-.82.5c-2.19,1.33-3.36,2.22-3.38,3.15a1.87,1.87,0,0,1,.25,1.31,1.24,1.24,0,0,1-1,1.06,1.09,1.09,0,0,1-.36,0c-.19.28-.46.67-.8,1.23a2.25,2.25,0,0,1-2.29,1.34,2.19,2.19,0,0,1-1.56-1.22,1.05,1.05,0,0,0-.37.52,1.24,1.24,0,0,0,.37.72,1.25,1.25,0,0,1-.12,1.73,16.28,16.28,0,0,0-1.42,1.67c-1.62,2.1-4,5.2-7.66,4.21a34.77,34.77,0,0,1-5.12,2c-4,1.36-8.46,2.9-9.66,5.9-.64,1.63-.32,3.65,1,6.17a1.54,1.54,0,0,1,.08.19c.47,1.43.51,2.29.15,3a1.89,1.89,0,0,1-1,.86,12.08,12.08,0,0,0,.64,1.91.73.73,0,0,1,.07.24,3.45,3.45,0,0,0,.92,2.1c.76.88,1.36,1.78,1.58,4.69.26.74.61,1.51,1,2.27,1.3,2.87,2.9,6.43,0,9.07,0,.31.48.84,1.46,1.41,3.54,1.17,4.74.55,6.7-.46,2.2-1.14,5.2-2.68,12.34-2,4.76-3.72,16.92-7.87,25.67-6,4.29.91,7.27,3.09,8.86,6.47,0,.06.05.12.07.17a5.63,5.63,0,0,0,.79,1.84A9.07,9.07,0,0,0,180,85.77c1.14-1.45,2.7-3.43,4.66-2.32a1.24,1.24,0,0,1,.41,1.79,3.85,3.85,0,0,0-.33,1.25,1.7,1.7,0,0,1,.5.09,4.65,4.65,0,0,1,2.37,2.86c2,.14,2.59,2.26,3,3.6.51,1.79,1,3,2.31,3.63A1.83,1.83,0,0,1,193.55,96.57Zm-14-70.23h0Z" style="fill:#333"/><path d="M208.37,115.12a2.88,2.88,0,0,1-1.3-.29c-2.25-.67-3.16-3.56-3.83-5.68a9.74,9.74,0,0,0-.64-1.74,1.47,1.47,0,0,1-.27-.63,1.8,1.8,0,0,1,.55-1.7c.8-.73,1.9-.46,3.3-.12,1.77.43,4.2,1,6.53,0a1.26,1.26,0,0,1,1.59.49c1.45,2.41,0,5.66-1.9,7.65A6,6,0,0,1,208.37,115.12Zm-3.1-7.81c.12.33.23.69.35,1.09.45,1.42,1.21,3.8,2.21,4a1.66,1.66,0,0,1,.31.12c.32.18,1.32-.1,2.46-1.27a5.94,5.94,0,0,0,1.81-3.63,13.09,13.09,0,0,1-6.82-.28Z" style="fill:#333"/><path d="M154.54,133.62a42.62,42.62,0,0,0-19.08-8.12c-2.4-1.65-10.57-7.18-15.09-9.5-1-2.74-5-13-6.15-14.59a3.13,3.13,0,0,0-3-1.39l-.22-.55a7.62,7.62,0,0,0-6.79-4.89h0a8.66,8.66,0,0,0-8-2.7,1.73,1.73,0,0,0-1.13.93,2,2,0,0,0-.15.55c-1.07-.51-2.13-.79-3-.19-1.07.76-.84,2.17-.55,3.95.07.45.15.93.22,1.45.49,3.67,6.72,24.08,8.33,27.31,1.52,3,12.53,16.15,13.66,16.9.18.13.72.42,2.23,1.25,4.1,2.24,13.69,7.49,17,10.1,2.83,2.24,5.42,11.92,6.67,16.57l.26,1a1.25,1.25,0,1,0,2.41-.65l-.26-1c-2-7.32-4.31-15.34-7.54-17.89-3.47-2.74-12.84-7.86-17.34-10.33l-2-1.08c-1.11-1-11.44-13.13-12.87-16-1.51-3-7.63-23.09-8.09-26.52-.07-.54-.16-1-.23-1.52s-.14-.82-.18-1.17a7,7,0,0,1,.64.31c.54.29,1,.54,1.54.78,2.48,1.22,3.85,1.9,5.41,5.87,2,5.15,5.64,16.24,5.67,16.36a1.36,1.36,0,0,0,.38.56l2.57,2.17a4.39,4.39,0,0,0,.28,2.15c1.39,3.33,13.29,11,16.47,12.1,2.86,1,9.54,6.51,10.26,7.23a1.25,1.25,0,0,0,1.77,0,1.27,1.27,0,0,0,0-1.77c-.67-.66-7.7-6.57-11.19-7.82-3.9-1.39-12.07-7.4-14.4-9.9a16.43,16.43,0,0,0,5.51,3.37,1.53,1.53,0,0,0,.41.07,1.25,1.25,0,0,0,1.07-.6l2.89-4.75a1.22,1.22,0,0,0-.15-1.46c3.53,2.14,8.06,5.12,11.53,7.5a1.16,1.16,0,0,0,.57.21A40.5,40.5,0,0,1,153,135.6c6.83,5.25,8.52,28.55,8.88,35.57a1.24,1.24,0,0,0,1.25,1.18h.06a1.24,1.24,0,0,0,1.18-1.31C163.81,159.44,161.74,139.15,154.54,133.62Zm-41.94-31c.72,1,3.3,7.38,5.24,12.38a4.89,4.89,0,0,0-.66,0c-.75-1.89-3.37-8.47-5.11-12.81A1.45,1.45,0,0,1,112.6,102.59Zm-3.92-2.18c1.37,3.36,4.83,12,6,15a7.16,7.16,0,0,0-1.07.54C112.05,112,108,102,105.9,97.49A5.14,5.14,0,0,1,108.68,100.41Zm.49,17.35c-.63-1.91-3.77-11.44-5.62-16.15-1.74-4.47-3.64-5.7-6-6.87a1.69,1.69,0,0,0,0-.24,2,2,0,0,1-.1-.26,6,6,0,0,1,5.67,3.23c2,3.78,7.23,17,8.52,20.22,0,.06-.09.1-.13.15a9.72,9.72,0,0,0-.8,1.21Zm9.28,6.47a10.89,10.89,0,0,1-4.24-3.12,1.23,1.23,0,0,1,.05-1.66,2.09,2.09,0,0,1,1.5-.71,1.13,1.13,0,0,1,.52.11h0a31.38,31.38,0,0,1,3.91,2.51Z" style="fill:#333"/></g></svg> 