<svg xmlns="http://www.w3.org/2000/svg" viewBox="0 0 441 253"><defs><style>.cls-1{fill:#e5e8f1;}.cls-2{fill:#aab2c4;}.cls-3{fill:#526680;}.cls-4{fill:#333;}</style></defs><g id="Bkg_colour" data-name="Bkg colour"><rect class="cls-1" x="0.09" y="0.19" width="440" height="252"/></g><g id="Bkg_lines" data-name="Bkg lines"><path class="cls-2" d="M26.75,51.86H5.9a1,1,0,0,1,0-2.1H25.7V42.19H5.9a1,1,0,0,1,0-2.1H26.75a1,1,0,0,1,1.05,1v9.67a1,1,0,0,1-1.05,1"/><path class="cls-2" d="M26.75,112.32H5.9a1,1,0,0,1,0-2.1H25.7v-7.57H5.9a1,1,0,0,1,0-2.1H26.75a1,1,0,0,1,1.05,1v9.67a1,1,0,0,1-1.05,1"/><path class="cls-2" d="M26.75,172.78H5.9a1,1,0,1,1,0-2.1H25.7v-7.57H5.9a1.05,1.05,0,1,1,0-2.1H26.75a1,1,0,0,1,1.05,1.05v9.67a1,1,0,0,1-1.05,1.05"/><path class="cls-2" d="M127.56,51.86H106.71a1,1,0,0,1-1-1V41.14a1,1,0,0,1,1-1h20.85a1,1,0,0,1,1.05,1v9.67a1,1,0,0,1-1.05,1m-19.8-2.1h18.75V42.19H107.76Z"/><path class="cls-2" d="M127.56,112.32H106.71a1,1,0,0,1-1-1V101.6a1,1,0,0,1,1-1h20.85a1,1,0,0,1,1.05,1v9.67a1,1,0,0,1-1.05,1m-19.8-2.1h18.75v-7.57H107.76Z"/><path class="cls-2" d="M127.56,172.78H106.71a1,1,0,0,1-1-1.05v-9.67a1,1,0,0,1,1-1.05h20.85a1,1,0,0,1,1.05,1.05v9.67a1,1,0,0,1-1.05,1.05m-19.8-2.1h18.75v-7.57H107.76Z"/><path class="cls-2" d="M229.43,51.86H208.58a1,1,0,0,1-1.05-1V41.14a1,1,0,0,1,1.05-1h20.85a1,1,0,0,1,1,1v9.67a1,1,0,0,1-1,1m-19.8-2.1h18.75V42.19H209.63Z"/><path class="cls-2" d="M329.2,51.86H308.35a1,1,0,0,1-1.05-1V41.14a1,1,0,0,1,1.05-1H329.2a1,1,0,0,1,1.05,1v9.67a1,1,0,0,1-1.05,1m-19.8-2.1h18.75V42.19H309.4Z"/><path class="cls-2" d="M329.2,112.32H308.35a1,1,0,0,1-1.05-1V101.6a1,1,0,0,1,1.05-1H329.2a1,1,0,0,1,1.05,1v9.67a1,1,0,0,1-1.05,1m-19.8-2.1h18.75v-7.57H309.4Z"/><path class="cls-2" d="M329.2,172.78H308.35a1,1,0,0,1-1.05-1.05v-9.67a1,1,0,0,1,1.05-1.05H329.2a1,1,0,0,1,1.05,1.05v9.67a1,1,0,0,1-1.05,1.05m-19.8-2.1h18.75v-7.57H309.4Z"/><path class="cls-2" d="M430,51.86H409.16a1,1,0,0,1-1.05-1V41.14a1,1,0,0,1,1.05-1H430a1.05,1.05,0,1,1,0,2.1h-19.8v7.57H430a1.05,1.05,0,1,1,0,2.1"/><path class="cls-2" d="M430,112.32H409.16a1,1,0,0,1-1.05-1V101.6a1,1,0,0,1,1.05-1H430a1.05,1.05,0,1,1,0,2.1h-19.8v7.57H430a1.05,1.05,0,1,1,0,2.1"/><path class="cls-2" d="M430,172.78H409.16a1,1,0,0,1-1.05-1.05v-9.67a1,1,0,0,1,1.05-1.05H430a1.05,1.05,0,1,1,0,2.1h-19.8v7.57H430a1.05,1.05,0,1,1,0,2.1"/><path class="cls-2" d="M61.52,212.88c-30.25,0-53.46,0-54.47-.18-.86-.11-1.41-.66-1.24-1.23a1.66,1.66,0,0,1,1.81-.83c4,.26,127.87.1,192.93,0h0c.87,0,1.58.47,1.58,1s-.71,1.05-1.58,1.05c-19.84,0-89,.16-139,.16"/><path class="cls-2" d="M48.73,149.63c-23.31,0-41.2,0-42-.18a1.07,1.07,0,0,1-1-1.23,1.22,1.22,0,0,1,1.39-.84c3.07.27,98.54.11,148.67,0h0a1.06,1.06,0,1,1,0,2.1c-15.29,0-68.61.16-107.14.16"/><path class="cls-2" d="M45.75,90.09c-21.69,0-38.34,0-39.06-.17a1.07,1.07,0,0,1-.89-1.24,1.12,1.12,0,0,1,1.3-.83c2.84.26,91.69.11,138.33,0h0a1.05,1.05,0,1,1,0,2.1c-14.22,0-63.84.15-99.69.15"/><path class="cls-2" d="M68.68,202.94a1,1,0,0,1-1.05-1.05V40.44a1,1,0,0,1,2.1,0V201.89a1,1,0,0,1-1,1.05"/><path class="cls-2" d="M168.63,70.81c-.58,0-1-1.12-1-2.49V41.88c0-1.37.47-2.49,1-2.49s1.05,1.12,1.05,2.49V68.32c0,1.37-.47,2.49-1.05,2.49"/><path class="cls-2" d="M168.63,203.14c-.58,0-1-.95-1-2.13V178.36c0-1.18.47-2.13,1-2.13s1.05,1,1.05,2.13V201c0,1.18-.47,2.13-1.05,2.13"/><path class="cls-2" d="M269.62,70.81c-.58,0-1.05-1.12-1.05-2.49V41.88c0-1.37.47-2.49,1.05-2.49s1.05,1.12,1.05,2.49V68.32c0,1.37-.47,2.49-1.05,2.49"/><path class="cls-2" d="M269.62,203c-.58,0-1.05-.94-1.05-2.11V178.35c0-1.17.47-2.12,1.05-2.12s1.05,1,1.05,2.12V200.9c0,1.17-.47,2.11-1.05,2.11"/><path class="cls-2" d="M293.78,212.88c-30.36,0-53.65,0-54.66-.18s-1.42-.66-1.25-1.23a1.67,1.67,0,0,1,1.81-.83c4,.26,128.34.1,193.63,0h0c.87,0,1.59.47,1.59,1s-.71,1.05-1.59,1.05c-19.91,0-89.37.16-139.54.16"/><path class="cls-2" d="M325.65,149.63c-23.5,0-41.54,0-42.32-.18a1.06,1.06,0,0,1-1-1.23,1.23,1.23,0,0,1,1.4-.84c3.08.27,99.36.11,149.9,0h0a1.06,1.06,0,1,1,0,2.1c-15.42,0-69.18.16-108,.16"/><path class="cls-2" d="M333.77,90.09c-21.76,0-38.46,0-39.18-.17a1.05,1.05,0,0,1-.89-1.24,1.12,1.12,0,0,1,1.3-.83c2.86.26,92,.11,138.76,0h0a1.09,1.09,0,0,1,1.14,1,1.11,1.11,0,0,1-1.14,1.06c-14.27,0-64,.15-100,.15"/><path class="cls-2" d="M367.81,202.94a1,1,0,0,1-1.05-1.05V40.44a1.05,1.05,0,0,1,2.1,0V201.89a1,1,0,0,1-1.05,1.05"/></g><g id="Fill"><path class="cls-3" d="M209.64,174.76l56.63-56.63v-12l-59.49,59.49a3.14,3.14,0,0,1,.22-.89l-8.83,9.5L188.38,161l11.83-12.75a169,169,0,0,1-5.62-18A153.32,153.32,0,0,1,190.32,89L173,94.09s.48,31.32,6.47,49.1c5.23,15.52,9.5,20.58,16.56,29.46,12,15.12,24,17.8,24,17.8A124.89,124.89,0,0,1,209.64,174.76Z"/><path class="cls-3" d="M284.27,81.56,219.88,66.19,280.2,86c-2.51,7.14-1.53,42.34-11.63,65.81C249,197.4,220,203.76,220,203.76s26.83-4.9,38.55-23.72c4.58-7.37,10.31-15.51,14.86-26.06,11.39-26.47,11.81-69.28,13.14-70.44C288,82.25,284.94,81.77,284.27,81.56Z"/></g><g id="Outlines"><path class="cls-4" d="M180.08,149.39c15,34.82,38.34,42.4,39.33,42.7a1.49,1.49,0,0,0,.47.07,1.47,1.47,0,0,0,.46-.07c1-.3,24.35-7.88,39.33-42.7,8.4-19.52,10.39-53.81,10.47-55.26a1.57,1.57,0,0,0-1.14-1.6L220.31,78.76a1.55,1.55,0,0,0-.88,0L172.57,92.53a1.58,1.58,0,0,0-1.14,1.52C171.44,95.5,171.67,129.83,180.08,149.39Zm76.7-1.25c-13.23,30.74-33.57,39.51-36.9,40.77-2.09-.78-10.8-4.5-20.27-14.67l66-65.13C264.16,121,261.5,137.17,256.78,148.14Zm9.35-44-68.62,67.75a84.14,84.14,0,0,1-7.53-10.3l68.7-68.69,8.23,2.33C266.8,96.87,266.55,100.05,266.13,104.13ZM219.89,81.92l35.31,10L188.31,158.8A101.78,101.78,0,0,1,183,148.14c-7.31-17-8.26-46.65-8.38-52.92Z"/><path class="cls-4" d="M159.84,84.91a1.59,1.59,0,0,0-1.1,1.56c0,1.67,1.36,41.3,12.2,67,19.36,45.93,47.55,50.08,48.74,50.24h.4c1.19-.16,29.38-4.31,48.74-50.24,10.84-25.7,12.14-65.33,12.2-67a1.59,1.59,0,0,0-1.11-1.56L220.35,66.17a1.54,1.54,0,0,0-.95,0Zm118,2.65c-.31,6.88-2.33,42-11.9,64.69-17.75,42.09-43.47,47.83-46,48.3-2.57-.47-28.29-6.21-46-48.3-9.58-22.72-11.59-57.81-11.9-64.69l57.94-18.24Z"/><path class="cls-4" d="M287.06,79.89,220.33,59.67a1.57,1.57,0,0,0-.91,0L152.7,79.89a1.58,1.58,0,0,0-1.12,1.52c0,1.85.33,45.68,12.26,73.4,21.25,49.37,54.3,57.16,55.7,57.46a1.27,1.27,0,0,0,.34,0,1.37,1.37,0,0,0,.34,0c1.39-.3,34.45-8.09,55.7-57.46,11.92-27.72,12.25-71.55,12.26-73.4A1.59,1.59,0,0,0,287.06,79.89Zm-14,73.67c-19.43,45.16-49.61,54.59-53.14,55.55-3.54-1-33.67-10.29-53.14-55.55-10.61-24.65-11.85-63.75-12-71l65.13-19.73L285,82.56C284.87,89.81,283.63,128.91,273,153.56Z"/></g></svg> 