<svg xmlns="http://www.w3.org/2000/svg" width="374.536" height="167.497" viewBox="0 0 374.536 167.497"> 

  <g data-name="Group 8186" transform="translate(-38.177 -34.846)"> 

    <path data-name="Path 7431" d="M410.934,133.758a1.042,1.042,0,0,0-1.565.05c-.037.043-3.681,4.227-6.882,4.461-1.247.073-3.026-2.006-4.8-4.03-2.509-2.871-5.353-6.125-8.789-6.452-3.482-.338-6.273,2.682-8.994,5.593-2.22,2.374-4.317,4.617-6.33,4.617-2.227,0-4.721-2.4-7.134-4.719-2.652-2.55-5.157-4.958-7.848-4.958-2.61,0-4.9,2.53-7.094,5.183a1.064,1.064,0,0,0-.469.3c-.037.043-3.681,4.227-6.883,4.461a1.674,1.674,0,0,1-.782-.2c-.287-.159-.568-.34-.846-.532a28.279,28.279,0,0,1-3.167-3.295c-2.509-2.871-5.352-6.125-8.788-6.452-3.483-.338-6.273,2.682-8.994,5.593-2.22,2.374-4.317,4.617-6.33,4.617-2.227,0-4.722-2.4-7.134-4.719-2.652-2.55-5.157-4.958-7.849-4.958-2.833,0-5.286,2.982-7.657,5.866-1.858,2.26-3.975,4.832-5.476,4.626-3.659-.472-7.566-5.934-7.6-5.99a1.047,1.047,0,0,0-1.554-.216,1.289,1.289,0,0,0-.2,1.7c.181.258,4.513,6.324,9.1,6.914a3.5,3.5,0,0,0,.442.028c2.468,0,4.645-2.647,6.94-5.439,1.952-2.374,4.165-5.064,6.011-5.064s4.16,2.214,6.387,4.355c2.721,2.616,5.534,5.322,8.6,5.322,2.917,0,5.44-2.7,7.879-5.308,2.364-2.528,4.8-5.151,7.252-4.911,1.913.182,3.787,1.8,5.535,3.655a1.252,1.252,0,0,0,.2.448,24.143,24.143,0,0,0,5.268,5.285,6.2,6.2,0,0,0,1.349.815,7.677,7.677,0,0,0,2.481.814,3.471,3.471,0,0,0,.441.028c2.468,0,4.645-2.647,6.941-5.439,1.951-2.374,4.164-5.064,6.011-5.064s4.16,2.214,6.386,4.355c2.721,2.616,5.534,5.322,8.6,5.322,2.917,0,5.44-2.7,7.88-5.308,2.364-2.528,4.8-5.151,7.252-4.911,2.605.248,5.141,3.15,7.379,5.712,2.315,2.648,4.316,4.944,6.544,4.773,4.072-.3,8.175-5.016,8.348-5.217A1.294,1.294,0,0,0,410.934,133.758Z" fill="#8bbcbc"/> 

    <path data-name="Path 7432" d="M122.4,167.684s-.057-41.423-.057-47.631c0-7.223,4.29-8.448,5.7-8.852a1.137,1.137,0,1,1,.625,2.186c-1.315.376-4.053,1.157-4.053,6.666,0,6.208.056,47.627.056,47.627Z" fill="#8bbcbc"/> 

    <path data-name="Path 7433" d="M114.224,168.818h-.008a1.135,1.135,0,0,1-1.128-1.144c0-.4.275-40.017,0-48.506-.028-.882-.043-1.692-.055-2.445-.113-6.414-.142-8.138-8.823-14.136a1.136,1.136,0,1,1,1.291-1.869c9.231,6.377,9.677,8.743,9.8,15.965.014.742.028,1.542.056,2.411.275,8.534,0,48.2,0,48.6A1.135,1.135,0,0,1,114.224,168.818Z" fill="#8bbcbc"/> 

    <path data-name="Path 7434" d="M113.28,134.3h-4.655a1.135,1.135,0,1,1,0-2.271h4.655a1.135,1.135,0,1,1,0,2.271Z" fill="#8bbcbc"/> 

    <path data-name="Path 7435" d="M141.126,134.3H123.921a1.135,1.135,0,0,1,0-2.271h17.205a14.778,14.778,0,0,0,14.76-14.761v-1.718a14.737,14.737,0,0,0-9.2-13.658,1.137,1.137,0,0,1-.352-1.874,14.615,14.615,0,0,0,4.613-10.672v-4.3a14.776,14.776,0,0,0-14.76-14.76,1.232,1.232,0,0,1-1.14-.749,17.741,17.741,0,0,0-33.379,0,1.135,1.135,0,0,1-1.068.749,14.792,14.792,0,0,0-14.832,14.76v4.3a14.593,14.593,0,0,0,.267,2.78,1.136,1.136,0,0,1-2.231.434,16.935,16.935,0,0,1-.307-3.214v-4.3A17.053,17.053,0,0,1,99.813,68.032a20.012,20.012,0,0,1,37.089,0,17.062,17.062,0,0,1,16.315,17.014v4.3a16.81,16.81,0,0,1-4.184,11.137,16.98,16.98,0,0,1,9.125,15.067v1.718A17.051,17.051,0,0,1,141.126,134.3Z" fill="#8bbcbc"/> 

    <path data-name="Path 7436" d="M180.723,127.689a1.137,1.137,0,0,1-.844-.375A13.485,13.485,0,0,0,160,127.146a1.137,1.137,0,0,1-1.24.283c-.293-.113-.55-.218-.785-.315a5.845,5.845,0,0,0-2.8-.6,1.136,1.136,0,0,1,0-2.272,7.982,7.982,0,0,1,3.653.773l.058.023a15.758,15.758,0,0,1,22.066.117,15.769,15.769,0,0,1,6.876-1.582,1.135,1.135,0,1,1,0,2.271,13.5,13.5,0,0,0-6.556,1.705A1.134,1.134,0,0,1,180.723,127.689Z" fill="#8bbcbc"/> 

    <path data-name="Path 7437" d="M143.994,168.753a13.455,13.455,0,0,1-13.44-13.44v-1.33a13.559,13.559,0,0,1,7.7-12.13,14.747,14.747,0,0,1-.118-1.847A15.79,15.79,0,0,1,140,132.558a1.136,1.136,0,1,1,2,1.074,13.306,13.306,0,0,0-1.378,8.718,1.138,1.138,0,0,1-.7,1.252,11.265,11.265,0,0,0-7.094,10.381v1.33a11.181,11.181,0,0,0,11.168,11.169,1.136,1.136,0,0,1,0,2.271Z" fill="#8bbcbc"/> 

    <g data-name="Group 8165"> 

      <path data-name="Path 7438" d="M71.355,167.413h-.017a1.134,1.134,0,0,1-1.119-1.152c0-.209.3-21.006,0-28.536.026-3.936-1.114-10.951-5.557-12.617a1.136,1.136,0,0,1,.8-2.127c6.914,2.592,7.039,13.473,7.03,14.706.3,7.539,0,28.4,0,28.607A1.136,1.136,0,0,1,71.355,167.413Z" fill="#8bbcbc"/> 

    </g> 

    <g data-name="Group 8166"> 

      <path data-name="Path 7439" d="M80,167.413a1.135,1.135,0,0,1-1.135-1.135v-28.6a9.735,9.735,0,0,1,2.049-6.49,8.837,8.837,0,0,1,6.308-2.956,1.135,1.135,0,1,1,.19,2.263,6.37,6.37,0,0,0-6.28,7.088l0,28.694A1.135,1.135,0,0,1,80,167.413Z" fill="#8bbcbc"/> 

    </g> 

    <g data-name="Group 8167"> 

      <path data-name="Path 7440" d="M98.07,143.462H80.691a1.136,1.136,0,1,1,0-2.271H98.07a10.035,10.035,0,0,0,10.023-10.023v-1.207a10.041,10.041,0,0,0-5.254-8.806,1.133,1.133,0,0,1-.583-1.137,12.055,12.055,0,0,0-12.027-13.659c-.051,0-.1,0-.149.007l-.223.013a1.234,1.234,0,0,1-.869-.367,1.14,1.14,0,0,1-.292-.9,12.131,12.131,0,1,0-24.181-1.393l.02.352a1.138,1.138,0,0,1-1.009,1.164,12.112,12.112,0,0,0-10.764,12.05,12.37,12.37,0,0,0,.086,1.389,1.135,1.135,0,0,1-1.129,1.264H50.471a10.034,10.034,0,0,0-10.022,10.022v1.207a10.034,10.034,0,0,0,10.022,10.023H71.38a1.136,1.136,0,1,1,0,2.271H50.471a12.308,12.308,0,0,1-12.294-12.294v-1.207a12.308,12.308,0,0,1,12.294-12.294H50.5q-.006-.193-.006-.381a14.383,14.383,0,0,1,11.764-14.158,14.406,14.406,0,0,1,28.8.592q0,.193-.006.39a14.422,14.422,0,0,1,13.586,14.382c0,.339-.014.685-.045,1.057a12.3,12.3,0,0,1,5.776,10.412v1.207A12.309,12.309,0,0,1,98.07,143.462Z" fill="#8bbcbc"/> 

    </g> 

    <g data-name="Group 8168"> 

      <path data-name="Path 7441" d="M73.875,127.01a1.138,1.138,0,0,1-1.076-.769c-1.888-5.52-5.6-6.2-5.753-6.229a1.136,1.136,0,0,1,.343-2.246c.212.031,5.2.846,7.561,7.739a1.137,1.137,0,0,1-.707,1.443A1.156,1.156,0,0,1,73.875,127.01Z" fill="#8bbcbc"/> 

    </g> 

    <g data-name="Group 8169"> 

      <path data-name="Path 7442" d="M77.7,121.862a1.135,1.135,0,0,1-1.136-1.136v-8.979a1.135,1.135,0,0,1,2.271,0v8.979A1.134,1.134,0,0,1,77.7,121.862Z" fill="#8bbcbc"/> 

    </g> 

    <g data-name="Group 8170"> 

      <path data-name="Path 7443" d="M76.868,132.492a1.066,1.066,0,0,1-.21-.019,1.133,1.133,0,0,1-.909-1.317,9.248,9.248,0,0,1,8.484-7.078,1.12,1.12,0,0,1,1.246,1.014,1.135,1.135,0,0,1-1.014,1.246c-5.515.567-6.445,5.041-6.482,5.232A1.138,1.138,0,0,1,76.868,132.492Z" fill="#8bbcbc"/> 

    </g> 

    <path data-name="Path 7444" d="M144.155,168.952a1.135,1.135,0,0,1-.712-2.021,12.3,12.3,0,0,1,7.678-2.708h.025q-.006-.194-.006-.381A14.384,14.384,0,0,1,162.9,149.684a14.406,14.406,0,0,1,25.58-8.486,1.136,1.136,0,0,1-1.764,1.432,12.134,12.134,0,0,0-21.556,7.646l.019.352a1.136,1.136,0,0,1-1.009,1.163,12.072,12.072,0,0,0-10.677,13.44,1.136,1.136,0,0,1-1.129,1.263h-1.248a9.9,9.9,0,0,0-6.256,2.208A1.126,1.126,0,0,1,144.155,168.952Z" fill="#8bbcbc"/> 

    <path data-name="Path 7445" d="M115.385,105a1.127,1.127,0,0,1-.889-.429c-.038-.046-3.761-4.695-6.919-6.226a1.136,1.136,0,1,1,.992-2.045c3.624,1.758,7.54,6.65,7.705,6.857a1.137,1.137,0,0,1-.889,1.843Z" fill="#8bbcbc"/> 

    <path data-name="Path 7446" d="M121.485,110.768a1.136,1.136,0,0,1-.757-1.984,10.407,10.407,0,0,1,5.772-2.278,1.136,1.136,0,0,1,.163,2.266,8.221,8.221,0,0,0-4.429,1.715A1.14,1.14,0,0,1,121.485,110.768Z" fill="#8bbcbc"/> 

    <path data-name="Path 7447" d="M411.713,185.379H44.144a1,1,0,0,0,0,2H411.713a1,1,0,0,0,0-2Z" fill="#8bbcbc"/> 

    <path data-name="Path 7448" d="M411.713,200.343H44.144a1,1,0,0,0,0,2H411.713a1,1,0,0,0,0-2Z" fill="#8bbcbc"/> 

    <path data-name="Path 7449" d="M186.839,59.238H161a9.092,9.092,0,0,1,0-18.184h6.945a9.192,9.192,0,0,1,17.388,0h1.5a9.092,9.092,0,0,1,0,18.184ZM161,43.054a7.092,7.092,0,0,0,0,14.184h25.835a7.092,7.092,0,0,0,0-14.184h-2.248a1,1,0,0,1-.97-.757,7.192,7.192,0,0,0-13.956,0,1,1,0,0,1-.969.757Z" fill="#8bbcbc"/> 

    <path data-name="Path 7450" d="M325.663,73.817a11.809,11.809,0,1,1,11.809-11.808A11.821,11.821,0,0,1,325.663,73.817Zm0-20.617a8.809,8.809,0,1,0,8.809,8.809A8.818,8.818,0,0,0,325.663,53.2Z" fill="#8bbcbc"/> 

    <g data-name="Group 8175"> 

      <g data-name="Group 8171"> 

        <path data-name="Path 7451" d="M325.663,46.993a1.5,1.5,0,0,1-1.5-1.5V38.62a1.5,1.5,0,1,1,3,0v6.873A1.5,1.5,0,0,1,325.663,46.993Z" fill="#8bbcbc"/> 

      </g> 

      <g data-name="Group 8172"> 

        <path data-name="Path 7452" d="M325.663,86.9a1.5,1.5,0,0,1-1.5-1.5V78.525a1.5,1.5,0,0,1,3,0V85.4A1.5,1.5,0,0,1,325.663,86.9Z" fill="#8bbcbc"/> 

      </g> 

      <g data-name="Group 8173"> 

        <path data-name="Path 7453" d="M309.148,63.509h-6.873a1.5,1.5,0,0,1,0-3h6.873a1.5,1.5,0,0,1,0,3Z" fill="#8bbcbc"/> 

      </g> 

      <g data-name="Group 8174"> 

        <path data-name="Path 7454" d="M349.052,63.509H342.18a1.5,1.5,0,0,1,0-3h6.872a1.5,1.5,0,0,1,0,3Z" fill="#8bbcbc"/> 

      </g> 

    </g> 

    <g data-name="Group 8180"> 

      <g data-name="Group 8176"> 

        <path data-name="Path 7455" d="M339.96,55.237a1.5,1.5,0,0,1-.752-2.8L345.156,49a1.5,1.5,0,1,1,1.5,2.6l-5.948,3.442A1.491,1.491,0,0,1,339.96,55.237Z" fill="#8bbcbc"/> 

      </g> 

      <g data-name="Group 8177"> 

        <path data-name="Path 7456" d="M305.42,75.223a1.5,1.5,0,0,1-.752-2.8l5.949-3.442a1.5,1.5,0,1,1,1.5,2.6l-5.949,3.442A1.491,1.491,0,0,1,305.42,75.223Z" fill="#8bbcbc"/> 

      </g> 

      <g data-name="Group 8178"> 

        <path data-name="Path 7457" d="M317.393,49.214a1.5,1.5,0,0,1-1.3-.749l-3.442-5.949a1.5,1.5,0,1,1,2.6-1.5l3.443,5.949a1.5,1.5,0,0,1-1.3,2.252Z" fill="#8bbcbc"/> 

      </g> 

      <g data-name="Group 8179"> 

        <path data-name="Path 7458" d="M337.378,83.753a1.5,1.5,0,0,1-1.3-.749l-3.441-5.949a1.5,1.5,0,0,1,2.6-1.5l3.441,5.949a1.5,1.5,0,0,1-1.3,2.251Z" fill="#8bbcbc"/> 

      </g> 

    </g> 

    <g data-name="Group 8185"> 

      <g data-name="Group 8181"> 

        <path data-name="Path 7459" d="M334.236,49.392a1.5,1.5,0,0,1-1.282-2.279l3.567-5.874a1.5,1.5,0,1,1,2.564,1.556l-3.566,5.875A1.5,1.5,0,0,1,334.236,49.392Z" fill="#8bbcbc"/> 

      </g> 

      <g data-name="Group 8182"> 

        <path data-name="Path 7460" d="M313.523,83.5a1.5,1.5,0,0,1-1.282-2.278l3.568-5.875a1.5,1.5,0,0,1,2.564,1.558l-3.567,5.874A1.5,1.5,0,0,1,313.523,83.5Z" fill="#8bbcbc"/> 

      </g> 

      <g data-name="Group 8183"> 

        <path data-name="Path 7461" d="M311.545,54.936a1.487,1.487,0,0,1-.777-.218l-5.874-3.567a1.5,1.5,0,0,1,1.556-2.564l5.874,3.567a1.5,1.5,0,0,1-.779,2.782Z" fill="#8bbcbc"/> 

      </g> 

      <g data-name="Group 8184"> 

        <path data-name="Path 7462" d="M345.654,75.648a1.5,1.5,0,0,1-.777-.217L339,71.864a1.5,1.5,0,1,1,1.557-2.565l5.875,3.567a1.5,1.5,0,0,1-.78,2.782Z" fill="#8bbcbc"/> 

      </g> 

    </g> 

    <path data-name="Path 7463" d="M388.448,110.177a1.043,1.043,0,0,0-1.566.051c-.037.042-3.681,4.226-6.882,4.46-1.246.074-3.026-2.006-4.8-4.03-2.509-2.871-5.352-6.125-8.788-6.451-3.483-.339-6.273,2.682-8.995,5.593-2.22,2.374-4.316,4.616-6.33,4.616-2.226,0-4.721-2.4-7.134-4.718-2.652-2.55-5.156-4.959-7.848-4.959-2.61,0-4.9,2.531-7.094,5.184a1.047,1.047,0,0,0-.469.305c-.037.042-3.681,4.226-6.882,4.46a1.689,1.689,0,0,1-.783-.2c-.287-.159-.568-.341-.845-.533a27.958,27.958,0,0,1-3.167-3.3c-2.509-2.871-5.353-6.125-8.789-6.451-3.482-.339-6.273,2.682-8.994,5.593-2.22,2.374-4.316,4.616-6.33,4.616-2.226,0-4.721-2.4-7.134-4.718-2.652-2.55-5.156-4.959-7.848-4.959-2.834,0-5.286,2.983-7.658,5.867a25.56,25.56,0,0,1-3.7,3.939V117.3c1.838-.816,3.555-2.9,5.344-5.073,1.951-2.373,4.164-5.064,6.011-5.064s4.16,2.214,6.386,4.356c2.721,2.616,5.534,5.321,8.6,5.321,2.917,0,5.44-2.7,7.88-5.307,2.364-2.529,4.8-5.152,7.252-4.912,1.912.182,3.786,1.8,5.534,3.656a1.252,1.252,0,0,0,.2.448,24.143,24.143,0,0,0,5.268,5.285,6.26,6.26,0,0,0,1.349.814,7.679,7.679,0,0,0,2.481.815,3.665,3.665,0,0,0,.441.028c2.468,0,4.645-2.647,6.941-5.44,1.952-2.373,4.164-5.064,6.011-5.064s4.16,2.214,6.386,4.356c2.721,2.616,5.534,5.321,8.6,5.321,2.917,0,5.44-2.7,7.88-5.307,2.364-2.529,4.8-5.152,7.252-4.912,2.605.248,5.141,3.151,7.38,5.712,2.314,2.649,4.315,4.944,6.543,4.773,4.072-.3,8.175-5.016,8.348-5.216A1.3,1.3,0,0,0,388.448,110.177Z" fill="#8bbcbc"/> 

    <path data-name="Path 7464" d="M272.74,159.613c2.721,2.616,5.534,5.322,8.6,5.322,2.917,0,5.44-2.7,7.88-5.308,2.364-2.528,4.8-5.151,7.252-4.911,1.912.182,3.787,1.8,5.534,3.656a1.247,1.247,0,0,0,.2.447,24.16,24.16,0,0,0,5.268,5.286,6.26,6.26,0,0,0,1.349.814,7.653,7.653,0,0,0,2.481.814,3.474,3.474,0,0,0,.441.029c2.468,0,4.645-2.647,6.941-5.44,1.952-2.374,4.164-5.064,6.011-5.064s4.16,2.214,6.387,4.355c2.721,2.616,5.533,5.322,8.6,5.322,2.917,0,5.44-2.7,7.88-5.308,2.364-2.528,4.8-5.151,7.252-4.911,2.6.248,5.141,3.151,7.38,5.712,2.314,2.649,4.316,4.944,6.543,4.773,4.072-.3,8.175-5.016,8.348-5.217a1.3,1.3,0,0,0-.047-1.713,1.043,1.043,0,0,0-1.566.05c-.037.043-3.681,4.227-6.882,4.461-1.246.073-3.026-2.006-4.8-4.03-2.509-2.871-5.352-6.125-8.788-6.452-3.483-.338-6.273,2.682-8.994,5.593-2.221,2.374-4.317,4.617-6.331,4.617-2.226,0-4.721-2.4-7.134-4.719-2.652-2.549-5.156-4.958-7.848-4.958-2.61,0-4.9,2.53-7.094,5.183a1.069,1.069,0,0,0-.469.3c-.037.043-3.681,4.227-6.882,4.461a1.678,1.678,0,0,1-.783-.2c-.286-.159-.568-.34-.845-.532a28.116,28.116,0,0,1-3.167-3.295c-2.509-2.871-5.352-6.125-8.789-6.452-3.482-.338-6.273,2.682-8.993,5.593-2.221,2.374-4.317,4.617-6.331,4.617-2.226,0-4.721-2.4-7.134-4.719-2.63-2.529-5.116-4.912-7.782-4.951v2.427C268.266,155.317,270.539,157.5,272.74,159.613Z" fill="#8bbcbc"/> 

    <path data-name="Path 7465" d="M248.009,149.759v15.055c3.141,2.029,9.22,4.487,15.5-1.039.115-.1.222-.172.333-.259V75.96c.331-7.384,2.908-7.3,2.908-7.3l-5.111-.026s-3.9-.016-5.089-.016H215.971c3.273,24.846,10.062,69.739,11.8,81.14Z" fill="none"/> 

    <path data-name="Path 7466" d="M243.995,167.576v-14.3H177.329V167.1a7.389,7.389,0,0,0,7.292,7.292H240.58c.688,0,5.555-.152,5.555-.152S243.807,172.994,243.995,167.576Z" fill="none"/> 

    <path data-name="Path 7467" d="M276.252,68.619l-1.8.016c-3.656,0-6.59,1.459-6.59,7.275V89.738h15.713V75.91A7.4,7.4,0,0,0,276.252,68.619Z" fill="#53a8a8"/> 

    <path data-name="Path 7468" d="M248.009,167.572v1.967a4.909,4.909,0,0,0,2.9,4.125c.984.622,2.532.731,5.089.731l.572,0c4.553-.023,7.271-1.964,7.271-5.192v-2.553c-.111.062-.218.113-.333.185A15.985,15.985,0,0,1,248.009,167.572Z" fill="#53a8a8"/> 

    <path data-name="Path 7469" d="M193.3,75.91v73.849h23.348c-1.732-11.4-8.255-56.294-11.528-81.14h-4.528A7.389,7.389,0,0,0,193.3,75.91Z" fill="#53a8a8"/> 

    <path data-name="Path 7470" d="M276.279,64.6H200.593A11.319,11.319,0,0,0,189.287,75.91v73.849H173.316V167.1a11.317,11.317,0,0,0,11.305,11.305h71.931A11.318,11.318,0,0,0,267.858,167.1V93.253h19.726V75.91A11.318,11.318,0,0,0,276.279,64.6Zm-35.7,109.789H184.621a7.389,7.389,0,0,1-7.292-7.292V153.273h66.666v14.3c-.188,5.418,2.14,6.665,2.14,6.665S241.268,174.393,240.58,174.393ZM263.844,75.96V167.1c0,4.534-2.718,7.259-7.271,7.292l-.572,0c-2.557,0-4.105-.153-5.089-1.027a7.3,7.3,0,0,1-2.9-5.792V149.759H193.3V75.91a7.389,7.389,0,0,1,7.292-7.291h55.959c1.19,0,5.089.016,5.089.016l5.111.026S264.175,68.576,263.844,75.96Zm19.727,13.778H267.858V75.91c0-5.816,2.934-7.271,6.59-7.275l1.8-.016a7.4,7.4,0,0,1,7.319,7.291Z" fill="#231f20"/> 

    <line data-name="Line 376" x2="41.235" transform="translate(208.225 93.933)" fill="none" stroke="#231f20" stroke-linecap="round" stroke-miterlimit="10" stroke-width="3"/> 

    <line data-name="Line 377" x2="41.235" transform="translate(208.225 106.569)" fill="none" stroke="#231f20" stroke-linecap="round" stroke-miterlimit="10" stroke-width="3"/> 

    <line data-name="Line 378" x2="41.235" transform="translate(208.225 120.536)" fill="none" stroke="#231f20" stroke-linecap="round" stroke-miterlimit="10" stroke-width="3"/> 

    <line data-name="Line 379" x2="20.55" transform="translate(208.225 134.503)" fill="none" stroke="#231f20" stroke-linecap="round" stroke-miterlimit="10" stroke-width="3"/> 

  </g> 

</svg> 