<svg xmlns="http://www.w3.org/2000/svg" xmlns:xlink="http://www.w3.org/1999/xlink" width="400" height="320" viewBox="0 0 400 320"><defs><clipPath id="a"><rect width="231.323" height="314.51" fill="#bfe2e2"/></clipPath><clipPath id="c"><rect width="400" height="320"/></clipPath></defs><g id="b" clip-path="url(#c)"><rect width="400" height="320" fill="#fff"/><path d="M399,1H0A1,1,0,0,1-1,0,1,1,0,0,1,0-1H399a1,1,0,0,1,1,1A1,1,0,0,1,399,1Z" transform="translate(0.5 234.5)" fill="#5bb3b3"/><path d="M3-1H23.688a4,4,0,0,1,4,4V88.594a4,4,0,0,1-4,4H3a4,4,0,0,1-4-4V3A4,4,0,0,1,3-1ZM23.688,90.594a2,2,0,0,0,2-2V3a2,2,0,0,0-2-2H3A2,2,0,0,0,1,3V88.594a2,2,0,0,0,2,2Z" transform="translate(19.148 10.979)" fill="#5bb3b3"/><path d="M27.656,20.385a6.735,6.735,0,1,1-6.968,6.731A6.86,6.86,0,0,1,27.656,20.385Zm0,11.463a4.737,4.737,0,1,0-4.968-4.731A4.859,4.859,0,0,0,27.656,31.848Z" transform="translate(4.836 13.584)" fill="#5bb3b3"/><path d="M9.37,93.594H1.239a1,1,0,1,1,0-2H9.37A2.533,2.533,0,0,0,11.9,89.063V4.531A2.533,2.533,0,0,0,9.37,2H1.086a1,1,0,1,1,0-2H9.37A4.536,4.536,0,0,1,13.9,4.531V89.063A4.536,4.536,0,0,1,9.37,93.594Z" transform="translate(1.192 9.979)" fill="#5bb3b3"/><path d="M1.095,33.636a1,1,0,0,1-.245-1.97,4.781,4.781,0,0,0,3.689-4.574A4.77,4.77,0,0,0,.771,22.5a1,1,0,0,1,.459-1.947,7.031,7.031,0,0,1,3.788,2.34,6.61,6.61,0,0,1,1.522,4.2,6.778,6.778,0,0,1-5.2,6.512A1,1,0,0,1,1.095,33.636Z" transform="translate(1.177 13.609)" fill="#5bb3b3"/><path d="M3-1H88.594a4,4,0,0,1,4,4V23.688a4,4,0,0,1-4,4H3a4,4,0,0,1-4-4V3A4,4,0,0,1,3-1ZM88.594,25.688a2,2,0,0,0,2-2V3a2,2,0,0,0-2-2H3A2,2,0,0,0,1,3V23.688a2,2,0,0,0,2,2Z" transform="translate(53.344 47.454)" fill="#5bb3b3"/><path d="M70.594,51.2a6.971,6.971,0,1,1,6.731-6.968A6.86,6.86,0,0,1,70.594,51.2Zm0-11.935a4.973,4.973,0,1,0,4.731,4.967A4.859,4.859,0,0,0,70.594,39.262Z" transform="translate(12.472 16.569)" fill="#5bb3b3"/><path d="M3-1H88.594a4,4,0,0,1,4,4V23.688a4,4,0,0,1-4,4H3a4,4,0,0,1-4-4V3A4,4,0,0,1,3-1ZM88.594,25.688a2,2,0,0,0,2-2V3a2,2,0,0,0-2-2H3A2,2,0,0,0,1,3V23.688a2,2,0,0,0,2,2Z" transform="translate(57.846 75.093)" fill="#5bb3b3"/><path d="M74.42,74.682a6.971,6.971,0,1,1,6.731-6.968A6.86,6.86,0,0,1,74.42,74.682Zm0-11.935a4.973,4.973,0,1,0,4.731,4.967A4.859,4.859,0,0,0,74.42,62.747Z" transform="translate(13.148 20.722)" fill="#5bb3b3"/><path d="M160.225,99.219H-.371a1,1,0,0,1-1-1,1,1,0,0,1,1-1h159.6V84.7H-.222a1,1,0,0,1-1-1,1,1,0,0,1,1-1H160.225a1,1,0,0,1,1,1V98.219A1,1,0,0,1,160.225,99.219Z" transform="translate(1.314 24.605)" fill="#5bb3b3"/><g transform="translate(213.609 20.801)" clip-path="url(#a)"><path d="M122.848,63.461c-2.089-10.347-5.325-24.831-12.657-32.685-5.282,4.116,5.227,22.062,6.77,27.772a162.755,162.755,0,0,1,5.214,34.888c1.131,24.177-1.927,48.325-4.215,72.421q-3.575,37.669-4.649,75.522l6.472.17c3.2-43.4,6.3-86.85,6.49-130.367.069-15.976-.266-32.059-3.425-47.72" transform="translate(26.884 7.61)" fill="#bfe2e2"/><path d="M126.01,199.756c-2.061-15.06-7.646-29.385-13.367-43.468Q98.276,120.926,82.4,86.2l-3.333-4.326c5.287,23.789,19.738,44.4,28.826,67.012,10.092,25.109,13.437,52.331,16.694,79.2a2.8,2.8,0,0,0,2.518-.422c.087-9.317.172-18.674-1.091-27.907" transform="translate(19.551 20.247)" fill="#bfe2e2"/><path d="M120.308,195.918a20.248,20.248,0,0,0-1.981-5.635,48.786,48.786,0,0,0-3.29-4.23,37.957,37.957,0,0,1-4.288-8.41A277.478,277.478,0,0,0,91.341,140.6c-2.072-3.4-4.869-7.173-8.848-7.176a86.486,86.486,0,0,1,8.064,10.725c1.382,2.051,2.764,4.1,4.065,6.205A112.1,112.1,0,0,1,103.5,168.3c4.283,10.879,7.149,22.252,9.65,33.654a29.584,29.584,0,0,1,1.118,7.743c-.075,1.621-.79,3.551-.43,5.161.419,1.872,1.507,2.418,3.247,3.028.877.308,8.9,1.3,8.959,1.55q-2.866-11.761-5.734-23.524" transform="translate(20.399 32.995)" fill="#bfe2e2"/><path d="M136.7,51.307c-5.471.165-10.43,3.65-13.62,8.1s-4.872,9.78-6.284,15.068a197.438,197.438,0,0,0-5.476,29.165c-1.67,15.065-1.6,30.262-1.528,45.419q.211,44.541.422,89.082l14.5,9.557c-1.89-8.5-.378-17.37-1.049-26.053-.676-8.758-3.556-17.169-5.673-25.7a176.634,176.634,0,0,1-4.309-26.018c-3.131-33.305,1.578-67.018,10.638-99.22,2.147-7.626,5.217-16.005,12.376-19.4" transform="translate(27.144 12.687)" fill="#bfe2e2"/><path d="M201.485,78.127l-9.721-5.187c-4.067-2.17-8.851-4.388-13.093-2.587-1.52.646-3.273,1.772-4.639.844a2.553,2.553,0,0,1-.422-3.388,6.467,6.467,0,0,1,2.995-2.205,33.378,33.378,0,0,1,27.311.5c-3.315-29.7-19.791-44.453-32.56-45.008-21.973-.955-28.9,38.932-28.9,38.932-2.149-8.837-9.66-9.148-13.852-9.792-12.286-1.891-21.6,9.879-19.824,44.425a57.9,57.9,0,0,0,.66,6.263,37.816,37.816,0,0,1,8.18-4.624c8.253-3.4,17.3-4.258,26.183-5.08,1.8-.167,3.721-.314,5.335.508-3.242,2.677-7.681,3.186-11.728,4.319-10.179,2.854-18.565,10.723-22.868,20.336,6.894,13.133,18.732,21.112,29.123,25.845a55.849,55.849,0,0,1-2.107-11.463,33.911,33.911,0,0,1,15.076-29.627,107.953,107.953,0,0,0-5.219,17.442,54.509,54.509,0,0,0,2.221,27.465,74.017,74.017,0,0,0,10.556,2.593s13.852-2.389,20.063,5.255a246.3,246.3,0,0,0,13.329-34.139,52.571,52.571,0,0,0-14.126-9.275,20.532,20.532,0,0,1-6.107-3.723c-1.679-1.71-2.647-4.375-1.65-6.556,1.162-2.543,4.4-3.39,7.192-3.229,7.305.423,13.483,5.529,17.7,11.611a140.573,140.573,0,0,0,3.888-28.754c-.992-.607-2-1.171-2.991-1.7" transform="translate(26.845 5.212)" fill="#bfe2e2"/><path d="M109.863,2.672a1.785,1.785,0,0,0-.422.732,25.962,25.962,0,0,0-.939,8.989,1.376,1.376,0,0,1-.085.646,1.358,1.358,0,0,1-.781.569c-2.749,1.1-5.9,2.044-7.36,4.619,1.025-2.21,1.936-3.057,1.966-5.507.032-2.641-.215-5.138.491-7.736a12.3,12.3,0,0,1,1.392-3.214c-.141-.019-.276-.042-.417-.061C99.073,1.074,94.7.645,90.574.372c-.041.041-.1.069-.135.114a6.173,6.173,0,0,0-1.068,2.856c-.268,1.259-.788,5.641-2.76,4.912-1.757-.651-.993-5.472-.4-6.7A6.131,6.131,0,0,1,87.16.176C53.2-1.4,37.311,8.157,37.311,8.157s5.063-2.411,12.575,16.211a50.839,50.839,0,0,1,14.3-6.523c11.345-3.211,13.577,2.2,13.733,3.926C73.606,20.213,60,25.689,55.7,27.264a18.64,18.64,0,0,0-3.93,2.089c.036.1.072.2.109.3,1.9,5.371,6.244,10,11.959,13.9a38.639,38.639,0,0,1,8.918-10.112,27.983,27.983,0,0,1,9.664-5.493,14.511,14.511,0,0,1,10.967.847c.629.35,1.291.888,1.242,1.583-.031.442-.223,1.007-.652,1.145C79.286,36.247,76.15,42.381,76.1,50.092a119.948,119.948,0,0,0,19.759,6.274C95.3,54.882,94.743,53.4,94.2,51.909a4.017,4.017,0,0,1-.324-2.642,3.836,3.836,0,0,1,1.241-1.539,13.546,13.546,0,0,1,4.177-2.669,5.742,5.742,0,0,1,4.818.272,2.586,2.586,0,0,1,1.156,1.277,3.4,3.4,0,0,1-.158,2.155c-.944,2.985-2.513,5.835-3.272,8.833,12.346,2.251,22.954,2.391,26.233.478,8.6-5.015-10.27-14.57-10.27-14.57,31.288,6.688,38.932.478,42.991-4.06,9.664-10.8-9.76-29.66-50.929-36.774" transform="translate(9.226 0)" fill="#bfe2e2"/><path d="M158.814,131.092l-1.912.716s-6.688-6.926-18.869,0a13,13,0,0,0-6.327,8.479,9.826,9.826,0,0,1,3.849-1.322,21.613,21.613,0,0,1,6.809.486c1.152.221,2.553.731,2.657,1.9a1.8,1.8,0,0,1-.969,1.633,3.886,3.886,0,0,1-1.941.405,9.693,9.693,0,0,1-2.971-.471c-.863-.281-1.688-.682-2.573-.879a7.851,7.851,0,0,0-5.256.934c-.521,8.129,4.811,17.344,13.411,19.647,13.376,3.582,16.241,18.868,14.57,9.553s21.734-9.315,21.975-22.212-22.451-18.869-22.451-18.869" transform="translate(32.462 31.833)" fill="#bfe2e2"/><path d="M92.458,63.572s3.521-3.344,1.848-6.448c-1.216-3.275-11.118-3.562-23.288-2.507a53.373,53.373,0,0,1,8.422,6.636,7.717,7.717,0,0,1-5.9,1A29.23,29.23,0,0,1,67.761,60.2a70.7,70.7,0,0,0-12-3.784c-5.519.8-10.984,1.715-15.9,2.632q6.5,1.25,12.865,3.088c2.021.589,4.5,1.978,4.026,4.027-4.534-.166-8.776-2.118-13.093-3.509A61.99,61.99,0,0,0,33.34,60.33c-5.307,1.1-9.423,2.1-11.4,2.764C-3.618,71.693.2,85.545.2,85.545s0-10.27,11.943-5.255a219.783,219.783,0,0,0,20.6,10.078A71.63,71.63,0,0,0,39.687,79.42a7.261,7.261,0,0,1,1.575-2.264,2.381,2.381,0,0,1,2.572-.455c1.074.576,1.236,2.037,1.157,3.253a20.913,20.913,0,0,1-1.806,7.236c-.944,2.09-2.228,4.03-3.358,6.028a158.49,158.49,0,0,0,22.487,6.738,90.1,90.1,0,0,0,4.712-22.107l2.665.587a2.021,2.021,0,0,1,1.115.5,1.909,1.909,0,0,1,.375.873,25.644,25.644,0,0,1-.494,12.27,61.678,61.678,0,0,1-3.228,8.891,101.282,101.282,0,0,0,20.033,1.6c.155-.731.324-1.458.529-2.177A16.794,16.794,0,0,0,89,95.732a12.469,12.469,0,0,0-2.021-5.854A84.353,84.353,0,0,0,79.3,78.516a4.85,4.85,0,0,1-1.27-2.362c-.19-1.719,1.736-3.139,3.445-2.879,1.631.248,2.866,1.554,3.966,2.783l4.379,4.892a46.928,46.928,0,0,1,4.523,5.607,23.8,23.8,0,0,1,3.653,14.97c6.965-1.262,12.731-3.6,17.105-6.824a27.139,27.139,0,0,0-.948-3.378,15.579,15.579,0,0,0-6.732-8.581c-2.521-1.387-5.448-1.782-8.2-2.626a25.8,25.8,0,0,1-7.653-3.834c-1.109-.811-2.259-2.208-1.578-3.4.656-1.145,2.342-.942,3.612-.584l12.308,3.472a16.793,16.793,0,0,1,4.98,2,14.248,14.248,0,0,1,4.271,5.355,45.606,45.606,0,0,1,3.436,8.505,21.494,21.494,0,0,0,5.326-9.433c6.209-23.884-31.465-18.629-31.465-18.629" transform="translate(0 13.371)" fill="#bfe2e2"/><path d="M81.639,128.594s5.378-26.033-13.83-16.719-31.5,38.214-24.841,57.561c5.927-9.388,16.983-14.037,27.814-17.472a7.849,7.849,0,0,0-.773-1.729,11.96,11.96,0,0,0-4.343-3.6,4.785,4.785,0,0,1,5.477.767,7.053,7.053,0,0,1,1.787,3.9c5.12-1.562,10.1-2.906,14.381-4.4l-.579-1.039a8.858,8.858,0,0,0-2.637-3.319c-1.594-1.03-3.8-1.008-5.121-2.374a.776.776,0,0,1-.258-.473.806.806,0,0,1,.314-.577c1.766-1.7,4.5-1.729,6.946-1.659,1.636.047,3.51.212,4.483,1.528a6.544,6.544,0,0,1,.814,3.416,16.821,16.821,0,0,0,.478,2.759c4.445-2.006,7.557-4.44,8.327-7.966,3.073-14.092-2.049-13.614-18.44-8.6" transform="translate(10.174 27.167)" fill="#bfe2e2"/><path d="M81.8,240.721a25.019,25.019,0,0,0,24.946,24.946h41.187a25.019,25.019,0,0,0,24.947-24.946v-43.2H81.8Z" transform="translate(20.228 48.843)" fill="#bfe2e2"/><path d="M156.353,138.275c1.61,1.392.024,4.027-1.486,5.537-14.662,14.657-23.514,34.481-30.333,54.43a7.282,7.282,0,0,0-.572,3.257c.5,3.739,4.027,11.531.076,15.146-2.563,2.345-4.382,0-5.1-3.191-1.706-7.613,4.019-21.406,6.566-28.453a121.061,121.061,0,0,1,12.808-25.553c1.293-1.958,16.575-22.439,18.036-21.173" transform="translate(29.336 34.179)" fill="#bfe2e2"/></g><g transform="translate(0 26.951)"><path d="M136.552,236.18V231.8l18.826-15.281h87.515L261.719,231.8v4Z" transform="translate(0 6.047)" fill="#9aa2b0"/><path d="M136.552,236.18V231.8l18.826-15.281h87.515L261.719,231.8v4Z" transform="translate(0 6.047)" fill="#7a8293"/><path d="M136.552,237.68a1.5,1.5,0,0,1-1.5-1.5V231.8a1.5,1.5,0,0,1,.555-1.165l18.826-15.281a1.5,1.5,0,0,1,.945-.335h87.515a1.5,1.5,0,0,1,.945.335l18.826,15.281a1.5,1.5,0,0,1,.555,1.165v4a1.5,1.5,0,0,1-1.5,1.5l-125.167.378Zm1.5-5.166v2.161l122.167-.369v-1.792l-17.858-14.5H155.91Z" transform="translate(0 6.047)" fill="#7a8293"/><path d="M183.04,186.313l-3.968,30.556h40.2l-2.975-30.556Z" transform="translate(0 2.9)" fill="#7a8293"/><path d="M111.361,64.163H287.4a4.614,4.614,0,0,1,4.614,4.614V184.458a4.614,4.614,0,0,1-4.614,4.614H111.361a4.614,4.614,0,0,1-4.614-4.614V68.777a4.614,4.614,0,0,1,4.614-4.614" transform="translate(0 3.047)" fill="#313e58"/><path d="M0,0H165.387V94.057H0Z" transform="translate(117 76.524)" fill="#b2cae7"/><path d="M199.38,173.242a4.339,4.339,0,1,1-4.339,4.338,4.338,4.338,0,0,1,4.339-4.338" transform="translate(0 3.047)" fill="#fff"/><path d="M136.552,231.222l18.826-19.657h87.515l18.826,19.283Z" transform="translate(0 6.047)" fill="#d1d5db"/><path d="M136.552,232.722a1.5,1.5,0,0,1-1.083-2.538l18.826-19.657a1.5,1.5,0,0,1,1.083-.462h87.515a1.5,1.5,0,0,1,1.073.452L262.792,229.8a1.5,1.5,0,0,1-1.069,2.548l-125.167.374Zm19.466-19.657-15.943,16.646,118.093-.353-15.907-16.294Z" transform="translate(0 6.047)" fill="#d1d5db"/><path d="M4.1,1.5H0A1.5,1.5,0,0,1-1.5,0,1.5,1.5,0,0,1,0-1.5H4.1A1.5,1.5,0,0,1,5.6,0,1.5,1.5,0,0,1,4.1,1.5Z" transform="translate(158.122 223.759)" fill="#313e58"/><path d="M4.1,1.5H0A1.5,1.5,0,0,1-1.5,0,1.5,1.5,0,0,1,0-1.5H4.1A1.5,1.5,0,0,1,5.6,0,1.5,1.5,0,0,1,4.1,1.5Z" transform="translate(169.344 223.759)" fill="#313e58"/><path d="M4.1,1.5H0A1.5,1.5,0,0,1-1.5,0,1.5,1.5,0,0,1,0-1.5H4.1A1.5,1.5,0,0,1,5.6,0,1.5,1.5,0,0,1,4.1,1.5Z" transform="translate(180.567 223.759)" fill="#313e58"/><path d="M4.1,1.5H0A1.5,1.5,0,0,1-1.5,0,1.5,1.5,0,0,1,0-1.5H4.1A1.5,1.5,0,0,1,5.6,0,1.5,1.5,0,0,1,4.1,1.5Z" transform="translate(152.078 230.414)" fill="#313e58"/><path d="M4.1,1.5H0A1.5,1.5,0,0,1-1.5,0,1.5,1.5,0,0,1,0-1.5H4.1A1.5,1.5,0,0,1,5.6,0,1.5,1.5,0,0,1,4.1,1.5Z" transform="translate(163.829 230.414)" fill="#313e58"/><path d="M4.1,1.5H0A1.5,1.5,0,0,1-1.5,0,1.5,1.5,0,0,1,0-1.5H4.1A1.5,1.5,0,0,1,5.6,0,1.5,1.5,0,0,1,4.1,1.5Z" transform="translate(175.052 230.414)" fill="#313e58"/><path d="M4.1,1.5H0A1.5,1.5,0,0,1-1.5,0,1.5,1.5,0,0,1,0-1.5H4.1A1.5,1.5,0,0,1,5.6,0,1.5,1.5,0,0,1,4.1,1.5Z" transform="translate(219.642 230.5)" fill="#313e58"/><path d="M4.1,1.5H0A1.5,1.5,0,0,1-1.5,0,1.5,1.5,0,0,1,0-1.5H4.1A1.5,1.5,0,0,1,5.6,0,1.5,1.5,0,0,1,4.1,1.5Z" transform="translate(231.394 230.5)" fill="#313e58"/><path d="M4.1,1.5H0A1.5,1.5,0,0,1-1.5,0,1.5,1.5,0,0,1,0-1.5H4.1A1.5,1.5,0,0,1,5.6,0,1.5,1.5,0,0,1,4.1,1.5Z" transform="translate(242.616 230.5)" fill="#313e58"/><path d="M25.533,1.5H0A1.5,1.5,0,0,1-1.5,0,1.5,1.5,0,0,1,0-1.5H25.533a1.5,1.5,0,0,1,1.5,1.5A1.5,1.5,0,0,1,25.533,1.5Z" transform="translate(186.274 230.5)" fill="#313e58"/><path d="M4.1,1.5H0A1.5,1.5,0,0,1-1.5,0,1.5,1.5,0,0,1,0-1.5H4.1A1.5,1.5,0,0,1,5.6,0,1.5,1.5,0,0,1,4.1,1.5Z" transform="translate(191.79 223.759)" fill="#313e58"/><path d="M4.1,1.5H0A1.5,1.5,0,0,1-1.5,0,1.5,1.5,0,0,1,0-1.5H4.1A1.5,1.5,0,0,1,5.6,0,1.5,1.5,0,0,1,4.1,1.5Z" transform="translate(203.012 223.759)" fill="#313e58"/><path d="M4.1,1.5H0A1.5,1.5,0,0,1-1.5,0,1.5,1.5,0,0,1,0-1.5H4.1A1.5,1.5,0,0,1,5.6,0,1.5,1.5,0,0,1,4.1,1.5Z" transform="translate(214.235 223.5)" fill="#313e58"/><path d="M4.1,1.5H0A1.5,1.5,0,0,1-1.5,0,1.5,1.5,0,0,1,0-1.5H4.1A1.5,1.5,0,0,1,5.6,0,1.5,1.5,0,0,1,4.1,1.5Z" transform="translate(225.458 223.5)" fill="#313e58"/><path d="M4.1,1.5H0A1.5,1.5,0,0,1-1.5,0,1.5,1.5,0,0,1,0-1.5H4.1A1.5,1.5,0,0,1,5.6,0,1.5,1.5,0,0,1,4.1,1.5Z" transform="translate(236.681 223.5)" fill="#313e58"/><path d="M604.764,2734.459H487.886l67.723-94.057h49.156v94.057Z" transform="translate(-322.782 -2563.877)" fill="#96b7df"/><path d="M604.764,2734.958H486.909l.57-.792,67.872-94.265h49.912v94.557h-.5Zm-115.9-1h115.4V2640.9h-48.4Z" transform="translate(-322.782 -2563.877)" fill="rgba(0,0,0,0)"/><path d="M-253.061-2503.741h55.342l-13.243,25.759h-30.18Z" transform="translate(427.19 2606.017)" fill="#ffd964"/><g transform="translate(161.721 91.761)"><path d="M164.9,77.39a6.51,6.51,0,0,0,5.72-3.367l13.24-24a2.833,2.833,0,0,0-2.472-4.208H126.125l-3.475-7.392h-10.7v5.685h7.081L132.767,73.06l-5.205,9.4a6.547,6.547,0,0,0,.116,6.522,6.468,6.468,0,0,0,5.606,3.19H176.8V86.491H131.842l5.007-9.1ZM134.7,63.9h8.221v7.8H138.4Zm21.565,7.8h-8.221V63.9h8.221Zm-8.221-20.2h8.221v7.267h-8.221ZM165.4,71.7h-4.007V63.9h8.314Zm7.136-12.928H161.395V51.507h15.156Zm-29.614-7.267v7.267H132.275l-3.446-7.267Z" transform="translate(-111.955 -38.427)" fill="#313e58"/><path d="M123.558,58.77a6.54,6.54,0,1,0,6.54,6.54,6.531,6.531,0,0,0-6.54-6.54" transform="translate(-102.229 -1.615)" fill="#313e58"/><path d="M136.271,58.77a6.54,6.54,0,1,0,6.543,6.54,6.528,6.528,0,0,0-6.543-6.54" transform="translate(-77.968 -1.615)" fill="#313e58"/></g></g><g transform="translate(11.941 150.6)"><rect width="73.805" height="13.033" transform="translate(4.74 74.712)" fill="#bfe2e2"/><path d="M71.336,84.457,60.947,141.305H14.705L2.008,84.457Z" transform="translate(5.023 5.405)" fill="#bfe2e2"/><path d="M22.764,72.028S37.506,40.761,26.586,27.3s-18.564,7.48-20.2,17.952S5.292,72.178,5.292,72.178Z" transform="translate(41.797 2.175)" fill="#bfe2e2"/><path d="M45.5,73.523S27.958,19.331,38.879,5.867s21.362,30.4,23,40.877,3.4,26.723,3.4,26.723Z" transform="translate(-28.332 0.68)" fill="#bfe2e2"/><path d="M5.674,4.67a.965.965,0,0,0,.521-1.778L.735-.6A.965.965,0,0,0-.3,1.028l5.46,3.49A.96.96,0,0,0,5.674,4.67Z" transform="translate(48.687 28.021)" fill="#bfe2e2"/><path d="M7.312,4.67a.965.965,0,0,0,.426-1.831L.641-.651A.965.965,0,1,0-.211,1.081l7.1,3.49A.961.961,0,0,0,7.312,4.67Z" transform="translate(45.957 32.758)" fill="#bfe2e2"/><path d="M8.406,2.676A.965.965,0,0,0,8.578.762L.388-.734a.965.965,0,1,0-.347,1.9l8.19,1.5A.971.971,0,0,0,8.406,2.676Z" transform="translate(43.773 38.244)" fill="#bfe2e2"/><path d="M.215,1.18h7.1a.965.965,0,0,0,0-1.93H.215a.965.965,0,1,0,0,1.93Z" transform="translate(46.055 43.719)" fill="#bfe2e2"/><path d="M10.044,3.424a.965.965,0,0,0,.214-1.906L.43-.726A.965.965,0,1,0,0,1.156L9.828,3.4A.968.968,0,0,0,10.044,3.424Z" transform="translate(43.052 47.459)" fill="#bfe2e2"/><path d="M10.6,1.385a.965.965,0,0,0,.019-1.929L.234-.75A.965.965,0,0,0,.2,1.179l10.381.206Z" transform="translate(42.618 55.59)" fill="#bfe2e2"/><path d="M5.856,2.829A.965.965,0,0,0,6.127.938L.486-.711A.965.965,0,0,0-.056,1.141L5.585,2.79A.965.965,0,0,0,5.856,2.829Z" transform="translate(44.632 50.849)" fill="#bfe2e2"/><path d="M4.051,6.744a.965.965,0,0,0,.794-1.513L1.009-.333A.965.965,0,1,0-.58.762L3.256,6.327A.964.964,0,0,0,4.051,6.744Z" transform="translate(54.335 22.409)" fill="#bfe2e2"/><path d="M.216,7.363a.965.965,0,0,0,.958-.86L1.85.32A.965.965,0,1,0-.068.11L-.744,6.293A.965.965,0,0,0,.11,7.357.976.976,0,0,0,.216,7.363Z" transform="translate(62.233 21.584)" fill="#bfe2e2"/><path d="M.214,5.714A.963.963,0,0,0,.97,5.35L4.58.816a.965.965,0,0,0-1.51-1.2L-.54,4.148A.965.965,0,0,0,.214,5.714Z" transform="translate(64.94 24.47)" fill="#bfe2e2"/><path d="M.215,3.241a.964.964,0,0,0,.3-.048L6.833,1.132A.965.965,0,0,0,6.234-.7L-.084,1.359a.965.965,0,0,0,.3,1.882Z" transform="translate(68.551 30.859)" fill="#bfe2e2"/><path d="M.214,1.385H.237l9.027-.206A.965.965,0,0,0,9.22-.75L.193-.544A.965.965,0,0,0,.214,1.385Z" transform="translate(67.197 34.981)" fill="#bfe2e2"/><path d="M.214,2.829A.966.966,0,0,0,.467,2.8L6.559,1.146a.965.965,0,1,0-.5-1.863L-.037.932a.965.965,0,0,0,.251,1.9Z" transform="translate(70.808 38.484)" fill="#bfe2e2"/><path d="M.214,1.8A.975.975,0,0,0,.32,1.792l5.641-.618a.965.965,0,1,0-.21-1.918L.11-.126A.965.965,0,0,0,.214,1.8Z" transform="translate(70.582 44.667)" fill="#bfe2e2"/><path d="M.214,1.592q.038,0,.077,0l5.19-.412A.965.965,0,0,0,5.328-.747L.138-.335A.965.965,0,0,0,.214,1.592Z" transform="translate(70.582 49.407)" fill="#bfe2e2"/><path d="M.215,1.18H8.339a.965.965,0,1,0,0-1.93H.215a.965.965,0,1,0,0,1.93Z" transform="translate(68.099 55.177)" fill="#bfe2e2"/><path d="M6.082,3.653A.965.965,0,0,0,6.457,1.8L.59-.674A.965.965,0,1,0-.16,1.1L5.707,3.577A.962.962,0,0,0,6.082,3.653Z" transform="translate(67.197 58.475)" fill="#bfe2e2"/><path d="M5.18,2.417a.965.965,0,0,0,.232-1.9L.448-.721A.965.965,0,0,0-.018,1.151L4.946,2.388A.967.967,0,0,0,5.18,2.417Z" transform="translate(66.52 63.627)" fill="#bfe2e2"/><path d="M6.307,3.447a.965.965,0,0,0,.337-1.869L.551-.689A.965.965,0,1,0-.122,1.119L5.971,3.386A.963.963,0,0,0,6.307,3.447Z" transform="translate(64.49 67.75)" fill="#bfe2e2"/><path d="M.214,2A.974.974,0,0,0,.335,2l6.544-.824A.965.965,0,1,0,6.638-.742L.094.082A.965.965,0,0,0,.214,2Z" transform="translate(44.181 60.742)" fill="#bfe2e2"/><path d="M.214,1.592l.054,0,7.446-.412A.965.965,0,1,0,7.608-.749L.162-.336A.965.965,0,0,0,.214,1.592Z" transform="translate(42.827 65.276)" fill="#bfe2e2"/><path d="M.214,2A.975.975,0,0,0,.318,2l7.673-.824A.965.965,0,1,0,7.784-.744L.112.08A.965.965,0,0,0,.214,2Z" transform="translate(42.601 69.192)" fill="#bfe2e2"/><path d="M.215,5.239a.961.961,0,0,0,.61-.218L5.791.962A.965.965,0,0,0,4.57-.532L-.4,3.528A.965.965,0,0,0,.215,5.239Z" transform="translate(21.41 5.707)" fill="#bfe2e2"/><path d="M.216,5.418a.96.96,0,0,0,.521-.153L7.329,1.026A.965.965,0,1,0,6.285-.6L-.307,3.642A.965.965,0,0,0,.216,5.418Z" transform="translate(23.112 10.113)" fill="#bfe2e2"/><path d="M.215,3.556a.965.965,0,0,0,.277-.041L8.428,1.139A.965.965,0,0,0,7.875-.709L-.062,1.667A.965.965,0,0,0,.215,3.556Z" transform="translate(24.652 15.322)" fill="#bfe2e2"/><path d="M.214,1.953A.975.975,0,0,0,.32,1.947l7.047-.773a.965.965,0,1,0-.21-1.918L.11.029a.965.965,0,0,0,.1,1.924Z" transform="translate(23.99 21.007)" fill="#bfe2e2"/><path d="M.215,4.478a.963.963,0,0,0,.317-.054L10,1.126A.965.965,0,0,0,9.363-.7L-.1,2.6A.965.965,0,0,0,.215,4.478Z" transform="translate(25.042 24.394)" fill="#bfe2e2"/><path d="M.214,2.514a.973.973,0,0,0,.125-.008L10.618,1.172A.965.965,0,1,0,10.37-.742L.091.593A.965.965,0,0,0,.214,2.514Z" transform="translate(25.719 32.419)" fill="#bfe2e2"/><path d="M.215,3.432a.962.962,0,0,0,.372-.075L5.974,1.105a.965.965,0,1,0-.744-1.78L-.157,1.576A.965.965,0,0,0,.215,3.432Z" transform="translate(28.22 28.55)" fill="#bfe2e2"/><path d="M.214,7.122A.965.965,0,0,0,1.071,6.6L4.154.659A.965.965,0,0,0,2.441-.229L-.642,5.713A.965.965,0,0,0,.214,7.122Z" transform="translate(16.953 0.75)" fill="#bfe2e2"/><path d="M1.693,7.245a.966.966,0,0,0,.938-1.194L1.152-.014A.965.965,0,0,0-.722.443L.756,6.508A.965.965,0,0,0,1.693,7.245Z" transform="translate(11.414 0.864)" fill="#bfe2e2"/><path d="M4.391,5.289a.965.965,0,0,0,.677-1.653L.892-.473A.965.965,0,1,0-.462.9L3.714,5.012A.962.962,0,0,0,4.391,5.289Z" transform="translate(6.19 4.344)" fill="#bfe2e2"/><path d="M6.758,2.538a.965.965,0,0,0,.2-1.91L.411-.73A.965.965,0,0,0,.019,1.16L6.561,2.518A.969.969,0,0,0,6.758,2.538Z" transform="translate(0.75 11.375)" fill="#bfe2e2"/><path d="M6.481,2.154A.965.965,0,0,0,6.628.236L.363-.739a.965.965,0,1,0-.3,1.907l6.264.974A.973.973,0,0,0,6.481,2.154Z" transform="translate(1.708 19.578)" fill="#bfe2e2"/><path d="M.215,1.18H5.9a.965.965,0,0,0,0-1.93H.215a.965.965,0,1,0,0,1.93Z" transform="translate(1.208 25.232)" fill="#bfe2e2"/><path d="M.214,1.336H.244l5.207-.156A.965.965,0,1,0,5.393-.75L.186-.594A.965.965,0,0,0,.214,1.336Z" transform="translate(2.274 29.733)" fill="#bfe2e2"/><path d="M.214,2.064A.975.975,0,0,0,.32,2.059l8.065-.885a.965.965,0,0,0-.21-1.918L.11.14a.965.965,0,0,0,.1,1.924Z" transform="translate(2.579 34.783)" fill="#bfe2e2"/><path d="M.216,4.274A.96.96,0,0,0,.688,4.15l5.5-3.094A.965.965,0,0,0,5.244-.626l-5.5,3.094A.965.965,0,0,0,.216,4.274Z" transform="translate(4.966 37.959)" fill="#bfe2e2"/><path d="M.215,2.948a.963.963,0,0,0,.335-.06L5.318,1.12A.965.965,0,1,0,4.647-.69L-.121,1.079a.965.965,0,0,0,.336,1.87Z" transform="translate(4.884 45.096)" fill="#bfe2e2"/><path d="M.215,3.162a.964.964,0,0,0,.309-.051L6.4,1.129A.965.965,0,0,0,5.782-.7L-.094,1.283A.965.965,0,0,0,.215,3.162Z" transform="translate(5.095 50.14)" fill="#bfe2e2"/><path d="M6.82,1.286a.965.965,0,0,0,.015-1.93L.23-.75A.965.965,0,1,0,.2,1.18L6.8,1.286Z" transform="translate(30.052 37.386)" fill="#bfe2e2"/><path d="M.214,1.581H.267l7.448-.4a.965.965,0,1,0-.1-1.927l-7.448.4A.965.965,0,0,0,.214,1.581Z" transform="translate(29.662 42.468)" fill="#bfe2e2"/><path d="M.215,1.2h0L7.941,1.18a.965.965,0,0,0,0-1.93L.213-.734a.965.965,0,0,0,0,1.93Z" transform="translate(30.174 46.741)" fill="#bfe2e2"/><path d="M.215,1.18H8.564a.965.965,0,0,0,0-1.93H.215a.965.965,0,0,0,0,1.93Z" transform="translate(7.85 55.177)" fill="#bfe2e2"/><path d="M.214,3.653A.968.968,0,0,0,.43,3.629L11.261,1.156a.965.965,0,0,0-.43-1.881L0,1.748A.965.965,0,0,0,.214,3.653Z" transform="translate(8.319 57.856)" fill="#bfe2e2"/><path d="M.214,3.241A.965.965,0,0,0,.488,3.2l7-2.061A.965.965,0,1,0,6.937-.711l-7,2.061A.965.965,0,0,0,.214,3.241Z" transform="translate(9.222 62.39)" fill="#bfe2e2"/><path d="M.216,3.859a.961.961,0,0,0,.413-.094L6.27,1.086A.965.965,0,0,0,5.442-.657L-.2,2.022A.965.965,0,0,0,.216,3.859Z" transform="translate(10.802 66.925)" fill="#bfe2e2"/><path d="M.214,1.592l.058,0,7-.412A.965.965,0,0,0,7.153-.748l-7,.412A.965.965,0,0,0,.214,1.592Z" transform="translate(31.77 51.571)" fill="#bfe2e2"/><path d="M8.791,1.489A.965.965,0,0,0,8.825-.44L.25-.749A.965.965,0,0,0,.18,1.179l8.575.309Z" transform="translate(30.528 57.135)" fill="#bfe2e2"/><path d="M.214,3.138a.969.969,0,0,0,.2-.02L9.888,1.16A.965.965,0,1,0,9.5-.73L.02,1.228a.965.965,0,0,0,.194,1.91Z" transform="translate(30.641 61.36)" fill="#bfe2e2"/><path d="M.215,1.18H9.8a.965.965,0,1,0,0-1.93H.215a.965.965,0,1,0,0,1.93Z" transform="translate(31.995 67.955)" fill="#bfe2e2"/></g></g></svg>