<svg xmlns="http://www.w3.org/2000/svg" xmlns:xlink="http://www.w3.org/1999/xlink" width="400" height="320" viewBox="0 0 400 320"><defs><clipPath id="b"><rect width="400" height="320"/></clipPath></defs><g id="a" clip-path="url(#b)"><rect width="400" height="320" fill="#fff"/><path d="M0,0H77V23l-44.295.069L27.227,14.5H0Z" transform="translate(270 83.131)" fill="#bfe2e2"/><rect width="190" height="130.737" transform="translate(109 108.131)" fill="#bfe2e2"/><path d="M86.242,1H0A1,1,0,0,1-1,0,1,1,0,0,1,0-1H86.242a1,1,0,0,1,1,1A1,1,0,0,1,86.242,1Z" transform="translate(301.5 124.239)" fill="#5bb3b3"/><path d="M1.761,188.933a1,1,0,0,1-1-1V88.707a1,1,0,0,1,1-1h96.6a1,1,0,0,1,0,2H2.761v98.226A1,1,0,0,1,1.761,188.933Z" transform="translate(9 48.131)" fill="#5bb3b3"/><path d="M96.556,1H0A1,1,0,0,1-1,0,1,1,0,0,1,0-1H96.556a1,1,0,0,1,1,1A1,1,0,0,1,96.556,1Z" transform="translate(10.944 145.756)" fill="#5bb3b3"/><path d="M339.593,64.03h-82.4a1,1,0,1,1,0-2h80.67l-4.888-8.467H269.49a1,1,0,0,1,0-2h64.06a1,1,0,0,1,.866.5l6.043,10.467a1,1,0,0,1-.866,1.5Z" transform="translate(-36 45.131)" fill="#5bb3b3"/><path d="M183.845,64.03H101.787a1,1,0,0,1-.636-1.772l12.716-10.467a1,1,0,0,1,.636-.228h84.509a1,1,0,0,1,0,2h-84.15L104.575,62.03h79.27a1,1,0,0,1,0,2Z" transform="translate(2 45.131)" fill="#5bb3b3"/><path d="M383.469,60.805a1,1,0,0,1-1-1V2.379l-75.5,24.665V51.877a1,1,0,0,1-2,0V26.318a1,1,0,0,1,.689-.951L383.159.049A1,1,0,0,1,384.469,1V59.805A1,1,0,0,1,383.469,60.805Z" transform="translate(-36 45.131)" fill="#5bb3b3"/><path d="M0,25.509a1,1,0,0,1-1-1V0A1,1,0,0,1,0-1,1,1,0,0,1,1,0V24.509A1,1,0,0,1,0,25.509Z" transform="translate(287.813 124.104)" fill="#5bb3b3"/><path d="M0,25.509a1,1,0,0,1-1-1V0A1,1,0,0,1,0-1,1,1,0,0,1,1,0V24.509A1,1,0,0,1,0,25.509Z" transform="translate(287.813 162.444)" fill="#5bb3b3"/><path d="M0,25.509a1,1,0,0,1-1-1V0A1,1,0,0,1,0-1,1,1,0,0,1,1,0V24.509A1,1,0,0,1,0,25.509Z" transform="translate(242.786 162.444)" fill="#5bb3b3"/><path d="M0,25.509a1,1,0,0,1-1-1V0A1,1,0,0,1,0-1,1,1,0,0,1,1,0V24.509A1,1,0,0,1,0,25.509Z" transform="translate(276.556 124.104)" fill="#5bb3b3"/><path d="M0,25.509a1,1,0,0,1-1-1V0A1,1,0,0,1,0-1,1,1,0,0,1,1,0V24.509A1,1,0,0,1,0,25.509Z" transform="translate(276.556 162.444)" fill="#5bb3b3"/><path d="M0,25.509a1,1,0,0,1-1-1V0A1,1,0,0,1,0-1,1,1,0,0,1,1,0V24.509A1,1,0,0,1,0,25.509Z" transform="translate(231.529 162.444)" fill="#5bb3b3"/><path d="M0,25.509a1,1,0,0,1-1-1V0A1,1,0,0,1,0-1,1,1,0,0,1,1,0V24.509A1,1,0,0,1,0,25.509Z" transform="translate(265.299 124.104)" fill="#5bb3b3"/><path d="M0,25.509a1,1,0,0,1-1-1V0A1,1,0,0,1,0-1,1,1,0,0,1,1,0V24.509A1,1,0,0,1,0,25.509Z" transform="translate(265.299 162.444)" fill="#5bb3b3"/><path d="M0,25.509a1,1,0,0,1-1-1V0A1,1,0,0,1,0-1,1,1,0,0,1,1,0V24.509A1,1,0,0,1,0,25.509Z" transform="translate(220.273 162.444)" fill="#5bb3b3"/><path d="M0,25.509a1,1,0,0,1-1-1V0A1,1,0,0,1,0-1,1,1,0,0,1,1,0V24.509A1,1,0,0,1,0,25.509Z" transform="translate(254.042 124.104)" fill="#5bb3b3"/><path d="M0,25.509a1,1,0,0,1-1-1V0A1,1,0,0,1,0-1,1,1,0,0,1,1,0V24.509A1,1,0,0,1,0,25.509Z" transform="translate(254.042 162.444)" fill="#5bb3b3"/><path d="M0,25.509a1,1,0,0,1-1-1V0A1,1,0,0,1,0-1,1,1,0,0,1,1,0V24.509A1,1,0,0,1,0,25.509Z" transform="translate(209.016 162.444)" fill="#5bb3b3"/><path d="M0,25.509a1,1,0,0,1-1-1V0A1,1,0,0,1,0-1,1,1,0,0,1,1,0V24.509A1,1,0,0,1,0,25.509Z" transform="translate(119.567 124.104)" fill="#5bb3b3"/><path d="M0,25.509a1,1,0,0,1-1-1V0A1,1,0,0,1,0-1,1,1,0,0,1,1,0V24.509A1,1,0,0,1,0,25.509Z" transform="translate(164.594 124.104)" fill="#5bb3b3"/><path d="M0,25.509a1,1,0,0,1-1-1V0A1,1,0,0,1,0-1,1,1,0,0,1,1,0V24.509A1,1,0,0,1,0,25.509Z" transform="translate(209.016 124.104)" fill="#5bb3b3"/><path d="M0,25.509a1,1,0,0,1-1-1V0A1,1,0,0,1,0-1,1,1,0,0,1,1,0V24.509A1,1,0,0,1,0,25.509Z" transform="translate(119.567 162.444)" fill="#5bb3b3"/><path d="M0,25.509a1,1,0,0,1-1-1V0A1,1,0,0,1,0-1,1,1,0,0,1,1,0V24.509A1,1,0,0,1,0,25.509Z" transform="translate(130.824 124.104)" fill="#5bb3b3"/><path d="M0,25.509a1,1,0,0,1-1-1V0A1,1,0,0,1,0-1,1,1,0,0,1,1,0V24.509A1,1,0,0,1,0,25.509Z" transform="translate(175.851 124.104)" fill="#5bb3b3"/><path d="M0,25.509a1,1,0,0,1-1-1V0A1,1,0,0,1,0-1,1,1,0,0,1,1,0V24.509A1,1,0,0,1,0,25.509Z" transform="translate(220.272 124.104)" fill="#5bb3b3"/><path d="M0,25.509a1,1,0,0,1-1-1V0A1,1,0,0,1,0-1,1,1,0,0,1,1,0V24.509A1,1,0,0,1,0,25.509Z" transform="translate(130.824 162.444)" fill="#5bb3b3"/><path d="M0,25.509a1,1,0,0,1-1-1V0A1,1,0,0,1,0-1,1,1,0,0,1,1,0V24.509A1,1,0,0,1,0,25.509Z" transform="translate(142.081 124.104)" fill="#5bb3b3"/><path d="M0,25.509a1,1,0,0,1-1-1V0A1,1,0,0,1,0-1,1,1,0,0,1,1,0V24.509A1,1,0,0,1,0,25.509Z" transform="translate(187.107 124.104)" fill="#5bb3b3"/><path d="M0,25.509a1,1,0,0,1-1-1V0A1,1,0,0,1,0-1,1,1,0,0,1,1,0V24.509A1,1,0,0,1,0,25.509Z" transform="translate(231.529 124.104)" fill="#5bb3b3"/><path d="M0,25.509a1,1,0,0,1-1-1V0A1,1,0,0,1,0-1,1,1,0,0,1,1,0V24.509A1,1,0,0,1,0,25.509Z" transform="translate(142.081 162.444)" fill="#5bb3b3"/><path d="M0,25.509a1,1,0,0,1-1-1V0A1,1,0,0,1,0-1,1,1,0,0,1,1,0V24.509A1,1,0,0,1,0,25.509Z" transform="translate(153.337 124.104)" fill="#5bb3b3"/><path d="M0,25.509a1,1,0,0,1-1-1V0A1,1,0,0,1,0-1,1,1,0,0,1,1,0V24.509A1,1,0,0,1,0,25.509Z" transform="translate(198.364 124.104)" fill="#5bb3b3"/><path d="M0,25.509a1,1,0,0,1-1-1V0A1,1,0,0,1,0-1,1,1,0,0,1,1,0V24.509A1,1,0,0,1,0,25.509Z" transform="translate(242.786 124.104)" fill="#5bb3b3"/><path d="M0,25.509a1,1,0,0,1-1-1V0A1,1,0,0,1,0-1,1,1,0,0,1,1,0V24.509A1,1,0,0,1,0,25.509Z" transform="translate(153.337 162.444)" fill="#5bb3b3"/><path d="M63.41,1H0A1,1,0,0,1-1,0,1,1,0,0,1,0-1H63.41a1,1,0,0,1,1,1A1,1,0,0,1,63.41,1Z" transform="translate(310.322 145.5)" fill="#5bb3b3"/><path transform="translate(310.322 163.434)" fill="#5bb3b3"/><path d="M63.41,1H0A1,1,0,0,1-1,0,1,1,0,0,1,0-1H63.41a1,1,0,0,1,1,1A1,1,0,0,1,63.41,1Z" transform="translate(310.322 170.5)" fill="#5bb3b3"/><path d="M63.41,1H0A1,1,0,0,1-1,0,1,1,0,0,1,0-1H63.41a1,1,0,0,1,1,1A1,1,0,0,1,63.41,1Z" transform="translate(310.322 194.5)" fill="#5bb3b3"/><path d="M63.41,1H0A1,1,0,0,1-1,0,1,1,0,0,1,0-1H63.41a1,1,0,0,1,1,1A1,1,0,0,1,63.41,1Z" transform="translate(310.322 219.5)" fill="#5bb3b3"/><path d="M433.08,186.762a1,1,0,0,1-1-1V61.509l-84.446.311h0a1,1,0,0,1,0-2l85.45-.315a1,1,0,0,1,1,1V185.762A1,1,0,0,1,433.08,186.762Z" transform="translate(-45 45.131)" fill="#5bb3b3"/><path d="M142.476,1H0A1,1,0,0,1-1,0,1,1,0,0,1,0-1H142.476a1,1,0,0,1,1,1A1,1,0,0,1,142.476,1Z" transform="translate(255.025 238.868)" fill="#5bb3b3"/><path d="M142.476,1H0A1,1,0,0,1-1,0,1,1,0,0,1,0-1H142.476a1,1,0,0,1,1,1A1,1,0,0,1,142.476,1Z" transform="translate(255.025 251.84)" fill="#5bb3b3"/><path d="M142.476,1H0A1,1,0,0,1-1,0,1,1,0,0,1,0-1H142.476a1,1,0,0,1,1,1A1,1,0,0,1,142.476,1Z" transform="translate(3 238.868)" fill="#5bb3b3"/><path d="M142.476,1H0A1,1,0,0,1-1,0,1,1,0,0,1,0-1H142.476a1,1,0,0,1,1,1A1,1,0,0,1,142.476,1Z" transform="translate(3 251.84)" fill="#5bb3b3"/><path d="M59.41,16.659a19.372,19.372,0,1,1-7.564,1.527A19.31,19.31,0,0,1,59.41,16.659Zm0,36.862a17.43,17.43,0,1,0-12.325-5.105A17.317,17.317,0,0,0,59.41,53.521Z" transform="translate(-9.35 14.216)" fill="#5bb3b3"/><path d="M0,9.349a1,1,0,0,1-1-1V0A1,1,0,0,1,0-1,1,1,0,0,1,1,0V8.349A1,1,0,0,1,0,9.349Z" transform="translate(50.061 74.251)" fill="#5bb3b3"/><path d="M5.9,6.9A1,1,0,0,1,5.2,6.61l-5.9-5.9a1,1,0,0,1,0-1.414,1,1,0,0,1,1.414,0l5.9,5.9A1,1,0,0,1,5.9,6.9Z" transform="translate(66.672 67.37)" fill="#5bb3b3"/><path d="M8.349,1.029h0L0,1A1,1,0,0,1-1,0,1,1,0,0,1,0-1l8.349.029a1,1,0,0,1,0,2Z" transform="translate(73.553 50.84)" fill="#5bb3b3"/><path d="M0,8.727a1,1,0,0,1-.378-.075,1,1,0,0,1-.547-1.3L2.236-.379a1,1,0,0,1,1.3-.547,1,1,0,0,1,.547,1.3L.926,8.106A1,1,0,0,1,0,8.727Z" transform="translate(38 72.5)" fill="#5bb3b3"/><path d="M3.228,8.7a1,1,0,0,1-.923-.614L-.922.387A1,1,0,0,1-.387-.922,1,1,0,0,1,.922-.387l3.228,7.7A1,1,0,0,1,3.228,8.7Z" transform="translate(59.143 72.424)" fill="#5bb3b3"/><path d="M7.716,4.189a1,1,0,0,1-.382-.076L-.382.924A1,1,0,0,1-.924-.382,1,1,0,0,1,.382-.924L8.1,2.265a1,1,0,0,1-.382,1.924Z" transform="translate(71.771 59.731)" fill="#5bb3b3"/><path d="M0-1H12.919a1,1,0,0,1,1,1V38.758a1,1,0,0,1-1,1H0a1,1,0,0,1-1-1V0A1,1,0,0,1,0-1ZM11.919,1H1V37.758H11.919Z" transform="translate(54.5 161.421)" fill="#5bb3b3"/><path d="M0-1H12.919a1,1,0,0,1,1,1V38.758a1,1,0,0,1-1,1H0a1,1,0,0,1-1-1V0A1,1,0,0,1,0-1ZM11.919,1H1V37.758H11.919Z" transform="translate(86.5 161.421)" fill="#5bb3b3"/><path d="M77.325,1H0A1,1,0,0,1-1,0,1,1,0,0,1,0-1H77.325a1,1,0,0,1,1,1A1,1,0,0,1,77.325,1Z" transform="translate(269.973 83.365)" fill="#5bb3b3"/><path d="M0,24.232a1,1,0,0,1-1-1V0A1,1,0,0,1,0-1,1,1,0,0,1,1,0V23.232A1,1,0,0,1,0,24.232Z" transform="translate(337.772 54.242)" fill="#5bb3b3"/><path d="M0,18.825a1,1,0,0,1-1-1V0A1,1,0,0,1,0-1,1,1,0,0,1,1,0V17.825A1,1,0,0,1,0,18.825Z" transform="translate(326.335 59.648)" fill="#5bb3b3"/><path d="M0,15.149a1,1,0,0,1-1-1V0A1,1,0,0,1,0-1,1,1,0,0,1,1,0V14.149A1,1,0,0,1,0,15.149Z" transform="translate(314.897 63.325)" fill="#5bb3b3"/><path d="M0,12.259a1,1,0,0,1-1-1V0A1,1,0,0,1,0-1,1,1,0,0,1,1,0V11.259A1,1,0,0,1,0,12.259Z" transform="translate(303.459 66.215)" fill="#5bb3b3"/><path d="M0,8.543a1,1,0,0,1-1-1V0A1,1,0,0,1,0-1,1,1,0,0,1,1,0V7.543A1,1,0,0,1,0,8.543Z" transform="translate(292.021 69.931)" fill="#5bb3b3"/><path d="M0,5.446a1,1,0,0,1-1-1V0A1,1,0,0,1,0-1,1,1,0,0,1,1,0V4.446A1,1,0,0,1,0,5.446Z" transform="translate(280.584 73.027)" fill="#5bb3b3"/><path d="M0,9.349a1,1,0,0,1-1-1V0A1,1,0,0,1,0-1,1,1,0,0,1,1,0V8.349A1,1,0,0,1,0,9.349Z" transform="translate(50.061 18.917)" fill="#5bb3b3"/><path d="M5.9,6.9A1,1,0,0,1,5.2,6.61l-5.9-5.9a1,1,0,0,1,0-1.414,1,1,0,0,1,1.414,0l5.9,5.9A1,1,0,0,1,5.9,6.9Z" transform="translate(27.545 28.243)" fill="#5bb3b3"/><path d="M8.349,1.029h0L0,1A1,1,0,0,1-1,0,1,1,0,0,1,0-1l8.349.029a1,1,0,0,1,0,2Z" transform="translate(18.219 50.648)" fill="#5bb3b3"/><path d="M0,6.883a1,1,0,0,1-.71-.3,1,1,0,0,1,0-1.414L5.219-.71a1,1,0,0,1,1.414,0,1,1,0,0,1,0,1.414L.7,6.593A1,1,0,0,1,0,6.883Z" transform="translate(66.729 28.321)" fill="#5bb3b3"/><path d="M0,6.883a1,1,0,0,1-.71-.3,1,1,0,0,1,0-1.414L5.219-.71a1,1,0,0,1,1.414,0,1,1,0,0,1,0,1.414L.7,6.593A1,1,0,0,1,0,6.883Z" transform="translate(27.467 67.313)" fill="#5bb3b3"/><path d="M0,8.727a1,1,0,0,1-.378-.075,1,1,0,0,1-.547-1.3L2.236-.379a1,1,0,0,1,1.3-.547,1,1,0,0,1,.547,1.3L.926,8.106A1,1,0,0,1,0,8.727Z" transform="translate(58.958 21.289)" fill="#5bb3b3"/><path d="M3.228,8.7a1,1,0,0,1-.923-.614L-.922.387A1,1,0,0,1-.387-.922,1,1,0,0,1,.922-.387l3.228,7.7A1,1,0,0,1,3.228,8.7Z" transform="translate(37.75 21.393)" fill="#5bb3b3"/><path d="M7.716,4.189a1,1,0,0,1-.382-.076L-.382.924A1,1,0,0,1-.924-.382,1,1,0,0,1,.382-.924L8.1,2.265a1,1,0,0,1-.382,1.924Z" transform="translate(20.633 38.596)" fill="#5bb3b3"/><path d="M0,4.2a1,1,0,0,1-.924-.617,1,1,0,0,1,.54-1.307l7.711-3.2a1,1,0,0,1,1.307.54A1,1,0,0,1,8.094.924L.383,4.125A1,1,0,0,1,0,4.2Z" transform="translate(71.757 38.55)" fill="#5bb3b3"/><path d="M0,4.2a1,1,0,0,1-.924-.617,1,1,0,0,1,.54-1.307l7.711-3.2a1,1,0,0,1,1.307.54A1,1,0,0,1,8.094.924L.383,4.125A1,1,0,0,1,0,4.2Z" transform="translate(20.652 59.766)" fill="#5bb3b3"/><path d="M0-1H12.919a1,1,0,0,1,1,1V38.758a1,1,0,0,1-1,1H0a1,1,0,0,1-1-1V0A1,1,0,0,1,0-1ZM11.919,1H1V37.758H11.919Z" transform="translate(22.5 161.421)" fill="#5bb3b3"/><g transform="translate(0 -11)"><path d="M27.593,0C42.832,0,55.186,2.883,55.186,6.438s-12.354,6.438-27.593,6.438S0,9.994,0,6.438,12.354,0,27.593,0Z" transform="translate(171.665 177.123)" fill="#cc7a29"/><g transform="translate(155.704 68.436)"><path d="M-4280.788,5960.374s-17.507-6.716-10.564,6.45,14.311,13.664,14.311,13.664Z" transform="translate(4292.98 -5907.293)" fill="#e6b88e"/><path d="M-4289.233,5960.374s17.506-6.716,10.564,6.45-14.312,13.664-14.312,13.664Z" transform="translate(4360.171 -5907.293)" fill="#e6b88e"/><path d="M0,0,17.206,72.122H29.615L40.95,0Z" transform="translate(65.188 136.475) rotate(180)" fill="#e6b88e"/><path d="M4436.19,754.179s8.624,50.892,37.247,50.074,34.087-54.02,34.087-54.02-9.039-43.493-35.809-43.662C4440.1,707.53,4436.19,754.179,4436.19,754.179Z" transform="translate(-4430.708 -703.84)" fill="#efc6a1"/><path d="M-6250.4-6648.361a13.545,13.545,0,0,0,1.435,2.012s-3.972-20.342,17.613-30.762c.268,2.826,2.66,7.847,9.207,9.961s16.982-1.5,16.982-1.5-9.426-2.267-6.532-8.459c9.989.725,13.455,2.237,18.332,4.818,11.111,5.88,11.11,15.655,10.542,21.755,3.658-4.656,4-6.389,6.7-7.3,1.136-3.767,0-19.271,0-19.271s.038-31.169-39.982-30.213c-26.142.569-36.725,14.059-38.9,30.213-.808,5.991-1.045,15.727,0,20.407C-6252.283-6657.385-6251.279-6654.915-6250.4-6648.361Z" transform="translate(6257.002 6708.948)" fill="#313e58"/></g><g transform="translate(169.937 121.027)"><path d="M47.549,46.925s13.873-5.287,22.053.448c1.9,13.532-9.474,14.157-9.474,14.157S46.11,63.387,47.549,46.925Z" transform="translate(-47.446 -44.703)" fill="#d6a980"/><path d="M59.711,43.2a18.393,18.393,0,0,1,10.752,2.943,1.5,1.5,0,0,1,.624,1.02c.681,4.852-.157,8.75-2.49,11.586a12.605,12.605,0,0,1-8.328,4.272,12.428,12.428,0,0,1-1.383.069c-2.284,0-6.572-.5-9.632-3.838-2.6-2.835-3.675-7.028-3.2-12.461a1.5,1.5,0,0,1,.96-1.271A39.875,39.875,0,0,1,59.711,43.2ZM68.2,48.246A16.035,16.035,0,0,0,59.711,46.2a37.071,37.071,0,0,0-10.735,1.818c-.208,4.081.628,7.175,2.49,9.207,2.284,2.493,5.63,2.865,7.421,2.865a9.357,9.357,0,0,0,1.049-.051c.041-.005.066-.008.107-.01A9.686,9.686,0,0,0,66.3,56.821C67.964,54.783,68.6,51.9,68.2,48.246Z" transform="translate(-47.446 -44.703)" fill="#cc7a29"/><path d="M75.574,47.442s13.873-5.287,22.053.447c1.9,13.532-9.474,14.158-9.474,14.158S74.135,63.9,75.574,47.442Z" transform="translate(-42.574 -44.613)" fill="#d6a980"/><path d="M87.738,43.72a18.393,18.393,0,0,1,10.751,2.942,1.5,1.5,0,0,1,.624,1.02c.681,4.852-.157,8.75-2.49,11.587a12.606,12.606,0,0,1-8.328,4.273,12.429,12.429,0,0,1-1.383.069c-2.284,0-6.572-.5-9.632-3.838-2.6-2.835-3.675-7.028-3.2-12.461a1.5,1.5,0,0,1,.96-1.271A39.879,39.879,0,0,1,87.738,43.72Zm8.488,5.043a16.035,16.035,0,0,0-8.488-2.043A37.075,37.075,0,0,0,77,48.538c-.208,4.081.628,7.175,2.49,9.207,2.284,2.493,5.63,2.865,7.421,2.865a9.357,9.357,0,0,0,1.049-.051c.041-.005.067-.008.107-.01a9.687,9.687,0,0,0,6.259-3.213C95.989,55.3,96.626,52.416,96.225,48.762Z" transform="translate(-42.574 -44.613)" fill="#cc7a29"/><path d="M9.788,1.7H9.757L-.03,1.5A1.5,1.5,0,0,1-1.5-.03,1.5,1.5,0,0,1,.03-1.5l9.788.2a1.5,1.5,0,0,1-.03,3Z" transform="translate(22.156 2.67)" fill="#cc7a29"/></g><path d="M21.729,0l112.91,96.8q23.5,7.682,38.995,18.094c2.4,2.427,5.2,7.235-5.2,5.884s-21.408-2.3-23.036,1.184,4.47,8.08,1.3,12.734q-3.166,4.655-26.267-25.552L0,24.879Z" transform="translate(268.546 226.044) rotate(35)" fill="#efc6a1"/><path d="M21.729,135.32l112.91-96.8q23.5-7.682,38.995-18.094c2.4-2.427,5.2-7.235-5.2-5.884s-21.408,2.3-23.036-1.184,4.47-8.08,1.3-12.734q-3.166-4.655-26.266,25.551L0,110.441Z" transform="matrix(-0.819, 0.574, -0.574, -0.819, 209.069, 336.892)" fill="#efc6a1"/><g transform="translate(103.957 182.817)"><path d="M-6268.263-6640.485s-39.32-4-67.708,74.843c34.3,15.008,46.417,29.9,46.417,29.9Z" transform="translate(6335.971 6640.519)" fill="#b2cae7"/><path d="M-6278.9-6640.5s-35.152,37.358-44.408,80.549a114.912,114.912,0,0,1,23.117,17.748Z" transform="translate(6346.603 6646.766)" fill="#313e58" opacity="0.1"/></g><g transform="translate(227.205 182.817)"><path d="M-6335.971-6640.485s39.319-4,67.708,74.843c-34.3,15.008-46.417,29.9-46.417,29.9Z" transform="translate(6335.971 6640.519)" fill="#b2cae7"/><path d="M-6323.3-6640.5s35.152,37.358,44.408,80.549a114.947,114.947,0,0,0-23.117,17.748Z" transform="translate(6323.304 6646.766)" fill="#313e58" opacity="0.1"/></g><path d="M6503.722,6956.531h0l-2.417-.139-59.675-3.479,0-.026c-.149-1.029-1.48-10.519-2.478-26.7a698.359,698.359,0,0,1-.357-73.6c1-22.037,6-41.84,14.856-58.859,7.238-13.914,15.012-23.582,19.142-27.377.694,1.578,4.093,4.258,9.144,5.328a93.49,93.49,0,0,0,18.539,1.67c15.216,0,27.6-2.889,27.6-6.438a1.756,1.756,0,0,0-.274-.911c3.187,2.66,11.438,10.358,19.3,24.278a123.523,123.523,0,0,1,10.866,25.985,154.276,154.276,0,0,1,5.854,36.324,697.06,697.06,0,0,1-.354,73.6c-1.058,17.169-2.469,26.631-2.482,26.725" transform="translate(-6301.215 -6583.355)" fill="#b2cae7"/><path d="M0,1.962C.591,1.342,1.139.8,1.632.349c.7,1.576,4.093,4.257,9.145,5.326A93.217,93.217,0,0,0,29.316,7.349c15.216,0,27.6-2.887,27.6-6.438A1.759,1.759,0,0,0,56.636,0c.541.452,1.229,1.049,2.036,1.8C57.553,7.986,44.838,12.869,29.318,12.869,13.936,12.869,1.31,8.072,0,1.962Z" transform="translate(169.94 182.65)" fill="#e88a2d"/></g></g></svg>