<svg xmlns="http://www.w3.org/2000/svg" xmlns:xlink="http://www.w3.org/1999/xlink" width="400" height="320" viewBox="0 0 400 320"><defs><clipPath id="b"><rect width="400" height="320"/></clipPath></defs><g id="a" clip-path="url(#b)"><rect width="400" height="320" fill="#fff"/><path d="M400.047,223.8s-7.505-19.185-21.678-19.261c-8.258-14.421-19.771-14.449-19.771-14.449-6.846-12.912-18.825-13.283-18.825-13.283s-6.332-9.51-15.316-9.789c-1.583-3.658-5.689-9.757-9.042-11.721-3.568-2.092-10.641-2.162-10.641-2.162L400.047,279Z" transform="translate(0 8.49)" fill="#bfe2e2"/><path d="M327.892,204.6c-2.821-20.79-16-22.687-16-22.687s4.419-15.328-8.445-18.569c.509-5.856-7.017-8.57-8.153-11.044H289.31c24.181,69.23,39.272,137.342,46.189,158.61l1.2-81.96,12.152-1.678S343.6,211.1,327.892,204.6" transform="translate(0 8.49)" fill="#bfe2e2"/><path d="M270.731,168.412c-16.377,7.318-12.355,15.918-12.355,15.918s-7.779,1.288-6.178,18.192c-12.356,2.274-17.923,25.265-17.923,25.265l4.656,1.164.415,81.832h4.933l38.807-158.289H280s-13.289,2.77-9.267,15.918" transform="translate(0 8.49)" fill="#bfe2e2"/><path d="M252.453,155.184A27.641,27.641,0,0,0,234.7,169.7c-11.837,0-13.317,12.1-13.317,12.1s-13.316,0-14.8,12.1c-13.316-2.42-23.673,12.1-23.673,12.1s-22.194-2.419-26.633,14.517c-16.276-2.419-28.5,9.437-28.5,9.437l-.6,79.49s63.44-72.325,132.981-154.589Z" transform="translate(0 8.49)" fill="#bfe2e2"/><path d="M228,159.3s-17.716,4.945-26.556,17.1c-14.814-2.63-25.717,7.9-25.717,7.9s-15.727.649-25.4,11.718c0,0-17.643,2.644-24.712,10.494-10.579-2.594-15.879,2.66-15.879,2.66S79.366,202.514,70.5,221.136c-27.49-2.217-31.592,7.981-31.592,7.981S19.2,220.1,6.186,227.656c2.181-.32,3.577,1.9,4.387,5.847,1.149,21.22-.6,76.671-.6,76.671l92.31-60.727.3-19.5,9.81-3.492,12.969,1.164,116.5-70Z" transform="translate(0 8.49)" fill="#bfe2e2"/><path d="M348.178,135.933h9.658c13.923,0,25.21-8.465,25.21-18.907,0-9.16-8.686-16.795-20.216-18.534-.5-10.027-9.3-18.021-20.12-18.021-11.138,0-20.168,8.465-20.168,18.908,0,.107.016.21.017.317-8.909,2.915-15.143,9.573-15.143,17.33,0,10.442,11.287,18.907,25.21,18.907H339.5" transform="translate(0 8.49)" fill="#bfe2e2"/><path d="M198.416,165.6l-24.211,3.414s-18.707.975-29.717,9.964c-9.392-2.145-17.243,5.045-17.243,5.045s-18.514-4.216-24.776,4.361c0,0-10.235-3.782-16.976,2.489C67.966,189.411,56.4,195.2,56.4,195.2s-23.242-3.715-30.432,6.318C13.035,196.532,3.121,199.291,0,200.431v25.528c47.684-17.273,118.376-31.173,198.416-60.358" transform="translate(0 8.49)" fill="#bfe2e2"/><path d="M137.113,173.675s-21.857-2.088-32.893,1.57c-8.99-3.448-18.058,1.663-18.058,1.663-4.9-1.66-16.23-4.75-22.072,3.991,0,0-12.546-5.408-20.066.332-17.123-3.765-28.091,3.658-28.091,3.658S7.023,182.3,0,182.505v13.707Z" transform="translate(0 8.49)" fill="#bfe2e2"/><path d="M86.831,168.594s-6.688-3.658-25.249-1.995c-11.792-4.4-24.413-1.5-24.413-1.5s-16.789-4.657-29.429,1A24.779,24.779,0,0,0,0,163.561v14.061Z" transform="translate(0 8.49)" fill="#bfe2e2"/><path d="M19.783-1.25A21.027,21.027,0,0,1,34.656,34.656,21.033,21.033,0,1,1,11.6.4,20.9,20.9,0,0,1,19.783-1.25Zm0,39.566a18.533,18.533,0,0,0,13.1-31.638,18.533,18.533,0,0,0-26.21,26.21A18.412,18.412,0,0,0,19.783,38.316Z" transform="translate(220.854 54.137) rotate(-67.5)" fill="#5fa2a2"/><path d="M0,10.211a1.25,1.25,0,0,1-1.25-1.25V0A1.25,1.25,0,0,1,0-1.25,1.25,1.25,0,0,1,1.25,0V8.961A1.25,1.25,0,0,1,0,10.211Z" transform="translate(246.701 9.74)" fill="#5fa2a2"/><path d="M0,10.211a1.25,1.25,0,0,1-1.25-1.25V0A1.25,1.25,0,0,1,0-1.25,1.25,1.25,0,0,1,1.25,0V8.961A1.25,1.25,0,0,1,0,10.211Z" transform="translate(246.701 69.133)" fill="#5fa2a2"/><path d="M6.337,7.587a1.246,1.246,0,0,1-.884-.366L-.884.884a1.25,1.25,0,0,1,0-1.768,1.25,1.25,0,0,1,1.768,0L7.221,5.453a1.25,1.25,0,0,1-.884,2.134Z" transform="translate(222.534 19.75)" fill="#5fa2a2"/><path d="M6.337,7.587a1.246,1.246,0,0,1-.884-.366L-.884.884a1.25,1.25,0,0,1,0-1.768,1.25,1.25,0,0,1,1.768,0L7.221,5.453a1.25,1.25,0,0,1-.884,2.134Z" transform="translate(264.531 61.748)" fill="#5fa2a2"/><path d="M8.961,1.282h0L0,1.25A1.25,1.25,0,0,1-1.25,0,1.25,1.25,0,0,1,0-1.25l8.961.032a1.25,1.25,0,0,1,0,2.5Z" transform="translate(271.917 44.004)" fill="#5fa2a2"/><path d="M8.961,1.282h0L0,1.25A1.25,1.25,0,0,1-1.25,0,1.25,1.25,0,0,1,0-1.25l8.961.032a1.25,1.25,0,0,1,0,2.5Z" transform="translate(212.524 43.798)" fill="#5fa2a2"/><path d="M0,7.565A1.246,1.246,0,0,1-.887,7.2,1.25,1.25,0,0,1-.881,5.428L5.478-.887a1.25,1.25,0,0,1,1.768.006A1.25,1.25,0,0,1,7.24.887L.881,7.2A1.246,1.246,0,0,1,0,7.565Z" transform="translate(264.593 19.834)" fill="#5fa2a2"/><path d="M0,7.565A1.246,1.246,0,0,1-.887,7.2,1.25,1.25,0,0,1-.881,5.428L5.478-.887a1.25,1.25,0,0,1,1.768.006A1.25,1.25,0,0,1,7.24.887L.881,7.2A1.246,1.246,0,0,1,0,7.565Z" transform="translate(222.451 61.686)" fill="#5fa2a2"/><path d="M0,9.543A1.246,1.246,0,0,1-.473,9.45a1.25,1.25,0,0,1-.683-1.63L2.237-.473a1.25,1.25,0,0,1,1.63-.683A1.25,1.25,0,0,1,4.551.473L1.157,8.766A1.25,1.25,0,0,1,0,9.543Z" transform="translate(256.252 12.286)" fill="#5fa2a2"/><path d="M0,9.543A1.246,1.246,0,0,1-.473,9.45a1.25,1.25,0,0,1-.683-1.63L2.237-.473a1.25,1.25,0,0,1,1.63-.683A1.25,1.25,0,0,1,4.551.473L1.157,8.766A1.25,1.25,0,0,1,0,9.543Z" transform="translate(233.757 67.255)" fill="#5fa2a2"/><path d="M3.465,9.515a1.25,1.25,0,0,1-1.153-.767L-1.153.483a1.25,1.25,0,0,1,.67-1.636,1.25,1.25,0,0,1,1.636.67L4.617,7.782A1.251,1.251,0,0,1,3.465,9.515Z" transform="translate(233.488 12.397)" fill="#5fa2a2"/><path d="M3.465,9.515a1.25,1.25,0,0,1-1.153-.767L-1.153.483a1.25,1.25,0,0,1,.67-1.636,1.25,1.25,0,0,1,1.636.67L4.617,7.782A1.251,1.251,0,0,1,3.465,9.515Z" transform="translate(256.45 67.172)" fill="#5fa2a2"/><path d="M8.281,4.673a1.246,1.246,0,0,1-.477-.1L-.478,1.155A1.25,1.25,0,0,1-1.155-.478,1.25,1.25,0,0,1,.478-1.155L8.759,2.268a1.25,1.25,0,0,1-.478,2.406Z" transform="translate(270.006 53.548)" fill="#5fa2a2"/><path d="M8.281,4.673a1.246,1.246,0,0,1-.477-.1L-.478,1.155A1.25,1.25,0,0,1-1.155-.478,1.25,1.25,0,0,1,.478-1.155L8.759,2.268a1.25,1.25,0,0,1-.478,2.406Z" transform="translate(215.115 30.863)" fill="#5fa2a2"/><path d="M0,4.686a1.25,1.25,0,0,1-1.155-.771A1.25,1.25,0,0,1-.479,2.282L7.8-1.154A1.25,1.25,0,0,1,9.43-.479a1.25,1.25,0,0,1-.675,1.634L.479,4.59A1.246,1.246,0,0,1,0,4.686Z" transform="translate(269.991 30.813)" fill="#5fa2a2"/><path d="M0,4.686a1.25,1.25,0,0,1-1.155-.771A1.25,1.25,0,0,1-.479,2.282L7.8-1.154A1.25,1.25,0,0,1,9.43-.479a1.25,1.25,0,0,1-.675,1.634L.479,4.59A1.246,1.246,0,0,1,0,4.686Z" transform="translate(215.136 53.586)" fill="#5fa2a2"/><path d="M251.649,133.608a1.246,1.246,0,0,1-.475-.094c-.071-.029-7.247-2.97-19.87-7.225-11.649-3.927-30.453-9.809-53.876-15.527A699.64,699.64,0,0,0,98.148,96.15a619.21,619.21,0,0,0-76.224-4.838q-10.014,0-19.849.353a1.25,1.25,0,0,1-.09-2.5q9.875-.354,19.938-.354a621.667,621.667,0,0,1,76.568,4.861,702.17,702.17,0,0,1,79.582,14.672c23.509,5.742,42.381,11.647,54.074,15.589,12.682,4.276,19.906,7.238,19.978,7.267a1.25,1.25,0,0,1-.476,2.406Z" transform="translate(0 8.49)" fill="#5fa2a2"/><path d="M205.406,110.059a1.25,1.25,0,0,1-.357-2.448c10.674-3.188,24.454-8.811,39.042-14.765,17.639-7.2,37.632-15.358,55.6-20.56,7.552-2.187,17.454-3,29.429-2.423a248.951,248.951,0,0,1,32.294,3.977c20.244,3.7,36.724,8.63,36.888,8.68a1.25,1.25,0,0,1-.72,2.394c-.163-.049-16.532-4.94-36.644-8.619a246.373,246.373,0,0,0-31.953-3.935c-11.693-.565-21.315.219-28.6,2.328-17.839,5.166-37.767,13.3-55.349,20.474-14.646,5.977-28.48,11.623-39.271,14.845A1.251,1.251,0,0,1,205.406,110.059Z" transform="translate(0 8.49)" fill="#5fa2a2"/><path d="M347.956,225.763h.128a37.023,37.023,0,0,1,7.663.758,10.115,10.115,0,0,1,4.915,2.142,2.538,2.538,0,0,1,.813,1.822,2.854,2.854,0,0,1-1.508,2.358,10.514,10.514,0,0,1-2.937,1.242,34.149,34.149,0,0,1-8.861,1.038h-.128a37.033,37.033,0,0,1-7.664-.758,10.114,10.114,0,0,1-4.915-2.142,2.537,2.537,0,0,1-.813-1.821,2.855,2.855,0,0,1,1.509-2.359,10.517,10.517,0,0,1,2.937-1.242A34.138,34.138,0,0,1,347.956,225.763Zm10.98,4.709a6.611,6.611,0,0,0-3.1-1.362,33.333,33.333,0,0,0-7.756-.847h-.121a33.122,33.122,0,0,0-7.691.815,6.566,6.566,0,0,0-3.076,1.337,6.621,6.621,0,0,0,3.1,1.362,33.348,33.348,0,0,0,7.756.846h.121a33.14,33.14,0,0,0,7.69-.814A6.564,6.564,0,0,0,358.936,230.472Z" transform="translate(0 8.49)" fill="#5fa2a2"/><path d="M0,78.885H0a1.25,1.25,0,0,1-1.25-1.25L-1.223,0A1.25,1.25,0,0,1,.027-1.25,1.25,1.25,0,0,1,1.277,0L1.25,77.635A1.25,1.25,0,0,1,0,78.885Z" transform="translate(335.506 240.236)" fill="#5fa2a2"/><path d="M0,78.885H0a1.25,1.25,0,0,1-1.25-1.25L-1.223,0A1.25,1.25,0,0,1,.027-1.25,1.25,1.25,0,0,1,1.277,0L1.25,77.635A1.25,1.25,0,0,1,0,78.885Z" transform="translate(360.216 240.238)" fill="#5fa2a2"/><path d="M1.308,235.019a1.25,1.25,0,0,1-.092-2.5,23.972,23.972,0,0,0,5.529-.98,4.405,4.405,0,0,0,2.032-1.071,4.414,4.414,0,0,0-2.034-1.084A24.025,24.025,0,0,0,1.2,228.38a1.25,1.25,0,1,1,.2-2.492,25.036,25.036,0,0,1,6.618,1.3,7.59,7.59,0,0,1,2.191,1.193,2.535,2.535,0,0,1-.015,4.192A7.6,7.6,0,0,1,8,233.751a25,25,0,0,1-6.6,1.265Q1.355,235.019,1.308,235.019Z" transform="translate(0 8.49)" fill="#5fa2a2"/><path d="M0,79.093H0A1.25,1.25,0,0,1-1.25,77.842L-1.217,0A1.25,1.25,0,0,1,.034-1.25,1.25,1.25,0,0,1,1.283,0L1.25,77.844A1.25,1.25,0,0,1,0,79.093Z" transform="translate(10.045 240.238)" fill="#5fa2a2"/><path d="M227.491,225.763h.128a37.023,37.023,0,0,1,7.663.758,10.115,10.115,0,0,1,4.915,2.142,2.538,2.538,0,0,1,.813,1.822,2.854,2.854,0,0,1-1.508,2.358,10.513,10.513,0,0,1-2.937,1.242,34.149,34.149,0,0,1-8.861,1.038h-.128a37.033,37.033,0,0,1-7.664-.758A10.114,10.114,0,0,1,215,232.223a2.537,2.537,0,0,1-.813-1.821,2.855,2.855,0,0,1,1.509-2.358,10.517,10.517,0,0,1,2.937-1.242A34.138,34.138,0,0,1,227.491,225.763Zm10.98,4.709a6.611,6.611,0,0,0-3.1-1.362,33.334,33.334,0,0,0-7.756-.847h-.121a33.122,33.122,0,0,0-7.691.815,6.566,6.566,0,0,0-3.076,1.337,6.621,6.621,0,0,0,3.1,1.362,33.348,33.348,0,0,0,7.756.846h.121a33.14,33.14,0,0,0,7.69-.814A6.564,6.564,0,0,0,238.471,230.472Z" transform="translate(0 8.49)" fill="#5fa2a2"/><path d="M0,79.564a1.25,1.25,0,0,1-1.25-1.25V0A1.25,1.25,0,0,1,0-1.25,1.25,1.25,0,0,1,1.25,0V78.314A1.25,1.25,0,0,1,0,79.564Z" transform="translate(239.765 239.535)" fill="#5fa2a2"/><path d="M0,79.805H0a1.25,1.25,0,0,1-1.25-1.25L-1.22,0A1.25,1.25,0,0,1,.03-1.25,1.25,1.25,0,0,1,1.28,0L1.25,78.555A1.25,1.25,0,0,1,0,79.805Z" transform="translate(215.037 240.195)" fill="#5fa2a2"/><path d="M115.314,225.763h.128a37.022,37.022,0,0,1,7.663.758,10.114,10.114,0,0,1,4.915,2.142,2.538,2.538,0,0,1,.813,1.822,2.854,2.854,0,0,1-1.508,2.358,10.513,10.513,0,0,1-2.937,1.242,34.149,34.149,0,0,1-8.861,1.038H115.4a37.033,37.033,0,0,1-7.664-.758,10.114,10.114,0,0,1-4.915-2.142,2.537,2.537,0,0,1-.813-1.821,2.855,2.855,0,0,1,1.509-2.358,10.517,10.517,0,0,1,2.937-1.242A34.138,34.138,0,0,1,115.314,225.763Zm10.98,4.709a6.611,6.611,0,0,0-3.1-1.362,33.333,33.333,0,0,0-7.756-.847h-.121a33.122,33.122,0,0,0-7.691.815,6.566,6.566,0,0,0-3.076,1.337,6.621,6.621,0,0,0,3.1,1.362,33.348,33.348,0,0,0,7.756.846h.121a33.14,33.14,0,0,0,7.69-.814A6.564,6.564,0,0,0,126.294,230.472Z" transform="translate(0 8.49)" fill="#5fa2a2"/><path d="M0,79.643H-.007A1.25,1.25,0,0,1-1.25,78.386L-.84-.007A1.25,1.25,0,0,1,.417-1.25,1.25,1.25,0,0,1,1.66.007L1.25,78.4A1.25,1.25,0,0,1,0,79.643Z" transform="translate(127.177 239.535)" fill="#5fa2a2"/><path d="M0,78.941H0a1.25,1.25,0,0,1-1.25-1.25L-1.223,0A1.25,1.25,0,0,1,.027-1.25,1.25,1.25,0,0,1,1.277,0L1.25,77.691A1.25,1.25,0,0,1,0,78.941Z" transform="translate(102.863 240.181)" fill="#5fa2a2"/><path d="M400.159,181.04q-.055,0-.111,0c-6.348-.56-14.741-2.558-24.947-5.938-7.4-2.452-13.119-4.781-13.427-4.907a302.587,302.587,0,0,0-30.932-9.622,239.915,239.915,0,0,0-29.046-5.65,121.982,121.982,0,0,0-29.469-.566c-12.086,1.475-28.423,4.349-45.718,7.391-17.812,3.133-38,6.684-56.489,9.206-17.7,2.414-31.76,3.6-42.717,3.6q-3.243,0-6.125-.138c-.808.01-4.089-.232-17.338-2.4-14.343-2.352-43.812-7.554-102.747-18.98a1.25,1.25,0,1,1,.476-2.454c109.245,21.18,119.079,21.35,119.551,21.342a1.249,1.249,0,0,1,.148,0c11.525.555,27.361-.571,48.415-3.443,18.441-2.516,38.6-6.062,56.394-9.191,17.329-3.048,33.7-5.927,45.849-7.41a124.468,124.468,0,0,1,30.1.569,242.488,242.488,0,0,1,29.364,5.714,304.685,304.685,0,0,1,31.2,9.71l.023.009c.057.023,5.8,2.375,13.293,4.857,9.873,3.269,18.3,5.28,24.363,5.815a1.25,1.25,0,0,1-.108,2.5Z" transform="translate(0 8.49)" fill="#5fa2a2"/><path d="M340.079,161.974h-.015a1.25,1.25,0,0,1-1.236-1.264c0-.1.111-9.8.111-22.256a13.7,13.7,0,0,0-1.8-7.047,13.559,13.559,0,0,0-3.972-4.218,17.377,17.377,0,0,0-5.831-2.634,1.25,1.25,0,1,1,.49-2.451,19.8,19.8,0,0,1,6.774,3.038,15.558,15.558,0,0,1,6.836,13.314c0,12.468-.11,22.188-.111,22.284A1.25,1.25,0,0,1,340.079,161.974Z" transform="translate(0 8.49)" fill="#5fa2a2"/><path d="M348.28,164.413a1.25,1.25,0,0,1-1.249-1.209c0-.12-.4-12.169-.4-24.65a15.558,15.558,0,0,1,6.836-13.314,19.8,19.8,0,0,1,6.774-3.038,1.25,1.25,0,0,1,.491,2.451,17.592,17.592,0,0,0-5.9,2.684,13.518,13.518,0,0,0-3.928,4.213,13.716,13.716,0,0,0-1.771,7c0,12.44.391,24.448.4,24.568a1.25,1.25,0,0,1-1.208,1.291Z" transform="translate(0 8.49)" fill="#5fa2a2"/><path d="M347.369,122.742a1.25,1.25,0,0,1-.884-2.134c2.634-2.634,7.675-5.169,7.888-5.276a1.25,1.25,0,1,1,1.118,2.236c-.061.03-4.9,2.465-7.238,4.808A1.246,1.246,0,0,1,347.369,122.742Z" transform="translate(0 8.49)" fill="#5fa2a2"/><rect width="401.408" height="311.51" transform="translate(0 8.49)" fill="none"/><g transform="translate(-46 -19)"><path d="M0,78.117l8.841-41.21C3.911,31.12.573,24.026,1.131,16.079c1.607-22.9,33.486-17.863,39.686-6.3s5.465,40.877-2.549,42.943c-3.2.824-10-1.194-16.935-5.371l4.35,30.772Z" transform="translate(188.713 68.256)" fill="#b28b67"/><path d="M29.864,13.431c-3.62,1.912-6.148,5.625-9.206,10.533a6.422,6.422,0,0,0-6.834,10.571c-1.486,2.1-3.151,4.288-5.059,6.548C1.6,36.783-3.72,24.194,3.287,12.1c1.937-5.924,6.322-9.088,11.5-10.558a18.627,18.627,0,0,1,12.226-.9c7.206.618,13.641,2.815,15.464,4.12,0,6.822-1.322,8.846-12.613,8.668Z" transform="translate(188.593 66.137)" fill="#313e58"/><path d="M6098.877,7341.1v0h-45.589c-15.06-62.214-26.41-110.694-33.737-144.1h58.738c2.714,9.056,5.193,18.732,7.37,28.762,2.266,10.439,4.281,21.617,5.99,33.223,1.77,12.014,3.269,24.884,4.457,38.254,1.226,13.793,2.158,28.55,2.771,43.858Z" transform="translate(-5846.133 -6955.367)" fill="#7a8293"/><path d="M6099.4,7341.6h-46.5l-.092-.382c-15.059-62.211-26.411-110.7-33.74-144.107l-.133-.607h59.731l.107.356c2.716,9.06,5.2,18.75,7.38,28.8,2.267,10.446,4.284,21.635,6,33.256,1.77,12.014,3.271,24.895,4.46,38.282,1.226,13.8,2.159,28.562,2.772,43.883Zm-45.716-1h44.675c-.613-15.119-1.538-29.69-2.749-43.314-1.188-13.369-2.687-26.23-4.454-38.226-1.708-11.6-3.722-22.765-5.984-33.189-2.147-9.893-4.587-19.435-7.254-28.368h-57.744C6027.489,7230.815,6038.762,7278.955,6053.682,7340.6Z" transform="translate(-5846.133 -6955.367)" fill="rgba(0,0,0,0)"/><path d="M6042.715,7341.1h-43.777a724.6,724.6,0,0,0,8.267-73.521c1.407-23.329,1.642-46.414.72-70.576h72.442c-4.792,26.231-10.214,50.762-16.575,75-6.184,23.56-13.078,46.162-21.077,69.1Z" transform="translate(-5851.419 -6955.367)" fill="#acb1bc"/><path d="M6043.07,7341.6h-44.72l.094-.581a724.03,724.03,0,0,0,8.261-73.47c1.406-23.312,1.641-46.381.719-70.527l-.02-.519h73.562l-.108.59c-4.793,26.238-10.217,50.782-16.583,75.032-6.185,23.566-13.083,46.182-21.088,69.139Zm-43.544-1h42.834c7.947-22.817,14.8-45.3,20.949-68.729,6.311-24.044,11.7-48.377,16.458-74.368h-71.323c.9,23.991.657,46.928-.74,70.106A724.685,724.685,0,0,1,5999.526,7340.6Z" transform="translate(-5851.419 -6955.367)" fill="rgba(0,0,0,0)"/><path d="M8.512,0,41.288,26.818A91.883,91.883,0,0,1,63.972,37.344c1.4,1.412,3.024,4.209-3.028,3.423s-12.454-1.34-13.4.689,2.6,4.7.759,7.408Q46.461,51.571,33.022,34L0,18.232Z" transform="matrix(0.996, 0.087, -0.087, 0.996, 265.172, 216.411)" fill="#b28b67"/><path d="M54.408,0S31.071,58.43,26.681,64c-2.146,2.723-15.209,9.607-24.033,13.251C-.894,78.714-.191,81.7.823,82.667c8.251,7.878,15.976,2.278,25.009.2,9.9-2.275,6.621,9.393,14.438,7.716-1.148-5.379-4.33-15.61-.632-21.1C42.1,65.829,76.264,4.735,76.264,4.735Z" transform="matrix(0.978, -0.208, 0.208, 0.978, 85.88, 232.635)" fill="#b28b67"/><path d="M0,2.388,9.08,0q29.009,57.386,92.58,100.8L85.34,124.581l-11.839-1.6C15.319,94.048,2.837,51.577,0,2.388Z" transform="matrix(0.996, 0.087, -0.087, 0.996, 202.858, 125.109)" fill="#629d62"/><path d="M0,121.992H82.4S53.764,52.369,53.764,3.7L28.908,0C9.374,31.417,3.858,70.1,0,121.992Z" transform="translate(162.313 121.782)" fill="#e4e6ea"/><path d="M0,144.043H73.837S63.66,48.915,62.707,17.525L56.7.361S50.742.1,47.83,0H46.208C28.7,31.417,3.457,92.147,0,144.043Z" transform="translate(144.496 121.782)" fill="#629d62"/><path d="M65.816,0S9.011,55.641,0,157.306H29.5c6.628-7.633,9.716-13.936,10.076-11.743C37.338,65.938,72.767,6.179,72.767,6.179Z" transform="translate(124.859 121.782)" fill="#629d62"/><path d="M12.306,0s.281,63.282,12.306,83.468H0Z" transform="translate(154.821 182.777)" fill="rgba(0,0,0,0.1)"/><path d="M65.816,0S9.011,55.641,0,157.306H28.936c3.685-4.848,6.212-6.344,10.616-12.718C37.634,65.438,72.767,6.179,72.767,6.179Z" transform="translate(124.859 121.781)" fill="#629d62"/><path d="M3.755,0s1.474,20.544,7.8,20.544,11.7-4.017,14.472-4.017c2.024,0,1.572,2.533.23,4.41-1.107,1.549-6.5,3.042-6.5,5.444s4.258.544,4.258,1.968c0,1.27,2.936,17.3,2.008,28.981-.753,9.474-2.96,13.359-5.251,15.791C13.455,69.207,7.309,66.5,3.755,55.074c-2.971-9.553-2.744-24.8-3.7-27.68-2.034-6.143,0-25.8,0-25.8Z" transform="translate(207.574 86.861)" fill="#313e58"/></g></g></svg>