<svg xmlns="http://www.w3.org/2000/svg" xmlns:xlink="http://www.w3.org/1999/xlink" width="400" height="320" viewBox="0 0 400 320"><defs><clipPath id="b"><rect width="400" height="320"/></clipPath></defs><g id="a" clip-path="url(#b)"><rect width="400" height="320" fill="#fff"/><path d="M400.047,223.8s-7.505-19.185-21.678-19.261c-8.258-14.421-19.771-14.449-19.771-14.449-6.846-12.912-18.825-13.283-18.825-13.283s-6.332-9.51-15.316-9.789c-1.583-3.658-5.689-9.757-9.042-11.721-3.568-2.092-10.641-2.162-10.641-2.162L400.047,279Z" transform="translate(0 8.49)" fill="#bfe2e2"/><path d="M327.892,204.6c-2.821-20.79-16-22.687-16-22.687s4.419-15.328-8.445-18.569c.509-5.856-7.017-8.57-8.153-11.044H289.31c24.181,69.23,39.272,137.342,46.189,158.61l1.2-81.96,12.152-1.678S343.6,211.1,327.892,204.6" transform="translate(0 8.49)" fill="#bfe2e2"/><path d="M270.731,168.412c-16.377,7.318-12.355,15.918-12.355,15.918s-7.779,1.288-6.178,18.192c-12.356,2.274-17.923,25.265-17.923,25.265l4.656,1.164.415,81.832h4.933l38.807-158.289H280s-13.289,2.77-9.267,15.918" transform="translate(0 8.49)" fill="#bfe2e2"/><path d="M252.453,155.184A27.641,27.641,0,0,0,234.7,169.7c-11.837,0-13.317,12.1-13.317,12.1s-13.316,0-14.8,12.1c-13.316-2.42-23.673,12.1-23.673,12.1s-22.194-2.419-26.633,14.517c-16.276-2.419-28.5,9.437-28.5,9.437l-.6,79.49s63.44-72.325,132.981-154.589Z" transform="translate(0 8.49)" fill="#bfe2e2"/><path d="M228,159.3s-17.716,4.945-26.556,17.1c-14.814-2.63-25.717,7.9-25.717,7.9s-15.727.649-25.4,11.718c0,0-17.643,2.644-24.712,10.494-10.579-2.594-15.879,2.66-15.879,2.66S79.366,202.514,70.5,221.136c-27.49-2.217-31.592,7.981-31.592,7.981S19.2,220.1,6.186,227.656c2.181-.32,3.577,1.9,4.387,5.847,1.149,21.22-.6,76.671-.6,76.671l92.31-60.727.3-19.5,9.81-3.492,12.969,1.164,116.5-70Z" transform="translate(0 8.49)" fill="#bfe2e2"/><path d="M348.178,135.933h9.658c13.923,0,25.21-8.465,25.21-18.907,0-9.16-8.686-16.795-20.216-18.534-.5-10.027-9.3-18.021-20.12-18.021-11.138,0-20.168,8.465-20.168,18.908,0,.107.016.21.017.317-8.909,2.915-15.143,9.573-15.143,17.33,0,10.442,11.287,18.907,25.21,18.907H339.5" transform="translate(0 8.49)" fill="#bfe2e2"/><path d="M198.416,165.6l-24.211,3.414s-18.707.975-29.717,9.964c-9.392-2.145-17.243,5.045-17.243,5.045s-18.514-4.216-24.776,4.361c0,0-10.235-3.782-16.976,2.489C67.966,189.411,56.4,195.2,56.4,195.2s-23.242-3.715-30.432,6.318C13.035,196.532,3.121,199.291,0,200.431v25.528c47.684-17.273,118.376-31.173,198.416-60.358" transform="translate(0 8.49)" fill="#bfe2e2"/><path d="M137.113,173.675s-21.857-2.088-32.893,1.57c-8.99-3.448-18.058,1.663-18.058,1.663-4.9-1.66-16.23-4.75-22.072,3.991,0,0-12.546-5.408-20.066.332-17.123-3.765-28.091,3.658-28.091,3.658S7.023,182.3,0,182.505v13.707Z" transform="translate(0 8.49)" fill="#bfe2e2"/><path d="M86.831,168.594s-6.688-3.658-25.249-1.995c-11.792-4.4-24.413-1.5-24.413-1.5s-16.789-4.657-29.429,1A24.779,24.779,0,0,0,0,163.561v14.061Z" transform="translate(0 8.49)" fill="#bfe2e2"/><path d="M19.783-1a20.777,20.777,0,0,1,14.7,35.479A20.783,20.783,0,1,1,11.693.634,20.654,20.654,0,0,1,19.783-1Zm0,39.566a18.788,18.788,0,0,0,7.311-36.09A18.788,18.788,0,0,0,12.472,37.09,18.664,18.664,0,0,0,19.783,38.566Z" transform="translate(220.854 54.137) rotate(-67.5)" fill="#5bb3b3"/><path d="M0,9.961a1,1,0,0,1-1-1V0A1,1,0,0,1,0-1,1,1,0,0,1,1,0V8.961A1,1,0,0,1,0,9.961Z" transform="translate(246.701 9.74)" fill="#5bb3b3"/><path d="M0,9.961a1,1,0,0,1-1-1V0A1,1,0,0,1,0-1,1,1,0,0,1,1,0V8.961A1,1,0,0,1,0,9.961Z" transform="translate(246.701 69.133)" fill="#5bb3b3"/><path d="M6.337,7.337a1,1,0,0,1-.707-.293L-.707.707a1,1,0,0,1,0-1.414,1,1,0,0,1,1.414,0L7.044,5.63a1,1,0,0,1-.707,1.707Z" transform="translate(222.534 19.75)" fill="#5bb3b3"/><path d="M6.337,7.337a1,1,0,0,1-.707-.293L-.707.707a1,1,0,0,1,0-1.414,1,1,0,0,1,1.414,0L7.044,5.63a1,1,0,0,1-.707,1.707Z" transform="translate(264.531 61.748)" fill="#5bb3b3"/><path d="M8.961,1.032h0L0,1A1,1,0,0,1-1,0,1,1,0,0,1,0-1l8.961.032a1,1,0,0,1,0,2Z" transform="translate(271.917 44.004)" fill="#5bb3b3"/><path d="M8.961,1.032h0L0,1A1,1,0,0,1-1,0,1,1,0,0,1,0-1l8.961.032a1,1,0,0,1,0,2Z" transform="translate(212.524 43.798)" fill="#5bb3b3"/><path d="M0,7.315a1,1,0,0,1-.71-.3,1,1,0,0,1,0-1.414L5.654-.71a1,1,0,0,1,1.414,0,1,1,0,0,1,0,1.414L.7,7.025A1,1,0,0,1,0,7.315Z" transform="translate(264.593 19.834)" fill="#5bb3b3"/><path d="M0,7.315a1,1,0,0,1-.71-.3,1,1,0,0,1,0-1.414L5.654-.71a1,1,0,0,1,1.414,0,1,1,0,0,1,0,1.414L.7,7.025A1,1,0,0,1,0,7.315Z" transform="translate(222.451 61.686)" fill="#5bb3b3"/><path d="M0,9.293a1,1,0,0,1-.378-.075,1,1,0,0,1-.547-1.3L2.469-.379a1,1,0,0,1,1.3-.547A1,1,0,0,1,4.32.379L.925,8.672A1,1,0,0,1,0,9.293Z" transform="translate(256.252 12.286)" fill="#5bb3b3"/><path d="M0,9.293a1,1,0,0,1-.378-.075,1,1,0,0,1-.547-1.3L2.469-.379a1,1,0,0,1,1.3-.547A1,1,0,0,1,4.32.379L.925,8.672A1,1,0,0,1,0,9.293Z" transform="translate(233.757 67.255)" fill="#5bb3b3"/><path d="M3.464,9.265a1,1,0,0,1-.923-.614L-.922.387A1,1,0,0,1-.387-.922,1,1,0,0,1,.922-.387L4.386,7.878a1,1,0,0,1-.922,1.387Z" transform="translate(233.488 12.397)" fill="#5bb3b3"/><path d="M3.464,9.265a1,1,0,0,1-.923-.614L-.922.387A1,1,0,0,1-.387-.922,1,1,0,0,1,.922-.387L4.386,7.878a1,1,0,0,1-.922,1.387Z" transform="translate(256.45 67.172)" fill="#5bb3b3"/><path d="M8.281,4.423A1,1,0,0,1,7.9,4.347L-.382.924A1,1,0,0,1-.924-.382,1,1,0,0,1,.382-.924L8.663,2.5a1,1,0,0,1-.382,1.924Z" transform="translate(270.006 53.548)" fill="#5bb3b3"/><path d="M8.281,4.423A1,1,0,0,1,7.9,4.347L-.382.924A1,1,0,0,1-.924-.382,1,1,0,0,1,.382-.924L8.663,2.5a1,1,0,0,1-.382,1.924Z" transform="translate(215.115 30.863)" fill="#5bb3b3"/><path d="M0,4.436a1,1,0,0,1-.924-.617,1,1,0,0,1,.54-1.307L7.893-.924A1,1,0,0,1,9.2-.383,1,1,0,0,1,8.659.924L.383,4.36A1,1,0,0,1,0,4.436Z" transform="translate(269.991 30.813)" fill="#5bb3b3"/><path d="M0,4.436a1,1,0,0,1-.924-.617,1,1,0,0,1,.54-1.307L7.893-.924A1,1,0,0,1,9.2-.383,1,1,0,0,1,8.659.924L.383,4.36A1,1,0,0,1,0,4.436Z" transform="translate(215.136 53.586)" fill="#5bb3b3"/><path d="M251.649,133.358a1,1,0,0,1-.38-.075c-.071-.029-7.249-2.971-19.876-7.228-11.653-3.929-30.463-9.812-53.9-15.534A699.9,699.9,0,0,0,98.186,95.9a619.472,619.472,0,0,0-76.262-4.84q-10.019,0-19.858.353a1,1,0,0,1-.072-2q9.871-.354,19.929-.354A621.42,621.42,0,0,1,98.46,93.922a701.922,701.922,0,0,1,79.553,14.667c23.5,5.739,42.365,11.642,54.053,15.583,12.674,4.274,19.891,7.232,19.963,7.261a1,1,0,0,1-.381,1.925Z" transform="translate(0 8.49)" fill="#5bb3b3"/><path d="M205.407,109.809a1,1,0,0,1-.286-1.958c10.686-3.191,24.471-8.817,39.065-14.773,17.633-7.2,37.619-15.353,55.573-20.552,7.526-2.179,17.4-2.991,29.347-2.413a248.7,248.7,0,0,1,32.261,3.973c20.23,3.7,36.7,8.624,36.861,8.673a1,1,0,0,1-.576,1.915c-.163-.049-16.541-4.943-36.666-8.625A246.638,246.638,0,0,0,329,72.11c-11.722-.566-21.372.22-28.684,2.337-17.852,5.169-37.786,13.3-55.374,20.482-14.64,5.975-28.469,11.618-39.248,14.837A1,1,0,0,1,205.407,109.809Z" transform="translate(0 8.49)" fill="#5bb3b3"/><path d="M347.956,226.013h.128a36.772,36.772,0,0,1,7.61.752,9.9,9.9,0,0,1,4.791,2.074,2.294,2.294,0,0,1,.741,1.644c-.007,1.436-1.441,2.567-4.263,3.361a33.9,33.9,0,0,1-8.794,1.029h-.127a36.781,36.781,0,0,1-7.611-.752,9.9,9.9,0,0,1-4.791-2.073,2.293,2.293,0,0,1-.74-1.643c.008-1.436,1.442-2.567,4.264-3.361A33.886,33.886,0,0,1,347.956,226.013Zm.213,6.86a32.275,32.275,0,0,0,8.126-.92c2.339-.638,2.913-1.342,2.93-1.481-.016-.14-.591-.851-2.952-1.5a32.467,32.467,0,0,0-8.2-.955h-.122a32.257,32.257,0,0,0-8.128.92c-2.339.639-2.913,1.342-2.93,1.482.016.139.594.852,2.956,1.5a32.491,32.491,0,0,0,8.193.954Z" transform="translate(0 8.49)" fill="#5bb3b3"/><path d="M0,78.635H0a1,1,0,0,1-1-1L-.973,0a1,1,0,0,1,1-1,1,1,0,0,1,1,1L1,77.635A1,1,0,0,1,0,78.635Z" transform="translate(335.506 240.236)" fill="#5bb3b3"/><path d="M0,78.635H0a1,1,0,0,1-1-1L-.973,0a1,1,0,0,1,1-1,1,1,0,0,1,1,1L1,77.635A1,1,0,0,1,0,78.635Z" transform="translate(360.216 240.238)" fill="#5bb3b3"/><path d="M1.308,234.769a1,1,0,0,1-.073-2,23.123,23.123,0,0,0,5.987-1.131c1.51-.56,1.839-1.071,1.84-1.168s-.324-.611-1.835-1.179a23.159,23.159,0,0,0-6-1.163,1,1,0,0,1,.158-1.994,24.79,24.79,0,0,1,6.549,1.285,7.348,7.348,0,0,1,2.118,1.151,2.456,2.456,0,0,1,1.013,1.911c-.006,1.241-1.064,2.262-3.145,3.033a24.755,24.755,0,0,1-6.533,1.25Z" transform="translate(0 8.49)" fill="#5bb3b3"/><path d="M0,78.843H0a1,1,0,0,1-1-1L-.967,0a1,1,0,0,1,1-1,1,1,0,0,1,1,1L1,77.843A1,1,0,0,1,0,78.843Z" transform="translate(10.045 240.238)" fill="#5bb3b3"/><path d="M227.491,226.013h.128a36.772,36.772,0,0,1,7.61.752,9.9,9.9,0,0,1,4.791,2.074,2.294,2.294,0,0,1,.741,1.644c-.007,1.436-1.441,2.567-4.263,3.361a33.9,33.9,0,0,1-8.794,1.029h-.127a36.781,36.781,0,0,1-7.611-.752,9.9,9.9,0,0,1-4.791-2.074,2.293,2.293,0,0,1-.74-1.643c.008-1.436,1.442-2.567,4.264-3.361A33.886,33.886,0,0,1,227.491,226.013Zm.213,6.86a32.275,32.275,0,0,0,8.126-.92c2.339-.638,2.913-1.341,2.93-1.481-.016-.14-.591-.851-2.952-1.5a32.467,32.467,0,0,0-8.2-.955h-.122a32.257,32.257,0,0,0-8.128.92c-2.339.639-2.913,1.342-2.93,1.482.016.139.594.852,2.956,1.5a32.491,32.491,0,0,0,8.193.954Z" transform="translate(0 8.49)" fill="#5bb3b3"/><path d="M0,79.314a1,1,0,0,1-1-1V0A1,1,0,0,1,0-1,1,1,0,0,1,1,0V78.314A1,1,0,0,1,0,79.314Z" transform="translate(239.765 239.535)" fill="#5bb3b3"/><path d="M0,79.555H0a1,1,0,0,1-1-1L-.97,0a1,1,0,0,1,1-1,1,1,0,0,1,1,1L1,78.555A1,1,0,0,1,0,79.555Z" transform="translate(215.037 240.195)" fill="#5bb3b3"/><path d="M115.314,226.013h.128a36.772,36.772,0,0,1,7.61.752,9.9,9.9,0,0,1,4.791,2.074,2.294,2.294,0,0,1,.741,1.644c-.007,1.436-1.441,2.567-4.263,3.361a33.9,33.9,0,0,1-8.794,1.029H115.4a36.781,36.781,0,0,1-7.611-.752A9.9,9.9,0,0,1,103,232.047a2.293,2.293,0,0,1-.74-1.643c.008-1.436,1.442-2.567,4.264-3.361A33.886,33.886,0,0,1,115.314,226.013Zm.213,6.86a32.275,32.275,0,0,0,8.126-.92c2.339-.638,2.913-1.341,2.93-1.481-.016-.14-.591-.851-2.952-1.5a32.467,32.467,0,0,0-8.2-.955h-.122a32.257,32.257,0,0,0-8.128.92c-2.339.639-2.913,1.342-2.93,1.482.016.139.594.852,2.956,1.5a32.491,32.491,0,0,0,8.193.954Z" transform="translate(0 8.49)" fill="#5bb3b3"/><path d="M0,79.393H-.005A1,1,0,0,1-1,78.388L-.59-.005A1,1,0,0,1,.415-1,1,1,0,0,1,1.41.005L1,78.4A1,1,0,0,1,0,79.393Z" transform="translate(127.177 239.535)" fill="#5bb3b3"/><path d="M0,78.691H0a1,1,0,0,1-1-1L-.973,0a1,1,0,0,1,1-1,1,1,0,0,1,1,1L1,77.691A1,1,0,0,1,0,78.691Z" transform="translate(102.863 240.181)" fill="#5bb3b3"/><path d="M400.159,180.79q-.044,0-.089,0c-6.329-.558-14.7-2.552-24.89-5.926-7.428-2.46-13.152-4.8-13.414-4.9a302.785,302.785,0,0,0-30.956-9.63,240.172,240.172,0,0,0-29.079-5.657A122.229,122.229,0,0,0,272.2,154.1c-12.092,1.476-28.432,4.35-45.731,7.393-17.81,3.133-38,6.683-56.48,9.2-21.163,2.887-37.121,4.02-48.781,3.463-1.105.037-6.16-.572-17.325-2.4-14.342-2.352-43.808-7.553-102.74-18.979a1,1,0,1,1,.381-1.963c107.547,20.851,118.762,21.347,119.573,21.347h.006a.39.39,0,0,1,.156,0c11.54.556,27.392-.571,48.461-3.445,18.445-2.516,38.611-6.063,56.4-9.193,17.326-3.048,33.691-5.926,45.836-7.408a124.222,124.222,0,0,1,30.04.569,242.254,242.254,0,0,1,29.334,5.708,304.4,304.4,0,0,1,31.17,9.7l.019.007c.057.023,5.8,2.378,13.305,4.862,9.893,3.276,18.338,5.291,24.423,5.828a1,1,0,0,1-.087,2Z" transform="translate(0 8.49)" fill="#5bb3b3"/><path d="M340.079,161.724h-.012a1,1,0,0,1-.988-1.011c0-.1.111-9.8.111-22.259a13.946,13.946,0,0,0-1.831-7.174,13.806,13.806,0,0,0-4.044-4.3,17.66,17.66,0,0,0-5.925-2.675,1,1,0,1,1,.392-1.961,19.527,19.527,0,0,1,6.68,3,15.309,15.309,0,0,1,6.729,13.109c0,12.467-.11,22.185-.111,22.281A1,1,0,0,1,340.079,161.724Z" transform="translate(0 8.49)" fill="#5bb3b3"/><path d="M348.28,164.163a1,1,0,0,1-1-.967c0-.12-.4-12.165-.4-24.642a15.309,15.309,0,0,1,6.729-13.109,19.527,19.527,0,0,1,6.68-3,1,1,0,0,1,.393,1.961,17.826,17.826,0,0,0-5.983,2.715,13.775,13.775,0,0,0-4.009,4.292,13.959,13.959,0,0,0-1.811,7.139c0,12.445.392,24.456.4,24.576a1,1,0,0,1-.966,1.032Z" transform="translate(0 8.49)" fill="#5bb3b3"/><path d="M347.369,122.492a1,1,0,0,1-.707-1.707c2.606-2.606,7.611-5.123,7.823-5.229a1,1,0,1,1,.894,1.789c-.057.029-4.93,2.482-7.3,4.855A1,1,0,0,1,347.369,122.492Z" transform="translate(0 8.49)" fill="#5bb3b3"/><g transform="translate(-46 -19)"><path d="M0,78.117l8.841-41.21C3.911,31.12.573,24.026,1.131,16.079c1.607-22.9,33.486-17.863,39.686-6.3s5.465,40.877-2.549,42.943c-3.2.824-10-1.194-16.935-5.371l4.35,30.772Z" transform="translate(188.713 68.256)" fill="#b28b67"/><path d="M29.864,13.431c-3.62,1.912-6.148,5.625-9.206,10.533a6.422,6.422,0,0,0-6.834,10.571c-1.486,2.1-3.151,4.288-5.059,6.548C1.6,36.783-3.72,24.194,3.287,12.1c1.937-5.924,6.322-9.088,11.5-10.558a18.627,18.627,0,0,1,12.226-.9c7.206.618,13.641,2.815,15.464,4.12,0,6.822-1.322,8.846-12.613,8.668Z" transform="translate(188.593 66.137)" fill="#313e58"/><path d="M6098.877,7341.1v0h-45.589c-15.06-62.214-26.41-110.694-33.737-144.1h58.738c2.714,9.056,5.193,18.732,7.37,28.762,2.266,10.439,4.281,21.617,5.99,33.223,1.77,12.014,3.269,24.884,4.457,38.254,1.226,13.793,2.158,28.55,2.771,43.858Z" transform="translate(-5846.133 -6955.367)" fill="#7a8293"/><path d="M6099.4,7341.6h-46.5l-.092-.382c-15.059-62.211-26.411-110.7-33.74-144.107l-.133-.607h59.731l.107.356c2.716,9.06,5.2,18.75,7.38,28.8,2.267,10.446,4.284,21.635,6,33.256,1.77,12.014,3.271,24.895,4.46,38.282,1.226,13.8,2.159,28.562,2.772,43.883Zm-45.716-1h44.675c-.613-15.119-1.538-29.69-2.749-43.314-1.188-13.369-2.687-26.23-4.454-38.226-1.708-11.6-3.722-22.765-5.984-33.189-2.147-9.893-4.587-19.435-7.254-28.368h-57.744C6027.489,7230.815,6038.762,7278.955,6053.682,7340.6Z" transform="translate(-5846.133 -6955.367)" fill="rgba(0,0,0,0)"/><path d="M6042.715,7341.1h-43.777a724.6,724.6,0,0,0,8.267-73.521c1.407-23.329,1.642-46.414.72-70.576h72.442c-4.792,26.231-10.214,50.762-16.575,75-6.184,23.56-13.078,46.162-21.077,69.1Z" transform="translate(-5851.419 -6955.367)" fill="#acb1bc"/><path d="M6043.07,7341.6h-44.72l.094-.581a724.03,724.03,0,0,0,8.261-73.47c1.406-23.312,1.641-46.381.719-70.527l-.02-.519h73.562l-.108.59c-4.793,26.238-10.217,50.782-16.583,75.032-6.185,23.566-13.083,46.182-21.088,69.139Zm-43.544-1h42.834c7.947-22.817,14.8-45.3,20.949-68.729,6.311-24.044,11.7-48.377,16.458-74.368h-71.323c.9,23.991.657,46.928-.74,70.106A724.685,724.685,0,0,1,5999.526,7340.6Z" transform="translate(-5851.419 -6955.367)" fill="rgba(0,0,0,0)"/><path d="M8.512,0,41.288,26.818A91.883,91.883,0,0,1,63.972,37.344c1.4,1.412,3.024,4.209-3.028,3.423s-12.454-1.34-13.4.689,2.6,4.7.759,7.408Q46.461,51.571,33.022,34L0,18.232Z" transform="matrix(0.996, 0.087, -0.087, 0.996, 265.172, 216.411)" fill="#b28b67"/><path d="M54.408,0S31.071,58.43,26.681,64c-2.146,2.723-15.209,9.607-24.033,13.251C-.894,78.714-.191,81.7.823,82.667c8.251,7.878,15.976,2.278,25.009.2,9.9-2.275,6.621,9.393,14.438,7.716-1.148-5.379-4.33-15.61-.632-21.1C42.1,65.829,76.264,4.735,76.264,4.735Z" transform="matrix(0.978, -0.208, 0.208, 0.978, 85.88, 232.635)" fill="#b28b67"/><path d="M0,2.388,9.08,0q29.009,57.386,92.58,100.8L85.34,124.581l-11.839-1.6C15.319,94.048,2.837,51.577,0,2.388Z" transform="matrix(0.996, 0.087, -0.087, 0.996, 202.858, 125.109)" fill="#629d62"/><path d="M0,121.992H82.4S53.764,52.369,53.764,3.7L28.908,0C9.374,31.417,3.858,70.1,0,121.992Z" transform="translate(162.313 121.782)" fill="#e4e6ea"/><path d="M0,144.043H73.837S63.66,48.915,62.707,17.525L56.7.361S50.742.1,47.83,0H46.208C28.7,31.417,3.457,92.147,0,144.043Z" transform="translate(144.496 121.782)" fill="#629d62"/><path d="M65.816,0S9.011,55.641,0,157.306H29.5c6.628-7.633,9.716-13.936,10.076-11.743C37.338,65.938,72.767,6.179,72.767,6.179Z" transform="translate(124.859 121.782)" fill="#629d62"/><path d="M12.306,0s.281,63.282,12.306,83.468H0Z" transform="translate(154.821 182.777)" fill="rgba(0,0,0,0.1)"/><path d="M65.816,0S9.011,55.641,0,157.306H28.936c3.685-4.848,6.212-6.344,10.616-12.718C37.634,65.438,72.767,6.179,72.767,6.179Z" transform="translate(124.859 121.781)" fill="#629d62"/><path d="M3.755,0s1.474,20.544,7.8,20.544,11.7-4.017,14.472-4.017c2.024,0,1.572,2.533.23,4.41-1.107,1.549-6.5,3.042-6.5,5.444s4.258.544,4.258,1.968c0,1.27,2.936,17.3,2.008,28.981-.753,9.474-2.96,13.359-5.251,15.791C13.455,69.207,7.309,66.5,3.755,55.074c-2.971-9.553-2.744-24.8-3.7-27.68-2.034-6.143,0-25.8,0-25.8Z" transform="translate(207.574 86.861)" fill="#313e58"/></g></g></svg>